G04 Layer: TopSilkLayer*
G04 EasyEDA v6.4.7, 2020-11-10T21:56:29+01:00*
G04 d56d7f5836d14aafa71abd029e92fcd7,d798ca008b2c48fc9d28453cf4f639a5,10*
G04 Gerber Generator version 0.2*
G04 Scale: 100 percent, Rotated: No, Reflected: No *
G04 Dimensions in millimeters *
G04 leading zeros omitted , absolute positions ,3 integer and 3 decimal *
%FSLAX33Y33*%
%MOMM*%
G90*
D02*

%ADD10C,0.254000*%
%ADD26C,0.203200*%
%ADD27C,0.127000*%
%ADD28C,0.152400*%

%LPD*%
G54D10*
G01X11463Y28511D02*
G01X11463Y28411D01*
G01X10872Y27821D01*
G01X3513Y28531D02*
G01X3513Y28411D01*
G01X4103Y27821D01*
G01X4103Y27821D02*
G01X10872Y27821D01*
G01X3493Y28531D02*
G01X11492Y28531D01*
G01X11492Y22771D02*
G01X10730Y22771D01*
G01X4234Y22771D02*
G01X3493Y22771D01*
G01X3493Y22771D02*
G01X3493Y24556D01*
G01X3493Y27026D02*
G01X3493Y28503D01*
G01X11492Y22771D02*
G01X11492Y24556D01*
G01X11492Y27026D02*
G01X11492Y28511D01*
G01X16789Y11391D02*
G01X16789Y12992D01*
G01X14939Y12986D02*
G01X13689Y12986D01*
G01X14939Y11386D02*
G01X13689Y11386D01*
G01X15539Y12992D02*
G01X16789Y12992D01*
G01X15539Y11391D02*
G01X16789Y11391D01*
G01X13689Y11386D02*
G01X13689Y12986D01*
G01X18761Y13970D02*
G01X17561Y13970D01*
G01X18961Y16020D02*
G01X18961Y17020D01*
G01X17360Y16020D02*
G01X17360Y17020D01*
G01X18961Y15220D02*
G01X18961Y14221D01*
G01X17360Y15220D02*
G01X17360Y14221D01*
G01X18761Y17271D02*
G01X17561Y17271D01*
G01X18961Y17071D02*
G01X18961Y17020D01*
G01X17360Y17070D02*
G01X17360Y17020D01*
G01X18961Y14170D02*
G01X18961Y14221D01*
G01X17360Y14171D02*
G01X17360Y14221D01*
G54D27*
G01X22817Y15429D02*
G01X22817Y16829D01*
G01X20617Y15429D02*
G01X20617Y16829D01*
G01X20617Y16829D02*
G01X20699Y16829D01*
G01X22734Y16829D02*
G01X22817Y16829D01*
G01X20617Y15429D02*
G01X20699Y15429D01*
G01X22734Y15429D02*
G01X22817Y15429D01*
G54D10*
G01X24536Y3632D02*
G01X18694Y3632D01*
G01X18694Y3632D02*
G01X18694Y8128D01*
G01X18694Y8128D02*
G01X24536Y8128D01*
G01X24536Y8128D02*
G01X24536Y3632D01*
G01X13589Y13623D02*
G01X13589Y14823D01*
G01X15639Y13423D02*
G01X16639Y13423D01*
G01X15639Y15024D02*
G01X16639Y15024D01*
G01X14839Y13423D02*
G01X13840Y13423D01*
G01X14839Y15024D02*
G01X13840Y15024D01*
G01X16890Y13623D02*
G01X16890Y14823D01*
G01X16690Y13423D02*
G01X16639Y13423D01*
G01X16689Y15024D02*
G01X16639Y15024D01*
G01X13789Y13423D02*
G01X13840Y13423D01*
G01X13790Y15024D02*
G01X13840Y15024D01*
G01X11918Y25002D02*
G01X11918Y19701D01*
G01X22117Y19701D02*
G01X22117Y21590D01*
G01X22117Y25002D02*
G01X22117Y23114D01*
G01X22117Y19701D02*
G01X21676Y19701D01*
G01X12359Y19701D02*
G01X11918Y19701D01*
G01X11918Y25002D02*
G01X12359Y25002D01*
G01X21676Y25002D02*
G01X22117Y25002D01*
G01X20255Y13267D02*
G01X20255Y12640D01*
G01X21654Y14453D02*
G01X21654Y13589D01*
G01X21654Y12318D02*
G01X21654Y11454D01*
G01X21654Y14453D02*
G01X20654Y14453D01*
G01X21654Y11454D02*
G01X20654Y11454D01*
G01X13589Y15655D02*
G01X13589Y16855D01*
G01X15639Y15455D02*
G01X16639Y15455D01*
G01X15639Y17056D02*
G01X16639Y17056D01*
G01X14839Y15455D02*
G01X13840Y15455D01*
G01X14839Y17056D02*
G01X13840Y17056D01*
G01X16890Y15655D02*
G01X16890Y16855D01*
G01X16690Y15455D02*
G01X16639Y15455D01*
G01X16689Y17056D02*
G01X16639Y17056D01*
G01X13789Y15455D02*
G01X13840Y15455D01*
G01X13790Y17056D02*
G01X13840Y17056D01*
G01X8636Y17687D02*
G01X8636Y18887D01*
G01X10686Y17487D02*
G01X11686Y17487D01*
G01X10686Y19088D02*
G01X11686Y19088D01*
G01X9886Y17487D02*
G01X8887Y17487D01*
G01X9886Y19088D02*
G01X8887Y19088D01*
G01X11937Y17687D02*
G01X11937Y18887D01*
G01X11737Y17487D02*
G01X11686Y17487D01*
G01X11736Y19088D02*
G01X11686Y19088D01*
G01X8836Y17487D02*
G01X8887Y17487D01*
G01X8837Y19088D02*
G01X8887Y19088D01*
G01X15621Y-1651D02*
G01X15621Y-8001D01*
G01X18161Y-1651D02*
G01X18161Y-8001D01*
G01X20701Y-1651D02*
G01X20701Y-8001D01*
G01X21971Y-1651D02*
G01X14351Y-1651D01*
G01X14351Y889D01*
G01X21971Y889D01*
G01X21971Y-1651D01*
G01X18733Y9973D02*
G01X18733Y10600D01*
G01X17334Y8787D02*
G01X17334Y9651D01*
G01X17334Y10922D02*
G01X17334Y11786D01*
G01X17334Y8787D02*
G01X18334Y8787D01*
G01X17334Y11786D02*
G01X18334Y11786D01*
G01X18225Y4766D02*
G01X18225Y5393D01*
G01X16826Y3580D02*
G01X16826Y4444D01*
G01X16826Y5715D02*
G01X16826Y6579D01*
G01X16826Y3580D02*
G01X17826Y3580D01*
G01X16826Y6579D02*
G01X17826Y6579D01*
G01X7950Y14859D02*
G01X6478Y14859D01*
G01X6478Y14859D01*
G01X4750Y14859D01*
G01X7949Y12573D02*
G01X4749Y12573D01*
G01X7949Y12573D02*
G01X7949Y12784D01*
G01X7949Y14647D02*
G01X7949Y14859D01*
G01X4749Y12573D02*
G01X4749Y12784D01*
G01X4749Y14647D02*
G01X4749Y14859D01*
G01X7039Y12573D02*
G01X7039Y14859D01*
G01X25984Y25268D02*
G01X25984Y4449D01*
G01X25984Y4449D02*
G01X23545Y4449D01*
G01X23545Y4449D02*
G01X23545Y25268D01*
G01X23545Y25268D02*
G01X25984Y25268D01*
G01X685Y4449D02*
G01X685Y25268D01*
G01X685Y25268D02*
G01X3124Y25268D01*
G01X3124Y25268D02*
G01X3124Y4449D01*
G01X3124Y4449D02*
G01X685Y4449D01*
G01X15659Y11074D02*
G01X14058Y11074D01*
G01X14064Y9224D02*
G01X14064Y7974D01*
G01X15664Y9224D02*
G01X15664Y7974D01*
G01X14058Y9824D02*
G01X14058Y11074D01*
G01X15659Y9824D02*
G01X15659Y11074D01*
G01X15664Y7974D02*
G01X14064Y7974D01*
G01X14058Y4292D02*
G01X15659Y4292D01*
G01X15653Y6142D02*
G01X15653Y7392D01*
G01X14053Y6142D02*
G01X14053Y7392D01*
G01X15659Y5542D02*
G01X15659Y4292D01*
G01X14058Y5542D02*
G01X14058Y4292D01*
G01X14053Y7392D02*
G01X15653Y7392D01*
G01X6036Y4282D02*
G01X11235Y4282D01*
G01X11235Y12481D02*
G01X11235Y12397D01*
G01X11235Y4366D02*
G01X11235Y4282D01*
G01X6036Y12481D02*
G01X6036Y12397D01*
G01X6036Y4366D02*
G01X6036Y4282D01*
G01X11235Y12481D02*
G01X9235Y12481D01*
G01X6036Y12481D02*
G01X8036Y12481D01*
G01X10506Y12827D02*
G01X9306Y12827D01*
G01X10706Y14877D02*
G01X10706Y15877D01*
G01X9105Y14877D02*
G01X9105Y15877D01*
G01X10706Y14077D02*
G01X10706Y13078D01*
G01X9105Y14077D02*
G01X9105Y13078D01*
G01X10506Y16128D02*
G01X9306Y16128D01*
G01X10706Y15928D02*
G01X10706Y15877D01*
G01X9105Y15927D02*
G01X9105Y15877D01*
G01X10706Y13027D02*
G01X10706Y13078D01*
G01X9105Y13028D02*
G01X9105Y13078D01*
G01X21809Y7747D02*
G01X20609Y7747D01*
G01X22009Y9797D02*
G01X22009Y10797D01*
G01X20408Y9797D02*
G01X20408Y10797D01*
G01X22009Y8997D02*
G01X22009Y7998D01*
G01X20408Y8997D02*
G01X20408Y7998D01*
G01X21809Y11048D02*
G01X20609Y11048D01*
G01X22009Y10848D02*
G01X22009Y10797D01*
G01X20408Y10847D02*
G01X20408Y10797D01*
G01X22009Y7947D02*
G01X22009Y7998D01*
G01X20408Y7948D02*
G01X20408Y7998D01*
G01X7747Y-1651D02*
G01X7747Y-7651D01*
G01X10287Y-1651D02*
G01X10287Y-7651D01*
G01X5207Y-1651D02*
G01X5207Y-7651D01*
G01X12827Y-1651D02*
G01X12827Y-7651D01*
G01X14097Y-1651D02*
G01X3937Y-1651D01*
G01X3937Y889D01*
G01X14097Y889D01*
G01X14097Y-1651D01*
G54D26*
G01X4318Y3931D02*
G01X4318Y3215D01*
G01X4318Y3931D02*
G01X4625Y3931D01*
G01X4726Y3898D01*
G01X4759Y3863D01*
G01X4795Y3794D01*
G01X4795Y3726D01*
G01X4759Y3660D01*
G01X4726Y3624D01*
G01X4625Y3591D01*
G01X4318Y3591D02*
G01X4625Y3591D01*
G01X4726Y3556D01*
G01X4759Y3522D01*
G01X4795Y3454D01*
G01X4795Y3352D01*
G01X4759Y3284D01*
G01X4726Y3251D01*
G01X4625Y3215D01*
G01X4318Y3215D01*
G01X5224Y3931D02*
G01X5123Y3898D01*
G01X5054Y3794D01*
G01X5019Y3624D01*
G01X5019Y3522D01*
G01X5054Y3352D01*
G01X5123Y3251D01*
G01X5224Y3215D01*
G01X5293Y3215D01*
G01X5394Y3251D01*
G01X5463Y3352D01*
G01X5496Y3522D01*
G01X5496Y3624D01*
G01X5463Y3794D01*
G01X5394Y3898D01*
G01X5293Y3931D01*
G01X5224Y3931D01*
G01X5722Y3794D02*
G01X5791Y3830D01*
G01X5892Y3931D01*
G01X5892Y3215D01*
G01X6604Y3931D02*
G01X6604Y3215D01*
G01X6604Y3931D02*
G01X6911Y3931D01*
G01X7012Y3898D01*
G01X7045Y3863D01*
G01X7081Y3794D01*
G01X7081Y3726D01*
G01X7045Y3660D01*
G01X7012Y3624D01*
G01X6911Y3591D01*
G01X6604Y3591D02*
G01X6911Y3591D01*
G01X7012Y3556D01*
G01X7045Y3522D01*
G01X7081Y3454D01*
G01X7081Y3352D01*
G01X7045Y3284D01*
G01X7012Y3251D01*
G01X6911Y3215D01*
G01X6604Y3215D01*
G01X7510Y3931D02*
G01X7409Y3898D01*
G01X7340Y3794D01*
G01X7305Y3624D01*
G01X7305Y3522D01*
G01X7340Y3352D01*
G01X7409Y3251D01*
G01X7510Y3215D01*
G01X7579Y3215D01*
G01X7680Y3251D01*
G01X7749Y3352D01*
G01X7782Y3522D01*
G01X7782Y3624D01*
G01X7749Y3794D01*
G01X7680Y3898D01*
G01X7579Y3931D01*
G01X7510Y3931D01*
G01X8041Y3761D02*
G01X8041Y3794D01*
G01X8077Y3863D01*
G01X8110Y3898D01*
G01X8178Y3931D01*
G01X8315Y3931D01*
G01X8384Y3898D01*
G01X8417Y3863D01*
G01X8450Y3794D01*
G01X8450Y3726D01*
G01X8417Y3660D01*
G01X8348Y3556D01*
G01X8008Y3215D01*
G01X8486Y3215D01*
G01X9542Y3931D02*
G01X9271Y3215D01*
G01X9542Y3931D02*
G01X9817Y3215D01*
G01X9372Y3454D02*
G01X9712Y3454D01*
G01X10246Y3931D02*
G01X10144Y3898D01*
G01X10076Y3794D01*
G01X10040Y3624D01*
G01X10040Y3522D01*
G01X10076Y3352D01*
G01X10144Y3251D01*
G01X10246Y3215D01*
G01X10314Y3215D01*
G01X10416Y3251D01*
G01X10485Y3352D01*
G01X10518Y3522D01*
G01X10518Y3624D01*
G01X10485Y3794D01*
G01X10416Y3898D01*
G01X10314Y3931D01*
G01X10246Y3931D01*
G01X10777Y3761D02*
G01X10777Y3794D01*
G01X10812Y3863D01*
G01X10845Y3898D01*
G01X10914Y3931D01*
G01X11051Y3931D01*
G01X11117Y3898D01*
G01X11153Y3863D01*
G01X11186Y3794D01*
G01X11186Y3726D01*
G01X11153Y3660D01*
G01X11084Y3556D01*
G01X10744Y3215D01*
G01X11221Y3215D01*
G01X12082Y3931D02*
G01X11811Y3215D01*
G01X12082Y3931D02*
G01X12357Y3215D01*
G01X11912Y3454D02*
G01X12252Y3454D01*
G01X12786Y3931D02*
G01X12684Y3898D01*
G01X12616Y3794D01*
G01X12580Y3624D01*
G01X12580Y3522D01*
G01X12616Y3352D01*
G01X12684Y3251D01*
G01X12786Y3215D01*
G01X12854Y3215D01*
G01X12956Y3251D01*
G01X13025Y3352D01*
G01X13058Y3522D01*
G01X13058Y3624D01*
G01X13025Y3794D01*
G01X12956Y3898D01*
G01X12854Y3931D01*
G01X12786Y3931D01*
G01X13284Y3794D02*
G01X13352Y3830D01*
G01X13454Y3931D01*
G01X13454Y3215D01*
G01X15113Y3921D02*
G01X15181Y3957D01*
G01X15283Y4058D01*
G01X15283Y3342D01*
G01X15918Y4058D02*
G01X15577Y4058D01*
G01X15542Y3751D01*
G01X15577Y3787D01*
G01X15679Y3820D01*
G01X15781Y3820D01*
G01X15882Y3787D01*
G01X15951Y3718D01*
G01X15986Y3614D01*
G01X15986Y3548D01*
G01X15951Y3444D01*
G01X15882Y3378D01*
G01X15781Y3342D01*
G01X15679Y3342D01*
G01X15577Y3378D01*
G01X15542Y3411D01*
G01X15509Y3479D01*
G01X16894Y3939D02*
G01X17166Y3223D01*
G01X17440Y3939D02*
G01X17166Y3223D01*
G01X18177Y3769D02*
G01X18141Y3837D01*
G01X18073Y3906D01*
G01X18007Y3939D01*
G01X17869Y3939D01*
G01X17801Y3906D01*
G01X17732Y3837D01*
G01X17699Y3769D01*
G01X17664Y3667D01*
G01X17664Y3494D01*
G01X17699Y3393D01*
G01X17732Y3324D01*
G01X17801Y3258D01*
G01X17869Y3223D01*
G01X18007Y3223D01*
G01X18073Y3258D01*
G01X18141Y3324D01*
G01X18177Y3393D01*
G01X18913Y3769D02*
G01X18878Y3837D01*
G01X18809Y3906D01*
G01X18741Y3939D01*
G01X18606Y3939D01*
G01X18537Y3906D01*
G01X18469Y3837D01*
G01X18436Y3769D01*
G01X18400Y3667D01*
G01X18400Y3494D01*
G01X18436Y3393D01*
G01X18469Y3324D01*
G01X18537Y3258D01*
G01X18606Y3223D01*
G01X18741Y3223D01*
G01X18809Y3258D01*
G01X18878Y3324D01*
G01X18913Y3393D01*
G01X20326Y3896D02*
G01X20293Y3964D01*
G01X20224Y4033D01*
G01X20155Y4066D01*
G01X20021Y4066D01*
G01X19952Y4033D01*
G01X19884Y3964D01*
G01X19848Y3896D01*
G01X19815Y3794D01*
G01X19815Y3621D01*
G01X19848Y3520D01*
G01X19884Y3451D01*
G01X19952Y3385D01*
G01X20021Y3350D01*
G01X20155Y3350D01*
G01X20224Y3385D01*
G01X20293Y3451D01*
G01X20326Y3520D01*
G01X20326Y3621D01*
G01X20155Y3621D02*
G01X20326Y3621D01*
G01X20552Y4066D02*
G01X20552Y3350D01*
G01X20552Y4066D02*
G01X21029Y3350D01*
G01X21029Y4066D02*
G01X21029Y3350D01*
G01X21253Y4066D02*
G01X21253Y3350D01*
G01X21253Y4066D02*
G01X21492Y4066D01*
G01X21596Y4033D01*
G01X21662Y3964D01*
G01X21697Y3896D01*
G01X21730Y3794D01*
G01X21730Y3621D01*
G01X21697Y3520D01*
G01X21662Y3451D01*
G01X21596Y3385D01*
G01X21492Y3350D01*
G01X21253Y3350D01*
G01X3281Y12992D02*
G01X3589Y12446D01*
G01X3896Y12992D01*
G01X3589Y13215D02*
G01X3589Y13830D01*
G01X3418Y14988D02*
G01X3896Y14988D01*
G01X3520Y14988D02*
G01X3451Y14919D01*
G01X3418Y14853D01*
G01X3418Y14749D01*
G01X3451Y14681D01*
G01X3520Y14615D01*
G01X3624Y14579D01*
G01X3690Y14579D01*
G01X3794Y14615D01*
G01X3860Y14681D01*
G01X3896Y14749D01*
G01X3896Y14853D01*
G01X3860Y14919D01*
G01X3794Y14988D01*
G01X3418Y15214D02*
G01X3896Y15214D01*
G01X3556Y15214D02*
G01X3451Y15316D01*
G01X3418Y15384D01*
G01X3418Y15486D01*
G01X3451Y15554D01*
G01X3556Y15587D01*
G01X3896Y15587D01*
G01X3180Y15915D02*
G01X3759Y15915D01*
G01X3860Y15951D01*
G01X3896Y16019D01*
G01X3896Y16085D01*
G01X3418Y15814D02*
G01X3418Y16052D01*
G01X3624Y16311D02*
G01X3624Y16720D01*
G01X3556Y16720D01*
G01X3487Y16687D01*
G01X3451Y16652D01*
G01X3418Y16583D01*
G01X3418Y16482D01*
G01X3451Y16413D01*
G01X3520Y16344D01*
G01X3624Y16311D01*
G01X3690Y16311D01*
G01X3794Y16344D01*
G01X3860Y16413D01*
G01X3896Y16482D01*
G01X3896Y16583D01*
G01X3860Y16652D01*
G01X3794Y16720D01*
G01X3418Y16946D02*
G01X3896Y16946D01*
G01X3556Y16946D02*
G01X3451Y17048D01*
G01X3418Y17117D01*
G01X3418Y17218D01*
G01X3451Y17287D01*
G01X3556Y17320D01*
G01X3896Y17320D01*
G01X3418Y17546D02*
G01X3896Y17546D01*
G01X3556Y17546D02*
G01X3451Y17647D01*
G01X3418Y17716D01*
G01X3418Y17818D01*
G01X3451Y17886D01*
G01X3556Y17922D01*
G01X3896Y17922D01*
G01X3418Y18554D02*
G01X3896Y18554D01*
G01X3520Y18554D02*
G01X3451Y18486D01*
G01X3418Y18417D01*
G01X3418Y18315D01*
G01X3451Y18247D01*
G01X3520Y18181D01*
G01X3624Y18145D01*
G01X3690Y18145D01*
G01X3794Y18181D01*
G01X3860Y18247D01*
G01X3896Y18315D01*
G01X3896Y18417D01*
G01X3860Y18486D01*
G01X3794Y18554D01*
G01X4846Y20916D02*
G01X4538Y21463D01*
G01X4231Y20916D01*
G01X4538Y20693D02*
G01X4538Y20078D01*
G01X4846Y18851D02*
G01X4914Y18920D01*
G01X4947Y19022D01*
G01X4947Y19159D01*
G01X4914Y19260D01*
G01X4846Y19329D01*
G01X4777Y19329D01*
G01X4709Y19293D01*
G01X4676Y19260D01*
G01X4640Y19192D01*
G01X4572Y18989D01*
G01X4538Y18920D01*
G01X4503Y18884D01*
G01X4437Y18851D01*
G01X4333Y18851D01*
G01X4267Y18920D01*
G01X4231Y19022D01*
G01X4231Y19159D01*
G01X4267Y19260D01*
G01X4333Y19329D01*
G01X4947Y18625D02*
G01X4231Y18625D01*
G01X4947Y18625D02*
G01X4947Y18387D01*
G01X4914Y18285D01*
G01X4846Y18216D01*
G01X4777Y18183D01*
G01X4676Y18148D01*
G01X4503Y18148D01*
G01X4401Y18183D01*
G01X4333Y18216D01*
G01X4267Y18285D01*
G01X4231Y18387D01*
G01X4231Y18625D01*
G01X4607Y16990D02*
G01X4676Y17058D01*
G01X4709Y17127D01*
G01X4709Y17228D01*
G01X4676Y17297D01*
G01X4607Y17365D01*
G01X4503Y17399D01*
G01X4437Y17399D01*
G01X4333Y17365D01*
G01X4267Y17297D01*
G01X4231Y17228D01*
G01X4231Y17127D01*
G01X4267Y17058D01*
G01X4333Y16990D01*
G01X4709Y16355D02*
G01X4231Y16355D01*
G01X4607Y16355D02*
G01X4676Y16423D01*
G01X4709Y16492D01*
G01X4709Y16593D01*
G01X4676Y16662D01*
G01X4607Y16730D01*
G01X4503Y16766D01*
G01X4437Y16766D01*
G01X4333Y16730D01*
G01X4267Y16662D01*
G01X4231Y16593D01*
G01X4231Y16492D01*
G01X4267Y16423D01*
G01X4333Y16355D01*
G01X4709Y16131D02*
G01X4231Y16131D01*
G01X4503Y16131D02*
G01X4607Y16095D01*
G01X4676Y16029D01*
G01X4709Y15961D01*
G01X4709Y15857D01*
G01X4947Y15224D02*
G01X4231Y15224D01*
G01X4607Y15224D02*
G01X4676Y15293D01*
G01X4709Y15361D01*
G01X4709Y15463D01*
G01X4676Y15532D01*
G01X4607Y15598D01*
G01X4503Y15633D01*
G01X4437Y15633D01*
G01X4333Y15598D01*
G01X4267Y15532D01*
G01X4231Y15463D01*
G01X4231Y15361D01*
G01X4267Y15293D01*
G01X4333Y15224D01*
G01X762Y26283D02*
G01X1033Y25567D01*
G01X1308Y26283D02*
G01X1033Y25567D01*
G01X2044Y26113D02*
G01X2009Y26182D01*
G01X1940Y26250D01*
G01X1874Y26283D01*
G01X1737Y26283D01*
G01X1668Y26250D01*
G01X1600Y26182D01*
G01X1567Y26113D01*
G01X1531Y26012D01*
G01X1531Y25839D01*
G01X1567Y25737D01*
G01X1600Y25669D01*
G01X1668Y25603D01*
G01X1737Y25567D01*
G01X1874Y25567D01*
G01X1940Y25603D01*
G01X2009Y25669D01*
G01X2044Y25737D01*
G01X2781Y26113D02*
G01X2745Y26182D01*
G01X2677Y26250D01*
G01X2608Y26283D01*
G01X2473Y26283D01*
G01X2405Y26250D01*
G01X2336Y26182D01*
G01X2303Y26113D01*
G01X2268Y26012D01*
G01X2268Y25839D01*
G01X2303Y25737D01*
G01X2336Y25669D01*
G01X2405Y25603D01*
G01X2473Y25567D01*
G01X2608Y25567D01*
G01X2677Y25603D01*
G01X2745Y25669D01*
G01X2781Y25737D01*
G01X24325Y26283D02*
G01X24698Y26283D01*
G01X24495Y26012D01*
G01X24597Y26012D01*
G01X24665Y25976D01*
G01X24698Y25943D01*
G01X24734Y25839D01*
G01X24734Y25773D01*
G01X24698Y25669D01*
G01X24632Y25603D01*
G01X24528Y25567D01*
G01X24427Y25567D01*
G01X24325Y25603D01*
G01X24290Y25636D01*
G01X24257Y25704D01*
G01X24958Y26283D02*
G01X25232Y25567D01*
G01X25504Y26283D02*
G01X25232Y25567D01*
G01X25798Y26283D02*
G01X26172Y26283D01*
G01X25968Y26012D01*
G01X26070Y26012D01*
G01X26139Y25976D01*
G01X26172Y25943D01*
G01X26207Y25839D01*
G01X26207Y25773D01*
G01X26172Y25669D01*
G01X26103Y25603D01*
G01X26001Y25567D01*
G01X25900Y25567D01*
G01X25798Y25603D01*
G01X25763Y25636D01*
G01X25730Y25704D01*
G54D28*
G01X9454Y24997D02*
G01X9454Y25777D01*
G01X9403Y25932D01*
G01X9299Y26036D01*
G01X9141Y26087D01*
G01X9037Y26087D01*
G01X8882Y26036D01*
G01X8778Y25932D01*
G01X8727Y25777D01*
G01X8727Y24997D01*
G01X7655Y25152D02*
G01X7760Y25048D01*
G01X7917Y24997D01*
G01X8123Y24997D01*
G01X8280Y25048D01*
G01X8384Y25152D01*
G01X8384Y25256D01*
G01X8331Y25360D01*
G01X8280Y25413D01*
G01X8176Y25464D01*
G01X7864Y25568D01*
G01X7760Y25619D01*
G01X7709Y25672D01*
G01X7655Y25777D01*
G01X7655Y25932D01*
G01X7760Y26036D01*
G01X7917Y26087D01*
G01X8123Y26087D01*
G01X8280Y26036D01*
G01X8384Y25932D01*
G01X7312Y24997D02*
G01X7312Y26087D01*
G01X7312Y24997D02*
G01X6845Y24997D01*
G01X6690Y25048D01*
G01X6637Y25101D01*
G01X6586Y25205D01*
G01X6586Y25309D01*
G01X6637Y25413D01*
G01X6690Y25464D01*
G01X6845Y25515D01*
G01X7312Y25515D02*
G01X6845Y25515D01*
G01X6690Y25568D01*
G01X6637Y25619D01*
G01X6586Y25723D01*
G01X6586Y25881D01*
G01X6637Y25985D01*
G01X6690Y26036D01*
G01X6845Y26087D01*
G01X7312Y26087D01*
G01X6190Y25256D02*
G01X6190Y25205D01*
G01X6139Y25101D01*
G01X6088Y25048D01*
G01X5984Y24997D01*
G01X5776Y24997D01*
G01X5672Y25048D01*
G01X5618Y25101D01*
G01X5567Y25205D01*
G01X5567Y25309D01*
G01X5618Y25413D01*
G01X5722Y25568D01*
G01X6243Y26087D01*
G01X5517Y26087D01*
G01X13334Y12578D02*
G01X13334Y13294D01*
G01X13334Y12578D02*
G01X13029Y12578D01*
G01X12925Y12611D01*
G01X12892Y12646D01*
G01X12856Y12715D01*
G01X12856Y12783D01*
G01X12892Y12849D01*
G01X12925Y12885D01*
G01X13029Y12918D01*
G01X13334Y12918D01*
G01X13095Y12918D02*
G01X12856Y13294D01*
G01X12224Y12578D02*
G01X12564Y12578D01*
G01X12597Y12885D01*
G01X12564Y12849D01*
G01X12462Y12816D01*
G01X12358Y12816D01*
G01X12257Y12849D01*
G01X12188Y12918D01*
G01X12155Y13022D01*
G01X12155Y13088D01*
G01X12188Y13192D01*
G01X12257Y13258D01*
G01X12358Y13294D01*
G01X12462Y13294D01*
G01X12564Y13258D01*
G01X12597Y13225D01*
G01X12633Y13157D01*
G01X17988Y13222D02*
G01X18057Y13258D01*
G01X18125Y13326D01*
G01X18158Y13392D01*
G01X18158Y13529D01*
G01X18125Y13598D01*
G01X18057Y13667D01*
G01X17988Y13700D01*
G01X17886Y13735D01*
G01X17716Y13735D01*
G01X17615Y13700D01*
G01X17546Y13667D01*
G01X17477Y13598D01*
G01X17442Y13529D01*
G01X17442Y13392D01*
G01X17477Y13326D01*
G01X17546Y13258D01*
G01X17615Y13222D01*
G01X18158Y12521D02*
G01X17442Y12861D01*
G01X18158Y12999D02*
G01X18158Y12521D01*
G01X19690Y15445D02*
G01X19723Y15377D01*
G01X19791Y15308D01*
G01X19860Y15273D01*
G01X19961Y15240D01*
G01X20134Y15240D01*
G01X20236Y15273D01*
G01X20304Y15308D01*
G01X20370Y15377D01*
G01X20406Y15445D01*
G01X20406Y15580D01*
G01X20370Y15648D01*
G01X20304Y15717D01*
G01X20236Y15750D01*
G01X20134Y15786D01*
G01X19961Y15786D01*
G01X19860Y15750D01*
G01X19791Y15717D01*
G01X19723Y15648D01*
G01X19690Y15580D01*
G01X19690Y15445D01*
G01X20269Y15547D02*
G01X20474Y15750D01*
G01X19791Y16418D02*
G01X19723Y16385D01*
G01X19690Y16283D01*
G01X19690Y16215D01*
G01X19723Y16113D01*
G01X19827Y16045D01*
G01X19997Y16009D01*
G01X20167Y16009D01*
G01X20304Y16045D01*
G01X20370Y16113D01*
G01X20406Y16215D01*
G01X20406Y16248D01*
G01X20370Y16352D01*
G01X20304Y16418D01*
G01X20200Y16454D01*
G01X20167Y16454D01*
G01X20066Y16418D01*
G01X19997Y16352D01*
G01X19961Y16248D01*
G01X19961Y16215D01*
G01X19997Y16113D01*
G01X20066Y16045D01*
G01X20167Y16009D01*
G01X21666Y2072D02*
G01X21666Y2852D01*
G01X21615Y3007D01*
G01X21511Y3111D01*
G01X21353Y3162D01*
G01X21249Y3162D01*
G01X21094Y3111D01*
G01X20990Y3007D01*
G01X20939Y2852D01*
G01X20939Y2072D01*
G01X20492Y2072D02*
G01X19921Y2072D01*
G01X20231Y2489D01*
G01X20076Y2489D01*
G01X19972Y2540D01*
G01X19921Y2590D01*
G01X19867Y2748D01*
G01X19867Y2852D01*
G01X19921Y3007D01*
G01X20025Y3111D01*
G01X20180Y3162D01*
G01X20335Y3162D01*
G01X20492Y3111D01*
G01X20543Y3060D01*
G01X20596Y2956D01*
G01X20802Y7459D02*
G01X20756Y7437D01*
G01X20688Y7368D01*
G01X20688Y7853D01*
G01X12823Y14145D02*
G01X12856Y14076D01*
G01X12925Y14010D01*
G01X12993Y13974D01*
G01X13130Y13974D01*
G01X13199Y14010D01*
G01X13265Y14076D01*
G01X13301Y14145D01*
G01X13334Y14246D01*
G01X13334Y14419D01*
G01X13301Y14520D01*
G01X13265Y14589D01*
G01X13199Y14658D01*
G01X13130Y14691D01*
G01X12993Y14691D01*
G01X12925Y14658D01*
G01X12856Y14589D01*
G01X12823Y14520D01*
G01X12188Y13974D02*
G01X12531Y13974D01*
G01X12564Y14282D01*
G01X12531Y14246D01*
G01X12427Y14213D01*
G01X12325Y14213D01*
G01X12224Y14246D01*
G01X12155Y14315D01*
G01X12122Y14419D01*
G01X12122Y14485D01*
G01X12155Y14589D01*
G01X12224Y14658D01*
G01X12325Y14691D01*
G01X12427Y14691D01*
G01X12531Y14658D01*
G01X12564Y14622D01*
G01X12597Y14553D01*
G01X11561Y21221D02*
G01X11561Y21732D01*
G01X11526Y21836D01*
G01X11457Y21902D01*
G01X11355Y21937D01*
G01X11287Y21937D01*
G01X11185Y21902D01*
G01X11117Y21836D01*
G01X11084Y21732D01*
G01X11084Y21221D01*
G01X10825Y21391D02*
G01X10825Y21358D01*
G01X10789Y21290D01*
G01X10756Y21254D01*
G01X10687Y21221D01*
G01X10550Y21221D01*
G01X10482Y21254D01*
G01X10449Y21290D01*
G01X10416Y21358D01*
G01X10416Y21427D01*
G01X10449Y21493D01*
G01X10517Y21597D01*
G01X10858Y21937D01*
G01X10380Y21937D01*
G01X21330Y13511D02*
G01X21297Y13579D01*
G01X21229Y13648D01*
G01X21160Y13681D01*
G01X21059Y13717D01*
G01X20886Y13717D01*
G01X20784Y13681D01*
G01X20716Y13648D01*
G01X20650Y13579D01*
G01X20614Y13511D01*
G01X20614Y13374D01*
G01X20650Y13308D01*
G01X20716Y13239D01*
G01X20784Y13203D01*
G01X20886Y13170D01*
G01X21059Y13170D01*
G01X21160Y13203D01*
G01X21229Y13239D01*
G01X21297Y13308D01*
G01X21330Y13374D01*
G01X21330Y13511D01*
G01X20751Y13409D02*
G01X20546Y13203D01*
G01X21330Y12535D02*
G01X21330Y12876D01*
G01X21023Y12911D01*
G01X21059Y12876D01*
G01X21092Y12774D01*
G01X21092Y12673D01*
G01X21059Y12571D01*
G01X20990Y12502D01*
G01X20886Y12467D01*
G01X20820Y12467D01*
G01X20716Y12502D01*
G01X20650Y12571D01*
G01X20614Y12673D01*
G01X20614Y12774D01*
G01X20650Y12876D01*
G01X20683Y12911D01*
G01X20751Y12944D01*
G01X12824Y15923D02*
G01X12857Y15854D01*
G01X12925Y15788D01*
G01X12994Y15752D01*
G01X13131Y15752D01*
G01X13197Y15788D01*
G01X13266Y15854D01*
G01X13301Y15923D01*
G01X13334Y16024D01*
G01X13334Y16197D01*
G01X13301Y16299D01*
G01X13266Y16367D01*
G01X13197Y16436D01*
G01X13131Y16469D01*
G01X12994Y16469D01*
G01X12925Y16436D01*
G01X12857Y16367D01*
G01X12824Y16299D01*
G01X12257Y15752D02*
G01X12597Y16230D01*
G01X12087Y16230D01*
G01X12257Y15752D02*
G01X12257Y16469D01*
G01X7751Y18351D02*
G01X7784Y18282D01*
G01X7852Y18216D01*
G01X7921Y18181D01*
G01X8058Y18181D01*
G01X8124Y18216D01*
G01X8193Y18282D01*
G01X8228Y18351D01*
G01X8261Y18452D01*
G01X8261Y18625D01*
G01X8228Y18727D01*
G01X8193Y18795D01*
G01X8124Y18864D01*
G01X8058Y18897D01*
G01X7921Y18897D01*
G01X7852Y18864D01*
G01X7784Y18795D01*
G01X7751Y18727D01*
G01X7116Y18282D02*
G01X7151Y18216D01*
G01X7253Y18181D01*
G01X7322Y18181D01*
G01X7423Y18216D01*
G01X7492Y18318D01*
G01X7525Y18488D01*
G01X7525Y18658D01*
G01X7492Y18795D01*
G01X7423Y18864D01*
G01X7322Y18897D01*
G01X7286Y18897D01*
G01X7184Y18864D01*
G01X7116Y18795D01*
G01X7083Y18691D01*
G01X7083Y18658D01*
G01X7116Y18557D01*
G01X7184Y18488D01*
G01X7286Y18452D01*
G01X7322Y18452D01*
G01X7423Y18488D01*
G01X7492Y18557D01*
G01X7525Y18658D01*
G01X18282Y10844D02*
G01X18249Y10912D01*
G01X18181Y10981D01*
G01X18112Y11014D01*
G01X18011Y11050D01*
G01X17838Y11050D01*
G01X17736Y11014D01*
G01X17668Y10981D01*
G01X17602Y10912D01*
G01X17566Y10844D01*
G01X17566Y10707D01*
G01X17602Y10641D01*
G01X17668Y10572D01*
G01X17736Y10536D01*
G01X17838Y10503D01*
G01X18011Y10503D01*
G01X18112Y10536D01*
G01X18181Y10572D01*
G01X18249Y10641D01*
G01X18282Y10707D01*
G01X18282Y10844D01*
G01X17703Y10742D02*
G01X17498Y10536D01*
G01X18282Y10209D02*
G01X18282Y9835D01*
G01X18011Y10039D01*
G01X18011Y9937D01*
G01X17975Y9868D01*
G01X17942Y9835D01*
G01X17838Y9800D01*
G01X17772Y9800D01*
G01X17668Y9835D01*
G01X17602Y9904D01*
G01X17566Y10006D01*
G01X17566Y10107D01*
G01X17602Y10209D01*
G01X17635Y10244D01*
G01X17703Y10277D01*
G01X17149Y4648D02*
G01X17185Y4582D01*
G01X17251Y4513D01*
G01X17320Y4478D01*
G01X17421Y4445D01*
G01X17594Y4445D01*
G01X17696Y4478D01*
G01X17764Y4513D01*
G01X17833Y4582D01*
G01X17866Y4648D01*
G01X17866Y4785D01*
G01X17833Y4854D01*
G01X17764Y4922D01*
G01X17696Y4955D01*
G01X17594Y4991D01*
G01X17421Y4991D01*
G01X17320Y4955D01*
G01X17251Y4922D01*
G01X17185Y4854D01*
G01X17149Y4785D01*
G01X17149Y4648D01*
G01X17729Y4752D02*
G01X17934Y4955D01*
G01X17149Y5555D02*
G01X17627Y5215D01*
G01X17627Y5725D01*
G01X17149Y5555D02*
G01X17866Y5555D01*
G01X6601Y15288D02*
G01X6634Y15219D01*
G01X6702Y15153D01*
G01X6771Y15117D01*
G01X6908Y15117D01*
G01X6974Y15153D01*
G01X7043Y15219D01*
G01X7078Y15288D01*
G01X7111Y15389D01*
G01X7111Y15562D01*
G01X7078Y15664D01*
G01X7043Y15732D01*
G01X6974Y15801D01*
G01X6908Y15834D01*
G01X6771Y15834D01*
G01X6702Y15801D01*
G01X6634Y15732D01*
G01X6601Y15664D01*
G01X6306Y15117D02*
G01X5933Y15117D01*
G01X6136Y15389D01*
G01X6034Y15389D01*
G01X5966Y15425D01*
G01X5933Y15458D01*
G01X5897Y15562D01*
G01X5897Y15628D01*
G01X5933Y15732D01*
G01X6001Y15801D01*
G01X6103Y15834D01*
G01X6204Y15834D01*
G01X6306Y15801D01*
G01X6341Y15765D01*
G01X6374Y15697D01*
G01X16631Y9779D02*
G01X15915Y9779D01*
G01X16631Y9779D02*
G01X16631Y9471D01*
G01X16598Y9370D01*
G01X16563Y9337D01*
G01X16494Y9301D01*
G01X16426Y9301D01*
G01X16360Y9337D01*
G01X16324Y9370D01*
G01X16291Y9471D01*
G01X16291Y9779D01*
G01X16291Y9540D02*
G01X15915Y9301D01*
G01X16494Y9077D02*
G01X16530Y9009D01*
G01X16631Y8905D01*
G01X15915Y8905D01*
G01X16631Y7620D02*
G01X15915Y7620D01*
G01X16631Y7620D02*
G01X16631Y7312D01*
G01X16598Y7211D01*
G01X16563Y7178D01*
G01X16494Y7142D01*
G01X16426Y7142D01*
G01X16360Y7178D01*
G01X16324Y7211D01*
G01X16291Y7312D01*
G01X16291Y7620D01*
G01X16291Y7381D02*
G01X15915Y7142D01*
G01X16631Y6576D02*
G01X16154Y6918D01*
G01X16154Y6405D01*
G01X16631Y6576D02*
G01X15915Y6576D01*
G01X2540Y10043D02*
G01X2540Y9263D01*
G01X2590Y9108D01*
G01X2694Y9004D01*
G01X2852Y8953D01*
G01X2956Y8953D01*
G01X3111Y9004D01*
G01X3215Y9108D01*
G01X3266Y9263D01*
G01X3266Y10043D01*
G01X3609Y9834D02*
G01X3713Y9888D01*
G01X3870Y10043D01*
G01X3870Y8953D01*
G01X11381Y14600D02*
G01X11450Y14636D01*
G01X11516Y14704D01*
G01X11552Y14773D01*
G01X11552Y14907D01*
G01X11516Y14976D01*
G01X11450Y15045D01*
G01X11381Y15078D01*
G01X11280Y15113D01*
G01X11107Y15113D01*
G01X11005Y15078D01*
G01X10937Y15045D01*
G01X10868Y14976D01*
G01X10835Y14907D01*
G01X10835Y14773D01*
G01X10868Y14704D01*
G01X10937Y14636D01*
G01X11005Y14600D01*
G01X11414Y14377D02*
G01X11450Y14308D01*
G01X11552Y14206D01*
G01X10835Y14206D01*
G01X22811Y9649D02*
G01X22880Y9682D01*
G01X22948Y9751D01*
G01X22981Y9819D01*
G01X22981Y9954D01*
G01X22948Y10022D01*
G01X22880Y10091D01*
G01X22811Y10126D01*
G01X22710Y10160D01*
G01X22537Y10160D01*
G01X22435Y10126D01*
G01X22367Y10091D01*
G01X22301Y10022D01*
G01X22265Y9954D01*
G01X22265Y9819D01*
G01X22301Y9751D01*
G01X22367Y9682D01*
G01X22435Y9649D01*
G01X22811Y9390D02*
G01X22844Y9390D01*
G01X22913Y9354D01*
G01X22948Y9321D01*
G01X22981Y9253D01*
G01X22981Y9116D01*
G01X22948Y9047D01*
G01X22913Y9014D01*
G01X22844Y8981D01*
G01X22776Y8981D01*
G01X22710Y9014D01*
G01X22606Y9083D01*
G01X22265Y9423D01*
G01X22265Y8945D01*
G54D10*
G75*
G01X18761Y17271D02*
G02X18961Y17071I0J-200D01*
G01*
G75*
G01X17561Y17271D02*
G03X17361Y17071I0J-200D01*
G01*
G75*
G01X18761Y13971D02*
G03X18961Y14171I0J200D01*
G01*
G75*
G01X17561Y13971D02*
G02X17361Y14171I0J200D01*
G01*
G75*
G01X16890Y13624D02*
G02X16690Y13424I-200J0D01*
G01*
G75*
G01X16890Y14824D02*
G03X16690Y15024I-200J0D01*
G01*
G75*
G01X13590Y13624D02*
G03X13790Y13424I200J0D01*
G01*
G75*
G01X13590Y14824D02*
G02X13790Y15024I200J0D01*
G01*
G75*
G01X22118Y21590D02*
G02X22118Y23114I0J762D01*
G01*
G75*
G01X16890Y15656D02*
G02X16690Y15456I-200J0D01*
G01*
G75*
G01X16890Y16856D02*
G03X16690Y17056I-200J0D01*
G01*
G75*
G01X13590Y15656D02*
G03X13790Y15456I200J0D01*
G01*
G75*
G01X13590Y16856D02*
G02X13790Y17056I200J0D01*
G01*
G75*
G01X11937Y17688D02*
G02X11737Y17488I-200J0D01*
G01*
G75*
G01X11937Y18888D02*
G03X11737Y19088I-200J0D01*
G01*
G75*
G01X8637Y17688D02*
G03X8837Y17488I200J0D01*
G01*
G75*
G01X8637Y18888D02*
G02X8837Y19088I200J0D01*
G01*
G75*
G01X9236Y12482D02*
G02X8035Y12483I-600J0D01*
G01*
G75*
G01X10506Y16128D02*
G02X10706Y15928I0J-200D01*
G01*
G75*
G01X9306Y16128D02*
G03X9106Y15928I0J-200D01*
G01*
G75*
G01X10506Y12828D02*
G03X10706Y13028I0J200D01*
G01*
G75*
G01X9306Y12828D02*
G02X9106Y13028I0J200D01*
G01*
G75*
G01X21809Y11048D02*
G02X22009Y10848I0J-200D01*
G01*
G75*
G01X20609Y11048D02*
G03X20409Y10848I0J-200D01*
G01*
G75*
G01X21809Y7748D02*
G03X22009Y7948I0J200D01*
G01*
G75*
G01X20609Y7748D02*
G02X20409Y7948I0J200D01*
G01*
G54D27*
G75*
G01X20649Y15139D02*
G03X20649Y15139I-72J0D01*
G01*
G54D10*
G75*
G01X22352Y26162D02*
G03X22352Y26162I-254J0D01*
G01*
G75*
G01X7125Y11887D02*
G03X7125Y11887I-254J0D01*
G01*
G75*
G01X5090Y12446D02*
G03X5090Y12446I-10J0D01*
G01*
M00*
M02*
