G04 Layer: TopLayer*
G04 EasyEDA v6.4.7, 2020-11-10T21:56:29+01:00*
G04 d56d7f5836d14aafa71abd029e92fcd7,d798ca008b2c48fc9d28453cf4f639a5,10*
G04 Gerber Generator version 0.2*
G04 Scale: 100 percent, Rotated: No, Reflected: No *
G04 Dimensions in millimeters *
G04 leading zeros omitted , absolute positions ,3 integer and 3 decimal *
%FSLAX33Y33*%
%MOMM*%
G90*
D02*

%ADD10C,0.254000*%
%ADD11C,0.508000*%
%ADD12C,0.611022*%
%ADD13R,0.450012X1.999996*%
%ADD14R,0.999998X1.099998*%
%ADD15R,1.099998X0.999998*%
%ADD17R,0.406400X1.803400*%
%ADD18R,1.299997X0.599999*%
%ADD19R,1.199998X1.399997*%
%ADD21C,1.250010*%
%ADD22R,1.198880X2.159000*%
%ADD23C,1.799996*%
%ADD24R,1.799996X1.799996*%
%ADD25C,1.299997*%

%LPD*%
G36*
G01X19794Y24466D02*
G01X19778Y24467D01*
G01X19764Y24466D01*
G01X19750Y24463D01*
G01X19736Y24458D01*
G01X19724Y24451D01*
G01X19712Y24442D01*
G01X19702Y24432D01*
G01X19693Y24420D01*
G01X19686Y24408D01*
G01X19681Y24394D01*
G01X19678Y24380D01*
G01X19677Y24365D01*
G01X19677Y23992D01*
G01X19676Y23962D01*
G01X19672Y23932D01*
G01X19666Y23903D01*
G01X19658Y23874D01*
G01X19648Y23846D01*
G01X19635Y23818D01*
G01X19620Y23792D01*
G01X19604Y23767D01*
G01X19585Y23743D01*
G01X19565Y23721D01*
G01X19067Y23223D01*
G01X19045Y23203D01*
G01X19021Y23184D01*
G01X18996Y23167D01*
G01X18970Y23153D01*
G01X18942Y23140D01*
G01X18914Y23130D01*
G01X18885Y23122D01*
G01X18855Y23116D01*
G01X18826Y23112D01*
G01X18796Y23111D01*
G01X14931Y23111D01*
G01X14915Y23110D01*
G01X14900Y23106D01*
G01X14885Y23100D01*
G01X14872Y23092D01*
G01X14860Y23081D01*
G01X14505Y22730D01*
G01X14495Y22717D01*
G01X14486Y22704D01*
G01X14480Y22689D01*
G01X14476Y22673D01*
G01X14475Y22657D01*
G01X14475Y20036D01*
G01X14476Y20022D01*
G01X14479Y20008D01*
G01X14484Y19994D01*
G01X14491Y19981D01*
G01X14500Y19970D01*
G01X14510Y19960D01*
G01X14522Y19951D01*
G01X14534Y19944D01*
G01X14548Y19939D01*
G01X14562Y19936D01*
G01X14577Y19935D01*
G01X14577Y19256D01*
G01X14569Y19245D01*
G01X14562Y19232D01*
G01X14556Y19218D01*
G01X14553Y19204D01*
G01X14552Y19189D01*
G01X14552Y18364D01*
G01X14553Y18349D01*
G01X14556Y18335D01*
G01X14562Y18321D01*
G01X14569Y18308D01*
G01X14577Y18297D01*
G01X14577Y17618D01*
G01X14539Y17618D01*
G01X14510Y17620D01*
G01X14480Y17625D01*
G01X14452Y17634D01*
G01X14435Y17638D01*
G01X14418Y17640D01*
G01X14400Y17638D01*
G01X14383Y17634D01*
G01X14379Y17632D01*
G01X14365Y17626D01*
G01X14352Y17618D01*
G01X14340Y17608D01*
G01X13968Y17235D01*
G01X13958Y17223D01*
G01X13949Y17210D01*
G01X13943Y17195D01*
G01X13939Y17180D01*
G01X13938Y17164D01*
G01X13939Y17149D01*
G01X13942Y17135D01*
G01X13947Y17121D01*
G01X13954Y17109D01*
G01X13963Y17097D01*
G01X13973Y17087D01*
G01X13985Y17078D01*
G01X13998Y17071D01*
G01X14012Y17066D01*
G01X14026Y17063D01*
G01X14026Y16594D01*
G01X13583Y16594D01*
G01X13583Y16605D01*
G01X13582Y16620D01*
G01X13579Y16634D01*
G01X13574Y16647D01*
G01X13567Y16660D01*
G01X13558Y16672D01*
G01X13548Y16682D01*
G01X13536Y16691D01*
G01X13523Y16698D01*
G01X13510Y16703D01*
G01X13496Y16706D01*
G01X13481Y16707D01*
G01X13465Y16705D01*
G01X13450Y16702D01*
G01X13435Y16696D01*
G01X13422Y16687D01*
G01X13409Y16677D01*
G01X13240Y16507D01*
G01X13229Y16495D01*
G01X13221Y16482D01*
G01X13215Y16467D01*
G01X13211Y16451D01*
G01X13210Y16436D01*
G01X13210Y13789D01*
G01X13211Y13774D01*
G01X13215Y13758D01*
G01X13221Y13743D01*
G01X13229Y13730D01*
G01X13240Y13718D01*
G01X13414Y13543D01*
G01X13426Y13533D01*
G01X13440Y13525D01*
G01X13455Y13518D01*
G01X13470Y13515D01*
G01X13486Y13513D01*
G01X13500Y13514D01*
G01X13515Y13518D01*
G01X13528Y13523D01*
G01X13541Y13530D01*
G01X13553Y13538D01*
G01X13563Y13549D01*
G01X13572Y13560D01*
G01X13584Y13586D01*
G01X13587Y13601D01*
G01X13588Y13615D01*
G01X13586Y13632D01*
G01X13583Y13673D01*
G01X13583Y13885D01*
G01X14026Y13885D01*
G01X14026Y13417D01*
G01X13839Y13417D01*
G01X13798Y13420D01*
G01X13781Y13422D01*
G01X13766Y13421D01*
G01X13752Y13418D01*
G01X13739Y13413D01*
G01X13726Y13406D01*
G01X13714Y13397D01*
G01X13704Y13387D01*
G01X13695Y13375D01*
G01X13683Y13349D01*
G01X13680Y13335D01*
G01X13679Y13320D01*
G01X13681Y13304D01*
G01X13684Y13289D01*
G01X13690Y13274D01*
G01X13699Y13260D01*
G01X13709Y13248D01*
G01X13930Y13028D01*
G01X13942Y13017D01*
G01X13955Y13009D01*
G01X13970Y13003D01*
G01X13986Y12999D01*
G01X14001Y12998D01*
G01X14939Y12998D01*
G01X14963Y12997D01*
G01X14986Y12994D01*
G01X15008Y12989D01*
G01X15030Y12982D01*
G01X15051Y12972D01*
G01X15072Y12961D01*
G01X15091Y12949D01*
G01X15109Y12934D01*
G01X15126Y12918D01*
G01X15141Y12900D01*
G01X15154Y12882D01*
G01X15163Y12870D01*
G01X15173Y12860D01*
G01X15185Y12851D01*
G01X15197Y12845D01*
G01X15211Y12840D01*
G01X15225Y12837D01*
G01X15239Y12836D01*
G01X15254Y12837D01*
G01X15268Y12840D01*
G01X15281Y12845D01*
G01X15294Y12851D01*
G01X15306Y12860D01*
G01X15316Y12870D01*
G01X15325Y12882D01*
G01X15338Y12900D01*
G01X15353Y12918D01*
G01X15370Y12934D01*
G01X15388Y12949D01*
G01X15407Y12961D01*
G01X15428Y12972D01*
G01X15449Y12982D01*
G01X15471Y12989D01*
G01X15493Y12994D01*
G01X15516Y12997D01*
G01X15539Y12998D01*
G01X16262Y12998D01*
G01X16278Y12999D01*
G01X16293Y13003D01*
G01X16308Y13009D01*
G01X16321Y13017D01*
G01X16334Y13028D01*
G01X16549Y13244D01*
G01X16560Y13256D01*
G01X16568Y13269D01*
G01X16574Y13284D01*
G01X16578Y13299D01*
G01X16579Y13315D01*
G01X16578Y13330D01*
G01X16575Y13344D01*
G01X16570Y13358D01*
G01X16563Y13370D01*
G01X16554Y13382D01*
G01X16544Y13392D01*
G01X16532Y13401D01*
G01X16520Y13408D01*
G01X16506Y13413D01*
G01X16492Y13416D01*
G01X16477Y13417D01*
G01X15639Y13417D01*
G01X15616Y13418D01*
G01X15592Y13421D01*
G01X15569Y13427D01*
G01X15547Y13434D01*
G01X15525Y13444D01*
G01X15504Y13455D01*
G01X15485Y13469D01*
G01X15467Y13484D01*
G01X15450Y13501D01*
G01X15435Y13519D01*
G01X15421Y13538D01*
G01X15410Y13559D01*
G01X15400Y13581D01*
G01X15393Y13603D01*
G01X15387Y13626D01*
G01X15384Y13650D01*
G01X15383Y13673D01*
G01X15383Y14774D01*
G01X15384Y14797D01*
G01X15387Y14821D01*
G01X15393Y14844D01*
G01X15400Y14866D01*
G01X15410Y14888D01*
G01X15421Y14909D01*
G01X15435Y14928D01*
G01X15450Y14946D01*
G01X15467Y14963D01*
G01X15485Y14978D01*
G01X15504Y14992D01*
G01X15525Y15003D01*
G01X15547Y15013D01*
G01X15569Y15020D01*
G01X15592Y15026D01*
G01X15616Y15029D01*
G01X15639Y15030D01*
G01X15654Y15030D01*
G01X15669Y15031D01*
G01X15683Y15034D01*
G01X15696Y15039D01*
G01X15709Y15046D01*
G01X15721Y15055D01*
G01X15731Y15065D01*
G01X15740Y15077D01*
G01X15747Y15089D01*
G01X15752Y15103D01*
G01X15755Y15117D01*
G01X15756Y15132D01*
G01X15756Y15347D01*
G01X15755Y15362D01*
G01X15752Y15376D01*
G01X15747Y15390D01*
G01X15740Y15402D01*
G01X15731Y15414D01*
G01X15721Y15424D01*
G01X15709Y15433D01*
G01X15696Y15440D01*
G01X15683Y15445D01*
G01X15669Y15448D01*
G01X15654Y15449D01*
G01X15639Y15449D01*
G01X15616Y15450D01*
G01X15592Y15453D01*
G01X15569Y15459D01*
G01X15547Y15466D01*
G01X15525Y15476D01*
G01X15504Y15487D01*
G01X15485Y15501D01*
G01X15467Y15516D01*
G01X15450Y15533D01*
G01X15435Y15551D01*
G01X15421Y15570D01*
G01X15410Y15591D01*
G01X15400Y15613D01*
G01X15393Y15635D01*
G01X15387Y15658D01*
G01X15384Y15682D01*
G01X15383Y15705D01*
G01X15383Y16806D01*
G01X15384Y16828D01*
G01X15387Y16851D01*
G01X15392Y16873D01*
G01X15399Y16895D01*
G01X15408Y16916D01*
G01X15419Y16936D01*
G01X15431Y16956D01*
G01X15446Y16974D01*
G01X15461Y16990D01*
G01X15479Y17005D01*
G01X15497Y17019D01*
G01X15517Y17031D01*
G01X15537Y17041D01*
G01X15559Y17049D01*
G01X15581Y17055D01*
G01X15595Y17060D01*
G01X15609Y17066D01*
G01X15621Y17075D01*
G01X15632Y17085D01*
G01X15641Y17097D01*
G01X15649Y17110D01*
G01X15654Y17124D01*
G01X15658Y17139D01*
G01X15659Y17154D01*
G01X15659Y17517D01*
G01X15658Y17531D01*
G01X15655Y17545D01*
G01X15650Y17559D01*
G01X15643Y17572D01*
G01X15634Y17583D01*
G01X15624Y17593D01*
G01X15612Y17602D01*
G01X15599Y17609D01*
G01X15586Y17614D01*
G01X15572Y17617D01*
G01X15557Y17618D01*
G01X15189Y17618D01*
G01X15160Y17620D01*
G01X15130Y17625D01*
G01X15102Y17634D01*
G01X15085Y17638D01*
G01X15067Y17640D01*
G01X15050Y17638D01*
G01X15033Y17634D01*
G01X15005Y17625D01*
G01X14975Y17620D01*
G01X14946Y17618D01*
G01X14908Y17618D01*
G01X14908Y18297D01*
G01X14916Y18308D01*
G01X14923Y18321D01*
G01X14929Y18335D01*
G01X14932Y18349D01*
G01X14933Y18364D01*
G01X14933Y19189D01*
G01X14932Y19204D01*
G01X14929Y19218D01*
G01X14923Y19232D01*
G01X14916Y19245D01*
G01X14908Y19256D01*
G01X14908Y19935D01*
G01X14946Y19935D01*
G01X14975Y19933D01*
G01X15005Y19928D01*
G01X15033Y19919D01*
G01X15050Y19915D01*
G01X15067Y19913D01*
G01X15085Y19915D01*
G01X15102Y19919D01*
G01X15130Y19928D01*
G01X15160Y19933D01*
G01X15189Y19935D01*
G01X15557Y19935D01*
G01X15572Y19936D01*
G01X15586Y19939D01*
G01X15599Y19944D01*
G01X15612Y19951D01*
G01X15624Y19960D01*
G01X15634Y19970D01*
G01X15643Y19981D01*
G01X15650Y19994D01*
G01X15655Y20008D01*
G01X15658Y20022D01*
G01X15659Y20036D01*
G01X15659Y20080D01*
G01X15657Y20097D01*
G01X15653Y20114D01*
G01X15646Y20129D01*
G01X15637Y20144D01*
G01X15625Y20156D01*
G01X15599Y20181D01*
G01X15575Y20208D01*
G01X15552Y20236D01*
G01X15531Y20266D01*
G01X15512Y20296D01*
G01X15496Y20329D01*
G01X15481Y20362D01*
G01X15468Y20396D01*
G01X15458Y20430D01*
G01X15450Y20466D01*
G01X15444Y20501D01*
G01X15441Y20537D01*
G01X15439Y20574D01*
G01X15440Y20607D01*
G01X15444Y20641D01*
G01X15449Y20675D01*
G01X15456Y20708D01*
G01X15465Y20741D01*
G01X15476Y20773D01*
G01X15489Y20804D01*
G01X15504Y20835D01*
G01X15521Y20864D01*
G01X15539Y20893D01*
G01X15559Y20920D01*
G01X15581Y20946D01*
G01X15604Y20971D01*
G01X15629Y20994D01*
G01X15655Y21016D01*
G01X15682Y21036D01*
G01X15711Y21054D01*
G01X15740Y21071D01*
G01X15771Y21086D01*
G01X15802Y21099D01*
G01X15834Y21110D01*
G01X15867Y21119D01*
G01X15900Y21126D01*
G01X15934Y21131D01*
G01X15968Y21135D01*
G01X16002Y21136D01*
G01X16035Y21135D01*
G01X16069Y21131D01*
G01X16103Y21126D01*
G01X16136Y21119D01*
G01X16169Y21110D01*
G01X16201Y21099D01*
G01X16232Y21086D01*
G01X16263Y21071D01*
G01X16292Y21054D01*
G01X16321Y21036D01*
G01X16348Y21016D01*
G01X16374Y20994D01*
G01X16399Y20971D01*
G01X16422Y20946D01*
G01X16444Y20920D01*
G01X16464Y20893D01*
G01X16482Y20864D01*
G01X16499Y20835D01*
G01X16514Y20804D01*
G01X16527Y20773D01*
G01X16538Y20741D01*
G01X16547Y20708D01*
G01X16554Y20675D01*
G01X16559Y20641D01*
G01X16563Y20607D01*
G01X16564Y20574D01*
G01X16562Y20537D01*
G01X16559Y20500D01*
G01X16553Y20464D01*
G01X16544Y20428D01*
G01X16534Y20393D01*
G01X16521Y20358D01*
G01X16505Y20325D01*
G01X16488Y20292D01*
G01X16469Y20261D01*
G01X16447Y20231D01*
G01X16438Y20217D01*
G01X16431Y20202D01*
G01X16427Y20185D01*
G01X16426Y20169D01*
G01X16426Y20036D01*
G01X16427Y20022D01*
G01X16430Y20008D01*
G01X16435Y19994D01*
G01X16442Y19981D01*
G01X16451Y19970D01*
G01X16461Y19960D01*
G01X16473Y19951D01*
G01X16485Y19944D01*
G01X16499Y19939D01*
G01X16513Y19936D01*
G01X16527Y19935D01*
G01X16527Y19256D01*
G01X16519Y19245D01*
G01X16512Y19232D01*
G01X16506Y19218D01*
G01X16503Y19204D01*
G01X16502Y19189D01*
G01X16502Y18364D01*
G01X16503Y18349D01*
G01X16506Y18335D01*
G01X16512Y18321D01*
G01X16519Y18308D01*
G01X16527Y18297D01*
G01X16527Y17618D01*
G01X16513Y17617D01*
G01X16499Y17614D01*
G01X16485Y17609D01*
G01X16473Y17602D01*
G01X16461Y17593D01*
G01X16451Y17583D01*
G01X16442Y17572D01*
G01X16435Y17559D01*
G01X16430Y17545D01*
G01X16427Y17531D01*
G01X16426Y17517D01*
G01X16426Y17164D01*
G01X16427Y17149D01*
G01X16430Y17135D01*
G01X16435Y17121D01*
G01X16442Y17109D01*
G01X16451Y17097D01*
G01X16461Y17087D01*
G01X16473Y17078D01*
G01X16485Y17071D01*
G01X16499Y17066D01*
G01X16513Y17063D01*
G01X16528Y17062D01*
G01X16639Y17062D01*
G01X16663Y17061D01*
G01X16687Y17058D01*
G01X16710Y17052D01*
G01X16732Y17045D01*
G01X16754Y17035D01*
G01X16775Y17024D01*
G01X16794Y17010D01*
G01X16812Y16995D01*
G01X16829Y16978D01*
G01X16844Y16960D01*
G01X16858Y16941D01*
G01X16869Y16920D01*
G01X16879Y16898D01*
G01X16886Y16876D01*
G01X16892Y16853D01*
G01X16895Y16829D01*
G01X16896Y16806D01*
G01X16896Y15705D01*
G01X16895Y15682D01*
G01X16892Y15658D01*
G01X16886Y15635D01*
G01X16879Y15613D01*
G01X16869Y15591D01*
G01X16858Y15570D01*
G01X16844Y15551D01*
G01X16829Y15533D01*
G01X16812Y15516D01*
G01X16794Y15501D01*
G01X16775Y15487D01*
G01X16754Y15476D01*
G01X16732Y15466D01*
G01X16710Y15459D01*
G01X16687Y15453D01*
G01X16663Y15450D01*
G01X16639Y15449D01*
G01X16625Y15449D01*
G01X16610Y15448D01*
G01X16596Y15445D01*
G01X16582Y15440D01*
G01X16570Y15433D01*
G01X16558Y15424D01*
G01X16548Y15414D01*
G01X16539Y15402D01*
G01X16532Y15390D01*
G01X16527Y15376D01*
G01X16524Y15362D01*
G01X16523Y15347D01*
G01X16523Y15132D01*
G01X16524Y15117D01*
G01X16527Y15103D01*
G01X16532Y15089D01*
G01X16539Y15077D01*
G01X16548Y15065D01*
G01X16558Y15055D01*
G01X16570Y15046D01*
G01X16582Y15039D01*
G01X16596Y15034D01*
G01X16610Y15031D01*
G01X16625Y15030D01*
G01X16639Y15030D01*
G01X16663Y15029D01*
G01X16687Y15026D01*
G01X16710Y15020D01*
G01X16732Y15013D01*
G01X16754Y15003D01*
G01X16775Y14992D01*
G01X16794Y14978D01*
G01X16812Y14963D01*
G01X16829Y14946D01*
G01X16844Y14928D01*
G01X16858Y14909D01*
G01X16869Y14888D01*
G01X16879Y14866D01*
G01X16886Y14844D01*
G01X16892Y14821D01*
G01X16895Y14797D01*
G01X16896Y14774D01*
G01X16896Y13836D01*
G01X16897Y13821D01*
G01X16900Y13807D01*
G01X16905Y13793D01*
G01X16912Y13781D01*
G01X16921Y13769D01*
G01X16931Y13759D01*
G01X16943Y13750D01*
G01X16955Y13743D01*
G01X16969Y13738D01*
G01X16983Y13735D01*
G01X16998Y13734D01*
G01X17014Y13735D01*
G01X17029Y13739D01*
G01X17044Y13745D01*
G01X17057Y13753D01*
G01X17069Y13764D01*
G01X17342Y14036D01*
G01X17352Y14049D01*
G01X17361Y14062D01*
G01X17367Y14077D01*
G01X17371Y14092D01*
G01X17372Y14108D01*
G01X17371Y14124D01*
G01X17367Y14140D01*
G01X17360Y14166D01*
G01X17355Y14193D01*
G01X17354Y14220D01*
G01X17354Y15220D01*
G01X17355Y15244D01*
G01X17358Y15268D01*
G01X17364Y15291D01*
G01X17371Y15313D01*
G01X17381Y15335D01*
G01X17392Y15356D01*
G01X17406Y15375D01*
G01X17421Y15393D01*
G01X17438Y15410D01*
G01X17456Y15425D01*
G01X17475Y15439D01*
G01X17496Y15450D01*
G01X17518Y15460D01*
G01X17540Y15467D01*
G01X17563Y15473D01*
G01X17587Y15476D01*
G01X17610Y15477D01*
G01X18333Y15477D01*
G01X18349Y15478D01*
G01X18364Y15482D01*
G01X18379Y15488D01*
G01X18392Y15496D01*
G01X18405Y15507D01*
G01X18488Y15591D01*
G01X18499Y15603D01*
G01X18507Y15616D01*
G01X18513Y15631D01*
G01X18517Y15646D01*
G01X18518Y15662D01*
G01X18517Y15678D01*
G01X18513Y15693D01*
G01X18507Y15708D01*
G01X18499Y15722D01*
G01X18499Y16207D01*
G01X19063Y16207D01*
G01X19079Y16208D01*
G01X19094Y16212D01*
G01X19109Y16218D01*
G01X19122Y16226D01*
G01X19134Y16237D01*
G01X19140Y16243D01*
G01X20198Y17300D01*
G01X20220Y17320D01*
G01X20243Y17339D01*
G01X20268Y17356D01*
G01X20295Y17370D01*
G01X20322Y17383D01*
G01X20350Y17393D01*
G01X20379Y17402D01*
G01X20409Y17407D01*
G01X20439Y17411D01*
G01X20469Y17412D01*
G01X20510Y17412D01*
G01X20525Y17413D01*
G01X20540Y17417D01*
G01X20554Y17422D01*
G01X20567Y17429D01*
G01X20589Y17449D01*
G01X20597Y17462D01*
G01X20604Y17475D01*
G01X20609Y17489D01*
G01X20611Y17504D01*
G01X20611Y17506D01*
G01X20612Y17517D01*
G01X20611Y17531D01*
G01X20608Y17545D01*
G01X20603Y17559D01*
G01X20596Y17572D01*
G01X20587Y17583D01*
G01X20577Y17593D01*
G01X20565Y17602D01*
G01X20553Y17609D01*
G01X20539Y17614D01*
G01X20525Y17617D01*
G01X20510Y17618D01*
G01X20389Y17618D01*
G01X20360Y17620D01*
G01X20330Y17625D01*
G01X20302Y17634D01*
G01X20285Y17638D01*
G01X20268Y17640D01*
G01X20250Y17638D01*
G01X20233Y17634D01*
G01X20205Y17625D01*
G01X20175Y17620D01*
G01X20146Y17618D01*
G01X19739Y17618D01*
G01X19710Y17620D01*
G01X19680Y17625D01*
G01X19652Y17634D01*
G01X19635Y17638D01*
G01X19618Y17640D01*
G01X19600Y17638D01*
G01X19583Y17634D01*
G01X19555Y17625D01*
G01X19525Y17620D01*
G01X19496Y17618D01*
G01X19458Y17618D01*
G01X19458Y18297D01*
G01X19466Y18308D01*
G01X19473Y18321D01*
G01X19479Y18335D01*
G01X19482Y18349D01*
G01X19483Y18364D01*
G01X19483Y19189D01*
G01X19482Y19204D01*
G01X19479Y19218D01*
G01X19473Y19232D01*
G01X19466Y19245D01*
G01X19458Y19256D01*
G01X19458Y19935D01*
G01X19496Y19935D01*
G01X19525Y19933D01*
G01X19555Y19928D01*
G01X19583Y19919D01*
G01X19600Y19915D01*
G01X19617Y19913D01*
G01X19618Y19913D01*
G01X19635Y19915D01*
G01X19652Y19919D01*
G01X19680Y19928D01*
G01X19710Y19933D01*
G01X19739Y19935D01*
G01X20146Y19935D01*
G01X20175Y19933D01*
G01X20205Y19928D01*
G01X20233Y19919D01*
G01X20250Y19915D01*
G01X20268Y19913D01*
G01X20285Y19915D01*
G01X20302Y19919D01*
G01X20330Y19928D01*
G01X20360Y19933D01*
G01X20389Y19935D01*
G01X20796Y19935D01*
G01X20825Y19933D01*
G01X20855Y19928D01*
G01X20883Y19919D01*
G01X20900Y19915D01*
G01X20917Y19913D01*
G01X20918Y19913D01*
G01X20935Y19915D01*
G01X20952Y19919D01*
G01X20980Y19928D01*
G01X21010Y19933D01*
G01X21039Y19935D01*
G01X21358Y19935D01*
G01X21373Y19936D01*
G01X21387Y19939D01*
G01X21401Y19944D01*
G01X21413Y19951D01*
G01X21425Y19960D01*
G01X21435Y19970D01*
G01X21444Y19981D01*
G01X21451Y19994D01*
G01X21456Y20008D01*
G01X21459Y20022D01*
G01X21460Y20036D01*
G01X21460Y22786D01*
G01X21459Y22801D01*
G01X21455Y22817D01*
G01X21449Y22832D01*
G01X21441Y22845D01*
G01X21430Y22857D01*
G01X19850Y24437D01*
G01X19838Y24448D01*
G01X19825Y24456D01*
G01X19810Y24462D01*
G01X19794Y24466D01*
G37*

%LPC*%
G36*
G01X16896Y19935D02*
G01X16858Y19935D01*
G01X16858Y19256D01*
G01X16866Y19245D01*
G01X16873Y19232D01*
G01X16879Y19218D01*
G01X16882Y19204D01*
G01X16883Y19189D01*
G01X16883Y18364D01*
G01X16882Y18349D01*
G01X16879Y18335D01*
G01X16873Y18321D01*
G01X16866Y18308D01*
G01X16858Y18297D01*
G01X16858Y17618D01*
G01X16896Y17618D01*
G01X16925Y17620D01*
G01X16955Y17625D01*
G01X16983Y17634D01*
G01X17000Y17638D01*
G01X17018Y17640D01*
G01X17035Y17638D01*
G01X17052Y17634D01*
G01X17080Y17625D01*
G01X17110Y17620D01*
G01X17139Y17618D01*
G01X17546Y17618D01*
G01X17575Y17620D01*
G01X17605Y17625D01*
G01X17633Y17634D01*
G01X17650Y17638D01*
G01X17668Y17640D01*
G01X17685Y17638D01*
G01X17702Y17634D01*
G01X17730Y17625D01*
G01X17760Y17620D01*
G01X17789Y17618D01*
G01X18196Y17618D01*
G01X18225Y17620D01*
G01X18255Y17625D01*
G01X18283Y17634D01*
G01X18300Y17638D01*
G01X18317Y17640D01*
G01X18335Y17638D01*
G01X18352Y17634D01*
G01X18380Y17625D01*
G01X18410Y17620D01*
G01X18439Y17618D01*
G01X18846Y17618D01*
G01X18875Y17620D01*
G01X18905Y17625D01*
G01X18933Y17634D01*
G01X18950Y17638D01*
G01X18968Y17640D01*
G01X18985Y17638D01*
G01X19002Y17634D01*
G01X19030Y17625D01*
G01X19060Y17620D01*
G01X19089Y17618D01*
G01X19127Y17618D01*
G01X19127Y18297D01*
G01X19119Y18308D01*
G01X19112Y18321D01*
G01X19106Y18335D01*
G01X19103Y18349D01*
G01X19102Y18364D01*
G01X19102Y19189D01*
G01X19103Y19204D01*
G01X19106Y19218D01*
G01X19112Y19232D01*
G01X19119Y19245D01*
G01X19127Y19256D01*
G01X19127Y19935D01*
G01X19089Y19935D01*
G01X19060Y19933D01*
G01X19030Y19928D01*
G01X19002Y19919D01*
G01X18985Y19915D01*
G01X18968Y19913D01*
G01X18950Y19915D01*
G01X18933Y19919D01*
G01X18905Y19928D01*
G01X18875Y19933D01*
G01X18846Y19935D01*
G01X18439Y19935D01*
G01X18410Y19933D01*
G01X18380Y19928D01*
G01X18352Y19919D01*
G01X18335Y19915D01*
G01X18317Y19913D01*
G01X18300Y19915D01*
G01X18283Y19919D01*
G01X18255Y19928D01*
G01X18225Y19933D01*
G01X18196Y19935D01*
G01X17789Y19935D01*
G01X17760Y19933D01*
G01X17730Y19928D01*
G01X17702Y19919D01*
G01X17685Y19915D01*
G01X17668Y19913D01*
G01X17650Y19915D01*
G01X17633Y19919D01*
G01X17605Y19928D01*
G01X17575Y19933D01*
G01X17546Y19935D01*
G01X17139Y19935D01*
G01X17110Y19933D01*
G01X17080Y19928D01*
G01X17052Y19919D01*
G01X17035Y19915D01*
G01X17018Y19913D01*
G01X17000Y19915D01*
G01X16983Y19919D01*
G01X16955Y19928D01*
G01X16925Y19933D01*
G01X16896Y19935D01*
G37*
G36*
G01X17822Y17277D02*
G01X17610Y17277D01*
G01X17587Y17276D01*
G01X17563Y17273D01*
G01X17540Y17267D01*
G01X17518Y17260D01*
G01X17496Y17250D01*
G01X17475Y17239D01*
G01X17456Y17225D01*
G01X17438Y17210D01*
G01X17421Y17193D01*
G01X17406Y17175D01*
G01X17392Y17156D01*
G01X17381Y17135D01*
G01X17371Y17113D01*
G01X17364Y17091D01*
G01X17358Y17068D01*
G01X17355Y17044D01*
G01X17354Y17020D01*
G01X17354Y16834D01*
G01X17822Y16834D01*
G01X17822Y17277D01*
G37*
G36*
G01X18711Y17277D02*
G01X18499Y17277D01*
G01X18499Y16834D01*
G01X18967Y16834D01*
G01X18967Y17020D01*
G01X18966Y17044D01*
G01X18963Y17068D01*
G01X18957Y17091D01*
G01X18950Y17113D01*
G01X18940Y17135D01*
G01X18929Y17156D01*
G01X18915Y17175D01*
G01X18900Y17193D01*
G01X18883Y17210D01*
G01X18865Y17225D01*
G01X18846Y17239D01*
G01X18825Y17250D01*
G01X18803Y17260D01*
G01X18781Y17267D01*
G01X18758Y17273D01*
G01X18734Y17276D01*
G01X18711Y17277D01*
G37*
G36*
G01X14026Y15917D02*
G01X13583Y15917D01*
G01X13583Y15705D01*
G01X13584Y15682D01*
G01X13587Y15658D01*
G01X13593Y15635D01*
G01X13600Y15613D01*
G01X13610Y15591D01*
G01X13621Y15570D01*
G01X13635Y15551D01*
G01X13650Y15533D01*
G01X13667Y15516D01*
G01X13685Y15501D01*
G01X13704Y15487D01*
G01X13725Y15476D01*
G01X13747Y15466D01*
G01X13769Y15459D01*
G01X13792Y15453D01*
G01X13816Y15450D01*
G01X13839Y15449D01*
G01X14026Y15449D01*
G01X14026Y15917D01*
G37*
G36*
G01X14026Y15030D02*
G01X13839Y15030D01*
G01X13816Y15029D01*
G01X13792Y15026D01*
G01X13769Y15020D01*
G01X13747Y15013D01*
G01X13725Y15003D01*
G01X13704Y14992D01*
G01X13685Y14978D01*
G01X13667Y14963D01*
G01X13650Y14946D01*
G01X13635Y14928D01*
G01X13621Y14909D01*
G01X13610Y14888D01*
G01X13600Y14866D01*
G01X13593Y14844D01*
G01X13587Y14821D01*
G01X13584Y14797D01*
G01X13583Y14774D01*
G01X13583Y14562D01*
G01X14026Y14562D01*
G01X14026Y15030D01*
G37*
G36*
G01X17822Y16207D02*
G01X17354Y16207D01*
G01X17354Y16020D01*
G01X17355Y15997D01*
G01X17358Y15973D01*
G01X17364Y15950D01*
G01X17371Y15928D01*
G01X17381Y15906D01*
G01X17392Y15885D01*
G01X17406Y15866D01*
G01X17421Y15848D01*
G01X17438Y15831D01*
G01X17456Y15816D01*
G01X17475Y15802D01*
G01X17496Y15791D01*
G01X17518Y15781D01*
G01X17540Y15774D01*
G01X17563Y15768D01*
G01X17587Y15765D01*
G01X17610Y15764D01*
G01X17822Y15764D01*
G01X17822Y16207D01*
G37*
G36*
G01X15096Y15917D02*
G01X14653Y15917D01*
G01X14653Y15449D01*
G01X14839Y15449D01*
G01X14863Y15450D01*
G01X14887Y15453D01*
G01X14910Y15459D01*
G01X14932Y15466D01*
G01X14954Y15476D01*
G01X14974Y15487D01*
G01X14994Y15501D01*
G01X15012Y15516D01*
G01X15029Y15533D01*
G01X15044Y15551D01*
G01X15057Y15570D01*
G01X15069Y15591D01*
G01X15079Y15613D01*
G01X15086Y15635D01*
G01X15092Y15658D01*
G01X15095Y15682D01*
G01X15096Y15705D01*
G01X15096Y15917D01*
G37*
G36*
G01X15096Y13885D02*
G01X14653Y13885D01*
G01X14653Y13417D01*
G01X14839Y13417D01*
G01X14863Y13418D01*
G01X14887Y13421D01*
G01X14910Y13427D01*
G01X14932Y13434D01*
G01X14954Y13444D01*
G01X14974Y13455D01*
G01X14994Y13469D01*
G01X15012Y13484D01*
G01X15029Y13501D01*
G01X15044Y13519D01*
G01X15057Y13538D01*
G01X15069Y13559D01*
G01X15079Y13581D01*
G01X15086Y13603D01*
G01X15092Y13626D01*
G01X15095Y13650D01*
G01X15096Y13673D01*
G01X15096Y13885D01*
G37*
G36*
G01X14839Y17062D02*
G01X14653Y17062D01*
G01X14653Y16594D01*
G01X15096Y16594D01*
G01X15096Y16806D01*
G01X15095Y16829D01*
G01X15092Y16853D01*
G01X15086Y16876D01*
G01X15079Y16898D01*
G01X15069Y16920D01*
G01X15057Y16941D01*
G01X15044Y16960D01*
G01X15029Y16978D01*
G01X15012Y16995D01*
G01X14994Y17010D01*
G01X14974Y17024D01*
G01X14954Y17035D01*
G01X14932Y17045D01*
G01X14910Y17052D01*
G01X14887Y17058D01*
G01X14863Y17061D01*
G01X14839Y17062D01*
G37*
G36*
G01X14839Y15030D02*
G01X14653Y15030D01*
G01X14653Y14562D01*
G01X15096Y14562D01*
G01X15096Y14774D01*
G01X15095Y14797D01*
G01X15092Y14821D01*
G01X15086Y14844D01*
G01X15079Y14866D01*
G01X15069Y14888D01*
G01X15057Y14909D01*
G01X15044Y14928D01*
G01X15029Y14946D01*
G01X15012Y14963D01*
G01X14994Y14978D01*
G01X14974Y14992D01*
G01X14954Y15003D01*
G01X14932Y15013D01*
G01X14910Y15020D01*
G01X14887Y15026D01*
G01X14863Y15029D01*
G01X14839Y15030D01*
G37*

%LPD*%
G36*
G01X9898Y9735D02*
G01X9883Y9736D01*
G01X9868Y9735D01*
G01X9854Y9732D01*
G01X9840Y9727D01*
G01X9828Y9720D01*
G01X9816Y9711D01*
G01X9806Y9701D01*
G01X9797Y9689D01*
G01X9790Y9676D01*
G01X9785Y9663D01*
G01X9782Y9649D01*
G01X9781Y9634D01*
G01X9781Y7891D01*
G01X9782Y7876D01*
G01X9785Y7862D01*
G01X9790Y7849D01*
G01X9797Y7836D01*
G01X9806Y7824D01*
G01X9816Y7814D01*
G01X9828Y7805D01*
G01X9840Y7798D01*
G01X9854Y7793D01*
G01X9868Y7790D01*
G01X9883Y7789D01*
G01X9898Y7790D01*
G01X9914Y7794D01*
G01X9928Y7800D01*
G01X9942Y7808D01*
G01X9954Y7818D01*
G01X9964Y7830D01*
G01X9986Y7857D01*
G01X10009Y7883D01*
G01X10034Y7907D01*
G01X10060Y7930D01*
G01X10088Y7951D01*
G01X10117Y7970D01*
G01X10147Y7987D01*
G01X10178Y8003D01*
G01X10210Y8016D01*
G01X10243Y8028D01*
G01X10276Y8037D01*
G01X10310Y8045D01*
G01X10344Y8050D01*
G01X10379Y8053D01*
G01X10414Y8055D01*
G01X10451Y8053D01*
G01X10489Y8049D01*
G01X10527Y8043D01*
G01X10564Y8034D01*
G01X10600Y8023D01*
G01X10636Y8009D01*
G01X10668Y7993D01*
G01X10700Y7976D01*
G01X10731Y7957D01*
G01X10760Y7935D01*
G01X10788Y7912D01*
G01X10799Y7903D01*
G01X10812Y7896D01*
G01X10826Y7890D01*
G01X10840Y7887D01*
G01X10855Y7886D01*
G01X11478Y7886D01*
G01X11493Y7881D01*
G01X11508Y7877D01*
G01X11523Y7876D01*
G01X12348Y7876D01*
G01X12363Y7877D01*
G01X12378Y7881D01*
G01X12393Y7886D01*
G01X13094Y7886D01*
G01X13094Y7872D01*
G01X13095Y7857D01*
G01X13098Y7842D01*
G01X13104Y7827D01*
G01X13112Y7814D01*
G01X13122Y7802D01*
G01X13134Y7792D01*
G01X13147Y7783D01*
G01X13161Y7777D01*
G01X13187Y7766D01*
G01X13212Y7754D01*
G01X13236Y7740D01*
G01X13259Y7724D01*
G01X13280Y7707D01*
G01X13301Y7688D01*
G01X13880Y7108D01*
G01X13893Y7098D01*
G01X13906Y7089D01*
G01X13921Y7083D01*
G01X13936Y7079D01*
G01X13952Y7078D01*
G01X13967Y7079D01*
G01X13982Y7082D01*
G01X13995Y7088D01*
G01X14008Y7095D01*
G01X14020Y7104D01*
G01X14030Y7115D01*
G01X14039Y7127D01*
G01X14046Y7140D01*
G01X14051Y7154D01*
G01X14053Y7169D01*
G01X14057Y7192D01*
G01X14063Y7215D01*
G01X14070Y7237D01*
G01X14080Y7259D01*
G01X14092Y7279D01*
G01X14106Y7299D01*
G01X14121Y7317D01*
G01X14138Y7333D01*
G01X14156Y7348D01*
G01X14176Y7361D01*
G01X14197Y7372D01*
G01X14218Y7382D01*
G01X14241Y7389D01*
G01X14264Y7394D01*
G01X14279Y7398D01*
G01X14294Y7404D01*
G01X14307Y7413D01*
G01X14319Y7423D01*
G01X14329Y7435D01*
G01X14337Y7449D01*
G01X14343Y7463D01*
G01X14347Y7479D01*
G01X14348Y7494D01*
G01X14348Y7872D01*
G01X14347Y7887D01*
G01X14343Y7903D01*
G01X14337Y7917D01*
G01X14329Y7931D01*
G01X14319Y7943D01*
G01X14307Y7953D01*
G01X14294Y7962D01*
G01X14279Y7968D01*
G01X14264Y7972D01*
G01X14240Y7977D01*
G01X14216Y7985D01*
G01X14193Y7995D01*
G01X14172Y8007D01*
G01X14151Y8022D01*
G01X14132Y8038D01*
G01X14115Y8056D01*
G01X14100Y8075D01*
G01X14086Y8096D01*
G01X14075Y8118D01*
G01X14066Y8141D01*
G01X14059Y8156D01*
G01X14051Y8169D01*
G01X14041Y8181D01*
G01X14029Y8191D01*
G01X14015Y8199D01*
G01X14001Y8205D01*
G01X13985Y8209D01*
G01X13970Y8210D01*
G01X13969Y8210D01*
G01X13195Y8206D01*
G01X12006Y8201D01*
G01X11935Y8201D01*
G01X11901Y8202D01*
G01X11866Y8206D01*
G01X11831Y8212D01*
G01X11798Y8220D01*
G01X11764Y8231D01*
G01X11732Y8244D01*
G01X11712Y8250D01*
G01X11691Y8252D01*
G01X11523Y8252D01*
G01X11508Y8251D01*
G01X11494Y8248D01*
G01X11480Y8243D01*
G01X11467Y8236D01*
G01X11456Y8227D01*
G01X11446Y8216D01*
G01X10777Y8216D01*
G01X10777Y8255D01*
G01X10778Y8278D01*
G01X10781Y8301D01*
G01X10787Y8323D01*
G01X10794Y8345D01*
G01X10799Y8363D01*
G01X10801Y8382D01*
G01X10799Y8400D01*
G01X10794Y8418D01*
G01X10787Y8440D01*
G01X10781Y8462D01*
G01X10778Y8485D01*
G01X10777Y8509D01*
G01X10777Y8915D01*
G01X10779Y8943D01*
G01X10783Y8970D01*
G01X10791Y8997D01*
G01X10795Y9013D01*
G01X10796Y9029D01*
G01X10795Y9046D01*
G01X10791Y9062D01*
G01X10783Y9088D01*
G01X10779Y9116D01*
G01X10777Y9144D01*
G01X10777Y9423D01*
G01X10776Y9437D01*
G01X10773Y9451D01*
G01X10768Y9465D01*
G01X10761Y9478D01*
G01X10752Y9489D01*
G01X10742Y9500D01*
G01X10731Y9508D01*
G01X10718Y9515D01*
G01X10704Y9520D01*
G01X10690Y9523D01*
G01X10676Y9524D01*
G01X10655Y9522D01*
G01X10636Y9516D01*
G01X10600Y9502D01*
G01X10564Y9491D01*
G01X10527Y9482D01*
G01X10489Y9476D01*
G01X10451Y9472D01*
G01X10414Y9470D01*
G01X10379Y9472D01*
G01X10344Y9475D01*
G01X10310Y9480D01*
G01X10276Y9488D01*
G01X10243Y9497D01*
G01X10210Y9509D01*
G01X10178Y9522D01*
G01X10147Y9538D01*
G01X10117Y9555D01*
G01X10088Y9574D01*
G01X10060Y9595D01*
G01X10034Y9618D01*
G01X10009Y9642D01*
G01X9986Y9668D01*
G01X9964Y9695D01*
G01X9954Y9707D01*
G01X9942Y9717D01*
G01X9928Y9725D01*
G01X9914Y9731D01*
G01X9898Y9735D01*
G37*

%LPD*%
G36*
G01X3426Y27236D02*
G01X419Y27236D01*
G01X404Y27234D01*
G01X390Y27231D01*
G01X376Y27226D01*
G01X364Y27219D01*
G01X352Y27211D01*
G01X342Y27200D01*
G01X333Y27189D01*
G01X326Y27176D01*
G01X321Y27163D01*
G01X318Y27148D01*
G01X317Y27134D01*
G01X317Y2855D01*
G01X318Y2841D01*
G01X321Y2826D01*
G01X326Y2813D01*
G01X333Y2800D01*
G01X342Y2788D01*
G01X352Y2778D01*
G01X364Y2770D01*
G01X376Y2763D01*
G01X390Y2758D01*
G01X404Y2754D01*
G01X419Y2753D01*
G01X434Y2755D01*
G01X448Y2758D01*
G01X462Y2763D01*
G01X476Y2771D01*
G01X487Y2780D01*
G01X498Y2791D01*
G01X506Y2804D01*
G01X513Y2817D01*
G01X536Y2873D01*
G01X562Y2928D01*
G01X589Y2981D01*
G01X617Y3034D01*
G01X648Y3086D01*
G01X680Y3137D01*
G01X715Y3187D01*
G01X750Y3235D01*
G01X788Y3282D01*
G01X827Y3328D01*
G01X867Y3373D01*
G01X909Y3416D01*
G01X953Y3458D01*
G01X998Y3498D01*
G01X1044Y3537D01*
G01X1091Y3574D01*
G01X1140Y3609D01*
G01X1190Y3643D01*
G01X1241Y3675D01*
G01X1293Y3705D01*
G01X1346Y3734D01*
G01X1400Y3761D01*
G01X1455Y3786D01*
G01X1511Y3809D01*
G01X1567Y3830D01*
G01X1625Y3849D01*
G01X1682Y3866D01*
G01X1741Y3881D01*
G01X1799Y3894D01*
G01X1859Y3905D01*
G01X1918Y3915D01*
G01X1978Y3922D01*
G01X2038Y3927D01*
G01X2098Y3930D01*
G01X2159Y3931D01*
G01X2220Y3930D01*
G01X2281Y3927D01*
G01X2342Y3922D01*
G01X2403Y3914D01*
G01X2463Y3905D01*
G01X2523Y3893D01*
G01X2583Y3880D01*
G01X2642Y3864D01*
G01X2700Y3846D01*
G01X2758Y3826D01*
G01X2816Y3805D01*
G01X2872Y3781D01*
G01X2928Y3755D01*
G01X2982Y3728D01*
G01X3036Y3699D01*
G01X3089Y3667D01*
G01X3140Y3634D01*
G01X3191Y3600D01*
G01X3240Y3563D01*
G01X3288Y3525D01*
G01X3334Y3485D01*
G01X3379Y3444D01*
G01X3423Y3401D01*
G01X3465Y3356D01*
G01X3505Y3311D01*
G01X3544Y3264D01*
G01X3582Y3215D01*
G01X3617Y3165D01*
G01X3651Y3114D01*
G01X3683Y3062D01*
G01X3714Y3009D01*
G01X3742Y2955D01*
G01X3769Y2900D01*
G01X3793Y2844D01*
G01X3816Y2787D01*
G01X3837Y2729D01*
G01X3855Y2671D01*
G01X3872Y2612D01*
G01X3887Y2553D01*
G01X3899Y2493D01*
G01X3903Y2478D01*
G01X3910Y2464D01*
G01X3918Y2450D01*
G01X3928Y2439D01*
G01X3940Y2429D01*
G01X3954Y2421D01*
G01X3968Y2415D01*
G01X3983Y2412D01*
G01X3999Y2410D01*
G01X4013Y2411D01*
G01X4028Y2414D01*
G01X4054Y2426D01*
G01X4066Y2435D01*
G01X4076Y2445D01*
G01X4085Y2457D01*
G01X4097Y2483D01*
G01X4111Y2530D01*
G01X4128Y2576D01*
G01X4147Y2622D01*
G01X4167Y2666D01*
G01X4190Y2710D01*
G01X4214Y2753D01*
G01X4240Y2794D01*
G01X4268Y2835D01*
G01X4298Y2874D01*
G01X4329Y2912D01*
G01X4362Y2948D01*
G01X4396Y2984D01*
G01X4432Y3017D01*
G01X4469Y3049D01*
G01X4508Y3080D01*
G01X4547Y3109D01*
G01X4588Y3136D01*
G01X4630Y3161D01*
G01X4673Y3185D01*
G01X4717Y3207D01*
G01X4762Y3226D01*
G01X4776Y3233D01*
G01X4788Y3242D01*
G01X4799Y3252D01*
G01X4808Y3264D01*
G01X4815Y3277D01*
G01X4821Y3291D01*
G01X4824Y3305D01*
G01X4825Y3320D01*
G01X4825Y4239D01*
G01X4824Y4253D01*
G01X4821Y4267D01*
G01X4816Y4281D01*
G01X4809Y4294D01*
G01X4800Y4305D01*
G01X4790Y4316D01*
G01X4778Y4324D01*
G01X4766Y4331D01*
G01X4752Y4336D01*
G01X4738Y4339D01*
G01X4723Y4340D01*
G01X4434Y4340D01*
G01X4410Y4341D01*
G01X4387Y4345D01*
G01X4364Y4350D01*
G01X4341Y4358D01*
G01X4319Y4367D01*
G01X4299Y4379D01*
G01X4279Y4392D01*
G01X4261Y4407D01*
G01X4244Y4424D01*
G01X4229Y4442D01*
G01X4216Y4462D01*
G01X4204Y4483D01*
G01X4195Y4504D01*
G01X4187Y4527D01*
G01X4182Y4550D01*
G01X4178Y4573D01*
G01X4177Y4597D01*
G01X4177Y5003D01*
G01X4178Y5027D01*
G01X4181Y5050D01*
G01X4187Y5072D01*
G01X4194Y5094D01*
G01X4199Y5112D01*
G01X4201Y5130D01*
G01X4199Y5149D01*
G01X4194Y5166D01*
G01X4187Y5188D01*
G01X4181Y5211D01*
G01X4178Y5234D01*
G01X4177Y5257D01*
G01X4177Y5664D01*
G01X4179Y5691D01*
G01X4183Y5719D01*
G01X4191Y5746D01*
G01X4195Y5762D01*
G01X4196Y5778D01*
G01X4195Y5794D01*
G01X4191Y5810D01*
G01X4183Y5837D01*
G01X4179Y5865D01*
G01X4177Y5892D01*
G01X4177Y5930D01*
G01X4878Y5930D01*
G01X4893Y5925D01*
G01X4908Y5921D01*
G01X4923Y5920D01*
G01X5091Y5920D01*
G01X5112Y5922D01*
G01X5132Y5929D01*
G01X5164Y5941D01*
G01X5198Y5952D01*
G01X5232Y5960D01*
G01X5266Y5966D01*
G01X5301Y5970D01*
G01X5336Y5971D01*
G01X5370Y5970D01*
G01X5405Y5966D01*
G01X5440Y5960D01*
G01X5473Y5952D01*
G01X5507Y5941D01*
G01X5539Y5929D01*
G01X5559Y5922D01*
G01X5580Y5920D01*
G01X5748Y5920D01*
G01X5763Y5921D01*
G01X5778Y5925D01*
G01X5793Y5930D01*
G01X6372Y5930D01*
G01X6387Y5931D01*
G01X6401Y5935D01*
G01X6415Y5940D01*
G01X6427Y5947D01*
G01X6439Y5955D01*
G01X6449Y5965D01*
G01X6458Y5977D01*
G01X6465Y5990D01*
G01X6470Y6003D01*
G01X6473Y6018D01*
G01X6474Y6032D01*
G01X6474Y6159D01*
G01X6473Y6173D01*
G01X6470Y6188D01*
G01X6465Y6201D01*
G01X6458Y6214D01*
G01X6449Y6226D01*
G01X6439Y6236D01*
G01X6427Y6244D01*
G01X6415Y6251D01*
G01X6401Y6256D01*
G01X6387Y6260D01*
G01X6372Y6261D01*
G01X5850Y6261D01*
G01X5850Y6591D01*
G01X6372Y6591D01*
G01X6387Y6592D01*
G01X6401Y6595D01*
G01X6415Y6600D01*
G01X6427Y6607D01*
G01X6439Y6616D01*
G01X6449Y6626D01*
G01X6458Y6637D01*
G01X6465Y6650D01*
G01X6470Y6664D01*
G01X6473Y6678D01*
G01X6474Y6692D01*
G01X6474Y6804D01*
G01X6473Y6819D01*
G01X6470Y6833D01*
G01X6465Y6846D01*
G01X6458Y6859D01*
G01X6449Y6871D01*
G01X6439Y6881D01*
G01X6427Y6890D01*
G01X6415Y6897D01*
G01X6401Y6902D01*
G01X6387Y6905D01*
G01X6372Y6906D01*
G01X5336Y6906D01*
G01X5301Y6907D01*
G01X5266Y6911D01*
G01X5232Y6916D01*
G01X5198Y6925D01*
G01X5164Y6935D01*
G01X5132Y6948D01*
G01X5112Y6954D01*
G01X5091Y6957D01*
G01X4923Y6957D01*
G01X4908Y6956D01*
G01X4894Y6952D01*
G01X4880Y6947D01*
G01X4867Y6940D01*
G01X4856Y6931D01*
G01X4846Y6921D01*
G01X4177Y6921D01*
G01X4177Y6959D01*
G01X4178Y6982D01*
G01X4181Y7005D01*
G01X4187Y7028D01*
G01X4194Y7050D01*
G01X4199Y7068D01*
G01X4201Y7086D01*
G01X4199Y7104D01*
G01X4194Y7122D01*
G01X4187Y7144D01*
G01X4181Y7167D01*
G01X4178Y7190D01*
G01X4177Y7213D01*
G01X4177Y7620D01*
G01X4179Y7647D01*
G01X4183Y7675D01*
G01X4191Y7701D01*
G01X4195Y7717D01*
G01X4196Y7734D01*
G01X4195Y7750D01*
G01X4191Y7766D01*
G01X4183Y7793D01*
G01X4179Y7820D01*
G01X4177Y7848D01*
G01X4177Y8255D01*
G01X4178Y8278D01*
G01X4181Y8301D01*
G01X4187Y8323D01*
G01X4194Y8345D01*
G01X4199Y8363D01*
G01X4201Y8382D01*
G01X4199Y8400D01*
G01X4194Y8418D01*
G01X4187Y8440D01*
G01X4181Y8462D01*
G01X4178Y8485D01*
G01X4177Y8509D01*
G01X4177Y8915D01*
G01X4179Y8943D01*
G01X4183Y8970D01*
G01X4191Y8997D01*
G01X4195Y9013D01*
G01X4196Y9029D01*
G01X4195Y9046D01*
G01X4191Y9062D01*
G01X4183Y9088D01*
G01X4179Y9116D01*
G01X4177Y9144D01*
G01X4177Y9550D01*
G01X4178Y9573D01*
G01X4181Y9596D01*
G01X4187Y9619D01*
G01X4194Y9641D01*
G01X4199Y9659D01*
G01X4201Y9677D01*
G01X4199Y9695D01*
G01X4194Y9713D01*
G01X4184Y9745D01*
G01X4179Y9778D01*
G01X4176Y9792D01*
G01X4171Y9806D01*
G01X4165Y9819D01*
G01X4156Y9831D01*
G01X4146Y9842D01*
G01X4846Y9842D01*
G01X4856Y9832D01*
G01X4867Y9823D01*
G01X4880Y9816D01*
G01X4894Y9811D01*
G01X4908Y9807D01*
G01X4923Y9806D01*
G01X5091Y9806D01*
G01X5112Y9809D01*
G01X5132Y9815D01*
G01X5164Y9828D01*
G01X5198Y9838D01*
G01X5232Y9847D01*
G01X5266Y9852D01*
G01X5301Y9856D01*
G01X5336Y9857D01*
G01X5370Y9856D01*
G01X5405Y9852D01*
G01X5440Y9847D01*
G01X5473Y9838D01*
G01X5507Y9828D01*
G01X5539Y9815D01*
G01X5559Y9809D01*
G01X5580Y9806D01*
G01X5748Y9806D01*
G01X5763Y9807D01*
G01X5777Y9811D01*
G01X5791Y9816D01*
G01X5804Y9823D01*
G01X5815Y9832D01*
G01X5825Y9842D01*
G01X6499Y9842D01*
G01X6514Y9843D01*
G01X6528Y9846D01*
G01X6542Y9851D01*
G01X6554Y9858D01*
G01X6566Y9867D01*
G01X6576Y9877D01*
G01X6585Y9889D01*
G01X6592Y9901D01*
G01X6597Y9915D01*
G01X6600Y9929D01*
G01X6601Y9944D01*
G01X6601Y10071D01*
G01X6600Y10085D01*
G01X6597Y10099D01*
G01X6592Y10113D01*
G01X6585Y10126D01*
G01X6576Y10137D01*
G01X6566Y10147D01*
G01X6554Y10156D01*
G01X6542Y10163D01*
G01X6528Y10168D01*
G01X6514Y10171D01*
G01X6499Y10172D01*
G01X5850Y10172D01*
G01X5850Y10502D01*
G01X6436Y10502D01*
G01X6451Y10503D01*
G01X6465Y10507D01*
G01X6479Y10512D01*
G01X6491Y10519D01*
G01X6503Y10527D01*
G01X6513Y10537D01*
G01X6522Y10549D01*
G01X6529Y10562D01*
G01X6534Y10575D01*
G01X6537Y10590D01*
G01X6538Y10604D01*
G01X6537Y10620D01*
G01X6533Y10635D01*
G01X6527Y10650D01*
G01X6519Y10664D01*
G01X6508Y10676D01*
G01X6422Y10762D01*
G01X6410Y10773D01*
G01X6396Y10781D01*
G01X6381Y10787D01*
G01X6366Y10791D01*
G01X6350Y10792D01*
G01X5336Y10792D01*
G01X5301Y10793D01*
G01X5266Y10797D01*
G01X5232Y10803D01*
G01X5198Y10811D01*
G01X5164Y10822D01*
G01X5132Y10834D01*
G01X5112Y10841D01*
G01X5091Y10843D01*
G01X4923Y10843D01*
G01X4908Y10842D01*
G01X4893Y10838D01*
G01X4878Y10833D01*
G01X4177Y10833D01*
G01X4177Y10871D01*
G01X4179Y10898D01*
G01X4183Y10926D01*
G01X4191Y10953D01*
G01X4195Y10969D01*
G01X4196Y10985D01*
G01X4195Y11001D01*
G01X4191Y11017D01*
G01X4183Y11044D01*
G01X4179Y11072D01*
G01X4177Y11099D01*
G01X4177Y11506D01*
G01X4178Y11529D01*
G01X4181Y11552D01*
G01X4187Y11575D01*
G01X4194Y11597D01*
G01X4199Y11614D01*
G01X4201Y11633D01*
G01X4199Y11651D01*
G01X4194Y11669D01*
G01X4187Y11691D01*
G01X4181Y11713D01*
G01X4178Y11736D01*
G01X4177Y11760D01*
G01X4177Y12166D01*
G01X4178Y12190D01*
G01X4182Y12213D01*
G01X4187Y12236D01*
G01X4195Y12259D01*
G01X4204Y12280D01*
G01X4216Y12301D01*
G01X4229Y12321D01*
G01X4244Y12339D01*
G01X4261Y12356D01*
G01X4279Y12371D01*
G01X4299Y12384D01*
G01X4319Y12396D01*
G01X4341Y12405D01*
G01X4364Y12413D01*
G01X4387Y12418D01*
G01X4410Y12422D01*
G01X4434Y12423D01*
G01X5091Y12423D01*
G01X5112Y12425D01*
G01X5132Y12431D01*
G01X5164Y12444D01*
G01X5198Y12454D01*
G01X5232Y12463D01*
G01X5266Y12469D01*
G01X5301Y12472D01*
G01X5336Y12473D01*
G01X5370Y12472D01*
G01X5405Y12469D01*
G01X5440Y12463D01*
G01X5473Y12454D01*
G01X5507Y12444D01*
G01X5539Y12431D01*
G01X5559Y12425D01*
G01X5580Y12423D01*
G01X6237Y12423D01*
G01X6261Y12422D01*
G01X6284Y12418D01*
G01X6307Y12413D01*
G01X6330Y12405D01*
G01X6352Y12396D01*
G01X6372Y12384D01*
G01X6392Y12371D01*
G01X6410Y12356D01*
G01X6427Y12339D01*
G01X6442Y12321D01*
G01X6455Y12301D01*
G01X6467Y12280D01*
G01X6476Y12259D01*
G01X6484Y12236D01*
G01X6489Y12213D01*
G01X6493Y12190D01*
G01X6494Y12166D01*
G01X6494Y11915D01*
G01X6495Y11900D01*
G01X6498Y11886D01*
G01X6503Y11872D01*
G01X6510Y11860D01*
G01X6519Y11848D01*
G01X6529Y11838D01*
G01X6540Y11829D01*
G01X6553Y11822D01*
G01X6567Y11817D01*
G01X6581Y11814D01*
G01X6595Y11813D01*
G01X6604Y11813D01*
G01X6637Y11812D01*
G01X6670Y11809D01*
G01X6703Y11803D01*
G01X6736Y11796D01*
G01X6768Y11786D01*
G01X6799Y11774D01*
G01X6829Y11760D01*
G01X6859Y11745D01*
G01X6887Y11727D01*
G01X6914Y11708D01*
G01X6940Y11686D01*
G01X6965Y11664D01*
G01X7473Y11156D01*
G01X7495Y11131D01*
G01X7517Y11105D01*
G01X7536Y11078D01*
G01X7554Y11050D01*
G01X7569Y11020D01*
G01X7583Y10990D01*
G01X7595Y10959D01*
G01X7605Y10927D01*
G01X7612Y10894D01*
G01X7618Y10861D01*
G01X7621Y10828D01*
G01X7622Y10795D01*
G01X7622Y9397D01*
G01X7623Y9381D01*
G01X7627Y9366D01*
G01X7633Y9351D01*
G01X7641Y9337D01*
G01X7652Y9325D01*
G01X8587Y8390D01*
G01X8599Y8380D01*
G01X8612Y8372D01*
G01X8627Y8366D01*
G01X8642Y8362D01*
G01X8658Y8361D01*
G01X8673Y8362D01*
G01X8687Y8365D01*
G01X8701Y8370D01*
G01X8713Y8377D01*
G01X8725Y8386D01*
G01X8735Y8396D01*
G01X8744Y8407D01*
G01X8751Y8420D01*
G01X8756Y8434D01*
G01X8759Y8448D01*
G01X8760Y8462D01*
G01X8760Y12674D01*
G01X8759Y12689D01*
G01X8756Y12703D01*
G01X8751Y12716D01*
G01X8744Y12729D01*
G01X8735Y12741D01*
G01X8725Y12751D01*
G01X8713Y12760D01*
G01X8701Y12767D01*
G01X8687Y12772D01*
G01X8673Y12775D01*
G01X8658Y12776D01*
G01X8643Y12775D01*
G01X8627Y12771D01*
G01X8602Y12764D01*
G01X8576Y12760D01*
G01X8550Y12759D01*
G01X7350Y12759D01*
G01X7326Y12760D01*
G01X7302Y12763D01*
G01X7279Y12769D01*
G01X7257Y12776D01*
G01X7235Y12786D01*
G01X7215Y12797D01*
G01X7195Y12811D01*
G01X7177Y12826D01*
G01X7160Y12843D01*
G01X7145Y12861D01*
G01X7131Y12880D01*
G01X7120Y12901D01*
G01X7110Y12923D01*
G01X7103Y12945D01*
G01X7097Y12968D01*
G01X7094Y12992D01*
G01X7093Y13016D01*
G01X7093Y14415D01*
G01X7094Y14439D01*
G01X7097Y14463D01*
G01X7103Y14486D01*
G01X7110Y14508D01*
G01X7120Y14530D01*
G01X7131Y14551D01*
G01X7145Y14570D01*
G01X7160Y14588D01*
G01X7177Y14605D01*
G01X7195Y14620D01*
G01X7215Y14634D01*
G01X7235Y14645D01*
G01X7257Y14655D01*
G01X7279Y14662D01*
G01X7302Y14668D01*
G01X7326Y14671D01*
G01X7350Y14672D01*
G01X7759Y14672D01*
G01X7774Y14673D01*
G01X7788Y14676D01*
G01X7801Y14681D01*
G01X7814Y14688D01*
G01X7826Y14697D01*
G01X7836Y14707D01*
G01X7845Y14719D01*
G01X7852Y14731D01*
G01X7857Y14745D01*
G01X7860Y14759D01*
G01X7861Y14774D01*
G01X7861Y16129D01*
G01X7862Y16162D01*
G01X7865Y16195D01*
G01X7871Y16228D01*
G01X7878Y16261D01*
G01X7888Y16293D01*
G01X7900Y16324D01*
G01X7913Y16354D01*
G01X7929Y16384D01*
G01X7947Y16412D01*
G01X7966Y16439D01*
G01X7987Y16465D01*
G01X8010Y16490D01*
G01X8772Y17252D01*
G01X8806Y17283D01*
G01X8843Y17310D01*
G01X8856Y17321D01*
G01X8866Y17333D01*
G01X8875Y17347D01*
G01X8882Y17362D01*
G01X8885Y17378D01*
G01X8887Y17394D01*
G01X8886Y17408D01*
G01X8883Y17423D01*
G01X8878Y17436D01*
G01X8871Y17449D01*
G01X8862Y17460D01*
G01X8852Y17471D01*
G01X8840Y17479D01*
G01X8827Y17486D01*
G01X8814Y17491D01*
G01X8792Y17499D01*
G01X8770Y17509D01*
G01X8750Y17520D01*
G01X8730Y17534D01*
G01X8712Y17549D01*
G01X8696Y17566D01*
G01X8681Y17584D01*
G01X8668Y17603D01*
G01X8656Y17624D01*
G01X8647Y17645D01*
G01X8639Y17668D01*
G01X8634Y17691D01*
G01X8631Y17714D01*
G01X8630Y17737D01*
G01X8630Y17949D01*
G01X9073Y17949D01*
G01X9073Y17516D01*
G01X9074Y17501D01*
G01X9077Y17487D01*
G01X9082Y17473D01*
G01X9089Y17461D01*
G01X9098Y17449D01*
G01X9108Y17439D01*
G01X9120Y17430D01*
G01X9132Y17423D01*
G01X9146Y17418D01*
G01X9160Y17415D01*
G01X9174Y17414D01*
G01X9192Y17415D01*
G01X9209Y17420D01*
G01X9245Y17432D01*
G01X9283Y17441D01*
G01X9321Y17447D01*
G01X9359Y17451D01*
G01X9398Y17453D01*
G01X9432Y17451D01*
G01X9466Y17448D01*
G01X9501Y17443D01*
G01X9534Y17436D01*
G01X9568Y17426D01*
G01X9583Y17423D01*
G01X9598Y17421D01*
G01X9613Y17422D01*
G01X9627Y17426D01*
G01X9640Y17431D01*
G01X9653Y17438D01*
G01X9665Y17446D01*
G01X9675Y17457D01*
G01X9684Y17468D01*
G01X9691Y17481D01*
G01X9696Y17494D01*
G01X9699Y17509D01*
G01X9700Y17523D01*
G01X9700Y17949D01*
G01X10143Y17949D01*
G01X10143Y17737D01*
G01X10142Y17714D01*
G01X10139Y17690D01*
G01X10133Y17667D01*
G01X10126Y17645D01*
G01X10116Y17623D01*
G01X10104Y17602D01*
G01X10091Y17583D01*
G01X10076Y17565D01*
G01X10059Y17548D01*
G01X10041Y17533D01*
G01X10021Y17519D01*
G01X10001Y17508D01*
G01X9979Y17498D01*
G01X9957Y17491D01*
G01X9934Y17485D01*
G01X9910Y17482D01*
G01X9886Y17481D01*
G01X9846Y17481D01*
G01X9832Y17480D01*
G01X9818Y17477D01*
G01X9804Y17472D01*
G01X9791Y17465D01*
G01X9780Y17456D01*
G01X9770Y17446D01*
G01X9761Y17434D01*
G01X9754Y17422D01*
G01X9749Y17408D01*
G01X9746Y17394D01*
G01X9745Y17379D01*
G01X9746Y17363D01*
G01X9750Y17346D01*
G01X9757Y17331D01*
G01X9766Y17317D01*
G01X9778Y17305D01*
G01X9803Y17279D01*
G01X9827Y17253D01*
G01X9849Y17225D01*
G01X9870Y17195D01*
G01X9888Y17165D01*
G01X9905Y17133D01*
G01X9919Y17100D01*
G01X9931Y17066D01*
G01X9941Y17032D01*
G01X9949Y16997D01*
G01X9955Y16962D01*
G01X9958Y16926D01*
G01X9960Y16891D01*
G01X9959Y16856D01*
G01X9955Y16822D01*
G01X9950Y16788D01*
G01X9943Y16754D01*
G01X9933Y16721D01*
G01X9922Y16689D01*
G01X9909Y16657D01*
G01X9893Y16626D01*
G01X9876Y16596D01*
G01X9857Y16567D01*
G01X9837Y16540D01*
G01X9815Y16514D01*
G01X9791Y16489D01*
G01X9765Y16466D01*
G01X9739Y16444D01*
G01X9711Y16424D01*
G01X9682Y16406D01*
G01X9651Y16389D01*
G01X9620Y16374D01*
G01X9588Y16362D01*
G01X9556Y16351D01*
G01X9522Y16342D01*
G01X9489Y16336D01*
G01X9473Y16332D01*
G01X9458Y16326D01*
G01X9445Y16318D01*
G01X9433Y16307D01*
G01X9423Y16295D01*
G01X9414Y16282D01*
G01X9408Y16267D01*
G01X9405Y16251D01*
G01X9403Y16236D01*
G01X9404Y16221D01*
G01X9408Y16207D01*
G01X9413Y16193D01*
G01X9420Y16181D01*
G01X9428Y16169D01*
G01X9438Y16159D01*
G01X9450Y16150D01*
G01X9463Y16143D01*
G01X9476Y16138D01*
G01X9491Y16135D01*
G01X9505Y16134D01*
G01X9567Y16134D01*
G01X9567Y15691D01*
G01X9099Y15691D01*
G01X9099Y15889D01*
G01X9098Y15903D01*
G01X9095Y15918D01*
G01X9090Y15931D01*
G01X9083Y15944D01*
G01X9074Y15956D01*
G01X9064Y15966D01*
G01X9052Y15974D01*
G01X9040Y15981D01*
G01X9026Y15986D01*
G01X9012Y15990D01*
G01X8998Y15991D01*
G01X8982Y15989D01*
G01X8966Y15986D01*
G01X8951Y15980D01*
G01X8938Y15971D01*
G01X8926Y15961D01*
G01X8912Y15947D01*
G01X8901Y15935D01*
G01X8893Y15921D01*
G01X8887Y15906D01*
G01X8883Y15891D01*
G01X8882Y15875D01*
G01X8882Y14137D01*
G01X8879Y14084D01*
G01X8879Y14074D01*
G01X8880Y14059D01*
G01X8883Y14045D01*
G01X8888Y14031D01*
G01X8895Y14019D01*
G01X8903Y14007D01*
G01X8914Y13997D01*
G01X8925Y13988D01*
G01X8938Y13981D01*
G01X8952Y13976D01*
G01X8966Y13973D01*
G01X8980Y13972D01*
G01X8997Y13972D01*
G01X9012Y13973D01*
G01X9026Y13976D01*
G01X9039Y13981D01*
G01X9052Y13988D01*
G01X9064Y13997D01*
G01X9074Y14007D01*
G01X9083Y14019D01*
G01X9090Y14031D01*
G01X9095Y14045D01*
G01X9098Y14059D01*
G01X9099Y14074D01*
G01X9099Y14077D01*
G01X9100Y14101D01*
G01X9103Y14125D01*
G01X9109Y14148D01*
G01X9116Y14170D01*
G01X9126Y14192D01*
G01X9137Y14213D01*
G01X9151Y14232D01*
G01X9166Y14250D01*
G01X9183Y14267D01*
G01X9201Y14282D01*
G01X9220Y14296D01*
G01X9241Y14307D01*
G01X9263Y14317D01*
G01X9285Y14324D01*
G01X9308Y14330D01*
G01X9332Y14333D01*
G01X9355Y14334D01*
G01X10455Y14334D01*
G01X10479Y14333D01*
G01X10503Y14330D01*
G01X10526Y14324D01*
G01X10548Y14317D01*
G01X10570Y14307D01*
G01X10590Y14296D01*
G01X10610Y14282D01*
G01X10628Y14267D01*
G01X10645Y14250D01*
G01X10660Y14232D01*
G01X10674Y14213D01*
G01X10685Y14192D01*
G01X10695Y14170D01*
G01X10702Y14148D01*
G01X10708Y14125D01*
G01X10711Y14101D01*
G01X10712Y14077D01*
G01X10712Y13662D01*
G01X10713Y13646D01*
G01X10717Y13631D01*
G01X10723Y13616D01*
G01X10731Y13602D01*
G01X10742Y13590D01*
G01X11829Y12503D01*
G01X11841Y12493D01*
G01X11854Y12485D01*
G01X11869Y12478D01*
G01X11885Y12475D01*
G01X11900Y12473D01*
G01X11936Y12473D01*
G01X11970Y12472D01*
G01X12005Y12469D01*
G01X12040Y12463D01*
G01X12073Y12454D01*
G01X12107Y12444D01*
G01X12139Y12431D01*
G01X12159Y12425D01*
G01X12180Y12423D01*
G01X12837Y12423D01*
G01X12861Y12422D01*
G01X12884Y12418D01*
G01X12907Y12413D01*
G01X12930Y12405D01*
G01X12952Y12396D01*
G01X12972Y12384D01*
G01X12992Y12371D01*
G01X13010Y12356D01*
G01X13027Y12339D01*
G01X13042Y12321D01*
G01X13055Y12301D01*
G01X13067Y12280D01*
G01X13076Y12259D01*
G01X13084Y12236D01*
G01X13089Y12213D01*
G01X13093Y12190D01*
G01X13094Y12166D01*
G01X13094Y11760D01*
G01X13093Y11736D01*
G01X13090Y11713D01*
G01X13084Y11691D01*
G01X13077Y11669D01*
G01X13072Y11651D01*
G01X13070Y11633D01*
G01X13072Y11614D01*
G01X13077Y11597D01*
G01X13084Y11575D01*
G01X13090Y11552D01*
G01X13093Y11529D01*
G01X13094Y11506D01*
G01X13094Y11153D01*
G01X13095Y11138D01*
G01X13098Y11124D01*
G01X13103Y11110D01*
G01X13110Y11098D01*
G01X13119Y11086D01*
G01X13129Y11076D01*
G01X13140Y11067D01*
G01X13153Y11060D01*
G01X13167Y11055D01*
G01X13181Y11052D01*
G01X13195Y11051D01*
G01X14165Y11051D01*
G01X14186Y11053D01*
G01X14206Y11060D01*
G01X14231Y11069D01*
G01X14256Y11076D01*
G01X14282Y11080D01*
G01X14308Y11081D01*
G01X15409Y11081D01*
G01X15432Y11080D01*
G01X15456Y11077D01*
G01X15479Y11071D01*
G01X15501Y11064D01*
G01X15523Y11054D01*
G01X15544Y11043D01*
G01X15563Y11029D01*
G01X15581Y11014D01*
G01X15598Y10997D01*
G01X15613Y10979D01*
G01X15627Y10959D01*
G01X15638Y10939D01*
G01X15648Y10917D01*
G01X15655Y10895D01*
G01X15661Y10872D01*
G01X15664Y10848D01*
G01X15665Y10824D01*
G01X15665Y10772D01*
G01X15666Y10757D01*
G01X15669Y10743D01*
G01X15674Y10729D01*
G01X15681Y10717D01*
G01X15690Y10705D01*
G01X15700Y10695D01*
G01X15712Y10686D01*
G01X15724Y10679D01*
G01X15738Y10674D01*
G01X15752Y10671D01*
G01X15767Y10670D01*
G01X15877Y10670D01*
G01X15892Y10671D01*
G01X15906Y10674D01*
G01X15920Y10680D01*
G01X15933Y10687D01*
G01X15945Y10696D01*
G01X15955Y10707D01*
G01X15964Y10719D01*
G01X15977Y10739D01*
G01X15992Y10758D01*
G01X16009Y10775D01*
G01X16027Y10790D01*
G01X16047Y10804D01*
G01X16068Y10816D01*
G01X16090Y10825D01*
G01X16113Y10833D01*
G01X16136Y10839D01*
G01X16160Y10842D01*
G01X16183Y10843D01*
G01X17483Y10843D01*
G01X17507Y10842D01*
G01X17531Y10839D01*
G01X17554Y10833D01*
G01X17576Y10826D01*
G01X17598Y10816D01*
G01X17619Y10805D01*
G01X17638Y10791D01*
G01X17656Y10776D01*
G01X17673Y10759D01*
G01X17688Y10741D01*
G01X17702Y10722D01*
G01X17713Y10701D01*
G01X17723Y10679D01*
G01X17730Y10657D01*
G01X17736Y10634D01*
G01X17739Y10610D01*
G01X17740Y10586D01*
G01X17740Y10010D01*
G01X17741Y9995D01*
G01X17744Y9981D01*
G01X17749Y9967D01*
G01X17756Y9955D01*
G01X17765Y9943D01*
G01X17775Y9933D01*
G01X17787Y9924D01*
G01X17799Y9917D01*
G01X17813Y9912D01*
G01X17827Y9909D01*
G01X17842Y9908D01*
G01X19045Y9908D01*
G01X19077Y9907D01*
G01X19109Y9903D01*
G01X19140Y9896D01*
G01X19165Y9893D01*
G01X19883Y9893D01*
G01X19907Y9892D01*
G01X19931Y9889D01*
G01X19954Y9883D01*
G01X19976Y9876D01*
G01X19998Y9866D01*
G01X20019Y9855D01*
G01X20038Y9841D01*
G01X20056Y9826D01*
G01X20073Y9809D01*
G01X20088Y9791D01*
G01X20102Y9772D01*
G01X20113Y9751D01*
G01X20123Y9729D01*
G01X20130Y9707D01*
G01X20136Y9684D01*
G01X20139Y9660D01*
G01X20140Y9636D01*
G01X20140Y9036D01*
G01X20139Y9011D01*
G01X20135Y8987D01*
G01X20129Y8962D01*
G01X20121Y8939D01*
G01X20110Y8916D01*
G01X20097Y8895D01*
G01X20082Y8874D01*
G01X20066Y8856D01*
G01X20047Y8839D01*
G01X20027Y8824D01*
G01X20014Y8814D01*
G01X20003Y8801D01*
G01X19994Y8787D01*
G01X19988Y8772D01*
G01X19984Y8756D01*
G01X19982Y8740D01*
G01X19983Y8725D01*
G01X19986Y8711D01*
G01X19991Y8697D01*
G01X19998Y8685D01*
G01X20007Y8673D01*
G01X20017Y8663D01*
G01X20029Y8654D01*
G01X20042Y8647D01*
G01X20055Y8642D01*
G01X20069Y8639D01*
G01X20084Y8638D01*
G01X20300Y8638D01*
G01X20315Y8639D01*
G01X20329Y8642D01*
G01X20342Y8647D01*
G01X20355Y8654D01*
G01X20367Y8663D01*
G01X20377Y8673D01*
G01X20386Y8685D01*
G01X20393Y8697D01*
G01X20398Y8711D01*
G01X20401Y8725D01*
G01X20402Y8740D01*
G01X20402Y8997D01*
G01X20403Y9021D01*
G01X20406Y9045D01*
G01X20412Y9068D01*
G01X20419Y9090D01*
G01X20429Y9112D01*
G01X20440Y9133D01*
G01X20454Y9152D01*
G01X20469Y9170D01*
G01X20486Y9187D01*
G01X20504Y9202D01*
G01X20523Y9216D01*
G01X20544Y9227D01*
G01X20566Y9237D01*
G01X20588Y9244D01*
G01X20611Y9250D01*
G01X20635Y9253D01*
G01X20658Y9254D01*
G01X21381Y9254D01*
G01X21397Y9255D01*
G01X21412Y9259D01*
G01X21427Y9265D01*
G01X21440Y9273D01*
G01X21453Y9284D01*
G01X21536Y9368D01*
G01X21547Y9380D01*
G01X21555Y9393D01*
G01X21561Y9408D01*
G01X21565Y9423D01*
G01X21566Y9439D01*
G01X21565Y9455D01*
G01X21561Y9470D01*
G01X21555Y9485D01*
G01X21547Y9498D01*
G01X21547Y9984D01*
G01X22111Y9984D01*
G01X22127Y9985D01*
G01X22142Y9989D01*
G01X22157Y9995D01*
G01X22170Y10003D01*
G01X22182Y10014D01*
G01X22188Y10020D01*
G01X22319Y10150D01*
G01X22330Y10163D01*
G01X22338Y10176D01*
G01X22344Y10191D01*
G01X22348Y10206D01*
G01X22349Y10222D01*
G01X22349Y11485D01*
G01X22348Y11500D01*
G01X22344Y11515D01*
G01X22339Y11529D01*
G01X22331Y11542D01*
G01X22322Y11554D01*
G01X22298Y11580D01*
G01X22277Y11608D01*
G01X22257Y11637D01*
G01X22239Y11668D01*
G01X22224Y11699D01*
G01X22210Y11731D01*
G01X22198Y11764D01*
G01X22188Y11798D01*
G01X22180Y11833D01*
G01X22175Y11867D01*
G01X22172Y11902D01*
G01X22170Y11938D01*
G01X22172Y11973D01*
G01X22175Y12008D01*
G01X22181Y12044D01*
G01X22188Y12078D01*
G01X22198Y12112D01*
G01X22210Y12146D01*
G01X22225Y12178D01*
G01X22241Y12210D01*
G01X22259Y12241D01*
G01X22266Y12253D01*
G01X22271Y12267D01*
G01X22274Y12281D01*
G01X22275Y12295D01*
G01X22274Y12310D01*
G01X22271Y12324D01*
G01X22266Y12338D01*
G01X22259Y12350D01*
G01X22250Y12362D01*
G01X22240Y12372D01*
G01X22229Y12381D01*
G01X22216Y12388D01*
G01X22202Y12393D01*
G01X22188Y12396D01*
G01X22174Y12397D01*
G01X21504Y12397D01*
G01X21478Y12398D01*
G01X21452Y12402D01*
G01X21427Y12409D01*
G01X21402Y12418D01*
G01X21379Y12430D01*
G01X21363Y12437D01*
G01X21346Y12441D01*
G01X21329Y12443D01*
G01X20761Y12443D01*
G01X20746Y12442D01*
G01X20732Y12439D01*
G01X20718Y12434D01*
G01X20706Y12427D01*
G01X20694Y12418D01*
G01X20684Y12408D01*
G01X20675Y12396D01*
G01X20668Y12384D01*
G01X20663Y12370D01*
G01X20660Y12356D01*
G01X20659Y12341D01*
G01X20660Y12331D01*
G01X20661Y12303D01*
G01X20661Y12217D01*
G01X20143Y12217D01*
G01X20143Y12341D01*
G01X20142Y12356D01*
G01X20139Y12370D01*
G01X20134Y12384D01*
G01X20127Y12396D01*
G01X20118Y12408D01*
G01X20108Y12418D01*
G01X20096Y12427D01*
G01X20084Y12434D01*
G01X20070Y12439D01*
G01X20056Y12442D01*
G01X20041Y12443D01*
G01X19468Y12443D01*
G01X19453Y12442D01*
G01X19439Y12439D01*
G01X19425Y12434D01*
G01X19413Y12427D01*
G01X19401Y12418D01*
G01X19391Y12408D01*
G01X19382Y12396D01*
G01X19375Y12384D01*
G01X19370Y12370D01*
G01X19367Y12356D01*
G01X19366Y12341D01*
G01X19366Y12217D01*
G01X18848Y12217D01*
G01X18848Y12303D01*
G01X18849Y12331D01*
G01X18850Y12341D01*
G01X18849Y12356D01*
G01X18846Y12370D01*
G01X18841Y12384D01*
G01X18834Y12396D01*
G01X18825Y12408D01*
G01X18815Y12418D01*
G01X18803Y12427D01*
G01X18791Y12434D01*
G01X18777Y12439D01*
G01X18763Y12442D01*
G01X18748Y12443D01*
G01X18613Y12443D01*
G01X18598Y12442D01*
G01X18583Y12438D01*
G01X18569Y12433D01*
G01X18556Y12425D01*
G01X18544Y12416D01*
G01X18518Y12392D01*
G01X18490Y12371D01*
G01X18461Y12351D01*
G01X18430Y12333D01*
G01X18399Y12318D01*
G01X18367Y12304D01*
G01X18334Y12292D01*
G01X18300Y12282D01*
G01X18265Y12274D01*
G01X18231Y12269D01*
G01X18196Y12266D01*
G01X18161Y12264D01*
G01X18127Y12265D01*
G01X18093Y12269D01*
G01X18059Y12274D01*
G01X18026Y12281D01*
G01X17993Y12290D01*
G01X17961Y12301D01*
G01X17930Y12314D01*
G01X17899Y12329D01*
G01X17870Y12346D01*
G01X17841Y12364D01*
G01X17814Y12384D01*
G01X17788Y12406D01*
G01X17763Y12429D01*
G01X17740Y12454D01*
G01X17718Y12480D01*
G01X17698Y12507D01*
G01X17680Y12536D01*
G01X17663Y12565D01*
G01X17648Y12596D01*
G01X17635Y12627D01*
G01X17624Y12659D01*
G01X17615Y12692D01*
G01X17608Y12725D01*
G01X17603Y12759D01*
G01X17599Y12793D01*
G01X17598Y12827D01*
G01X17600Y12870D01*
G01X17605Y12914D01*
G01X17614Y12957D01*
G01X17617Y12981D01*
G01X17616Y12995D01*
G01X17613Y13009D01*
G01X17607Y13023D01*
G01X17601Y13036D01*
G01X17592Y13047D01*
G01X17582Y13058D01*
G01X17570Y13066D01*
G01X17557Y13073D01*
G01X17544Y13078D01*
G01X17530Y13081D01*
G01X17515Y13082D01*
G01X17499Y13081D01*
G01X17484Y13077D01*
G01X17469Y13071D01*
G01X17455Y13063D01*
G01X17443Y13053D01*
G01X16826Y12435D01*
G01X16815Y12423D01*
G01X16807Y12409D01*
G01X16801Y12395D01*
G01X16797Y12379D01*
G01X16796Y12363D01*
G01X16796Y11641D01*
G01X16795Y11618D01*
G01X16792Y11594D01*
G01X16786Y11571D01*
G01X16779Y11549D01*
G01X16769Y11527D01*
G01X16758Y11506D01*
G01X16744Y11487D01*
G01X16729Y11469D01*
G01X16712Y11452D01*
G01X16694Y11437D01*
G01X16674Y11423D01*
G01X16654Y11412D01*
G01X16632Y11402D01*
G01X16610Y11395D01*
G01X16587Y11389D01*
G01X16563Y11386D01*
G01X16539Y11385D01*
G01X15539Y11385D01*
G01X15516Y11386D01*
G01X15493Y11389D01*
G01X15471Y11394D01*
G01X15449Y11401D01*
G01X15428Y11411D01*
G01X15407Y11422D01*
G01X15388Y11434D01*
G01X15370Y11449D01*
G01X15353Y11465D01*
G01X15338Y11483D01*
G01X15325Y11501D01*
G01X15316Y11513D01*
G01X15306Y11523D01*
G01X15294Y11532D01*
G01X15281Y11538D01*
G01X15268Y11543D01*
G01X15254Y11546D01*
G01X15239Y11547D01*
G01X15225Y11546D01*
G01X15211Y11543D01*
G01X15197Y11538D01*
G01X15185Y11532D01*
G01X15173Y11523D01*
G01X15163Y11513D01*
G01X15154Y11501D01*
G01X15141Y11483D01*
G01X15126Y11465D01*
G01X15109Y11449D01*
G01X15091Y11434D01*
G01X15072Y11422D01*
G01X15051Y11411D01*
G01X15030Y11401D01*
G01X15008Y11394D01*
G01X14986Y11389D01*
G01X14963Y11386D01*
G01X14939Y11385D01*
G01X13939Y11385D01*
G01X13916Y11386D01*
G01X13892Y11389D01*
G01X13869Y11395D01*
G01X13847Y11402D01*
G01X13825Y11412D01*
G01X13804Y11423D01*
G01X13785Y11437D01*
G01X13767Y11452D01*
G01X13750Y11469D01*
G01X13735Y11487D01*
G01X13721Y11506D01*
G01X13710Y11527D01*
G01X13700Y11549D01*
G01X13693Y11571D01*
G01X13687Y11594D01*
G01X13684Y11618D01*
G01X13683Y11641D01*
G01X13683Y12148D01*
G01X13682Y12164D01*
G01X13678Y12179D01*
G01X13672Y12194D01*
G01X13663Y12207D01*
G01X13653Y12219D01*
G01X12555Y13317D01*
G01X12535Y13339D01*
G01X12516Y13363D01*
G01X12499Y13388D01*
G01X12485Y13414D01*
G01X12472Y13442D01*
G01X12462Y13470D01*
G01X12454Y13499D01*
G01X12448Y13529D01*
G01X12444Y13558D01*
G01X12443Y13589D01*
G01X12443Y16436D01*
G01X12442Y16452D01*
G01X12438Y16468D01*
G01X12432Y16482D01*
G01X12424Y16496D01*
G01X12413Y16508D01*
G01X11476Y17451D01*
G01X11464Y17461D01*
G01X11451Y17470D01*
G01X11436Y17476D01*
G01X11420Y17480D01*
G01X11404Y17481D01*
G01X10686Y17481D01*
G01X10663Y17482D01*
G01X10639Y17485D01*
G01X10616Y17491D01*
G01X10594Y17498D01*
G01X10572Y17508D01*
G01X10551Y17519D01*
G01X10532Y17533D01*
G01X10514Y17548D01*
G01X10497Y17565D01*
G01X10482Y17583D01*
G01X10468Y17602D01*
G01X10457Y17623D01*
G01X10447Y17645D01*
G01X10440Y17667D01*
G01X10434Y17690D01*
G01X10431Y17714D01*
G01X10430Y17737D01*
G01X10430Y18838D01*
G01X10431Y18861D01*
G01X10434Y18885D01*
G01X10440Y18908D01*
G01X10447Y18930D01*
G01X10457Y18952D01*
G01X10468Y18973D01*
G01X10482Y18992D01*
G01X10497Y19010D01*
G01X10514Y19027D01*
G01X10532Y19042D01*
G01X10551Y19056D01*
G01X10572Y19067D01*
G01X10594Y19077D01*
G01X10616Y19084D01*
G01X10639Y19090D01*
G01X10663Y19093D01*
G01X10686Y19094D01*
G01X11686Y19094D01*
G01X11710Y19093D01*
G01X11734Y19090D01*
G01X11757Y19084D01*
G01X11779Y19077D01*
G01X11801Y19067D01*
G01X11822Y19056D01*
G01X11841Y19042D01*
G01X11859Y19027D01*
G01X11876Y19010D01*
G01X11891Y18992D01*
G01X11905Y18973D01*
G01X11916Y18952D01*
G01X11926Y18930D01*
G01X11933Y18908D01*
G01X11939Y18885D01*
G01X11942Y18861D01*
G01X11943Y18838D01*
G01X11943Y18111D01*
G01X11944Y18096D01*
G01X11948Y18080D01*
G01X11954Y18065D01*
G01X11962Y18052D01*
G01X11973Y18040D01*
G01X12159Y17852D01*
G01X12171Y17842D01*
G01X12185Y17833D01*
G01X12200Y17827D01*
G01X12215Y17823D01*
G01X12231Y17822D01*
G01X12246Y17823D01*
G01X12260Y17826D01*
G01X12273Y17831D01*
G01X12286Y17838D01*
G01X12298Y17847D01*
G01X12308Y17857D01*
G01X12317Y17869D01*
G01X12324Y17882D01*
G01X12329Y17895D01*
G01X12332Y17909D01*
G01X12333Y17924D01*
G01X12333Y18959D01*
G01X12332Y18975D01*
G01X12328Y18990D01*
G01X12322Y19005D01*
G01X12313Y19018D01*
G01X12303Y19031D01*
G01X12062Y19271D01*
G01X12050Y19282D01*
G01X12037Y19290D01*
G01X12022Y19296D01*
G01X12006Y19300D01*
G01X11991Y19301D01*
G01X8382Y19301D01*
G01X8351Y19302D01*
G01X8322Y19306D01*
G01X8292Y19312D01*
G01X8263Y19320D01*
G01X8235Y19330D01*
G01X8207Y19343D01*
G01X8181Y19357D01*
G01X8156Y19374D01*
G01X8132Y19393D01*
G01X8110Y19413D01*
G01X7221Y20302D01*
G01X7201Y20324D01*
G01X7182Y20348D01*
G01X7165Y20373D01*
G01X7151Y20399D01*
G01X7138Y20427D01*
G01X7128Y20455D01*
G01X7120Y20484D01*
G01X7114Y20514D01*
G01X7110Y20543D01*
G01X7109Y20574D01*
G01X7109Y21618D01*
G01X7108Y21632D01*
G01X7105Y21647D01*
G01X7100Y21660D01*
G01X7093Y21673D01*
G01X7084Y21684D01*
G01X7074Y21695D01*
G01X7062Y21703D01*
G01X7050Y21710D01*
G01X7036Y21715D01*
G01X7022Y21719D01*
G01X7007Y21720D01*
G01X6628Y21720D01*
G01X6604Y21721D01*
G01X6580Y21724D01*
G01X6556Y21730D01*
G01X6542Y21733D01*
G01X6528Y21734D01*
G01X6514Y21733D01*
G01X6500Y21730D01*
G01X6476Y21724D01*
G01X6452Y21721D01*
G01X6428Y21720D01*
G01X6379Y21720D01*
G01X6379Y21903D01*
G01X6377Y21923D01*
G01X6373Y21950D01*
G01X6371Y21976D01*
G01X6371Y23976D01*
G01X6373Y24003D01*
G01X6377Y24029D01*
G01X6379Y24050D01*
G01X6379Y24233D01*
G01X6428Y24233D01*
G01X6452Y24231D01*
G01X6476Y24228D01*
G01X6500Y24222D01*
G01X6514Y24219D01*
G01X6528Y24218D01*
G01X6542Y24219D01*
G01X6556Y24222D01*
G01X6580Y24228D01*
G01X6604Y24231D01*
G01X6628Y24233D01*
G01X7078Y24233D01*
G01X7102Y24231D01*
G01X7126Y24228D01*
G01X7150Y24222D01*
G01X7164Y24219D01*
G01X7178Y24218D01*
G01X7192Y24219D01*
G01X7206Y24222D01*
G01X7230Y24228D01*
G01X7254Y24231D01*
G01X7278Y24233D01*
G01X7728Y24233D01*
G01X7752Y24231D01*
G01X7776Y24228D01*
G01X7800Y24222D01*
G01X7814Y24219D01*
G01X7828Y24218D01*
G01X7842Y24219D01*
G01X7856Y24222D01*
G01X7880Y24228D01*
G01X7904Y24231D01*
G01X7928Y24233D01*
G01X8378Y24233D01*
G01X8402Y24231D01*
G01X8426Y24228D01*
G01X8450Y24222D01*
G01X8464Y24219D01*
G01X8478Y24218D01*
G01X8492Y24219D01*
G01X8506Y24222D01*
G01X8530Y24228D01*
G01X8554Y24231D01*
G01X8578Y24233D01*
G01X9028Y24233D01*
G01X9052Y24232D01*
G01X9075Y24228D01*
G01X9098Y24223D01*
G01X9121Y24215D01*
G01X9142Y24206D01*
G01X9163Y24194D01*
G01X9183Y24181D01*
G01X9201Y24166D01*
G01X9218Y24149D01*
G01X9233Y24131D01*
G01X9246Y24111D01*
G01X9258Y24090D01*
G01X9267Y24069D01*
G01X9275Y24046D01*
G01X9280Y24023D01*
G01X9283Y24000D01*
G01X9284Y23976D01*
G01X9284Y23827D01*
G01X9286Y23813D01*
G01X9289Y23798D01*
G01X9294Y23785D01*
G01X9301Y23772D01*
G01X9309Y23761D01*
G01X9320Y23750D01*
G01X9331Y23742D01*
G01X9344Y23735D01*
G01X9357Y23730D01*
G01X9372Y23727D01*
G01X9386Y23726D01*
G01X9405Y23727D01*
G01X9423Y23732D01*
G01X9439Y23741D01*
G01X9483Y23766D01*
G01X9527Y23788D01*
G01X9527Y23367D01*
G01X9386Y23367D01*
G01X9372Y23366D01*
G01X9357Y23363D01*
G01X9344Y23358D01*
G01X9331Y23351D01*
G01X9320Y23342D01*
G01X9309Y23332D01*
G01X9301Y23320D01*
G01X9294Y23307D01*
G01X9289Y23294D01*
G01X9286Y23280D01*
G01X9284Y23265D01*
G01X9284Y22716D01*
G01X9286Y22702D01*
G01X9289Y22688D01*
G01X9294Y22674D01*
G01X9301Y22661D01*
G01X9309Y22650D01*
G01X9320Y22640D01*
G01X9331Y22631D01*
G01X9344Y22624D01*
G01X9357Y22619D01*
G01X9372Y22616D01*
G01X9386Y22615D01*
G01X9527Y22615D01*
G01X9527Y22193D01*
G01X9456Y22231D01*
G01X9440Y22239D01*
G01X9423Y22243D01*
G01X9405Y22245D01*
G01X9390Y22244D01*
G01X9376Y22241D01*
G01X9362Y22236D01*
G01X9350Y22229D01*
G01X9338Y22220D01*
G01X9328Y22210D01*
G01X9319Y22198D01*
G01X9312Y22186D01*
G01X9307Y22172D01*
G01X9304Y22158D01*
G01X9303Y22143D01*
G01X9303Y21302D01*
G01X9305Y21282D01*
G01X9311Y21263D01*
G01X9324Y21228D01*
G01X9335Y21193D01*
G01X9343Y21157D01*
G01X9350Y21120D01*
G01X9353Y21083D01*
G01X9355Y21046D01*
G01X9353Y21009D01*
G01X9350Y20973D01*
G01X9344Y20936D01*
G01X9335Y20901D01*
G01X9325Y20865D01*
G01X9312Y20831D01*
G01X9297Y20798D01*
G01X9279Y20765D01*
G01X9260Y20734D01*
G01X9253Y20721D01*
G01X9247Y20707D01*
G01X9244Y20693D01*
G01X9243Y20678D01*
G01X9244Y20663D01*
G01X9247Y20649D01*
G01X9252Y20635D01*
G01X9259Y20623D01*
G01X9268Y20611D01*
G01X9278Y20601D01*
G01X9290Y20592D01*
G01X9302Y20585D01*
G01X9316Y20580D01*
G01X9330Y20577D01*
G01X9345Y20576D01*
G01X13208Y20576D01*
G01X13238Y20575D01*
G01X13267Y20571D01*
G01X13297Y20565D01*
G01X13326Y20557D01*
G01X13354Y20547D01*
G01X13382Y20534D01*
G01X13408Y20520D01*
G01X13433Y20503D01*
G01X13457Y20484D01*
G01X13479Y20464D01*
G01X13534Y20408D01*
G01X13547Y20398D01*
G01X13560Y20389D01*
G01X13575Y20383D01*
G01X13590Y20379D01*
G01X13606Y20378D01*
G01X13621Y20379D01*
G01X13635Y20382D01*
G01X13648Y20387D01*
G01X13661Y20394D01*
G01X13673Y20403D01*
G01X13683Y20413D01*
G01X13692Y20425D01*
G01X13699Y20438D01*
G01X13704Y20451D01*
G01X13707Y20465D01*
G01X13708Y20480D01*
G01X13708Y22860D01*
G01X13709Y22890D01*
G01X13713Y22920D01*
G01X13719Y22949D01*
G01X13727Y22979D01*
G01X13737Y23007D01*
G01X13750Y23034D01*
G01X13765Y23061D01*
G01X13782Y23086D01*
G01X13801Y23110D01*
G01X13821Y23132D01*
G01X14461Y23767D01*
G01X14483Y23787D01*
G01X14507Y23805D01*
G01X14532Y23822D01*
G01X14558Y23837D01*
G01X14585Y23849D01*
G01X14614Y23859D01*
G01X14642Y23868D01*
G01X14672Y23873D01*
G01X14702Y23877D01*
G01X14732Y23878D01*
G01X18270Y23878D01*
G01X18285Y23879D01*
G01X18299Y23882D01*
G01X18312Y23887D01*
G01X18325Y23894D01*
G01X18337Y23903D01*
G01X18347Y23913D01*
G01X18356Y23925D01*
G01X18363Y23937D01*
G01X18368Y23951D01*
G01X18371Y23965D01*
G01X18372Y23980D01*
G01X18371Y23995D01*
G01X18367Y24011D01*
G01X18361Y24025D01*
G01X18353Y24039D01*
G01X18343Y24051D01*
G01X18331Y24061D01*
G01X18304Y24083D01*
G01X18278Y24106D01*
G01X18254Y24131D01*
G01X18231Y24157D01*
G01X18210Y24185D01*
G01X18191Y24214D01*
G01X18174Y24244D01*
G01X18158Y24275D01*
G01X18145Y24307D01*
G01X18133Y24340D01*
G01X18124Y24373D01*
G01X18116Y24407D01*
G01X18111Y24441D01*
G01X18108Y24476D01*
G01X18106Y24511D01*
G01X18108Y24555D01*
G01X18113Y24599D01*
G01X18122Y24643D01*
G01X18125Y24667D01*
G01X18124Y24681D01*
G01X18121Y24695D01*
G01X18116Y24709D01*
G01X18109Y24722D01*
G01X18100Y24733D01*
G01X18090Y24743D01*
G01X18078Y24752D01*
G01X18066Y24759D01*
G01X18052Y24764D01*
G01X18038Y24767D01*
G01X18023Y24768D01*
G01X17789Y24768D01*
G01X17760Y24770D01*
G01X17730Y24775D01*
G01X17702Y24784D01*
G01X17685Y24788D01*
G01X17668Y24790D01*
G01X17650Y24788D01*
G01X17633Y24784D01*
G01X17605Y24775D01*
G01X17575Y24770D01*
G01X17546Y24768D01*
G01X17508Y24768D01*
G01X17508Y25447D01*
G01X17516Y25458D01*
G01X17523Y25471D01*
G01X17529Y25485D01*
G01X17532Y25499D01*
G01X17533Y25514D01*
G01X17533Y26339D01*
G01X17532Y26354D01*
G01X17529Y26368D01*
G01X17523Y26382D01*
G01X17516Y26395D01*
G01X17508Y26406D01*
G01X17508Y27134D01*
G01X17507Y27148D01*
G01X17503Y27163D01*
G01X17498Y27176D01*
G01X17491Y27189D01*
G01X17483Y27200D01*
G01X17473Y27211D01*
G01X17461Y27219D01*
G01X17448Y27226D01*
G01X17435Y27231D01*
G01X17420Y27234D01*
G01X17406Y27236D01*
G01X17279Y27236D01*
G01X17265Y27234D01*
G01X17250Y27231D01*
G01X17237Y27226D01*
G01X17224Y27219D01*
G01X17212Y27211D01*
G01X17202Y27200D01*
G01X17194Y27189D01*
G01X17187Y27176D01*
G01X17182Y27163D01*
G01X17178Y27148D01*
G01X17177Y27134D01*
G01X17177Y26406D01*
G01X17169Y26395D01*
G01X17162Y26382D01*
G01X17156Y26368D01*
G01X17153Y26354D01*
G01X17152Y26339D01*
G01X17152Y25514D01*
G01X17153Y25499D01*
G01X17156Y25485D01*
G01X17162Y25471D01*
G01X17169Y25458D01*
G01X17177Y25447D01*
G01X17177Y24768D01*
G01X17139Y24768D01*
G01X17110Y24770D01*
G01X17080Y24775D01*
G01X17052Y24784D01*
G01X17035Y24788D01*
G01X17018Y24790D01*
G01X17000Y24788D01*
G01X16983Y24784D01*
G01X16955Y24775D01*
G01X16925Y24770D01*
G01X16896Y24768D01*
G01X16489Y24768D01*
G01X16460Y24770D01*
G01X16430Y24775D01*
G01X16402Y24784D01*
G01X16385Y24788D01*
G01X16368Y24790D01*
G01X16367Y24790D01*
G01X16350Y24788D01*
G01X16333Y24784D01*
G01X16305Y24775D01*
G01X16275Y24770D01*
G01X16246Y24768D01*
G01X15839Y24768D01*
G01X15810Y24770D01*
G01X15780Y24775D01*
G01X15752Y24784D01*
G01X15735Y24788D01*
G01X15718Y24790D01*
G01X15700Y24788D01*
G01X15683Y24784D01*
G01X15655Y24775D01*
G01X15625Y24770D01*
G01X15596Y24768D01*
G01X15189Y24768D01*
G01X15160Y24770D01*
G01X15130Y24775D01*
G01X15102Y24784D01*
G01X15085Y24788D01*
G01X15067Y24790D01*
G01X15050Y24788D01*
G01X15033Y24784D01*
G01X15005Y24775D01*
G01X14975Y24770D01*
G01X14946Y24768D01*
G01X14539Y24768D01*
G01X14510Y24770D01*
G01X14480Y24775D01*
G01X14452Y24784D01*
G01X14435Y24788D01*
G01X14418Y24790D01*
G01X14417Y24790D01*
G01X14400Y24788D01*
G01X14383Y24784D01*
G01X14355Y24775D01*
G01X14325Y24770D01*
G01X14296Y24768D01*
G01X13889Y24768D01*
G01X13860Y24770D01*
G01X13830Y24775D01*
G01X13802Y24784D01*
G01X13785Y24788D01*
G01X13767Y24790D01*
G01X13750Y24788D01*
G01X13733Y24784D01*
G01X13705Y24775D01*
G01X13675Y24770D01*
G01X13646Y24768D01*
G01X13239Y24768D01*
G01X13210Y24770D01*
G01X13180Y24775D01*
G01X13152Y24784D01*
G01X13135Y24788D01*
G01X13118Y24790D01*
G01X13117Y24790D01*
G01X13100Y24788D01*
G01X13083Y24784D01*
G01X13055Y24775D01*
G01X13025Y24770D01*
G01X12996Y24768D01*
G01X12589Y24768D01*
G01X12566Y24769D01*
G01X12542Y24773D01*
G01X12519Y24778D01*
G01X12497Y24786D01*
G01X12475Y24795D01*
G01X12454Y24807D01*
G01X12435Y24820D01*
G01X12416Y24835D01*
G01X12400Y24852D01*
G01X12385Y24870D01*
G01X12371Y24890D01*
G01X12360Y24910D01*
G01X12350Y24932D01*
G01X12343Y24955D01*
G01X12337Y24978D01*
G01X12334Y25001D01*
G01X12333Y25025D01*
G01X12333Y26828D01*
G01X12334Y26852D01*
G01X12337Y26876D01*
G01X12343Y26899D01*
G01X12350Y26921D01*
G01X12360Y26943D01*
G01X12372Y26964D01*
G01X12385Y26984D01*
G01X12401Y27002D01*
G01X12417Y27019D01*
G01X12436Y27034D01*
G01X12456Y27047D01*
G01X12468Y27056D01*
G01X12478Y27066D01*
G01X12488Y27078D01*
G01X12495Y27091D01*
G01X12500Y27105D01*
G01X12503Y27119D01*
G01X12504Y27134D01*
G01X12503Y27148D01*
G01X12500Y27163D01*
G01X12495Y27176D01*
G01X12488Y27189D01*
G01X12480Y27200D01*
G01X12469Y27211D01*
G01X12458Y27219D01*
G01X12445Y27226D01*
G01X12431Y27231D01*
G01X12417Y27234D01*
G01X12403Y27236D01*
G01X11559Y27236D01*
G01X11544Y27234D01*
G01X11528Y27231D01*
G01X11514Y27225D01*
G01X11500Y27217D01*
G01X11488Y27206D01*
G01X11478Y27194D01*
G01X11469Y27181D01*
G01X11461Y27194D01*
G01X11451Y27206D01*
G01X11439Y27217D01*
G01X11425Y27225D01*
G01X11410Y27231D01*
G01X11395Y27234D01*
G01X11379Y27236D01*
G01X10806Y27236D01*
G01X10790Y27234D01*
G01X10774Y27231D01*
G01X10760Y27225D01*
G01X10746Y27217D01*
G01X10734Y27206D01*
G01X10724Y27194D01*
G01X10716Y27181D01*
G01X10707Y27194D01*
G01X10697Y27206D01*
G01X10685Y27217D01*
G01X10671Y27225D01*
G01X10657Y27231D01*
G01X10641Y27234D01*
G01X10626Y27236D01*
G01X4359Y27236D01*
G01X4344Y27234D01*
G01X4328Y27231D01*
G01X4314Y27225D01*
G01X4300Y27217D01*
G01X4288Y27206D01*
G01X4278Y27194D01*
G01X4269Y27181D01*
G01X4261Y27194D01*
G01X4251Y27206D01*
G01X4239Y27217D01*
G01X4225Y27225D01*
G01X4211Y27231D01*
G01X4195Y27234D01*
G01X4179Y27236D01*
G01X3606Y27236D01*
G01X3590Y27234D01*
G01X3575Y27231D01*
G01X3560Y27225D01*
G01X3546Y27217D01*
G01X3534Y27206D01*
G01X3524Y27194D01*
G01X3516Y27181D01*
G01X3507Y27194D01*
G01X3497Y27206D01*
G01X3485Y27217D01*
G01X3471Y27225D01*
G01X3457Y27231D01*
G01X3441Y27234D01*
G01X3426Y27236D01*
G37*

%LPC*%
G36*
G01X1954Y14744D02*
G01X1905Y14745D01*
G01X1855Y14744D01*
G01X1806Y14741D01*
G01X1758Y14736D01*
G01X1709Y14728D01*
G01X1661Y14719D01*
G01X1613Y14708D01*
G01X1566Y14694D01*
G01X1519Y14679D01*
G01X1473Y14662D01*
G01X1428Y14642D01*
G01X1384Y14621D01*
G01X1340Y14598D01*
G01X1298Y14573D01*
G01X1257Y14547D01*
G01X1217Y14518D01*
G01X1178Y14488D01*
G01X1140Y14457D01*
G01X1104Y14423D01*
G01X1070Y14389D01*
G01X1036Y14353D01*
G01X1005Y14315D01*
G01X975Y14276D01*
G01X946Y14236D01*
G01X920Y14195D01*
G01X895Y14153D01*
G01X872Y14109D01*
G01X851Y14065D01*
G01X831Y14020D01*
G01X814Y13974D01*
G01X799Y13927D01*
G01X785Y13880D01*
G01X774Y13832D01*
G01X765Y13784D01*
G01X757Y13735D01*
G01X752Y13687D01*
G01X749Y13638D01*
G01X748Y13589D01*
G01X749Y13539D01*
G01X752Y13490D01*
G01X757Y13442D01*
G01X765Y13393D01*
G01X774Y13345D01*
G01X785Y13297D01*
G01X799Y13250D01*
G01X814Y13203D01*
G01X831Y13157D01*
G01X851Y13112D01*
G01X872Y13068D01*
G01X895Y13024D01*
G01X920Y12982D01*
G01X946Y12941D01*
G01X975Y12901D01*
G01X1005Y12862D01*
G01X1036Y12824D01*
G01X1070Y12788D01*
G01X1104Y12754D01*
G01X1140Y12720D01*
G01X1178Y12689D01*
G01X1217Y12659D01*
G01X1257Y12630D01*
G01X1298Y12604D01*
G01X1340Y12579D01*
G01X1384Y12556D01*
G01X1428Y12535D01*
G01X1473Y12515D01*
G01X1519Y12498D01*
G01X1566Y12483D01*
G01X1613Y12469D01*
G01X1661Y12458D01*
G01X1709Y12449D01*
G01X1758Y12441D01*
G01X1806Y12436D01*
G01X1855Y12433D01*
G01X1905Y12432D01*
G01X1955Y12433D01*
G01X2004Y12436D01*
G01X2054Y12442D01*
G01X2104Y12449D01*
G01X2153Y12459D01*
G01X2201Y12471D01*
G01X2250Y12485D01*
G01X2297Y12501D01*
G01X2344Y12519D01*
G01X2363Y12524D01*
G01X2382Y12526D01*
G01X2398Y12525D01*
G01X2414Y12521D01*
G01X2428Y12515D01*
G01X2442Y12507D01*
G01X2454Y12496D01*
G01X3015Y11935D01*
G01X3026Y11923D01*
G01X3034Y11910D01*
G01X3040Y11895D01*
G01X3044Y11879D01*
G01X3045Y11864D01*
G01X3045Y11758D01*
G01X3044Y11744D01*
G01X3041Y11730D01*
G01X3036Y11716D01*
G01X3029Y11703D01*
G01X3020Y11692D01*
G01X3010Y11681D01*
G01X2998Y11673D01*
G01X2986Y11666D01*
G01X2972Y11661D01*
G01X2958Y11658D01*
G01X2943Y11657D01*
G01X2927Y11658D01*
G01X2911Y11662D01*
G01X2896Y11668D01*
G01X2882Y11677D01*
G01X2870Y11688D01*
G01X2859Y11701D01*
G01X2831Y11741D01*
G01X2801Y11779D01*
G01X2769Y11816D01*
G01X2736Y11852D01*
G01X2702Y11887D01*
G01X2628Y11951D01*
G01X2589Y11981D01*
G01X2549Y12009D01*
G01X2508Y12035D01*
G01X2466Y12060D01*
G01X2423Y12082D01*
G01X2379Y12103D01*
G01X2334Y12122D01*
G01X2288Y12140D01*
G01X2241Y12155D01*
G01X2194Y12168D01*
G01X2147Y12179D01*
G01X2099Y12189D01*
G01X2051Y12196D01*
G01X2002Y12201D01*
G01X1953Y12204D01*
G01X1905Y12205D01*
G01X1855Y12204D01*
G01X1806Y12201D01*
G01X1758Y12196D01*
G01X1709Y12188D01*
G01X1661Y12179D01*
G01X1613Y12168D01*
G01X1566Y12154D01*
G01X1519Y12139D01*
G01X1473Y12122D01*
G01X1428Y12102D01*
G01X1384Y12081D01*
G01X1340Y12058D01*
G01X1298Y12033D01*
G01X1257Y12007D01*
G01X1217Y11978D01*
G01X1178Y11948D01*
G01X1140Y11917D01*
G01X1104Y11883D01*
G01X1070Y11849D01*
G01X1036Y11813D01*
G01X1005Y11775D01*
G01X975Y11736D01*
G01X946Y11696D01*
G01X920Y11655D01*
G01X895Y11613D01*
G01X872Y11569D01*
G01X851Y11525D01*
G01X831Y11480D01*
G01X814Y11434D01*
G01X799Y11387D01*
G01X785Y11340D01*
G01X774Y11292D01*
G01X765Y11244D01*
G01X757Y11195D01*
G01X752Y11147D01*
G01X749Y11098D01*
G01X748Y11049D01*
G01X749Y10999D01*
G01X752Y10950D01*
G01X757Y10902D01*
G01X765Y10853D01*
G01X774Y10805D01*
G01X785Y10757D01*
G01X799Y10710D01*
G01X814Y10663D01*
G01X831Y10617D01*
G01X851Y10572D01*
G01X872Y10528D01*
G01X895Y10484D01*
G01X920Y10442D01*
G01X946Y10401D01*
G01X975Y10361D01*
G01X1005Y10322D01*
G01X1036Y10284D01*
G01X1070Y10248D01*
G01X1104Y10214D01*
G01X1140Y10180D01*
G01X1178Y10149D01*
G01X1217Y10119D01*
G01X1257Y10090D01*
G01X1298Y10064D01*
G01X1340Y10039D01*
G01X1384Y10016D01*
G01X1428Y9995D01*
G01X1473Y9975D01*
G01X1519Y9958D01*
G01X1566Y9943D01*
G01X1613Y9929D01*
G01X1661Y9918D01*
G01X1709Y9909D01*
G01X1758Y9901D01*
G01X1806Y9896D01*
G01X1855Y9893D01*
G01X1905Y9892D01*
G01X1955Y9893D01*
G01X2006Y9896D01*
G01X2056Y9902D01*
G01X2106Y9910D01*
G01X2156Y9920D01*
G01X2205Y9932D01*
G01X2253Y9946D01*
G01X2301Y9962D01*
G01X2348Y9981D01*
G01X2395Y10001D01*
G01X2440Y10023D01*
G01X2484Y10048D01*
G01X2528Y10074D01*
G01X2570Y10102D01*
G01X2610Y10132D01*
G01X2650Y10164D01*
G01X2688Y10197D01*
G01X2724Y10233D01*
G01X2759Y10269D01*
G01X2771Y10281D01*
G01X2786Y10290D01*
G01X2801Y10297D01*
G01X2817Y10301D01*
G01X2834Y10302D01*
G01X2849Y10301D01*
G01X2863Y10298D01*
G01X2876Y10293D01*
G01X2889Y10286D01*
G01X2901Y10278D01*
G01X2911Y10267D01*
G01X2920Y10256D01*
G01X2927Y10243D01*
G01X2932Y10229D01*
G01X2935Y10215D01*
G01X2936Y10201D01*
G01X2935Y10185D01*
G01X2931Y10170D01*
G01X2925Y10156D01*
G01X2910Y10122D01*
G01X2897Y10087D01*
G01X2886Y10052D01*
G01X2877Y10016D01*
G01X2871Y9979D01*
G01X2868Y9942D01*
G01X2866Y9906D01*
G01X2867Y9872D01*
G01X2871Y9838D01*
G01X2876Y9804D01*
G01X2883Y9771D01*
G01X2892Y9738D01*
G01X2903Y9706D01*
G01X2916Y9675D01*
G01X2931Y9644D01*
G01X2948Y9615D01*
G01X2966Y9586D01*
G01X2986Y9559D01*
G01X3008Y9533D01*
G01X3031Y9508D01*
G01X3056Y9485D01*
G01X3082Y9463D01*
G01X3109Y9443D01*
G01X3138Y9425D01*
G01X3167Y9408D01*
G01X3198Y9393D01*
G01X3229Y9380D01*
G01X3261Y9369D01*
G01X3294Y9360D01*
G01X3327Y9353D01*
G01X3361Y9348D01*
G01X3395Y9344D01*
G01X3429Y9343D01*
G01X3463Y9345D01*
G01X3498Y9348D01*
G01X3532Y9353D01*
G01X3566Y9361D01*
G01X3600Y9370D01*
G01X3632Y9382D01*
G01X3664Y9395D01*
G01X3695Y9411D01*
G01X3725Y9428D01*
G01X3754Y9448D01*
G01X3782Y9469D01*
G01X3808Y9491D01*
G01X3833Y9516D01*
G01X3857Y9541D01*
G01X3878Y9568D01*
G01X3898Y9597D01*
G01X3916Y9627D01*
G01X3933Y9657D01*
G01X3947Y9689D01*
G01X3960Y9721D01*
G01X3970Y9755D01*
G01X3978Y9788D01*
G01X3983Y9803D01*
G01X3989Y9817D01*
G01X3998Y9830D01*
G01X4009Y9842D01*
G01X4021Y9851D01*
G01X4035Y9859D01*
G01X4022Y9869D01*
G01X4012Y9880D01*
G01X4003Y9893D01*
G01X3996Y9907D01*
G01X3992Y9922D01*
G01X3990Y9938D01*
G01X3985Y9984D01*
G01X3977Y10030D01*
G01X3967Y10066D01*
G01X3955Y10101D01*
G01X3941Y10135D01*
G01X3925Y10169D01*
G01X3907Y10201D01*
G01X3886Y10232D01*
G01X3864Y10261D01*
G01X3839Y10289D01*
G01X3830Y10301D01*
G01X3822Y10314D01*
G01X3817Y10328D01*
G01X3813Y10343D01*
G01X3812Y10358D01*
G01X3812Y12065D01*
G01X3811Y12095D01*
G01X3807Y12124D01*
G01X3801Y12154D01*
G01X3793Y12183D01*
G01X3783Y12211D01*
G01X3770Y12239D01*
G01X3756Y12265D01*
G01X3739Y12290D01*
G01X3720Y12314D01*
G01X3700Y12336D01*
G01X2997Y13039D01*
G01X2986Y13051D01*
G01X2978Y13065D01*
G01X2972Y13079D01*
G01X2968Y13095D01*
G01X2967Y13111D01*
G01X2969Y13130D01*
G01X2974Y13149D01*
G01X2992Y13196D01*
G01X3008Y13243D01*
G01X3022Y13292D01*
G01X3034Y13340D01*
G01X3044Y13389D01*
G01X3051Y13439D01*
G01X3057Y13489D01*
G01X3060Y13538D01*
G01X3061Y13589D01*
G01X3060Y13638D01*
G01X3057Y13687D01*
G01X3052Y13735D01*
G01X3044Y13784D01*
G01X3035Y13832D01*
G01X3024Y13880D01*
G01X3010Y13927D01*
G01X2995Y13974D01*
G01X2978Y14020D01*
G01X2958Y14065D01*
G01X2937Y14109D01*
G01X2914Y14153D01*
G01X2889Y14195D01*
G01X2863Y14236D01*
G01X2834Y14276D01*
G01X2804Y14315D01*
G01X2773Y14353D01*
G01X2739Y14389D01*
G01X2705Y14423D01*
G01X2669Y14457D01*
G01X2631Y14488D01*
G01X2592Y14518D01*
G01X2552Y14547D01*
G01X2511Y14573D01*
G01X2469Y14598D01*
G01X2425Y14621D01*
G01X2381Y14642D01*
G01X2336Y14662D01*
G01X2290Y14679D01*
G01X2243Y14694D01*
G01X2196Y14708D01*
G01X2148Y14719D01*
G01X2100Y14728D01*
G01X2051Y14736D01*
G01X2003Y14741D01*
G01X1954Y14744D01*
G37*
G36*
G01X2804Y7125D02*
G01X1005Y7125D01*
G01X981Y7124D01*
G01X957Y7121D01*
G01X934Y7115D01*
G01X912Y7108D01*
G01X890Y7098D01*
G01X869Y7087D01*
G01X850Y7073D01*
G01X832Y7058D01*
G01X815Y7041D01*
G01X800Y7023D01*
G01X786Y7004D01*
G01X775Y6983D01*
G01X765Y6961D01*
G01X758Y6939D01*
G01X752Y6916D01*
G01X749Y6892D01*
G01X748Y6868D01*
G01X748Y5069D01*
G01X749Y5045D01*
G01X752Y5021D01*
G01X758Y4998D01*
G01X765Y4976D01*
G01X775Y4954D01*
G01X786Y4933D01*
G01X800Y4914D01*
G01X815Y4896D01*
G01X832Y4879D01*
G01X850Y4864D01*
G01X869Y4850D01*
G01X890Y4839D01*
G01X912Y4829D01*
G01X934Y4822D01*
G01X957Y4816D01*
G01X981Y4813D01*
G01X1005Y4812D01*
G01X2804Y4812D01*
G01X2828Y4813D01*
G01X2852Y4816D01*
G01X2875Y4822D01*
G01X2897Y4829D01*
G01X2919Y4839D01*
G01X2940Y4850D01*
G01X2959Y4864D01*
G01X2977Y4879D01*
G01X2994Y4896D01*
G01X3009Y4914D01*
G01X3023Y4933D01*
G01X3034Y4954D01*
G01X3044Y4976D01*
G01X3051Y4998D01*
G01X3057Y5021D01*
G01X3060Y5045D01*
G01X3061Y5069D01*
G01X3061Y6868D01*
G01X3060Y6892D01*
G01X3057Y6916D01*
G01X3051Y6939D01*
G01X3044Y6961D01*
G01X3034Y6983D01*
G01X3023Y7004D01*
G01X3009Y7023D01*
G01X2994Y7041D01*
G01X2977Y7058D01*
G01X2959Y7073D01*
G01X2940Y7087D01*
G01X2919Y7098D01*
G01X2897Y7108D01*
G01X2875Y7115D01*
G01X2852Y7121D01*
G01X2828Y7124D01*
G01X2804Y7125D01*
G37*
G36*
G01X1954Y9664D02*
G01X1905Y9665D01*
G01X1855Y9664D01*
G01X1806Y9661D01*
G01X1758Y9656D01*
G01X1709Y9648D01*
G01X1661Y9639D01*
G01X1613Y9628D01*
G01X1566Y9614D01*
G01X1519Y9599D01*
G01X1473Y9582D01*
G01X1428Y9562D01*
G01X1384Y9541D01*
G01X1340Y9518D01*
G01X1298Y9493D01*
G01X1257Y9467D01*
G01X1217Y9438D01*
G01X1178Y9408D01*
G01X1140Y9377D01*
G01X1104Y9343D01*
G01X1070Y9309D01*
G01X1036Y9273D01*
G01X1005Y9235D01*
G01X975Y9196D01*
G01X946Y9156D01*
G01X920Y9115D01*
G01X895Y9073D01*
G01X872Y9029D01*
G01X851Y8985D01*
G01X831Y8940D01*
G01X814Y8894D01*
G01X799Y8847D01*
G01X785Y8800D01*
G01X774Y8752D01*
G01X765Y8704D01*
G01X757Y8655D01*
G01X752Y8607D01*
G01X749Y8558D01*
G01X748Y8509D01*
G01X749Y8459D01*
G01X752Y8410D01*
G01X757Y8362D01*
G01X765Y8313D01*
G01X774Y8265D01*
G01X785Y8217D01*
G01X799Y8170D01*
G01X814Y8123D01*
G01X831Y8077D01*
G01X851Y8032D01*
G01X872Y7988D01*
G01X895Y7944D01*
G01X920Y7902D01*
G01X946Y7861D01*
G01X975Y7821D01*
G01X1005Y7782D01*
G01X1036Y7744D01*
G01X1070Y7708D01*
G01X1104Y7674D01*
G01X1140Y7640D01*
G01X1178Y7609D01*
G01X1217Y7579D01*
G01X1257Y7550D01*
G01X1298Y7524D01*
G01X1340Y7499D01*
G01X1384Y7476D01*
G01X1428Y7455D01*
G01X1473Y7435D01*
G01X1519Y7418D01*
G01X1566Y7403D01*
G01X1613Y7389D01*
G01X1661Y7378D01*
G01X1709Y7369D01*
G01X1758Y7361D01*
G01X1806Y7356D01*
G01X1855Y7353D01*
G01X1905Y7352D01*
G01X1954Y7353D01*
G01X2003Y7356D01*
G01X2051Y7361D01*
G01X2100Y7369D01*
G01X2148Y7378D01*
G01X2196Y7389D01*
G01X2243Y7403D01*
G01X2290Y7418D01*
G01X2336Y7435D01*
G01X2381Y7455D01*
G01X2425Y7476D01*
G01X2469Y7499D01*
G01X2511Y7524D01*
G01X2552Y7550D01*
G01X2592Y7579D01*
G01X2631Y7609D01*
G01X2669Y7640D01*
G01X2705Y7674D01*
G01X2739Y7708D01*
G01X2773Y7744D01*
G01X2804Y7782D01*
G01X2834Y7821D01*
G01X2863Y7861D01*
G01X2889Y7902D01*
G01X2914Y7944D01*
G01X2937Y7988D01*
G01X2958Y8032D01*
G01X2978Y8077D01*
G01X2995Y8123D01*
G01X3010Y8170D01*
G01X3024Y8217D01*
G01X3035Y8265D01*
G01X3044Y8313D01*
G01X3052Y8362D01*
G01X3057Y8410D01*
G01X3060Y8459D01*
G01X3061Y8509D01*
G01X3060Y8558D01*
G01X3057Y8607D01*
G01X3052Y8655D01*
G01X3044Y8704D01*
G01X3035Y8752D01*
G01X3024Y8800D01*
G01X3010Y8847D01*
G01X2995Y8894D01*
G01X2978Y8940D01*
G01X2958Y8985D01*
G01X2937Y9029D01*
G01X2914Y9073D01*
G01X2889Y9115D01*
G01X2863Y9156D01*
G01X2834Y9196D01*
G01X2804Y9235D01*
G01X2773Y9273D01*
G01X2739Y9309D01*
G01X2705Y9343D01*
G01X2669Y9377D01*
G01X2631Y9408D01*
G01X2592Y9438D01*
G01X2552Y9467D01*
G01X2511Y9493D01*
G01X2469Y9518D01*
G01X2425Y9541D01*
G01X2381Y9562D01*
G01X2336Y9582D01*
G01X2290Y9599D01*
G01X2243Y9614D01*
G01X2196Y9628D01*
G01X2148Y9639D01*
G01X2100Y9648D01*
G01X2051Y9656D01*
G01X2003Y9661D01*
G01X1954Y9664D01*
G37*
G36*
G01X1954Y24904D02*
G01X1905Y24905D01*
G01X1855Y24904D01*
G01X1806Y24901D01*
G01X1758Y24896D01*
G01X1709Y24888D01*
G01X1661Y24879D01*
G01X1613Y24868D01*
G01X1566Y24854D01*
G01X1519Y24839D01*
G01X1473Y24822D01*
G01X1428Y24802D01*
G01X1384Y24781D01*
G01X1340Y24758D01*
G01X1298Y24733D01*
G01X1257Y24707D01*
G01X1217Y24678D01*
G01X1178Y24648D01*
G01X1140Y24617D01*
G01X1104Y24583D01*
G01X1070Y24549D01*
G01X1036Y24513D01*
G01X1005Y24475D01*
G01X975Y24436D01*
G01X946Y24396D01*
G01X920Y24355D01*
G01X895Y24313D01*
G01X872Y24269D01*
G01X851Y24225D01*
G01X831Y24180D01*
G01X814Y24134D01*
G01X799Y24087D01*
G01X785Y24040D01*
G01X774Y23992D01*
G01X765Y23944D01*
G01X757Y23895D01*
G01X752Y23847D01*
G01X749Y23798D01*
G01X748Y23749D01*
G01X749Y23699D01*
G01X752Y23650D01*
G01X757Y23602D01*
G01X765Y23553D01*
G01X774Y23505D01*
G01X785Y23457D01*
G01X799Y23410D01*
G01X814Y23363D01*
G01X831Y23317D01*
G01X851Y23272D01*
G01X872Y23228D01*
G01X895Y23184D01*
G01X920Y23142D01*
G01X946Y23101D01*
G01X975Y23061D01*
G01X1005Y23022D01*
G01X1036Y22984D01*
G01X1070Y22948D01*
G01X1104Y22914D01*
G01X1140Y22880D01*
G01X1178Y22849D01*
G01X1217Y22819D01*
G01X1257Y22790D01*
G01X1298Y22764D01*
G01X1340Y22739D01*
G01X1384Y22716D01*
G01X1428Y22695D01*
G01X1473Y22675D01*
G01X1519Y22658D01*
G01X1566Y22643D01*
G01X1613Y22629D01*
G01X1661Y22618D01*
G01X1709Y22609D01*
G01X1758Y22601D01*
G01X1806Y22596D01*
G01X1855Y22593D01*
G01X1905Y22592D01*
G01X1954Y22593D01*
G01X2003Y22596D01*
G01X2051Y22601D01*
G01X2100Y22609D01*
G01X2148Y22618D01*
G01X2196Y22629D01*
G01X2243Y22643D01*
G01X2290Y22658D01*
G01X2336Y22675D01*
G01X2381Y22695D01*
G01X2425Y22716D01*
G01X2469Y22739D01*
G01X2511Y22764D01*
G01X2552Y22790D01*
G01X2592Y22819D01*
G01X2631Y22849D01*
G01X2669Y22880D01*
G01X2705Y22914D01*
G01X2739Y22948D01*
G01X2773Y22984D01*
G01X2804Y23022D01*
G01X2834Y23061D01*
G01X2863Y23101D01*
G01X2889Y23142D01*
G01X2914Y23184D01*
G01X2937Y23228D01*
G01X2958Y23272D01*
G01X2978Y23317D01*
G01X2995Y23363D01*
G01X3010Y23410D01*
G01X3024Y23457D01*
G01X3035Y23505D01*
G01X3044Y23553D01*
G01X3052Y23602D01*
G01X3057Y23650D01*
G01X3060Y23699D01*
G01X3061Y23749D01*
G01X3060Y23798D01*
G01X3057Y23847D01*
G01X3052Y23895D01*
G01X3044Y23944D01*
G01X3035Y23992D01*
G01X3024Y24040D01*
G01X3010Y24087D01*
G01X2995Y24134D01*
G01X2978Y24180D01*
G01X2958Y24225D01*
G01X2937Y24269D01*
G01X2914Y24313D01*
G01X2889Y24355D01*
G01X2863Y24396D01*
G01X2834Y24436D01*
G01X2804Y24475D01*
G01X2773Y24513D01*
G01X2739Y24549D01*
G01X2705Y24583D01*
G01X2669Y24617D01*
G01X2631Y24648D01*
G01X2592Y24678D01*
G01X2552Y24707D01*
G01X2511Y24733D01*
G01X2469Y24758D01*
G01X2425Y24781D01*
G01X2381Y24802D01*
G01X2336Y24822D01*
G01X2290Y24839D01*
G01X2243Y24854D01*
G01X2196Y24868D01*
G01X2148Y24879D01*
G01X2100Y24888D01*
G01X2051Y24896D01*
G01X2003Y24901D01*
G01X1954Y24904D01*
G37*
G36*
G01X1954Y17284D02*
G01X1905Y17285D01*
G01X1855Y17284D01*
G01X1806Y17281D01*
G01X1758Y17276D01*
G01X1709Y17268D01*
G01X1661Y17259D01*
G01X1613Y17248D01*
G01X1566Y17234D01*
G01X1519Y17219D01*
G01X1473Y17202D01*
G01X1428Y17182D01*
G01X1384Y17161D01*
G01X1340Y17138D01*
G01X1298Y17113D01*
G01X1257Y17087D01*
G01X1217Y17058D01*
G01X1178Y17028D01*
G01X1140Y16997D01*
G01X1104Y16963D01*
G01X1070Y16929D01*
G01X1036Y16893D01*
G01X1005Y16855D01*
G01X975Y16816D01*
G01X946Y16776D01*
G01X920Y16735D01*
G01X895Y16693D01*
G01X872Y16649D01*
G01X851Y16605D01*
G01X831Y16560D01*
G01X814Y16514D01*
G01X799Y16467D01*
G01X785Y16420D01*
G01X774Y16372D01*
G01X765Y16324D01*
G01X757Y16275D01*
G01X752Y16227D01*
G01X749Y16178D01*
G01X748Y16129D01*
G01X749Y16079D01*
G01X752Y16030D01*
G01X757Y15982D01*
G01X765Y15933D01*
G01X774Y15885D01*
G01X785Y15837D01*
G01X799Y15790D01*
G01X814Y15743D01*
G01X831Y15697D01*
G01X851Y15652D01*
G01X872Y15608D01*
G01X895Y15564D01*
G01X920Y15522D01*
G01X946Y15481D01*
G01X975Y15441D01*
G01X1005Y15402D01*
G01X1036Y15364D01*
G01X1070Y15328D01*
G01X1104Y15294D01*
G01X1140Y15260D01*
G01X1178Y15229D01*
G01X1217Y15199D01*
G01X1257Y15170D01*
G01X1298Y15144D01*
G01X1340Y15119D01*
G01X1384Y15096D01*
G01X1428Y15075D01*
G01X1473Y15055D01*
G01X1519Y15038D01*
G01X1566Y15023D01*
G01X1613Y15009D01*
G01X1661Y14998D01*
G01X1709Y14989D01*
G01X1758Y14981D01*
G01X1806Y14976D01*
G01X1855Y14973D01*
G01X1905Y14972D01*
G01X1954Y14973D01*
G01X2003Y14976D01*
G01X2051Y14981D01*
G01X2100Y14989D01*
G01X2148Y14998D01*
G01X2196Y15009D01*
G01X2243Y15023D01*
G01X2290Y15038D01*
G01X2336Y15055D01*
G01X2381Y15075D01*
G01X2425Y15096D01*
G01X2469Y15119D01*
G01X2511Y15144D01*
G01X2552Y15170D01*
G01X2592Y15199D01*
G01X2631Y15229D01*
G01X2669Y15260D01*
G01X2705Y15294D01*
G01X2739Y15328D01*
G01X2773Y15364D01*
G01X2804Y15402D01*
G01X2834Y15441D01*
G01X2863Y15481D01*
G01X2889Y15522D01*
G01X2914Y15564D01*
G01X2937Y15608D01*
G01X2958Y15652D01*
G01X2978Y15697D01*
G01X2995Y15743D01*
G01X3010Y15790D01*
G01X3024Y15837D01*
G01X3035Y15885D01*
G01X3044Y15933D01*
G01X3052Y15982D01*
G01X3057Y16030D01*
G01X3060Y16079D01*
G01X3061Y16129D01*
G01X3060Y16178D01*
G01X3057Y16227D01*
G01X3052Y16275D01*
G01X3044Y16324D01*
G01X3035Y16372D01*
G01X3024Y16420D01*
G01X3010Y16467D01*
G01X2995Y16514D01*
G01X2978Y16560D01*
G01X2958Y16605D01*
G01X2937Y16649D01*
G01X2914Y16693D01*
G01X2889Y16735D01*
G01X2863Y16776D01*
G01X2834Y16816D01*
G01X2804Y16855D01*
G01X2773Y16893D01*
G01X2739Y16929D01*
G01X2705Y16963D01*
G01X2669Y16997D01*
G01X2631Y17028D01*
G01X2592Y17058D01*
G01X2552Y17087D01*
G01X2511Y17113D01*
G01X2469Y17138D01*
G01X2425Y17161D01*
G01X2381Y17182D01*
G01X2336Y17202D01*
G01X2290Y17219D01*
G01X2243Y17234D01*
G01X2196Y17248D01*
G01X2148Y17259D01*
G01X2100Y17268D01*
G01X2051Y17276D01*
G01X2003Y17281D01*
G01X1954Y17284D01*
G37*
G36*
G01X1954Y19824D02*
G01X1905Y19825D01*
G01X1855Y19824D01*
G01X1806Y19821D01*
G01X1758Y19816D01*
G01X1709Y19808D01*
G01X1661Y19799D01*
G01X1613Y19788D01*
G01X1566Y19774D01*
G01X1519Y19759D01*
G01X1473Y19742D01*
G01X1428Y19722D01*
G01X1384Y19701D01*
G01X1340Y19678D01*
G01X1298Y19653D01*
G01X1257Y19627D01*
G01X1217Y19598D01*
G01X1178Y19568D01*
G01X1140Y19537D01*
G01X1104Y19503D01*
G01X1070Y19469D01*
G01X1036Y19433D01*
G01X1005Y19395D01*
G01X975Y19356D01*
G01X946Y19316D01*
G01X920Y19275D01*
G01X895Y19233D01*
G01X872Y19189D01*
G01X851Y19145D01*
G01X831Y19100D01*
G01X814Y19054D01*
G01X799Y19007D01*
G01X785Y18960D01*
G01X774Y18912D01*
G01X765Y18864D01*
G01X757Y18815D01*
G01X752Y18767D01*
G01X749Y18718D01*
G01X748Y18669D01*
G01X749Y18619D01*
G01X752Y18570D01*
G01X757Y18522D01*
G01X765Y18473D01*
G01X774Y18425D01*
G01X785Y18377D01*
G01X799Y18330D01*
G01X814Y18283D01*
G01X831Y18237D01*
G01X851Y18192D01*
G01X872Y18148D01*
G01X895Y18104D01*
G01X920Y18062D01*
G01X946Y18021D01*
G01X975Y17981D01*
G01X1005Y17942D01*
G01X1036Y17904D01*
G01X1070Y17868D01*
G01X1104Y17834D01*
G01X1140Y17800D01*
G01X1178Y17769D01*
G01X1217Y17739D01*
G01X1257Y17710D01*
G01X1298Y17684D01*
G01X1340Y17659D01*
G01X1384Y17636D01*
G01X1428Y17615D01*
G01X1473Y17595D01*
G01X1519Y17578D01*
G01X1566Y17563D01*
G01X1613Y17549D01*
G01X1661Y17538D01*
G01X1709Y17529D01*
G01X1758Y17521D01*
G01X1806Y17516D01*
G01X1855Y17513D01*
G01X1905Y17512D01*
G01X1954Y17513D01*
G01X2003Y17516D01*
G01X2051Y17521D01*
G01X2100Y17529D01*
G01X2148Y17538D01*
G01X2196Y17549D01*
G01X2243Y17563D01*
G01X2290Y17578D01*
G01X2336Y17595D01*
G01X2381Y17615D01*
G01X2425Y17636D01*
G01X2469Y17659D01*
G01X2511Y17684D01*
G01X2552Y17710D01*
G01X2592Y17739D01*
G01X2631Y17769D01*
G01X2669Y17800D01*
G01X2705Y17834D01*
G01X2739Y17868D01*
G01X2773Y17904D01*
G01X2804Y17942D01*
G01X2834Y17981D01*
G01X2863Y18021D01*
G01X2889Y18062D01*
G01X2914Y18104D01*
G01X2937Y18148D01*
G01X2958Y18192D01*
G01X2978Y18237D01*
G01X2995Y18283D01*
G01X3010Y18330D01*
G01X3024Y18377D01*
G01X3035Y18425D01*
G01X3044Y18473D01*
G01X3052Y18522D01*
G01X3057Y18570D01*
G01X3060Y18619D01*
G01X3061Y18669D01*
G01X3060Y18718D01*
G01X3057Y18767D01*
G01X3052Y18815D01*
G01X3044Y18864D01*
G01X3035Y18912D01*
G01X3024Y18960D01*
G01X3010Y19007D01*
G01X2995Y19054D01*
G01X2978Y19100D01*
G01X2958Y19145D01*
G01X2937Y19189D01*
G01X2914Y19233D01*
G01X2889Y19275D01*
G01X2863Y19316D01*
G01X2834Y19356D01*
G01X2804Y19395D01*
G01X2773Y19433D01*
G01X2739Y19469D01*
G01X2705Y19503D01*
G01X2669Y19537D01*
G01X2631Y19568D01*
G01X2592Y19598D01*
G01X2552Y19627D01*
G01X2511Y19653D01*
G01X2469Y19678D01*
G01X2425Y19701D01*
G01X2381Y19722D01*
G01X2336Y19742D01*
G01X2290Y19759D01*
G01X2243Y19774D01*
G01X2196Y19788D01*
G01X2148Y19799D01*
G01X2100Y19808D01*
G01X2051Y19816D01*
G01X2003Y19821D01*
G01X1954Y19824D01*
G37*
G36*
G01X1954Y22364D02*
G01X1905Y22365D01*
G01X1855Y22364D01*
G01X1806Y22361D01*
G01X1758Y22356D01*
G01X1709Y22348D01*
G01X1661Y22339D01*
G01X1613Y22328D01*
G01X1566Y22314D01*
G01X1519Y22299D01*
G01X1473Y22282D01*
G01X1428Y22262D01*
G01X1384Y22241D01*
G01X1340Y22218D01*
G01X1298Y22193D01*
G01X1257Y22167D01*
G01X1217Y22138D01*
G01X1178Y22108D01*
G01X1140Y22077D01*
G01X1104Y22043D01*
G01X1070Y22009D01*
G01X1036Y21973D01*
G01X1005Y21935D01*
G01X975Y21896D01*
G01X946Y21856D01*
G01X920Y21815D01*
G01X895Y21773D01*
G01X872Y21729D01*
G01X851Y21685D01*
G01X831Y21640D01*
G01X814Y21594D01*
G01X799Y21547D01*
G01X785Y21500D01*
G01X774Y21452D01*
G01X765Y21404D01*
G01X757Y21355D01*
G01X752Y21307D01*
G01X749Y21258D01*
G01X748Y21209D01*
G01X749Y21159D01*
G01X752Y21110D01*
G01X757Y21062D01*
G01X765Y21013D01*
G01X774Y20965D01*
G01X785Y20917D01*
G01X799Y20870D01*
G01X814Y20823D01*
G01X831Y20777D01*
G01X851Y20732D01*
G01X872Y20688D01*
G01X895Y20644D01*
G01X920Y20602D01*
G01X946Y20561D01*
G01X975Y20521D01*
G01X1005Y20482D01*
G01X1036Y20444D01*
G01X1070Y20408D01*
G01X1104Y20374D01*
G01X1140Y20340D01*
G01X1178Y20309D01*
G01X1217Y20279D01*
G01X1257Y20250D01*
G01X1298Y20224D01*
G01X1340Y20199D01*
G01X1384Y20176D01*
G01X1428Y20155D01*
G01X1473Y20135D01*
G01X1519Y20118D01*
G01X1566Y20103D01*
G01X1613Y20089D01*
G01X1661Y20078D01*
G01X1709Y20069D01*
G01X1758Y20061D01*
G01X1806Y20056D01*
G01X1855Y20053D01*
G01X1905Y20052D01*
G01X1954Y20053D01*
G01X2003Y20056D01*
G01X2051Y20061D01*
G01X2100Y20069D01*
G01X2148Y20078D01*
G01X2196Y20089D01*
G01X2243Y20103D01*
G01X2290Y20118D01*
G01X2336Y20135D01*
G01X2381Y20155D01*
G01X2425Y20176D01*
G01X2469Y20199D01*
G01X2511Y20224D01*
G01X2552Y20250D01*
G01X2592Y20279D01*
G01X2631Y20309D01*
G01X2669Y20340D01*
G01X2705Y20374D01*
G01X2739Y20408D01*
G01X2773Y20444D01*
G01X2804Y20482D01*
G01X2834Y20521D01*
G01X2863Y20561D01*
G01X2889Y20602D01*
G01X2914Y20644D01*
G01X2937Y20688D01*
G01X2958Y20732D01*
G01X2978Y20777D01*
G01X2995Y20823D01*
G01X3010Y20870D01*
G01X3024Y20917D01*
G01X3035Y20965D01*
G01X3044Y21013D01*
G01X3052Y21062D01*
G01X3057Y21110D01*
G01X3060Y21159D01*
G01X3061Y21209D01*
G01X3060Y21258D01*
G01X3057Y21307D01*
G01X3052Y21355D01*
G01X3044Y21404D01*
G01X3035Y21452D01*
G01X3024Y21500D01*
G01X3010Y21547D01*
G01X2995Y21594D01*
G01X2978Y21640D01*
G01X2958Y21685D01*
G01X2937Y21729D01*
G01X2914Y21773D01*
G01X2889Y21815D01*
G01X2863Y21856D01*
G01X2834Y21896D01*
G01X2804Y21935D01*
G01X2773Y21973D01*
G01X2739Y22009D01*
G01X2705Y22043D01*
G01X2669Y22077D01*
G01X2631Y22108D01*
G01X2592Y22138D01*
G01X2552Y22167D01*
G01X2511Y22193D01*
G01X2469Y22218D01*
G01X2425Y22241D01*
G01X2381Y22262D01*
G01X2336Y22282D01*
G01X2290Y22299D01*
G01X2243Y22314D01*
G01X2196Y22328D01*
G01X2148Y22339D01*
G01X2100Y22348D01*
G01X2051Y22356D01*
G01X2003Y22361D01*
G01X1954Y22364D01*
G37*
G36*
G01X5518Y22615D02*
G01X5438Y22615D01*
G01X5438Y22193D01*
G01X5480Y22215D01*
G01X5522Y22239D01*
G01X5562Y22265D01*
G01X5575Y22273D01*
G01X5590Y22278D01*
G01X5604Y22282D01*
G01X5620Y22283D01*
G01X5634Y22282D01*
G01X5648Y22279D01*
G01X5662Y22274D01*
G01X5675Y22267D01*
G01X5686Y22258D01*
G01X5697Y22248D01*
G01X5705Y22236D01*
G01X5712Y22224D01*
G01X5717Y22210D01*
G01X5720Y22196D01*
G01X5721Y22181D01*
G01X5721Y21976D01*
G01X5722Y21952D01*
G01X5726Y21929D01*
G01X5731Y21906D01*
G01X5739Y21883D01*
G01X5748Y21862D01*
G01X5760Y21841D01*
G01X5773Y21821D01*
G01X5788Y21803D01*
G01X5805Y21787D01*
G01X5823Y21771D01*
G01X5843Y21758D01*
G01X5864Y21746D01*
G01X5885Y21737D01*
G01X5908Y21729D01*
G01X5931Y21724D01*
G01X5954Y21721D01*
G01X5978Y21720D01*
G01X6027Y21720D01*
G01X6027Y22413D01*
G01X5620Y22413D01*
G01X5605Y22414D01*
G01X5591Y22417D01*
G01X5578Y22422D01*
G01X5565Y22429D01*
G01X5553Y22437D01*
G01X5543Y22448D01*
G01X5534Y22459D01*
G01X5527Y22472D01*
G01X5522Y22486D01*
G01X5519Y22500D01*
G01X5518Y22514D01*
G01X5518Y22615D01*
G37*
G36*
G01X6027Y24233D02*
G01X5978Y24233D01*
G01X5954Y24232D01*
G01X5931Y24228D01*
G01X5908Y24223D01*
G01X5885Y24215D01*
G01X5864Y24206D01*
G01X5843Y24194D01*
G01X5823Y24181D01*
G01X5805Y24166D01*
G01X5788Y24149D01*
G01X5773Y24131D01*
G01X5760Y24111D01*
G01X5748Y24090D01*
G01X5739Y24069D01*
G01X5731Y24046D01*
G01X5726Y24023D01*
G01X5722Y24000D01*
G01X5721Y23976D01*
G01X5721Y23800D01*
G01X5720Y23786D01*
G01X5717Y23772D01*
G01X5712Y23758D01*
G01X5705Y23745D01*
G01X5697Y23734D01*
G01X5686Y23723D01*
G01X5675Y23715D01*
G01X5662Y23708D01*
G01X5648Y23703D01*
G01X5634Y23700D01*
G01X5620Y23699D01*
G01X5604Y23700D01*
G01X5590Y23703D01*
G01X5575Y23709D01*
G01X5562Y23717D01*
G01X5522Y23743D01*
G01X5480Y23767D01*
G01X5438Y23788D01*
G01X5438Y23367D01*
G01X5518Y23367D01*
G01X5518Y23438D01*
G01X5519Y23452D01*
G01X5522Y23467D01*
G01X5527Y23480D01*
G01X5534Y23493D01*
G01X5543Y23505D01*
G01X5553Y23515D01*
G01X5565Y23523D01*
G01X5578Y23530D01*
G01X5591Y23535D01*
G01X5605Y23539D01*
G01X5620Y23540D01*
G01X6027Y23540D01*
G01X6027Y24233D01*
G37*
G36*
G01X4295Y27055D02*
G01X4281Y27069D01*
G01X4281Y26404D01*
G01X4784Y26404D01*
G01X4775Y26447D01*
G01X4764Y26488D01*
G01X4752Y26530D01*
G01X4737Y26571D01*
G01X4720Y26610D01*
G01X4702Y26650D01*
G01X4681Y26688D01*
G01X4659Y26725D01*
G01X4635Y26761D01*
G01X4609Y26796D01*
G01X4582Y26829D01*
G01X4553Y26862D01*
G01X4491Y26922D01*
G01X4457Y26950D01*
G01X4423Y26976D01*
G01X4387Y27000D01*
G01X4350Y27023D01*
G01X4312Y27044D01*
G01X4295Y27055D01*
G37*
G36*
G01X11495Y27055D02*
G01X11481Y27069D01*
G01X11481Y26404D01*
G01X11984Y26404D01*
G01X11975Y26447D01*
G01X11964Y26488D01*
G01X11952Y26530D01*
G01X11937Y26571D01*
G01X11920Y26610D01*
G01X11901Y26650D01*
G01X11881Y26688D01*
G01X11859Y26725D01*
G01X11835Y26761D01*
G01X11809Y26796D01*
G01X11782Y26829D01*
G01X11753Y26862D01*
G01X11722Y26892D01*
G01X11690Y26922D01*
G01X11657Y26950D01*
G01X11623Y26976D01*
G01X11587Y27000D01*
G01X11550Y27023D01*
G01X11512Y27044D01*
G01X11495Y27055D01*
G37*
G36*
G01X10704Y26404D02*
G01X10704Y27069D01*
G01X10690Y27055D01*
G01X10673Y27044D01*
G01X10635Y27023D01*
G01X10598Y27000D01*
G01X10562Y26976D01*
G01X10528Y26950D01*
G01X10494Y26922D01*
G01X10432Y26862D01*
G01X10403Y26829D01*
G01X10376Y26796D01*
G01X10350Y26761D01*
G01X10326Y26725D01*
G01X10304Y26688D01*
G01X10283Y26650D01*
G01X10265Y26610D01*
G01X10248Y26571D01*
G01X10233Y26530D01*
G01X10221Y26488D01*
G01X10210Y26447D01*
G01X10201Y26404D01*
G01X10704Y26404D01*
G37*
G36*
G01X3504Y26404D02*
G01X3504Y27069D01*
G01X3490Y27055D01*
G01X3473Y27044D01*
G01X3435Y27023D01*
G01X3398Y27000D01*
G01X3362Y26976D01*
G01X3328Y26950D01*
G01X3295Y26922D01*
G01X3263Y26892D01*
G01X3232Y26862D01*
G01X3203Y26829D01*
G01X3176Y26796D01*
G01X3150Y26761D01*
G01X3126Y26725D01*
G01X3104Y26688D01*
G01X3084Y26650D01*
G01X3065Y26610D01*
G01X3048Y26571D01*
G01X3033Y26530D01*
G01X3021Y26488D01*
G01X3010Y26447D01*
G01X3001Y26404D01*
G01X3504Y26404D01*
G37*
G36*
G01X11984Y25178D02*
G01X11481Y25178D01*
G01X11481Y24522D01*
G01X11521Y24543D01*
G01X11560Y24565D01*
G01X11599Y24589D01*
G01X11635Y24615D01*
G01X11671Y24643D01*
G01X11705Y24673D01*
G01X11737Y24704D01*
G01X11768Y24737D01*
G01X11798Y24772D01*
G01X11825Y24807D01*
G01X11851Y24845D01*
G01X11875Y24883D01*
G01X11896Y24922D01*
G01X11916Y24963D01*
G01X11934Y25004D01*
G01X11950Y25047D01*
G01X11963Y25090D01*
G01X11975Y25133D01*
G01X11984Y25178D01*
G37*
G36*
G01X10704Y25178D02*
G01X10201Y25178D01*
G01X10210Y25133D01*
G01X10222Y25090D01*
G01X10235Y25047D01*
G01X10251Y25004D01*
G01X10269Y24963D01*
G01X10289Y24922D01*
G01X10310Y24883D01*
G01X10334Y24845D01*
G01X10360Y24807D01*
G01X10387Y24772D01*
G01X10417Y24737D01*
G01X10448Y24704D01*
G01X10480Y24673D01*
G01X10514Y24643D01*
G01X10550Y24615D01*
G01X10586Y24589D01*
G01X10624Y24565D01*
G01X10664Y24543D01*
G01X10704Y24522D01*
G01X10704Y25178D01*
G37*
G36*
G01X4784Y25178D02*
G01X4281Y25178D01*
G01X4281Y24522D01*
G01X4321Y24543D01*
G01X4361Y24565D01*
G01X4399Y24589D01*
G01X4435Y24615D01*
G01X4471Y24643D01*
G01X4505Y24673D01*
G01X4537Y24704D01*
G01X4568Y24737D01*
G01X4598Y24772D01*
G01X4625Y24807D01*
G01X4651Y24845D01*
G01X4675Y24883D01*
G01X4696Y24922D01*
G01X4716Y24963D01*
G01X4734Y25004D01*
G01X4750Y25047D01*
G01X4763Y25090D01*
G01X4775Y25133D01*
G01X4784Y25178D01*
G37*
G36*
G01X3504Y25178D02*
G01X3001Y25178D01*
G01X3010Y25133D01*
G01X3022Y25090D01*
G01X3035Y25047D01*
G01X3051Y25004D01*
G01X3069Y24963D01*
G01X3089Y24922D01*
G01X3110Y24883D01*
G01X3134Y24845D01*
G01X3160Y24807D01*
G01X3187Y24772D01*
G01X3217Y24737D01*
G01X3248Y24704D01*
G01X3280Y24673D01*
G01X3314Y24643D01*
G01X3350Y24615D01*
G01X3386Y24589D01*
G01X3425Y24565D01*
G01X3464Y24543D01*
G01X3504Y24522D01*
G01X3504Y25178D01*
G37*
G36*
G01X5349Y14672D02*
G01X5113Y14672D01*
G01X5113Y14129D01*
G01X5606Y14129D01*
G01X5606Y14415D01*
G01X5605Y14439D01*
G01X5602Y14463D01*
G01X5596Y14486D01*
G01X5589Y14508D01*
G01X5579Y14530D01*
G01X5568Y14551D01*
G01X5554Y14570D01*
G01X5539Y14588D01*
G01X5522Y14605D01*
G01X5504Y14620D01*
G01X5484Y14634D01*
G01X5464Y14645D01*
G01X5442Y14655D01*
G01X5420Y14662D01*
G01X5397Y14668D01*
G01X5373Y14671D01*
G01X5349Y14672D01*
G37*
G36*
G01X4386Y14672D02*
G01X4149Y14672D01*
G01X4126Y14671D01*
G01X4102Y14668D01*
G01X4079Y14662D01*
G01X4057Y14655D01*
G01X4035Y14645D01*
G01X4014Y14634D01*
G01X3995Y14620D01*
G01X3977Y14605D01*
G01X3960Y14588D01*
G01X3945Y14570D01*
G01X3931Y14551D01*
G01X3920Y14530D01*
G01X3910Y14508D01*
G01X3903Y14486D01*
G01X3897Y14463D01*
G01X3894Y14439D01*
G01X3893Y14415D01*
G01X3893Y14129D01*
G01X4386Y14129D01*
G01X4386Y14672D01*
G37*
G36*
G01X4386Y13302D02*
G01X3893Y13302D01*
G01X3893Y13016D01*
G01X3894Y12992D01*
G01X3897Y12968D01*
G01X3903Y12945D01*
G01X3910Y12923D01*
G01X3920Y12901D01*
G01X3931Y12880D01*
G01X3945Y12861D01*
G01X3960Y12843D01*
G01X3977Y12826D01*
G01X3995Y12811D01*
G01X4014Y12797D01*
G01X4035Y12786D01*
G01X4057Y12776D01*
G01X4079Y12769D01*
G01X4102Y12763D01*
G01X4126Y12760D01*
G01X4149Y12759D01*
G01X4386Y12759D01*
G01X4386Y13302D01*
G37*
G36*
G01X5606Y13302D02*
G01X5113Y13302D01*
G01X5113Y12759D01*
G01X5349Y12759D01*
G01X5373Y12760D01*
G01X5397Y12763D01*
G01X5420Y12769D01*
G01X5442Y12776D01*
G01X5464Y12786D01*
G01X5484Y12797D01*
G01X5504Y12811D01*
G01X5522Y12826D01*
G01X5539Y12843D01*
G01X5554Y12861D01*
G01X5568Y12880D01*
G01X5579Y12901D01*
G01X5589Y12923D01*
G01X5596Y12945D01*
G01X5602Y12968D01*
G01X5605Y12992D01*
G01X5606Y13016D01*
G01X5606Y13302D01*
G37*
G36*
G01X4821Y10502D02*
G01X4177Y10502D01*
G01X4177Y10464D01*
G01X4178Y10441D01*
G01X4181Y10418D01*
G01X4187Y10395D01*
G01X4194Y10373D01*
G01X4199Y10356D01*
G01X4201Y10337D01*
G01X4199Y10319D01*
G01X4194Y10301D01*
G01X4187Y10279D01*
G01X4181Y10257D01*
G01X4178Y10234D01*
G01X4177Y10210D01*
G01X4177Y10172D01*
G01X4821Y10172D01*
G01X4821Y10502D01*
G37*
G36*
G01X4821Y6591D02*
G01X4177Y6591D01*
G01X4177Y6553D01*
G01X4178Y6529D01*
G01X4181Y6506D01*
G01X4187Y6484D01*
G01X4194Y6462D01*
G01X4199Y6444D01*
G01X4201Y6426D01*
G01X4199Y6407D01*
G01X4194Y6390D01*
G01X4187Y6368D01*
G01X4181Y6345D01*
G01X4178Y6322D01*
G01X4177Y6299D01*
G01X4177Y6261D01*
G01X4821Y6261D01*
G01X4821Y6591D01*
G37*
G36*
G01X21759Y11054D02*
G01X21547Y11054D01*
G01X21547Y10611D01*
G01X22015Y10611D01*
G01X22015Y10797D01*
G01X22014Y10821D01*
G01X22011Y10845D01*
G01X22005Y10868D01*
G01X21998Y10890D01*
G01X21988Y10912D01*
G01X21977Y10933D01*
G01X21963Y10952D01*
G01X21948Y10970D01*
G01X21931Y10987D01*
G01X21913Y11002D01*
G01X21894Y11016D01*
G01X21873Y11027D01*
G01X21851Y11037D01*
G01X21829Y11044D01*
G01X21806Y11050D01*
G01X21782Y11053D01*
G01X21759Y11054D01*
G37*
G36*
G01X20870Y11054D02*
G01X20658Y11054D01*
G01X20635Y11053D01*
G01X20611Y11050D01*
G01X20588Y11044D01*
G01X20566Y11037D01*
G01X20544Y11027D01*
G01X20523Y11016D01*
G01X20504Y11002D01*
G01X20486Y10987D01*
G01X20469Y10970D01*
G01X20454Y10952D01*
G01X20440Y10933D01*
G01X20429Y10912D01*
G01X20419Y10890D01*
G01X20412Y10868D01*
G01X20406Y10845D01*
G01X20403Y10821D01*
G01X20402Y10797D01*
G01X20402Y10611D01*
G01X20870Y10611D01*
G01X20870Y11054D01*
G37*
G36*
G01X10456Y16134D02*
G01X10244Y16134D01*
G01X10244Y15691D01*
G01X10712Y15691D01*
G01X10712Y15877D01*
G01X10711Y15901D01*
G01X10708Y15925D01*
G01X10702Y15948D01*
G01X10695Y15970D01*
G01X10685Y15992D01*
G01X10674Y16013D01*
G01X10660Y16032D01*
G01X10645Y16050D01*
G01X10628Y16067D01*
G01X10610Y16082D01*
G01X10591Y16096D01*
G01X10570Y16107D01*
G01X10548Y16117D01*
G01X10526Y16124D01*
G01X10503Y16130D01*
G01X10479Y16133D01*
G01X10456Y16134D01*
G37*
G36*
G01X9073Y19094D02*
G01X8886Y19094D01*
G01X8863Y19093D01*
G01X8839Y19090D01*
G01X8816Y19084D01*
G01X8794Y19077D01*
G01X8772Y19067D01*
G01X8751Y19056D01*
G01X8732Y19042D01*
G01X8714Y19027D01*
G01X8697Y19010D01*
G01X8682Y18992D01*
G01X8668Y18973D01*
G01X8657Y18952D01*
G01X8647Y18930D01*
G01X8640Y18908D01*
G01X8634Y18885D01*
G01X8631Y18861D01*
G01X8630Y18838D01*
G01X8630Y18626D01*
G01X9073Y18626D01*
G01X9073Y19094D01*
G37*
G36*
G01X20870Y9984D02*
G01X20402Y9984D01*
G01X20402Y9797D01*
G01X20403Y9774D01*
G01X20406Y9750D01*
G01X20412Y9727D01*
G01X20419Y9705D01*
G01X20429Y9683D01*
G01X20440Y9662D01*
G01X20454Y9643D01*
G01X20469Y9625D01*
G01X20486Y9608D01*
G01X20504Y9593D01*
G01X20523Y9579D01*
G01X20544Y9568D01*
G01X20566Y9558D01*
G01X20588Y9551D01*
G01X20611Y9545D01*
G01X20635Y9542D01*
G01X20658Y9541D01*
G01X20870Y9541D01*
G01X20870Y9984D01*
G37*
G36*
G01X10712Y15064D02*
G01X10244Y15064D01*
G01X10244Y14621D01*
G01X10456Y14621D01*
G01X10479Y14622D01*
G01X10503Y14625D01*
G01X10526Y14631D01*
G01X10548Y14638D01*
G01X10570Y14648D01*
G01X10591Y14659D01*
G01X10610Y14673D01*
G01X10628Y14688D01*
G01X10645Y14705D01*
G01X10660Y14723D01*
G01X10674Y14742D01*
G01X10685Y14763D01*
G01X10695Y14785D01*
G01X10702Y14807D01*
G01X10708Y14830D01*
G01X10711Y14854D01*
G01X10712Y14877D01*
G01X10712Y15064D01*
G37*
G36*
G01X9567Y15064D02*
G01X9099Y15064D01*
G01X9099Y14877D01*
G01X9100Y14854D01*
G01X9103Y14830D01*
G01X9109Y14807D01*
G01X9116Y14785D01*
G01X9126Y14763D01*
G01X9137Y14742D01*
G01X9151Y14723D01*
G01X9166Y14705D01*
G01X9183Y14688D01*
G01X9201Y14673D01*
G01X9220Y14659D01*
G01X9241Y14648D01*
G01X9263Y14638D01*
G01X9285Y14631D01*
G01X9308Y14625D01*
G01X9332Y14622D01*
G01X9355Y14621D01*
G01X9567Y14621D01*
G01X9567Y15064D01*
G37*
G36*
G01X9886Y19094D02*
G01X9700Y19094D01*
G01X9700Y18626D01*
G01X10143Y18626D01*
G01X10143Y18838D01*
G01X10142Y18861D01*
G01X10139Y18885D01*
G01X10133Y18908D01*
G01X10126Y18930D01*
G01X10116Y18952D01*
G01X10104Y18973D01*
G01X10091Y18992D01*
G01X10076Y19010D01*
G01X10059Y19027D01*
G01X10041Y19042D01*
G01X10021Y19056D01*
G01X10001Y19067D01*
G01X9979Y19077D01*
G01X9957Y19084D01*
G01X9934Y19090D01*
G01X9910Y19093D01*
G01X9886Y19094D01*
G37*
G36*
G01X20661Y11790D02*
G01X20143Y11790D01*
G01X20143Y11450D01*
G01X20242Y11450D01*
G01X20266Y11447D01*
G01X20405Y11447D01*
G01X20428Y11448D01*
G01X20452Y11451D01*
G01X20475Y11457D01*
G01X20497Y11464D01*
G01X20519Y11474D01*
G01X20540Y11485D01*
G01X20559Y11499D01*
G01X20577Y11514D01*
G01X20594Y11531D01*
G01X20609Y11549D01*
G01X20623Y11568D01*
G01X20634Y11589D01*
G01X20644Y11611D01*
G01X20651Y11633D01*
G01X20657Y11656D01*
G01X20660Y11680D01*
G01X20661Y11703D01*
G01X20661Y11790D01*
G37*
G36*
G01X20140Y11023D02*
G01X19622Y11023D01*
G01X19622Y10680D01*
G01X19884Y10680D01*
G01X19907Y10681D01*
G01X19931Y10684D01*
G01X19954Y10690D01*
G01X19976Y10697D01*
G01X19998Y10707D01*
G01X20019Y10718D01*
G01X20038Y10732D01*
G01X20056Y10747D01*
G01X20073Y10764D01*
G01X20088Y10782D01*
G01X20102Y10801D01*
G01X20113Y10822D01*
G01X20123Y10844D01*
G01X20130Y10866D01*
G01X20136Y10889D01*
G01X20139Y10913D01*
G01X20140Y10936D01*
G01X20140Y11023D01*
G37*
G36*
G01X18845Y11023D02*
G01X18327Y11023D01*
G01X18327Y10936D01*
G01X18328Y10913D01*
G01X18331Y10889D01*
G01X18337Y10866D01*
G01X18344Y10844D01*
G01X18354Y10822D01*
G01X18365Y10801D01*
G01X18379Y10782D01*
G01X18394Y10764D01*
G01X18411Y10747D01*
G01X18429Y10732D01*
G01X18448Y10718D01*
G01X18469Y10707D01*
G01X18491Y10697D01*
G01X18513Y10690D01*
G01X18536Y10684D01*
G01X18560Y10681D01*
G01X18584Y10680D01*
G01X18845Y10680D01*
G01X18845Y11023D01*
G37*
G36*
G01X18722Y11793D02*
G01X18584Y11793D01*
G01X18560Y11792D01*
G01X18536Y11789D01*
G01X18513Y11783D01*
G01X18491Y11776D01*
G01X18469Y11766D01*
G01X18448Y11755D01*
G01X18429Y11741D01*
G01X18411Y11726D01*
G01X18394Y11709D01*
G01X18379Y11691D01*
G01X18365Y11672D01*
G01X18354Y11651D01*
G01X18344Y11629D01*
G01X18337Y11607D01*
G01X18331Y11584D01*
G01X18328Y11560D01*
G01X18327Y11536D01*
G01X18327Y11450D01*
G01X18845Y11450D01*
G01X18845Y11790D01*
G01X18746Y11790D01*
G01X18722Y11793D01*
G37*
G36*
G01X10700Y22615D02*
G01X10279Y22615D01*
G01X10279Y22193D01*
G01X10318Y22213D01*
G01X10356Y22234D01*
G01X10428Y22282D01*
G01X10462Y22309D01*
G01X10495Y22338D01*
G01X10526Y22367D01*
G01X10556Y22399D01*
G01X10585Y22432D01*
G01X10611Y22466D01*
G01X10636Y22502D01*
G01X10659Y22538D01*
G01X10681Y22576D01*
G01X10700Y22615D01*
G37*
G36*
G01X10318Y23769D02*
G01X10279Y23788D01*
G01X10279Y23367D01*
G01X10700Y23367D01*
G01X10681Y23406D01*
G01X10659Y23443D01*
G01X10636Y23480D01*
G01X10611Y23516D01*
G01X10585Y23550D01*
G01X10556Y23583D01*
G01X10526Y23614D01*
G01X10495Y23644D01*
G01X10462Y23672D01*
G01X10428Y23699D01*
G01X10392Y23724D01*
G01X10356Y23747D01*
G01X10318Y23769D01*
G37*
G36*
G01X4686Y23367D02*
G01X4686Y23788D01*
G01X4647Y23769D01*
G01X4609Y23747D01*
G01X4572Y23724D01*
G01X4537Y23699D01*
G01X4503Y23672D01*
G01X4470Y23644D01*
G01X4438Y23614D01*
G01X4408Y23583D01*
G01X4380Y23550D01*
G01X4353Y23516D01*
G01X4328Y23480D01*
G01X4305Y23443D01*
G01X4284Y23406D01*
G01X4264Y23367D01*
G01X4686Y23367D01*
G37*
G36*
G01X4686Y22615D02*
G01X4264Y22615D01*
G01X4284Y22576D01*
G01X4305Y22538D01*
G01X4328Y22502D01*
G01X4353Y22466D01*
G01X4380Y22432D01*
G01X4408Y22399D01*
G01X4438Y22367D01*
G01X4470Y22338D01*
G01X4503Y22309D01*
G01X4537Y22282D01*
G01X4572Y22258D01*
G01X4609Y22234D01*
G01X4647Y22213D01*
G01X4686Y22193D01*
G01X4686Y22615D01*
G37*

%LPD*%
G36*
G01X26183Y27236D02*
G01X21632Y27236D01*
G01X21618Y27234D01*
G01X21604Y27231D01*
G01X21590Y27226D01*
G01X21577Y27219D01*
G01X21566Y27211D01*
G01X21555Y27200D01*
G01X21547Y27189D01*
G01X21540Y27176D01*
G01X21535Y27163D01*
G01X21532Y27148D01*
G01X21531Y27134D01*
G01X21532Y27119D01*
G01X21535Y27105D01*
G01X21540Y27091D01*
G01X21547Y27078D01*
G01X21557Y27066D01*
G01X21567Y27056D01*
G01X21579Y27047D01*
G01X21599Y27034D01*
G01X21618Y27019D01*
G01X21634Y27002D01*
G01X21650Y26984D01*
G01X21663Y26964D01*
G01X21675Y26943D01*
G01X21685Y26921D01*
G01X21692Y26899D01*
G01X21698Y26876D01*
G01X21701Y26852D01*
G01X21702Y26828D01*
G01X21702Y26051D01*
G01X21703Y26035D01*
G01X21707Y26020D01*
G01X21713Y26005D01*
G01X21722Y25992D01*
G01X21732Y25979D01*
G01X22233Y25478D01*
G01X22246Y25468D01*
G01X22260Y25459D01*
G01X22276Y25453D01*
G01X22293Y25449D01*
G01X22326Y25444D01*
G01X22359Y25437D01*
G01X22392Y25428D01*
G01X22424Y25417D01*
G01X22455Y25404D01*
G01X22486Y25389D01*
G01X22515Y25372D01*
G01X22544Y25354D01*
G01X22571Y25334D01*
G01X22597Y25312D01*
G01X22622Y25289D01*
G01X22645Y25264D01*
G01X22667Y25238D01*
G01X22687Y25211D01*
G01X22706Y25182D01*
G01X22722Y25153D01*
G01X22737Y25122D01*
G01X22750Y25091D01*
G01X22761Y25059D01*
G01X22770Y25026D01*
G01X22777Y24993D01*
G01X22782Y24959D01*
G01X22786Y24925D01*
G01X22787Y24892D01*
G01X22786Y24858D01*
G01X22782Y24824D01*
G01X22777Y24790D01*
G01X22770Y24757D01*
G01X22761Y24724D01*
G01X22750Y24692D01*
G01X22737Y24661D01*
G01X22722Y24630D01*
G01X22705Y24601D01*
G01X22687Y24572D01*
G01X22667Y24545D01*
G01X22645Y24519D01*
G01X22622Y24494D01*
G01X22597Y24471D01*
G01X22571Y24449D01*
G01X22544Y24429D01*
G01X22515Y24411D01*
G01X22486Y24394D01*
G01X22455Y24379D01*
G01X22424Y24366D01*
G01X22392Y24355D01*
G01X22359Y24346D01*
G01X22326Y24339D01*
G01X22292Y24334D01*
G01X22258Y24330D01*
G01X22225Y24329D01*
G01X22190Y24330D01*
G01X22157Y24334D01*
G01X22123Y24339D01*
G01X22089Y24346D01*
G01X22057Y24355D01*
G01X22025Y24366D01*
G01X21993Y24379D01*
G01X21962Y24394D01*
G01X21933Y24411D01*
G01X21904Y24430D01*
G01X21877Y24450D01*
G01X21851Y24472D01*
G01X21826Y24495D01*
G01X21803Y24520D01*
G01X21781Y24546D01*
G01X21761Y24574D01*
G01X21742Y24603D01*
G01X21726Y24632D01*
G01X21711Y24663D01*
G01X21698Y24695D01*
G01X21687Y24727D01*
G01X21682Y24740D01*
G01X21675Y24753D01*
G01X21666Y24764D01*
G01X21656Y24774D01*
G01X21644Y24783D01*
G01X21632Y24790D01*
G01X21618Y24795D01*
G01X21604Y24798D01*
G01X21590Y24799D01*
G01X21569Y24796D01*
G01X21549Y24790D01*
G01X21524Y24781D01*
G01X21498Y24774D01*
G01X21472Y24770D01*
G01X21457Y24767D01*
G01X21443Y24762D01*
G01X21430Y24756D01*
G01X21418Y24747D01*
G01X21407Y24737D01*
G01X21398Y24725D01*
G01X21391Y24712D01*
G01X21385Y24698D01*
G01X21382Y24683D01*
G01X21381Y24669D01*
G01X21382Y24653D01*
G01X21386Y24637D01*
G01X21392Y24622D01*
G01X21400Y24609D01*
G01X21411Y24597D01*
G01X22638Y23369D01*
G01X22658Y23347D01*
G01X22677Y23324D01*
G01X22694Y23299D01*
G01X22708Y23272D01*
G01X22721Y23245D01*
G01X22732Y23217D01*
G01X22740Y23188D01*
G01X22746Y23158D01*
G01X22749Y23128D01*
G01X22750Y23098D01*
G01X22750Y22522D01*
G01X22751Y22508D01*
G01X22754Y22493D01*
G01X22759Y22480D01*
G01X22766Y22467D01*
G01X22775Y22455D01*
G01X22785Y22445D01*
G01X22797Y22436D01*
G01X22823Y22424D01*
G01X22837Y22421D01*
G01X22852Y22420D01*
G01X22868Y22422D01*
G01X22883Y22425D01*
G01X22898Y22431D01*
G01X22912Y22440D01*
G01X22924Y22450D01*
G01X23578Y23105D01*
G01X23589Y23117D01*
G01X23597Y23130D01*
G01X23603Y23145D01*
G01X23607Y23161D01*
G01X23608Y23176D01*
G01X23608Y24648D01*
G01X23609Y24672D01*
G01X23612Y24696D01*
G01X23618Y24719D01*
G01X23625Y24741D01*
G01X23635Y24763D01*
G01X23646Y24784D01*
G01X23660Y24803D01*
G01X23675Y24821D01*
G01X23692Y24838D01*
G01X23710Y24853D01*
G01X23729Y24867D01*
G01X23750Y24878D01*
G01X23772Y24888D01*
G01X23794Y24895D01*
G01X23817Y24901D01*
G01X23841Y24904D01*
G01X23865Y24905D01*
G01X25664Y24905D01*
G01X25688Y24904D01*
G01X25712Y24901D01*
G01X25735Y24895D01*
G01X25757Y24888D01*
G01X25779Y24878D01*
G01X25800Y24867D01*
G01X25819Y24853D01*
G01X25837Y24838D01*
G01X25854Y24821D01*
G01X25869Y24803D01*
G01X25883Y24784D01*
G01X25894Y24763D01*
G01X25904Y24741D01*
G01X25911Y24719D01*
G01X25917Y24696D01*
G01X25920Y24672D01*
G01X25921Y24648D01*
G01X25921Y22849D01*
G01X25920Y22825D01*
G01X25917Y22801D01*
G01X25911Y22778D01*
G01X25904Y22756D01*
G01X25894Y22734D01*
G01X25883Y22713D01*
G01X25869Y22694D01*
G01X25854Y22676D01*
G01X25837Y22659D01*
G01X25819Y22644D01*
G01X25800Y22630D01*
G01X25779Y22619D01*
G01X25757Y22609D01*
G01X25735Y22602D01*
G01X25712Y22596D01*
G01X25688Y22593D01*
G01X25664Y22592D01*
G01X24192Y22592D01*
G01X24177Y22591D01*
G01X24161Y22587D01*
G01X24146Y22581D01*
G01X24133Y22573D01*
G01X24121Y22562D01*
G01X23400Y21841D01*
G01X23389Y21829D01*
G01X23381Y21816D01*
G01X23375Y21801D01*
G01X23371Y21785D01*
G01X23370Y21770D01*
G01X23370Y18740D01*
G01X23371Y18725D01*
G01X23375Y18710D01*
G01X23380Y18696D01*
G01X23388Y18683D01*
G01X23397Y18671D01*
G01X23427Y18636D01*
G01X23437Y18625D01*
G01X23449Y18616D01*
G01X23463Y18608D01*
G01X23477Y18602D01*
G01X23492Y18599D01*
G01X23507Y18598D01*
G01X23522Y18599D01*
G01X23538Y18603D01*
G01X23552Y18609D01*
G01X23566Y18617D01*
G01X23578Y18627D01*
G01X23588Y18639D01*
G01X23596Y18652D01*
G01X23603Y18666D01*
G01X23607Y18681D01*
G01X23608Y18697D01*
G01X23611Y18747D01*
G01X23615Y18796D01*
G01X23622Y18845D01*
G01X23630Y18894D01*
G01X23641Y18943D01*
G01X23654Y18991D01*
G01X23669Y19038D01*
G01X23686Y19085D01*
G01X23704Y19131D01*
G01X23725Y19176D01*
G01X23748Y19220D01*
G01X23773Y19263D01*
G01X23799Y19305D01*
G01X23827Y19346D01*
G01X23857Y19386D01*
G01X23889Y19424D01*
G01X23922Y19461D01*
G01X23957Y19496D01*
G01X23993Y19530D01*
G01X24031Y19563D01*
G01X24070Y19593D01*
G01X24110Y19622D01*
G01X24152Y19649D01*
G01X24194Y19675D01*
G01X24238Y19698D01*
G01X24283Y19720D01*
G01X24329Y19740D01*
G01X24375Y19757D01*
G01X24422Y19773D01*
G01X24470Y19787D01*
G01X24518Y19798D01*
G01X24567Y19808D01*
G01X24616Y19815D01*
G01X24665Y19821D01*
G01X24715Y19824D01*
G01X24765Y19825D01*
G01X24814Y19824D01*
G01X24863Y19821D01*
G01X24911Y19816D01*
G01X24960Y19808D01*
G01X25008Y19799D01*
G01X25056Y19788D01*
G01X25103Y19774D01*
G01X25150Y19759D01*
G01X25196Y19742D01*
G01X25241Y19722D01*
G01X25285Y19701D01*
G01X25329Y19678D01*
G01X25371Y19653D01*
G01X25412Y19627D01*
G01X25452Y19598D01*
G01X25491Y19568D01*
G01X25529Y19537D01*
G01X25565Y19503D01*
G01X25599Y19469D01*
G01X25633Y19433D01*
G01X25664Y19395D01*
G01X25694Y19356D01*
G01X25723Y19316D01*
G01X25749Y19275D01*
G01X25774Y19233D01*
G01X25797Y19189D01*
G01X25818Y19145D01*
G01X25838Y19100D01*
G01X25855Y19054D01*
G01X25870Y19007D01*
G01X25884Y18960D01*
G01X25895Y18912D01*
G01X25904Y18864D01*
G01X25912Y18815D01*
G01X25917Y18767D01*
G01X25920Y18718D01*
G01X25921Y18669D01*
G01X25920Y18620D01*
G01X25917Y18571D01*
G01X25912Y18522D01*
G01X25905Y18474D01*
G01X25895Y18426D01*
G01X25884Y18378D01*
G01X25871Y18331D01*
G01X25855Y18285D01*
G01X25838Y18239D01*
G01X25819Y18194D01*
G01X25798Y18150D01*
G01X25775Y18106D01*
G01X25751Y18064D01*
G01X25724Y18023D01*
G01X25696Y17983D01*
G01X25666Y17944D01*
G01X25635Y17907D01*
G01X25602Y17871D01*
G01X25567Y17836D01*
G01X25531Y17803D01*
G01X25494Y17771D01*
G01X25456Y17741D01*
G01X25416Y17713D01*
G01X25375Y17686D01*
G01X25333Y17661D01*
G01X25290Y17638D01*
G01X25246Y17617D01*
G01X25201Y17597D01*
G01X25155Y17580D01*
G01X25109Y17564D01*
G01X25062Y17551D01*
G01X25014Y17539D01*
G01X24966Y17530D01*
G01X24918Y17522D01*
G01X24869Y17517D01*
G01X24820Y17513D01*
G01X24806Y17511D01*
G01X24791Y17507D01*
G01X24777Y17501D01*
G01X24765Y17493D01*
G01X24753Y17483D01*
G01X24728Y17458D01*
G01X24717Y17446D01*
G01X24709Y17432D01*
G01X24703Y17417D01*
G01X24699Y17402D01*
G01X24698Y17386D01*
G01X24699Y17371D01*
G01X24703Y17355D01*
G01X24709Y17341D01*
G01X24717Y17327D01*
G01X24727Y17315D01*
G01X24739Y17305D01*
G01X24752Y17297D01*
G01X24766Y17290D01*
G01X24781Y17286D01*
G01X24797Y17285D01*
G01X24846Y17282D01*
G01X24896Y17278D01*
G01X24945Y17271D01*
G01X24994Y17262D01*
G01X25042Y17251D01*
G01X25090Y17238D01*
G01X25137Y17223D01*
G01X25184Y17206D01*
G01X25229Y17187D01*
G01X25274Y17167D01*
G01X25318Y17144D01*
G01X25361Y17119D01*
G01X25403Y17093D01*
G01X25444Y17064D01*
G01X25483Y17034D01*
G01X25522Y17003D01*
G01X25558Y16970D01*
G01X25594Y16935D01*
G01X25660Y16861D01*
G01X25690Y16822D01*
G01X25719Y16781D01*
G01X25746Y16740D01*
G01X25771Y16697D01*
G01X25795Y16654D01*
G01X25816Y16609D01*
G01X25836Y16564D01*
G01X25854Y16517D01*
G01X25869Y16470D01*
G01X25883Y16423D01*
G01X25895Y16374D01*
G01X25904Y16326D01*
G01X25911Y16277D01*
G01X25917Y16228D01*
G01X25920Y16178D01*
G01X25921Y16129D01*
G01X25920Y16079D01*
G01X25917Y16030D01*
G01X25912Y15982D01*
G01X25904Y15933D01*
G01X25895Y15885D01*
G01X25884Y15837D01*
G01X25870Y15790D01*
G01X25855Y15743D01*
G01X25838Y15697D01*
G01X25818Y15652D01*
G01X25797Y15608D01*
G01X25774Y15564D01*
G01X25749Y15522D01*
G01X25723Y15481D01*
G01X25694Y15441D01*
G01X25664Y15402D01*
G01X25633Y15364D01*
G01X25599Y15328D01*
G01X25565Y15294D01*
G01X25529Y15260D01*
G01X25491Y15229D01*
G01X25452Y15199D01*
G01X25412Y15170D01*
G01X25371Y15144D01*
G01X25329Y15119D01*
G01X25285Y15096D01*
G01X25241Y15075D01*
G01X25196Y15055D01*
G01X25150Y15038D01*
G01X25103Y15023D01*
G01X25056Y15009D01*
G01X25008Y14998D01*
G01X24960Y14989D01*
G01X24911Y14981D01*
G01X24863Y14976D01*
G01X24814Y14973D01*
G01X24765Y14972D01*
G01X24715Y14973D01*
G01X24666Y14976D01*
G01X24616Y14981D01*
G01X24567Y14989D01*
G01X24519Y14998D01*
G01X24471Y15010D01*
G01X24423Y15023D01*
G01X24376Y15039D01*
G01X24330Y15057D01*
G01X24284Y15076D01*
G01X24240Y15098D01*
G01X24196Y15121D01*
G01X24154Y15146D01*
G01X24112Y15173D01*
G01X24072Y15202D01*
G01X24033Y15233D01*
G01X23995Y15265D01*
G01X23959Y15299D01*
G01X23924Y15334D01*
G01X23891Y15370D01*
G01X23859Y15408D01*
G01X23849Y15420D01*
G01X23837Y15429D01*
G01X23824Y15437D01*
G01X23810Y15442D01*
G01X23795Y15446D01*
G01X23780Y15447D01*
G01X23764Y15446D01*
G01X23749Y15442D01*
G01X23734Y15436D01*
G01X23721Y15428D01*
G01X23709Y15418D01*
G01X23539Y15250D01*
G01X23528Y15238D01*
G01X23520Y15225D01*
G01X23514Y15210D01*
G01X23510Y15194D01*
G01X23509Y15178D01*
G01X23503Y14076D01*
G01X23504Y14061D01*
G01X23507Y14047D01*
G01X23512Y14033D01*
G01X23519Y14021D01*
G01X23528Y14009D01*
G01X23538Y13999D01*
G01X23550Y13990D01*
G01X23562Y13983D01*
G01X23576Y13978D01*
G01X23590Y13975D01*
G01X23605Y13974D01*
G01X23619Y13975D01*
G01X23634Y13978D01*
G01X23648Y13984D01*
G01X23661Y13991D01*
G01X23673Y14000D01*
G01X23683Y14011D01*
G01X23691Y14023D01*
G01X23698Y14036D01*
G01X23719Y14082D01*
G01X23741Y14127D01*
G01X23765Y14171D01*
G01X23792Y14214D01*
G01X23820Y14256D01*
G01X23850Y14296D01*
G01X23881Y14335D01*
G01X23915Y14373D01*
G01X23949Y14409D01*
G01X23986Y14444D01*
G01X24024Y14477D01*
G01X24063Y14508D01*
G01X24104Y14538D01*
G01X24145Y14565D01*
G01X24188Y14591D01*
G01X24233Y14615D01*
G01X24278Y14638D01*
G01X24324Y14658D01*
G01X24371Y14676D01*
G01X24418Y14692D01*
G01X24466Y14706D01*
G01X24515Y14718D01*
G01X24565Y14728D01*
G01X24614Y14735D01*
G01X24664Y14741D01*
G01X24714Y14744D01*
G01X24765Y14745D01*
G01X24814Y14744D01*
G01X24863Y14741D01*
G01X24911Y14736D01*
G01X24960Y14728D01*
G01X25008Y14719D01*
G01X25056Y14708D01*
G01X25103Y14694D01*
G01X25150Y14679D01*
G01X25196Y14662D01*
G01X25241Y14642D01*
G01X25285Y14621D01*
G01X25329Y14598D01*
G01X25371Y14573D01*
G01X25412Y14547D01*
G01X25452Y14518D01*
G01X25491Y14488D01*
G01X25529Y14457D01*
G01X25565Y14423D01*
G01X25599Y14389D01*
G01X25633Y14353D01*
G01X25664Y14315D01*
G01X25694Y14276D01*
G01X25723Y14236D01*
G01X25749Y14195D01*
G01X25774Y14153D01*
G01X25797Y14109D01*
G01X25818Y14065D01*
G01X25838Y14020D01*
G01X25855Y13974D01*
G01X25870Y13927D01*
G01X25884Y13880D01*
G01X25895Y13832D01*
G01X25904Y13784D01*
G01X25912Y13735D01*
G01X25917Y13687D01*
G01X25920Y13638D01*
G01X25921Y13589D01*
G01X25920Y13539D01*
G01X25917Y13490D01*
G01X25912Y13442D01*
G01X25904Y13393D01*
G01X25895Y13345D01*
G01X25884Y13297D01*
G01X25870Y13250D01*
G01X25855Y13203D01*
G01X25838Y13157D01*
G01X25818Y13112D01*
G01X25797Y13068D01*
G01X25774Y13024D01*
G01X25749Y12982D01*
G01X25723Y12941D01*
G01X25694Y12901D01*
G01X25664Y12862D01*
G01X25633Y12824D01*
G01X25599Y12788D01*
G01X25565Y12754D01*
G01X25529Y12720D01*
G01X25491Y12689D01*
G01X25452Y12659D01*
G01X25412Y12630D01*
G01X25371Y12604D01*
G01X25329Y12579D01*
G01X25285Y12556D01*
G01X25241Y12535D01*
G01X25196Y12515D01*
G01X25150Y12498D01*
G01X25103Y12483D01*
G01X25056Y12469D01*
G01X25008Y12458D01*
G01X24960Y12449D01*
G01X24911Y12441D01*
G01X24863Y12436D01*
G01X24814Y12433D01*
G01X24765Y12432D01*
G01X24716Y12433D01*
G01X24667Y12436D01*
G01X24619Y12441D01*
G01X24570Y12448D01*
G01X24522Y12458D01*
G01X24475Y12469D01*
G01X24428Y12482D01*
G01X24382Y12497D01*
G01X24336Y12514D01*
G01X24291Y12533D01*
G01X24247Y12554D01*
G01X24204Y12577D01*
G01X24162Y12601D01*
G01X24121Y12628D01*
G01X24081Y12656D01*
G01X24042Y12685D01*
G01X24028Y12695D01*
G01X24012Y12702D01*
G01X23996Y12706D01*
G01X23978Y12708D01*
G01X23964Y12707D01*
G01X23950Y12704D01*
G01X23936Y12699D01*
G01X23924Y12692D01*
G01X23912Y12683D01*
G01X23902Y12673D01*
G01X23893Y12661D01*
G01X23886Y12648D01*
G01X23881Y12635D01*
G01X23878Y12621D01*
G01X23877Y12606D01*
G01X23877Y12599D01*
G01X23878Y12573D01*
G01X23878Y12032D01*
G01X23879Y12017D01*
G01X23882Y12003D01*
G01X23887Y11990D01*
G01X23894Y11977D01*
G01X23903Y11965D01*
G01X23913Y11955D01*
G01X23925Y11946D01*
G01X23937Y11939D01*
G01X23951Y11934D01*
G01X23965Y11931D01*
G01X23980Y11930D01*
G01X23997Y11932D01*
G01X24013Y11936D01*
G01X24029Y11943D01*
G01X24043Y11952D01*
G01X24082Y11982D01*
G01X24122Y12010D01*
G01X24163Y12036D01*
G01X24205Y12061D01*
G01X24248Y12083D01*
G01X24292Y12104D01*
G01X24337Y12123D01*
G01X24382Y12140D01*
G01X24429Y12155D01*
G01X24475Y12168D01*
G01X24523Y12180D01*
G01X24571Y12189D01*
G01X24619Y12196D01*
G01X24667Y12201D01*
G01X24716Y12204D01*
G01X24765Y12205D01*
G01X24814Y12204D01*
G01X24863Y12201D01*
G01X24911Y12196D01*
G01X24960Y12188D01*
G01X25008Y12179D01*
G01X25056Y12168D01*
G01X25103Y12154D01*
G01X25150Y12139D01*
G01X25196Y12122D01*
G01X25241Y12102D01*
G01X25285Y12081D01*
G01X25329Y12058D01*
G01X25371Y12033D01*
G01X25412Y12007D01*
G01X25452Y11978D01*
G01X25491Y11948D01*
G01X25529Y11917D01*
G01X25565Y11883D01*
G01X25599Y11849D01*
G01X25633Y11813D01*
G01X25664Y11775D01*
G01X25694Y11736D01*
G01X25723Y11696D01*
G01X25749Y11655D01*
G01X25774Y11613D01*
G01X25797Y11569D01*
G01X25818Y11525D01*
G01X25838Y11480D01*
G01X25855Y11434D01*
G01X25870Y11387D01*
G01X25884Y11340D01*
G01X25895Y11292D01*
G01X25904Y11244D01*
G01X25912Y11195D01*
G01X25917Y11147D01*
G01X25920Y11098D01*
G01X25921Y11049D01*
G01X25920Y10999D01*
G01X25917Y10950D01*
G01X25912Y10902D01*
G01X25904Y10853D01*
G01X25895Y10805D01*
G01X25884Y10757D01*
G01X25870Y10710D01*
G01X25855Y10663D01*
G01X25838Y10617D01*
G01X25818Y10572D01*
G01X25797Y10528D01*
G01X25774Y10484D01*
G01X25749Y10442D01*
G01X25723Y10401D01*
G01X25694Y10361D01*
G01X25664Y10322D01*
G01X25633Y10284D01*
G01X25599Y10248D01*
G01X25565Y10214D01*
G01X25529Y10180D01*
G01X25491Y10149D01*
G01X25452Y10119D01*
G01X25412Y10090D01*
G01X25371Y10064D01*
G01X25329Y10039D01*
G01X25285Y10016D01*
G01X25241Y9995D01*
G01X25196Y9975D01*
G01X25150Y9958D01*
G01X25103Y9943D01*
G01X25056Y9929D01*
G01X25008Y9918D01*
G01X24960Y9909D01*
G01X24911Y9901D01*
G01X24863Y9896D01*
G01X24814Y9893D01*
G01X24765Y9892D01*
G01X24716Y9893D01*
G01X24667Y9896D01*
G01X24619Y9901D01*
G01X24571Y9908D01*
G01X24523Y9917D01*
G01X24475Y9929D01*
G01X24429Y9942D01*
G01X24382Y9957D01*
G01X24337Y9974D01*
G01X24292Y9993D01*
G01X24248Y10014D01*
G01X24205Y10036D01*
G01X24163Y10061D01*
G01X24122Y10087D01*
G01X24082Y10115D01*
G01X24043Y10145D01*
G01X24029Y10154D01*
G01X24013Y10161D01*
G01X23997Y10165D01*
G01X23980Y10167D01*
G01X23965Y10166D01*
G01X23951Y10163D01*
G01X23937Y10158D01*
G01X23925Y10151D01*
G01X23913Y10142D01*
G01X23903Y10132D01*
G01X23894Y10120D01*
G01X23887Y10107D01*
G01X23882Y10094D01*
G01X23879Y10080D01*
G01X23878Y10065D01*
G01X23878Y9492D01*
G01X23879Y9477D01*
G01X23882Y9463D01*
G01X23887Y9450D01*
G01X23894Y9437D01*
G01X23903Y9425D01*
G01X23913Y9415D01*
G01X23925Y9406D01*
G01X23937Y9399D01*
G01X23951Y9394D01*
G01X23965Y9391D01*
G01X23980Y9390D01*
G01X23997Y9392D01*
G01X24013Y9396D01*
G01X24029Y9403D01*
G01X24043Y9412D01*
G01X24082Y9442D01*
G01X24122Y9470D01*
G01X24163Y9496D01*
G01X24205Y9521D01*
G01X24248Y9543D01*
G01X24292Y9564D01*
G01X24337Y9583D01*
G01X24382Y9600D01*
G01X24429Y9615D01*
G01X24475Y9628D01*
G01X24523Y9640D01*
G01X24571Y9649D01*
G01X24619Y9656D01*
G01X24667Y9661D01*
G01X24716Y9664D01*
G01X24765Y9665D01*
G01X24814Y9664D01*
G01X24863Y9661D01*
G01X24911Y9656D01*
G01X24960Y9648D01*
G01X25008Y9639D01*
G01X25056Y9628D01*
G01X25103Y9614D01*
G01X25150Y9599D01*
G01X25196Y9582D01*
G01X25241Y9562D01*
G01X25285Y9541D01*
G01X25329Y9518D01*
G01X25371Y9493D01*
G01X25412Y9467D01*
G01X25452Y9438D01*
G01X25491Y9408D01*
G01X25529Y9377D01*
G01X25565Y9343D01*
G01X25599Y9309D01*
G01X25633Y9273D01*
G01X25664Y9235D01*
G01X25694Y9196D01*
G01X25723Y9156D01*
G01X25749Y9115D01*
G01X25774Y9073D01*
G01X25797Y9029D01*
G01X25818Y8985D01*
G01X25838Y8940D01*
G01X25855Y8894D01*
G01X25870Y8847D01*
G01X25884Y8800D01*
G01X25895Y8752D01*
G01X25904Y8704D01*
G01X25912Y8655D01*
G01X25917Y8607D01*
G01X25920Y8558D01*
G01X25921Y8509D01*
G01X25920Y8459D01*
G01X25917Y8410D01*
G01X25912Y8362D01*
G01X25904Y8313D01*
G01X25895Y8265D01*
G01X25884Y8217D01*
G01X25870Y8170D01*
G01X25855Y8123D01*
G01X25838Y8077D01*
G01X25818Y8032D01*
G01X25797Y7988D01*
G01X25774Y7944D01*
G01X25749Y7902D01*
G01X25723Y7861D01*
G01X25694Y7821D01*
G01X25664Y7782D01*
G01X25633Y7744D01*
G01X25599Y7708D01*
G01X25565Y7674D01*
G01X25529Y7640D01*
G01X25491Y7609D01*
G01X25452Y7579D01*
G01X25412Y7550D01*
G01X25371Y7524D01*
G01X25329Y7499D01*
G01X25285Y7476D01*
G01X25241Y7455D01*
G01X25196Y7435D01*
G01X25150Y7418D01*
G01X25103Y7403D01*
G01X25056Y7389D01*
G01X25008Y7378D01*
G01X24960Y7369D01*
G01X24911Y7361D01*
G01X24863Y7356D01*
G01X24814Y7353D01*
G01X24765Y7352D01*
G01X24710Y7353D01*
G01X24655Y7357D01*
G01X24600Y7364D01*
G01X24546Y7373D01*
G01X24527Y7375D01*
G01X24513Y7374D01*
G01X24499Y7370D01*
G01X24485Y7365D01*
G01X24472Y7358D01*
G01X24461Y7350D01*
G01X24450Y7339D01*
G01X24442Y7328D01*
G01X24435Y7315D01*
G01X24430Y7302D01*
G01X24427Y7287D01*
G01X24426Y7273D01*
G01X24427Y7257D01*
G01X24431Y7242D01*
G01X24437Y7227D01*
G01X24445Y7213D01*
G01X24455Y7201D01*
G01X24514Y7142D01*
G01X24526Y7132D01*
G01X24540Y7123D01*
G01X24555Y7117D01*
G01X24570Y7114D01*
G01X24586Y7112D01*
G01X24601Y7113D01*
G01X24655Y7120D01*
G01X24710Y7124D01*
G01X24765Y7125D01*
G01X24814Y7124D01*
G01X24863Y7121D01*
G01X24911Y7116D01*
G01X24960Y7108D01*
G01X25008Y7099D01*
G01X25056Y7088D01*
G01X25103Y7074D01*
G01X25150Y7059D01*
G01X25196Y7042D01*
G01X25241Y7022D01*
G01X25285Y7001D01*
G01X25329Y6978D01*
G01X25371Y6953D01*
G01X25412Y6927D01*
G01X25452Y6898D01*
G01X25491Y6868D01*
G01X25529Y6837D01*
G01X25565Y6803D01*
G01X25599Y6769D01*
G01X25633Y6733D01*
G01X25664Y6695D01*
G01X25694Y6656D01*
G01X25723Y6616D01*
G01X25749Y6575D01*
G01X25774Y6533D01*
G01X25797Y6489D01*
G01X25818Y6445D01*
G01X25838Y6400D01*
G01X25855Y6354D01*
G01X25870Y6307D01*
G01X25884Y6260D01*
G01X25895Y6212D01*
G01X25904Y6164D01*
G01X25912Y6115D01*
G01X25917Y6067D01*
G01X25920Y6018D01*
G01X25921Y5969D01*
G01X25920Y5919D01*
G01X25917Y5870D01*
G01X25912Y5822D01*
G01X25904Y5773D01*
G01X25895Y5725D01*
G01X25884Y5677D01*
G01X25870Y5630D01*
G01X25855Y5583D01*
G01X25838Y5537D01*
G01X25818Y5492D01*
G01X25797Y5448D01*
G01X25774Y5404D01*
G01X25749Y5362D01*
G01X25723Y5321D01*
G01X25694Y5281D01*
G01X25664Y5242D01*
G01X25633Y5204D01*
G01X25599Y5168D01*
G01X25565Y5134D01*
G01X25529Y5100D01*
G01X25491Y5069D01*
G01X25452Y5039D01*
G01X25412Y5010D01*
G01X25371Y4984D01*
G01X25329Y4959D01*
G01X25285Y4936D01*
G01X25241Y4915D01*
G01X25196Y4895D01*
G01X25150Y4878D01*
G01X25103Y4863D01*
G01X25056Y4849D01*
G01X25008Y4838D01*
G01X24960Y4829D01*
G01X24911Y4821D01*
G01X24863Y4816D01*
G01X24814Y4813D01*
G01X24765Y4812D01*
G01X24716Y4813D01*
G01X24667Y4816D01*
G01X24619Y4821D01*
G01X24571Y4828D01*
G01X24523Y4837D01*
G01X24475Y4849D01*
G01X24429Y4862D01*
G01X24382Y4877D01*
G01X24337Y4894D01*
G01X24292Y4913D01*
G01X24248Y4934D01*
G01X24205Y4956D01*
G01X24163Y4981D01*
G01X24122Y5007D01*
G01X24082Y5035D01*
G01X24043Y5065D01*
G01X24006Y5096D01*
G01X23970Y5128D01*
G01X23935Y5163D01*
G01X23902Y5198D01*
G01X23870Y5235D01*
G01X23840Y5274D01*
G01X23812Y5313D01*
G01X23785Y5354D01*
G01X23760Y5396D01*
G01X23737Y5438D01*
G01X23715Y5482D01*
G01X23696Y5527D01*
G01X23678Y5572D01*
G01X23662Y5618D01*
G01X23649Y5665D01*
G01X23637Y5712D01*
G01X23626Y5763D01*
G01X23618Y5814D01*
G01X23613Y5865D01*
G01X23609Y5917D01*
G01X23608Y5969D01*
G01X23609Y6020D01*
G01X23613Y6072D01*
G01X23618Y6123D01*
G01X23626Y6174D01*
G01X23637Y6225D01*
G01X23649Y6274D01*
G01X23663Y6321D01*
G01X23679Y6369D01*
G01X23698Y6415D01*
G01X23718Y6461D01*
G01X23740Y6506D01*
G01X23765Y6550D01*
G01X23791Y6592D01*
G01X23819Y6634D01*
G01X23827Y6647D01*
G01X23832Y6662D01*
G01X23836Y6677D01*
G01X23837Y6692D01*
G01X23836Y6708D01*
G01X23832Y6724D01*
G01X23826Y6739D01*
G01X23818Y6752D01*
G01X23807Y6764D01*
G01X23610Y6962D01*
G01X23597Y6972D01*
G01X23584Y6981D01*
G01X23569Y6987D01*
G01X23554Y6991D01*
G01X23538Y6992D01*
G01X23523Y6991D01*
G01X23509Y6988D01*
G01X23495Y6983D01*
G01X23483Y6976D01*
G01X23471Y6967D01*
G01X23461Y6957D01*
G01X23452Y6945D01*
G01X23445Y6932D01*
G01X23440Y6919D01*
G01X23437Y6905D01*
G01X23436Y6890D01*
G01X23436Y6572D01*
G01X22943Y6572D01*
G01X22943Y7305D01*
G01X23059Y7305D01*
G01X23073Y7306D01*
G01X23087Y7309D01*
G01X23101Y7314D01*
G01X23114Y7321D01*
G01X23125Y7329D01*
G01X23136Y7340D01*
G01X23144Y7351D01*
G01X23151Y7364D01*
G01X23156Y7378D01*
G01X23159Y7392D01*
G01X23160Y7406D01*
G01X23159Y7422D01*
G01X23156Y7437D01*
G01X23150Y7451D01*
G01X23138Y7477D01*
G01X23128Y7505D01*
G01X23121Y7533D01*
G01X23115Y7562D01*
G01X23112Y7590D01*
G01X23111Y7620D01*
G01X23111Y9612D01*
G01X23110Y9627D01*
G01X23107Y9641D01*
G01X23102Y9654D01*
G01X23095Y9667D01*
G01X23086Y9679D01*
G01X23076Y9689D01*
G01X23064Y9698D01*
G01X23052Y9705D01*
G01X23038Y9710D01*
G01X23024Y9713D01*
G01X23009Y9714D01*
G01X22993Y9712D01*
G01X22978Y9709D01*
G01X22963Y9703D01*
G01X22950Y9694D01*
G01X22938Y9684D01*
G01X22045Y8791D01*
G01X22034Y8779D01*
G01X22026Y8765D01*
G01X22020Y8751D01*
G01X22016Y8735D01*
G01X22015Y8719D01*
G01X22015Y7997D01*
G01X22014Y7974D01*
G01X22011Y7950D01*
G01X22005Y7927D01*
G01X21998Y7905D01*
G01X21988Y7883D01*
G01X21977Y7862D01*
G01X21963Y7843D01*
G01X21948Y7825D01*
G01X21931Y7808D01*
G01X21913Y7793D01*
G01X21893Y7779D01*
G01X21873Y7768D01*
G01X21851Y7758D01*
G01X21829Y7751D01*
G01X21806Y7745D01*
G01X21782Y7742D01*
G01X21758Y7741D01*
G01X20658Y7741D01*
G01X20633Y7742D01*
G01X20609Y7746D01*
G01X20584Y7752D01*
G01X20561Y7760D01*
G01X20538Y7771D01*
G01X20516Y7784D01*
G01X20496Y7799D01*
G01X20478Y7816D01*
G01X20461Y7834D01*
G01X20450Y7845D01*
G01X20439Y7854D01*
G01X20426Y7861D01*
G01X20412Y7867D01*
G01X20397Y7870D01*
G01X20382Y7871D01*
G01X15471Y7871D01*
G01X15456Y7870D01*
G01X15442Y7867D01*
G01X15428Y7862D01*
G01X15416Y7855D01*
G01X15404Y7846D01*
G01X15394Y7836D01*
G01X15385Y7824D01*
G01X15378Y7812D01*
G01X15373Y7798D01*
G01X15370Y7784D01*
G01X15369Y7769D01*
G01X15369Y7494D01*
G01X15370Y7478D01*
G01X15374Y7463D01*
G01X15380Y7449D01*
G01X15388Y7435D01*
G01X15398Y7423D01*
G01X15410Y7413D01*
G01X15423Y7404D01*
G01X15438Y7398D01*
G01X15453Y7394D01*
G01X15476Y7389D01*
G01X15499Y7382D01*
G01X15521Y7372D01*
G01X15542Y7361D01*
G01X15562Y7347D01*
G01X15580Y7332D01*
G01X15597Y7315D01*
G01X15612Y7297D01*
G01X15626Y7277D01*
G01X15638Y7257D01*
G01X15647Y7235D01*
G01X15655Y7212D01*
G01X15661Y7189D01*
G01X15664Y7165D01*
G01X15665Y7141D01*
G01X15665Y6327D01*
G01X15666Y6312D01*
G01X15669Y6298D01*
G01X15674Y6284D01*
G01X15681Y6272D01*
G01X15690Y6260D01*
G01X15700Y6250D01*
G01X15712Y6241D01*
G01X15724Y6234D01*
G01X15738Y6229D01*
G01X15752Y6226D01*
G01X15767Y6225D01*
G01X17013Y6225D01*
G01X17044Y6224D01*
G01X17073Y6220D01*
G01X17103Y6214D01*
G01X17132Y6206D01*
G01X17160Y6196D01*
G01X17188Y6183D01*
G01X17214Y6169D01*
G01X17239Y6152D01*
G01X17263Y6133D01*
G01X17285Y6113D01*
G01X17646Y5752D01*
G01X17658Y5741D01*
G01X17671Y5733D01*
G01X17686Y5727D01*
G01X17701Y5723D01*
G01X17717Y5722D01*
G01X17732Y5723D01*
G01X17747Y5727D01*
G01X17761Y5732D01*
G01X17775Y5740D01*
G01X17786Y5749D01*
G01X17797Y5760D01*
G01X17805Y5773D01*
G01X17812Y5786D01*
G01X17816Y5801D01*
G01X17819Y5816D01*
G01X18337Y5816D01*
G01X18337Y5473D01*
G01X18170Y5473D01*
G01X18155Y5472D01*
G01X18141Y5469D01*
G01X18127Y5464D01*
G01X18115Y5457D01*
G01X18103Y5448D01*
G01X18093Y5438D01*
G01X18084Y5426D01*
G01X18077Y5414D01*
G01X18072Y5400D01*
G01X18069Y5386D01*
G01X18068Y5371D01*
G01X18069Y5355D01*
G01X18073Y5340D01*
G01X18079Y5325D01*
G01X18087Y5312D01*
G01X18098Y5300D01*
G01X18682Y4716D01*
G01X18694Y4705D01*
G01X18707Y4697D01*
G01X18722Y4691D01*
G01X18738Y4687D01*
G01X18753Y4686D01*
G01X19375Y4686D01*
G01X19399Y4685D01*
G01X19423Y4682D01*
G01X19446Y4676D01*
G01X19468Y4669D01*
G01X19490Y4659D01*
G01X19511Y4648D01*
G01X19530Y4634D01*
G01X19548Y4619D01*
G01X19565Y4602D01*
G01X19580Y4584D01*
G01X19594Y4565D01*
G01X19605Y4544D01*
G01X19615Y4522D01*
G01X19622Y4500D01*
G01X19628Y4477D01*
G01X19631Y4453D01*
G01X19632Y4429D01*
G01X19632Y3829D01*
G01X19631Y3806D01*
G01X19628Y3782D01*
G01X19622Y3759D01*
G01X19615Y3737D01*
G01X19605Y3715D01*
G01X19594Y3694D01*
G01X19580Y3675D01*
G01X19565Y3657D01*
G01X19548Y3640D01*
G01X19530Y3625D01*
G01X19511Y3611D01*
G01X19490Y3600D01*
G01X19468Y3590D01*
G01X19446Y3583D01*
G01X19423Y3577D01*
G01X19399Y3574D01*
G01X19375Y3573D01*
G01X18075Y3573D01*
G01X18052Y3574D01*
G01X18028Y3577D01*
G01X18005Y3583D01*
G01X17983Y3590D01*
G01X17961Y3600D01*
G01X17940Y3611D01*
G01X17921Y3625D01*
G01X17903Y3640D01*
G01X17886Y3657D01*
G01X17871Y3675D01*
G01X17857Y3694D01*
G01X17846Y3715D01*
G01X17836Y3737D01*
G01X17829Y3759D01*
G01X17823Y3782D01*
G01X17820Y3806D01*
G01X17819Y3829D01*
G01X17819Y4445D01*
G01X17820Y4451D01*
G01X17818Y4467D01*
G01X17815Y4482D01*
G01X17809Y4497D01*
G01X17800Y4511D01*
G01X17790Y4523D01*
G01X17405Y4907D01*
G01X17393Y4917D01*
G01X17380Y4926D01*
G01X17365Y4932D01*
G01X17350Y4936D01*
G01X17334Y4937D01*
G01X17319Y4936D01*
G01X17305Y4933D01*
G01X17291Y4928D01*
G01X17279Y4921D01*
G01X17267Y4912D01*
G01X17257Y4902D01*
G01X17248Y4890D01*
G01X17241Y4877D01*
G01X17236Y4864D01*
G01X17233Y4850D01*
G01X17232Y4835D01*
G01X17232Y4780D01*
G01X17231Y4756D01*
G01X17228Y4732D01*
G01X17222Y4709D01*
G01X17215Y4687D01*
G01X17205Y4665D01*
G01X17194Y4644D01*
G01X17180Y4625D01*
G01X17165Y4607D01*
G01X17148Y4590D01*
G01X17130Y4575D01*
G01X17111Y4561D01*
G01X17090Y4550D01*
G01X17068Y4540D01*
G01X17046Y4533D01*
G01X17023Y4527D01*
G01X16999Y4524D01*
G01X16975Y4523D01*
G01X15746Y4523D01*
G01X15730Y4522D01*
G01X15715Y4518D01*
G01X15701Y4512D01*
G01X15687Y4504D01*
G01X15675Y4494D01*
G01X15665Y4483D01*
G01X15657Y4470D01*
G01X15650Y4455D01*
G01X15640Y4431D01*
G01X15627Y4407D01*
G01X15612Y4385D01*
G01X15594Y4365D01*
G01X15585Y4353D01*
G01X15577Y4339D01*
G01X15571Y4325D01*
G01X15567Y4310D01*
G01X15566Y4295D01*
G01X15567Y4280D01*
G01X15570Y4266D01*
G01X15575Y4252D01*
G01X15582Y4240D01*
G01X15591Y4228D01*
G01X15601Y4218D01*
G01X15613Y4209D01*
G01X15626Y4202D01*
G01X15639Y4197D01*
G01X15653Y4194D01*
G01X15668Y4193D01*
G01X16637Y4193D01*
G01X16670Y4192D01*
G01X16703Y4189D01*
G01X16736Y4183D01*
G01X16769Y4176D01*
G01X16801Y4166D01*
G01X16832Y4154D01*
G01X16862Y4140D01*
G01X16892Y4125D01*
G01X16920Y4107D01*
G01X16947Y4088D01*
G01X16973Y4066D01*
G01X16998Y4044D01*
G01X17744Y3297D01*
G01X17756Y3286D01*
G01X17770Y3278D01*
G01X17785Y3272D01*
G01X17800Y3268D01*
G01X17816Y3267D01*
G01X17844Y3271D01*
G01X17896Y3284D01*
G01X17948Y3295D01*
G01X18001Y3304D01*
G01X18054Y3310D01*
G01X18107Y3314D01*
G01X18161Y3315D01*
G01X18210Y3314D01*
G01X18259Y3311D01*
G01X18307Y3306D01*
G01X18356Y3298D01*
G01X18404Y3289D01*
G01X18452Y3278D01*
G01X18499Y3264D01*
G01X18546Y3249D01*
G01X18592Y3232D01*
G01X18637Y3212D01*
G01X18681Y3191D01*
G01X18725Y3168D01*
G01X18767Y3143D01*
G01X18808Y3117D01*
G01X18848Y3088D01*
G01X18887Y3058D01*
G01X18925Y3027D01*
G01X18961Y2993D01*
G01X18995Y2959D01*
G01X19029Y2923D01*
G01X19060Y2885D01*
G01X19090Y2846D01*
G01X19119Y2806D01*
G01X19145Y2765D01*
G01X19170Y2723D01*
G01X19193Y2679D01*
G01X19214Y2635D01*
G01X19234Y2590D01*
G01X19251Y2544D01*
G01X19266Y2497D01*
G01X19280Y2450D01*
G01X19291Y2402D01*
G01X19300Y2354D01*
G01X19308Y2305D01*
G01X19313Y2257D01*
G01X19316Y2208D01*
G01X19317Y2159D01*
G01X19316Y2109D01*
G01X19313Y2060D01*
G01X19308Y2012D01*
G01X19300Y1963D01*
G01X19291Y1915D01*
G01X19280Y1867D01*
G01X19266Y1820D01*
G01X19251Y1773D01*
G01X19234Y1727D01*
G01X19214Y1682D01*
G01X19193Y1638D01*
G01X19170Y1594D01*
G01X19145Y1552D01*
G01X19119Y1511D01*
G01X19090Y1471D01*
G01X19060Y1432D01*
G01X19029Y1394D01*
G01X18995Y1358D01*
G01X18961Y1324D01*
G01X18925Y1290D01*
G01X18887Y1259D01*
G01X18848Y1229D01*
G01X18808Y1200D01*
G01X18767Y1174D01*
G01X18725Y1149D01*
G01X18681Y1126D01*
G01X18637Y1105D01*
G01X18592Y1085D01*
G01X18546Y1068D01*
G01X18499Y1053D01*
G01X18452Y1039D01*
G01X18404Y1028D01*
G01X18356Y1019D01*
G01X18307Y1011D01*
G01X18259Y1006D01*
G01X18210Y1003D01*
G01X18161Y1002D01*
G01X18111Y1003D01*
G01X18062Y1006D01*
G01X18014Y1011D01*
G01X17965Y1019D01*
G01X17917Y1028D01*
G01X17869Y1039D01*
G01X17822Y1053D01*
G01X17775Y1068D01*
G01X17729Y1085D01*
G01X17684Y1105D01*
G01X17640Y1126D01*
G01X17596Y1149D01*
G01X17554Y1174D01*
G01X17513Y1200D01*
G01X17473Y1229D01*
G01X17434Y1259D01*
G01X17396Y1290D01*
G01X17360Y1324D01*
G01X17326Y1358D01*
G01X17292Y1394D01*
G01X17261Y1432D01*
G01X17231Y1471D01*
G01X17202Y1511D01*
G01X17176Y1552D01*
G01X17151Y1594D01*
G01X17128Y1638D01*
G01X17107Y1682D01*
G01X17087Y1727D01*
G01X17070Y1773D01*
G01X17055Y1820D01*
G01X17041Y1867D01*
G01X17030Y1915D01*
G01X17021Y1963D01*
G01X17013Y2012D01*
G01X17008Y2060D01*
G01X17005Y2109D01*
G01X17004Y2159D01*
G01X17005Y2212D01*
G01X17009Y2265D01*
G01X17015Y2318D01*
G01X17024Y2371D01*
G01X17035Y2423D01*
G01X17048Y2475D01*
G01X17052Y2503D01*
G01X17051Y2519D01*
G01X17047Y2534D01*
G01X17041Y2549D01*
G01X17033Y2563D01*
G01X17022Y2575D01*
G01X16831Y2766D01*
G01X16818Y2777D01*
G01X16805Y2785D01*
G01X16790Y2791D01*
G01X16775Y2795D01*
G01X16759Y2796D01*
G01X16744Y2795D01*
G01X16730Y2792D01*
G01X16717Y2787D01*
G01X16704Y2780D01*
G01X16692Y2771D01*
G01X16682Y2761D01*
G01X16673Y2750D01*
G01X16666Y2737D01*
G01X16661Y2723D01*
G01X16658Y2709D01*
G01X16657Y2695D01*
G01X16658Y2680D01*
G01X16661Y2665D01*
G01X16667Y2651D01*
G01X16687Y2605D01*
G01X16706Y2557D01*
G01X16723Y2509D01*
G01X16737Y2460D01*
G01X16749Y2411D01*
G01X16759Y2361D01*
G01X16767Y2311D01*
G01X16773Y2260D01*
G01X16776Y2209D01*
G01X16777Y2159D01*
G01X16776Y2109D01*
G01X16773Y2060D01*
G01X16768Y2012D01*
G01X16760Y1963D01*
G01X16751Y1915D01*
G01X16740Y1867D01*
G01X16726Y1820D01*
G01X16711Y1773D01*
G01X16694Y1727D01*
G01X16674Y1682D01*
G01X16653Y1638D01*
G01X16630Y1594D01*
G01X16605Y1552D01*
G01X16579Y1511D01*
G01X16550Y1471D01*
G01X16520Y1432D01*
G01X16489Y1394D01*
G01X16455Y1358D01*
G01X16421Y1324D01*
G01X16385Y1290D01*
G01X16347Y1259D01*
G01X16308Y1229D01*
G01X16268Y1200D01*
G01X16227Y1174D01*
G01X16185Y1149D01*
G01X16141Y1126D01*
G01X16097Y1105D01*
G01X16052Y1085D01*
G01X16006Y1068D01*
G01X15959Y1053D01*
G01X15912Y1039D01*
G01X15864Y1028D01*
G01X15816Y1019D01*
G01X15767Y1011D01*
G01X15719Y1006D01*
G01X15670Y1003D01*
G01X15621Y1002D01*
G01X15571Y1003D01*
G01X15522Y1006D01*
G01X15474Y1011D01*
G01X15425Y1019D01*
G01X15377Y1028D01*
G01X15329Y1039D01*
G01X15282Y1053D01*
G01X15235Y1068D01*
G01X15189Y1085D01*
G01X15144Y1105D01*
G01X15100Y1126D01*
G01X15056Y1149D01*
G01X15014Y1174D01*
G01X14973Y1200D01*
G01X14933Y1229D01*
G01X14894Y1259D01*
G01X14856Y1290D01*
G01X14820Y1324D01*
G01X14786Y1358D01*
G01X14752Y1394D01*
G01X14721Y1432D01*
G01X14691Y1471D01*
G01X14662Y1511D01*
G01X14636Y1552D01*
G01X14611Y1594D01*
G01X14588Y1638D01*
G01X14567Y1682D01*
G01X14547Y1727D01*
G01X14530Y1773D01*
G01X14515Y1820D01*
G01X14501Y1867D01*
G01X14490Y1915D01*
G01X14481Y1963D01*
G01X14473Y2012D01*
G01X14468Y2060D01*
G01X14465Y2109D01*
G01X14464Y2159D01*
G01X14465Y2208D01*
G01X14468Y2257D01*
G01X14473Y2306D01*
G01X14481Y2355D01*
G01X14490Y2403D01*
G01X14502Y2451D01*
G01X14515Y2499D01*
G01X14531Y2546D01*
G01X14548Y2592D01*
G01X14568Y2637D01*
G01X14589Y2682D01*
G01X14612Y2725D01*
G01X14637Y2768D01*
G01X14664Y2809D01*
G01X14693Y2849D01*
G01X14723Y2888D01*
G01X14755Y2926D01*
G01X14789Y2962D01*
G01X14824Y2997D01*
G01X14835Y3009D01*
G01X14843Y3023D01*
G01X14850Y3038D01*
G01X14854Y3054D01*
G01X14855Y3070D01*
G01X14854Y3085D01*
G01X14851Y3099D01*
G01X14846Y3113D01*
G01X14839Y3125D01*
G01X14830Y3137D01*
G01X14820Y3147D01*
G01X14809Y3156D01*
G01X14796Y3163D01*
G01X14782Y3168D01*
G01X14768Y3171D01*
G01X14754Y3172D01*
G01X14084Y3172D01*
G01X14070Y3171D01*
G01X14056Y3168D01*
G01X14042Y3163D01*
G01X14030Y3156D01*
G01X14018Y3147D01*
G01X14008Y3137D01*
G01X13999Y3125D01*
G01X13992Y3113D01*
G01X13987Y3099D01*
G01X13984Y3085D01*
G01X13983Y3070D01*
G01X13983Y1259D01*
G01X13982Y1235D01*
G01X13979Y1211D01*
G01X13973Y1188D01*
G01X13966Y1166D01*
G01X13956Y1144D01*
G01X13945Y1123D01*
G01X13931Y1104D01*
G01X13916Y1086D01*
G01X13899Y1069D01*
G01X13881Y1054D01*
G01X13862Y1040D01*
G01X13841Y1029D01*
G01X13819Y1019D01*
G01X13797Y1012D01*
G01X13774Y1006D01*
G01X13750Y1003D01*
G01X13726Y1002D01*
G01X11927Y1002D01*
G01X11903Y1003D01*
G01X11879Y1006D01*
G01X11856Y1012D01*
G01X11834Y1019D01*
G01X11812Y1029D01*
G01X11791Y1040D01*
G01X11772Y1054D01*
G01X11754Y1069D01*
G01X11737Y1086D01*
G01X11722Y1104D01*
G01X11708Y1123D01*
G01X11697Y1144D01*
G01X11687Y1166D01*
G01X11680Y1188D01*
G01X11674Y1211D01*
G01X11671Y1235D01*
G01X11670Y1259D01*
G01X11670Y2551D01*
G01X11669Y2567D01*
G01X11665Y2582D01*
G01X11659Y2597D01*
G01X11651Y2611D01*
G01X11640Y2623D01*
G01X11497Y2766D01*
G01X11484Y2777D01*
G01X11471Y2785D01*
G01X11456Y2791D01*
G01X11441Y2795D01*
G01X11425Y2796D01*
G01X11410Y2795D01*
G01X11396Y2792D01*
G01X11383Y2787D01*
G01X11370Y2780D01*
G01X11358Y2771D01*
G01X11348Y2761D01*
G01X11339Y2750D01*
G01X11332Y2737D01*
G01X11327Y2723D01*
G01X11324Y2709D01*
G01X11323Y2695D01*
G01X11324Y2680D01*
G01X11327Y2665D01*
G01X11333Y2651D01*
G01X11353Y2605D01*
G01X11372Y2557D01*
G01X11389Y2509D01*
G01X11403Y2460D01*
G01X11415Y2411D01*
G01X11425Y2361D01*
G01X11433Y2311D01*
G01X11439Y2260D01*
G01X11442Y2209D01*
G01X11443Y2159D01*
G01X11442Y2109D01*
G01X11439Y2060D01*
G01X11434Y2012D01*
G01X11426Y1963D01*
G01X11417Y1915D01*
G01X11406Y1867D01*
G01X11392Y1820D01*
G01X11377Y1773D01*
G01X11360Y1727D01*
G01X11340Y1682D01*
G01X11319Y1638D01*
G01X11296Y1594D01*
G01X11271Y1552D01*
G01X11245Y1511D01*
G01X11216Y1471D01*
G01X11186Y1432D01*
G01X11155Y1394D01*
G01X11121Y1358D01*
G01X11087Y1324D01*
G01X11051Y1290D01*
G01X11013Y1259D01*
G01X10974Y1229D01*
G01X10934Y1200D01*
G01X10893Y1174D01*
G01X10851Y1149D01*
G01X10807Y1126D01*
G01X10763Y1105D01*
G01X10718Y1085D01*
G01X10672Y1068D01*
G01X10625Y1053D01*
G01X10578Y1039D01*
G01X10530Y1028D01*
G01X10482Y1019D01*
G01X10433Y1011D01*
G01X10385Y1006D01*
G01X10336Y1003D01*
G01X10287Y1002D01*
G01X10237Y1003D01*
G01X10188Y1006D01*
G01X10140Y1011D01*
G01X10091Y1019D01*
G01X10043Y1028D01*
G01X9995Y1039D01*
G01X9948Y1053D01*
G01X9901Y1068D01*
G01X9855Y1085D01*
G01X9810Y1105D01*
G01X9766Y1126D01*
G01X9722Y1149D01*
G01X9680Y1174D01*
G01X9639Y1200D01*
G01X9599Y1229D01*
G01X9560Y1259D01*
G01X9522Y1290D01*
G01X9486Y1324D01*
G01X9452Y1358D01*
G01X9418Y1394D01*
G01X9387Y1432D01*
G01X9357Y1471D01*
G01X9328Y1511D01*
G01X9302Y1552D01*
G01X9277Y1594D01*
G01X9254Y1638D01*
G01X9233Y1682D01*
G01X9213Y1727D01*
G01X9196Y1773D01*
G01X9181Y1820D01*
G01X9167Y1867D01*
G01X9156Y1915D01*
G01X9147Y1963D01*
G01X9139Y2012D01*
G01X9134Y2060D01*
G01X9131Y2109D01*
G01X9130Y2159D01*
G01X9131Y2212D01*
G01X9135Y2265D01*
G01X9141Y2318D01*
G01X9150Y2371D01*
G01X9161Y2423D01*
G01X9174Y2475D01*
G01X9178Y2503D01*
G01X9177Y2519D01*
G01X9173Y2534D01*
G01X9167Y2549D01*
G01X9159Y2563D01*
G01X9148Y2575D01*
G01X8957Y2766D01*
G01X8944Y2777D01*
G01X8931Y2785D01*
G01X8916Y2791D01*
G01X8901Y2795D01*
G01X8885Y2796D01*
G01X8870Y2795D01*
G01X8856Y2792D01*
G01X8843Y2787D01*
G01X8830Y2780D01*
G01X8818Y2771D01*
G01X8808Y2761D01*
G01X8799Y2750D01*
G01X8792Y2737D01*
G01X8787Y2723D01*
G01X8784Y2709D01*
G01X8783Y2695D01*
G01X8784Y2680D01*
G01X8787Y2665D01*
G01X8793Y2651D01*
G01X8813Y2605D01*
G01X8832Y2557D01*
G01X8849Y2509D01*
G01X8863Y2460D01*
G01X8875Y2411D01*
G01X8885Y2361D01*
G01X8893Y2311D01*
G01X8899Y2260D01*
G01X8902Y2209D01*
G01X8903Y2159D01*
G01X8902Y2109D01*
G01X8899Y2060D01*
G01X8894Y2012D01*
G01X8886Y1963D01*
G01X8877Y1915D01*
G01X8866Y1867D01*
G01X8852Y1820D01*
G01X8837Y1773D01*
G01X8820Y1727D01*
G01X8800Y1682D01*
G01X8779Y1638D01*
G01X8756Y1594D01*
G01X8731Y1552D01*
G01X8705Y1511D01*
G01X8676Y1471D01*
G01X8646Y1432D01*
G01X8615Y1394D01*
G01X8581Y1358D01*
G01X8547Y1324D01*
G01X8511Y1290D01*
G01X8473Y1259D01*
G01X8434Y1229D01*
G01X8394Y1200D01*
G01X8353Y1174D01*
G01X8311Y1149D01*
G01X8267Y1126D01*
G01X8223Y1105D01*
G01X8178Y1085D01*
G01X8132Y1068D01*
G01X8085Y1053D01*
G01X8038Y1039D01*
G01X7990Y1028D01*
G01X7942Y1019D01*
G01X7893Y1011D01*
G01X7845Y1006D01*
G01X7796Y1003D01*
G01X7747Y1002D01*
G01X7697Y1003D01*
G01X7648Y1006D01*
G01X7600Y1011D01*
G01X7551Y1019D01*
G01X7503Y1028D01*
G01X7455Y1039D01*
G01X7408Y1053D01*
G01X7361Y1068D01*
G01X7315Y1085D01*
G01X7270Y1105D01*
G01X7226Y1126D01*
G01X7182Y1149D01*
G01X7140Y1174D01*
G01X7099Y1200D01*
G01X7059Y1229D01*
G01X7020Y1259D01*
G01X6982Y1290D01*
G01X6946Y1324D01*
G01X6912Y1358D01*
G01X6878Y1394D01*
G01X6847Y1432D01*
G01X6817Y1471D01*
G01X6788Y1511D01*
G01X6762Y1552D01*
G01X6737Y1594D01*
G01X6714Y1638D01*
G01X6693Y1682D01*
G01X6673Y1727D01*
G01X6656Y1773D01*
G01X6641Y1820D01*
G01X6627Y1867D01*
G01X6616Y1915D01*
G01X6607Y1963D01*
G01X6599Y2012D01*
G01X6594Y2060D01*
G01X6591Y2109D01*
G01X6590Y2159D01*
G01X6591Y2208D01*
G01X6594Y2257D01*
G01X6599Y2306D01*
G01X6607Y2354D01*
G01X6616Y2402D01*
G01X6627Y2450D01*
G01X6641Y2498D01*
G01X6656Y2544D01*
G01X6674Y2590D01*
G01X6693Y2635D01*
G01X6714Y2680D01*
G01X6737Y2723D01*
G01X6762Y2766D01*
G01X6789Y2807D01*
G01X6817Y2847D01*
G01X6847Y2886D01*
G01X6879Y2923D01*
G01X6912Y2960D01*
G01X6947Y2994D01*
G01X6983Y3027D01*
G01X7021Y3059D01*
G01X7060Y3089D01*
G01X7100Y3117D01*
G01X7141Y3144D01*
G01X7184Y3169D01*
G01X7197Y3177D01*
G01X7208Y3188D01*
G01X7218Y3200D01*
G01X7226Y3213D01*
G01X7231Y3227D01*
G01X7235Y3242D01*
G01X7236Y3258D01*
G01X7236Y3302D01*
G01X7235Y3318D01*
G01X7231Y3333D01*
G01X7225Y3348D01*
G01X7217Y3362D01*
G01X7206Y3374D01*
G01X6623Y3956D01*
G01X6601Y3980D01*
G01X6581Y4005D01*
G01X6561Y4032D01*
G01X6544Y4059D01*
G01X6529Y4088D01*
G01X6515Y4117D01*
G01X6503Y4148D01*
G01X6493Y4179D01*
G01X6485Y4210D01*
G01X6480Y4242D01*
G01X6476Y4275D01*
G01X6473Y4290D01*
G01X6469Y4304D01*
G01X6462Y4318D01*
G01X6454Y4330D01*
G01X6443Y4341D01*
G01X6431Y4350D01*
G01X6418Y4358D01*
G01X6404Y4363D01*
G01X6390Y4367D01*
G01X6375Y4368D01*
G01X6355Y4366D01*
G01X6336Y4360D01*
G01X6312Y4351D01*
G01X6287Y4345D01*
G01X6262Y4342D01*
G01X6237Y4340D01*
G01X5948Y4340D01*
G01X5933Y4339D01*
G01X5919Y4336D01*
G01X5905Y4331D01*
G01X5893Y4324D01*
G01X5881Y4316D01*
G01X5871Y4305D01*
G01X5862Y4294D01*
G01X5855Y4281D01*
G01X5850Y4267D01*
G01X5847Y4253D01*
G01X5846Y4239D01*
G01X5846Y3175D01*
G01X5847Y3159D01*
G01X5851Y3144D01*
G01X5857Y3129D01*
G01X5865Y3116D01*
G01X5876Y3103D01*
G01X5888Y3093D01*
G01X5927Y3063D01*
G01X5965Y3031D01*
G01X6002Y2998D01*
G01X6037Y2963D01*
G01X6071Y2927D01*
G01X6103Y2890D01*
G01X6133Y2851D01*
G01X6162Y2810D01*
G01X6189Y2769D01*
G01X6214Y2726D01*
G01X6237Y2683D01*
G01X6259Y2638D01*
G01X6278Y2593D01*
G01X6296Y2547D01*
G01X6312Y2500D01*
G01X6325Y2452D01*
G01X6337Y2404D01*
G01X6346Y2355D01*
G01X6354Y2306D01*
G01X6359Y2257D01*
G01X6362Y2208D01*
G01X6363Y2159D01*
G01X6362Y2109D01*
G01X6359Y2060D01*
G01X6354Y2012D01*
G01X6346Y1963D01*
G01X6337Y1915D01*
G01X6326Y1867D01*
G01X6312Y1820D01*
G01X6297Y1773D01*
G01X6280Y1727D01*
G01X6260Y1682D01*
G01X6239Y1638D01*
G01X6216Y1594D01*
G01X6191Y1552D01*
G01X6165Y1511D01*
G01X6136Y1471D01*
G01X6106Y1432D01*
G01X6075Y1394D01*
G01X6041Y1358D01*
G01X6007Y1324D01*
G01X5971Y1290D01*
G01X5933Y1259D01*
G01X5894Y1229D01*
G01X5854Y1200D01*
G01X5813Y1174D01*
G01X5771Y1149D01*
G01X5727Y1126D01*
G01X5683Y1105D01*
G01X5638Y1085D01*
G01X5592Y1068D01*
G01X5545Y1053D01*
G01X5498Y1039D01*
G01X5450Y1028D01*
G01X5402Y1019D01*
G01X5353Y1011D01*
G01X5305Y1006D01*
G01X5256Y1003D01*
G01X5207Y1002D01*
G01X5157Y1003D01*
G01X5107Y1006D01*
G01X5058Y1012D01*
G01X5009Y1019D01*
G01X4961Y1028D01*
G01X4912Y1040D01*
G01X4865Y1054D01*
G01X4818Y1069D01*
G01X4771Y1087D01*
G01X4726Y1107D01*
G01X4681Y1128D01*
G01X4637Y1152D01*
G01X4595Y1177D01*
G01X4553Y1204D01*
G01X4513Y1233D01*
G01X4474Y1264D01*
G01X4436Y1296D01*
G01X4400Y1330D01*
G01X4365Y1365D01*
G01X4332Y1402D01*
G01X4300Y1440D01*
G01X4270Y1479D01*
G01X4242Y1520D01*
G01X4216Y1562D01*
G01X4191Y1605D01*
G01X4168Y1649D01*
G01X4147Y1694D01*
G01X4128Y1740D01*
G01X4111Y1786D01*
G01X4097Y1834D01*
G01X4085Y1860D01*
G01X4076Y1872D01*
G01X4066Y1882D01*
G01X4054Y1891D01*
G01X4028Y1903D01*
G01X4013Y1906D01*
G01X3999Y1907D01*
G01X3983Y1905D01*
G01X3968Y1902D01*
G01X3954Y1896D01*
G01X3940Y1888D01*
G01X3928Y1878D01*
G01X3918Y1867D01*
G01X3910Y1853D01*
G01X3903Y1839D01*
G01X3899Y1824D01*
G01X3887Y1765D01*
G01X3872Y1705D01*
G01X3856Y1647D01*
G01X3837Y1589D01*
G01X3816Y1531D01*
G01X3794Y1475D01*
G01X3769Y1419D01*
G01X3743Y1364D01*
G01X3715Y1310D01*
G01X3685Y1257D01*
G01X3653Y1205D01*
G01X3619Y1154D01*
G01X3584Y1105D01*
G01X3547Y1056D01*
G01X3508Y1009D01*
G01X3467Y963D01*
G01X3426Y919D01*
G01X3382Y876D01*
G01X3337Y835D01*
G01X3291Y795D01*
G01X3244Y757D01*
G01X3195Y721D01*
G01X3145Y686D01*
G01X3094Y653D01*
G01X3041Y621D01*
G01X2988Y592D01*
G01X2934Y564D01*
G01X2878Y539D01*
G01X2822Y515D01*
G01X2765Y493D01*
G01X2708Y473D01*
G01X2649Y455D01*
G01X2636Y450D01*
G01X2623Y443D01*
G01X2611Y435D01*
G01X2601Y424D01*
G01X2592Y413D01*
G01X2585Y400D01*
G01X2580Y386D01*
G01X2577Y372D01*
G01X2576Y358D01*
G01X2577Y343D01*
G01X2580Y329D01*
G01X2585Y315D01*
G01X2592Y303D01*
G01X2601Y291D01*
G01X2611Y281D01*
G01X2623Y272D01*
G01X2635Y265D01*
G01X2649Y260D01*
G01X2663Y257D01*
G01X2677Y256D01*
G01X23992Y256D01*
G01X24006Y257D01*
G01X24020Y260D01*
G01X24034Y265D01*
G01X24046Y272D01*
G01X24058Y281D01*
G01X24068Y291D01*
G01X24077Y303D01*
G01X24084Y315D01*
G01X24089Y329D01*
G01X24092Y343D01*
G01X24093Y358D01*
G01X24092Y372D01*
G01X24089Y386D01*
G01X24084Y400D01*
G01X24077Y413D01*
G01X24068Y424D01*
G01X24058Y435D01*
G01X24046Y443D01*
G01X24033Y450D01*
G01X24020Y455D01*
G01X23962Y473D01*
G01X23905Y492D01*
G01X23849Y514D01*
G01X23794Y537D01*
G01X23739Y563D01*
G01X23685Y590D01*
G01X23632Y619D01*
G01X23581Y649D01*
G01X23530Y682D01*
G01X23480Y716D01*
G01X23432Y752D01*
G01X23385Y789D01*
G01X23339Y828D01*
G01X23295Y869D01*
G01X23252Y911D01*
G01X23210Y954D01*
G01X23170Y999D01*
G01X23131Y1045D01*
G01X23094Y1093D01*
G01X23059Y1141D01*
G01X23025Y1191D01*
G01X22993Y1242D01*
G01X22963Y1294D01*
G01X22934Y1347D01*
G01X22908Y1401D01*
G01X22883Y1456D01*
G01X22860Y1512D01*
G01X22839Y1568D01*
G01X22820Y1625D01*
G01X22803Y1683D01*
G01X22788Y1741D01*
G01X22775Y1800D01*
G01X22763Y1859D01*
G01X22754Y1918D01*
G01X22747Y1978D01*
G01X22742Y2038D01*
G01X22739Y2098D01*
G01X22738Y2159D01*
G01X22739Y2219D01*
G01X22742Y2279D01*
G01X22747Y2340D01*
G01X22754Y2400D01*
G01X22764Y2460D01*
G01X22775Y2519D01*
G01X22788Y2578D01*
G01X22804Y2637D01*
G01X22821Y2695D01*
G01X22840Y2752D01*
G01X22862Y2809D01*
G01X22885Y2865D01*
G01X22910Y2920D01*
G01X22937Y2974D01*
G01X22965Y3027D01*
G01X22996Y3079D01*
G01X23028Y3131D01*
G01X23062Y3181D01*
G01X23098Y3230D01*
G01X23136Y3277D01*
G01X23175Y3323D01*
G01X23215Y3368D01*
G01X23257Y3412D01*
G01X23301Y3454D01*
G01X23346Y3494D01*
G01X23392Y3533D01*
G01X23439Y3571D01*
G01X23488Y3607D01*
G01X23538Y3641D01*
G01X23590Y3673D01*
G01X23642Y3704D01*
G01X23695Y3732D01*
G01X23749Y3759D01*
G01X23804Y3784D01*
G01X23860Y3807D01*
G01X23917Y3829D01*
G01X23974Y3848D01*
G01X24032Y3865D01*
G01X24091Y3881D01*
G01X24150Y3894D01*
G01X24209Y3905D01*
G01X24269Y3915D01*
G01X24329Y3922D01*
G01X24390Y3927D01*
G01X24450Y3930D01*
G01X24511Y3931D01*
G01X24571Y3930D01*
G01X24631Y3927D01*
G01X24691Y3922D01*
G01X24751Y3915D01*
G01X24810Y3905D01*
G01X24870Y3894D01*
G01X24928Y3881D01*
G01X24987Y3866D01*
G01X25044Y3849D01*
G01X25102Y3830D01*
G01X25158Y3809D01*
G01X25214Y3786D01*
G01X25269Y3761D01*
G01X25323Y3734D01*
G01X25376Y3705D01*
G01X25428Y3675D01*
G01X25479Y3643D01*
G01X25529Y3609D01*
G01X25578Y3574D01*
G01X25625Y3537D01*
G01X25671Y3498D01*
G01X25716Y3458D01*
G01X25760Y3416D01*
G01X25802Y3373D01*
G01X25842Y3328D01*
G01X25881Y3282D01*
G01X25919Y3235D01*
G01X25954Y3187D01*
G01X25989Y3137D01*
G01X26021Y3086D01*
G01X26052Y3034D01*
G01X26080Y2981D01*
G01X26107Y2928D01*
G01X26133Y2873D01*
G01X26156Y2817D01*
G01X26163Y2804D01*
G01X26171Y2791D01*
G01X26182Y2780D01*
G01X26193Y2771D01*
G01X26207Y2763D01*
G01X26221Y2758D01*
G01X26235Y2755D01*
G01X26250Y2753D01*
G01X26265Y2754D01*
G01X26279Y2758D01*
G01X26293Y2763D01*
G01X26305Y2770D01*
G01X26317Y2778D01*
G01X26327Y2788D01*
G01X26336Y2800D01*
G01X26343Y2813D01*
G01X26348Y2826D01*
G01X26351Y2841D01*
G01X26352Y2855D01*
G01X26352Y27066D01*
G01X26351Y27082D01*
G01X26347Y27098D01*
G01X26341Y27113D01*
G01X26333Y27126D01*
G01X26322Y27138D01*
G01X26255Y27206D01*
G01X26243Y27216D01*
G01X26229Y27224D01*
G01X26214Y27231D01*
G01X26199Y27234D01*
G01X26183Y27236D01*
G37*

%LPC*%
G36*
G01X21198Y7305D02*
G01X19999Y7305D01*
G01X19976Y7303D01*
G01X19952Y7300D01*
G01X19929Y7295D01*
G01X19907Y7287D01*
G01X19885Y7278D01*
G01X19864Y7266D01*
G01X19845Y7253D01*
G01X19827Y7238D01*
G01X19810Y7221D01*
G01X19795Y7203D01*
G01X19781Y7183D01*
G01X19770Y7162D01*
G01X19760Y7141D01*
G01X19753Y7118D01*
G01X19747Y7095D01*
G01X19744Y7072D01*
G01X19743Y7048D01*
G01X19743Y6570D01*
G01X19742Y6555D01*
G01X19739Y6541D01*
G01X19734Y6527D01*
G01X19727Y6515D01*
G01X19718Y6503D01*
G01X19708Y6493D01*
G01X19696Y6484D01*
G01X19684Y6477D01*
G01X19670Y6472D01*
G01X19656Y6469D01*
G01X19641Y6468D01*
G01X19624Y6469D01*
G01X19608Y6474D01*
G01X19592Y6480D01*
G01X19578Y6490D01*
G01X19566Y6501D01*
G01X19549Y6518D01*
G01X19531Y6534D01*
G01X19511Y6547D01*
G01X19490Y6559D01*
G01X19469Y6569D01*
G01X19446Y6576D01*
G01X19423Y6582D01*
G01X19399Y6585D01*
G01X19376Y6586D01*
G01X19114Y6586D01*
G01X19114Y6243D01*
G01X19641Y6243D01*
G01X19656Y6242D01*
G01X19670Y6239D01*
G01X19684Y6234D01*
G01X19696Y6227D01*
G01X19708Y6218D01*
G01X19718Y6208D01*
G01X19727Y6196D01*
G01X19734Y6184D01*
G01X19739Y6170D01*
G01X19742Y6156D01*
G01X19743Y6141D01*
G01X19743Y5918D01*
G01X19742Y5903D01*
G01X19739Y5889D01*
G01X19734Y5875D01*
G01X19727Y5863D01*
G01X19718Y5851D01*
G01X19708Y5841D01*
G01X19696Y5832D01*
G01X19684Y5825D01*
G01X19670Y5820D01*
G01X19656Y5817D01*
G01X19641Y5816D01*
G01X19114Y5816D01*
G01X19114Y5473D01*
G01X19376Y5473D01*
G01X19399Y5474D01*
G01X19423Y5477D01*
G01X19446Y5483D01*
G01X19469Y5490D01*
G01X19490Y5500D01*
G01X19511Y5512D01*
G01X19531Y5525D01*
G01X19549Y5541D01*
G01X19566Y5558D01*
G01X19578Y5569D01*
G01X19592Y5579D01*
G01X19608Y5585D01*
G01X19624Y5590D01*
G01X19641Y5591D01*
G01X19656Y5590D01*
G01X19670Y5587D01*
G01X19684Y5582D01*
G01X19696Y5575D01*
G01X19708Y5566D01*
G01X19718Y5556D01*
G01X19727Y5544D01*
G01X19734Y5532D01*
G01X19739Y5518D01*
G01X19742Y5504D01*
G01X19743Y5490D01*
G01X19743Y4889D01*
G01X19744Y4865D01*
G01X19747Y4842D01*
G01X19753Y4819D01*
G01X19760Y4796D01*
G01X19770Y4775D01*
G01X19781Y4754D01*
G01X19795Y4734D01*
G01X19810Y4716D01*
G01X19827Y4699D01*
G01X19845Y4684D01*
G01X19864Y4671D01*
G01X19885Y4659D01*
G01X19907Y4650D01*
G01X19929Y4642D01*
G01X19952Y4637D01*
G01X19976Y4634D01*
G01X19999Y4632D01*
G01X21198Y4632D01*
G01X21222Y4634D01*
G01X21245Y4637D01*
G01X21269Y4642D01*
G01X21291Y4650D01*
G01X21313Y4659D01*
G01X21333Y4671D01*
G01X21353Y4684D01*
G01X21371Y4699D01*
G01X21388Y4716D01*
G01X21403Y4734D01*
G01X21416Y4754D01*
G01X21428Y4775D01*
G01X21438Y4796D01*
G01X21445Y4819D01*
G01X21451Y4842D01*
G01X21454Y4865D01*
G01X21455Y4889D01*
G01X21455Y7048D01*
G01X21454Y7072D01*
G01X21451Y7095D01*
G01X21445Y7118D01*
G01X21438Y7141D01*
G01X21428Y7162D01*
G01X21416Y7183D01*
G01X21403Y7203D01*
G01X21388Y7221D01*
G01X21371Y7238D01*
G01X21353Y7253D01*
G01X21333Y7266D01*
G01X21313Y7278D01*
G01X21291Y7287D01*
G01X21269Y7295D01*
G01X21245Y7300D01*
G01X21222Y7303D01*
G01X21198Y7305D01*
G37*
G36*
G01X24814Y22364D02*
G01X24765Y22365D01*
G01X24715Y22364D01*
G01X24666Y22361D01*
G01X24618Y22356D01*
G01X24569Y22348D01*
G01X24521Y22339D01*
G01X24473Y22328D01*
G01X24426Y22314D01*
G01X24379Y22299D01*
G01X24333Y22282D01*
G01X24288Y22262D01*
G01X24244Y22241D01*
G01X24200Y22218D01*
G01X24158Y22193D01*
G01X24117Y22167D01*
G01X24077Y22138D01*
G01X24038Y22108D01*
G01X24000Y22077D01*
G01X23964Y22043D01*
G01X23930Y22009D01*
G01X23896Y21973D01*
G01X23865Y21935D01*
G01X23835Y21896D01*
G01X23806Y21856D01*
G01X23780Y21815D01*
G01X23755Y21773D01*
G01X23732Y21729D01*
G01X23711Y21685D01*
G01X23691Y21640D01*
G01X23674Y21594D01*
G01X23659Y21547D01*
G01X23645Y21500D01*
G01X23634Y21452D01*
G01X23625Y21404D01*
G01X23617Y21355D01*
G01X23612Y21307D01*
G01X23609Y21258D01*
G01X23608Y21209D01*
G01X23609Y21159D01*
G01X23612Y21110D01*
G01X23617Y21062D01*
G01X23625Y21013D01*
G01X23634Y20965D01*
G01X23645Y20917D01*
G01X23659Y20870D01*
G01X23674Y20823D01*
G01X23691Y20777D01*
G01X23711Y20732D01*
G01X23732Y20688D01*
G01X23755Y20644D01*
G01X23780Y20602D01*
G01X23806Y20561D01*
G01X23835Y20521D01*
G01X23865Y20482D01*
G01X23896Y20444D01*
G01X23930Y20408D01*
G01X23964Y20374D01*
G01X24000Y20340D01*
G01X24038Y20309D01*
G01X24077Y20279D01*
G01X24117Y20250D01*
G01X24158Y20224D01*
G01X24200Y20199D01*
G01X24244Y20176D01*
G01X24288Y20155D01*
G01X24333Y20135D01*
G01X24379Y20118D01*
G01X24426Y20103D01*
G01X24473Y20089D01*
G01X24521Y20078D01*
G01X24569Y20069D01*
G01X24618Y20061D01*
G01X24666Y20056D01*
G01X24715Y20053D01*
G01X24765Y20052D01*
G01X24814Y20053D01*
G01X24863Y20056D01*
G01X24911Y20061D01*
G01X24960Y20069D01*
G01X25008Y20078D01*
G01X25056Y20089D01*
G01X25103Y20103D01*
G01X25150Y20118D01*
G01X25196Y20135D01*
G01X25241Y20155D01*
G01X25285Y20176D01*
G01X25329Y20199D01*
G01X25371Y20224D01*
G01X25412Y20250D01*
G01X25452Y20279D01*
G01X25491Y20309D01*
G01X25529Y20340D01*
G01X25565Y20374D01*
G01X25599Y20408D01*
G01X25633Y20444D01*
G01X25664Y20482D01*
G01X25694Y20521D01*
G01X25723Y20561D01*
G01X25749Y20602D01*
G01X25774Y20644D01*
G01X25797Y20688D01*
G01X25818Y20732D01*
G01X25838Y20777D01*
G01X25855Y20823D01*
G01X25870Y20870D01*
G01X25884Y20917D01*
G01X25895Y20965D01*
G01X25904Y21013D01*
G01X25912Y21062D01*
G01X25917Y21110D01*
G01X25920Y21159D01*
G01X25921Y21209D01*
G01X25920Y21258D01*
G01X25917Y21307D01*
G01X25912Y21355D01*
G01X25904Y21404D01*
G01X25895Y21452D01*
G01X25884Y21500D01*
G01X25870Y21547D01*
G01X25855Y21594D01*
G01X25838Y21640D01*
G01X25818Y21685D01*
G01X25797Y21729D01*
G01X25774Y21773D01*
G01X25749Y21815D01*
G01X25723Y21856D01*
G01X25694Y21896D01*
G01X25664Y21935D01*
G01X25633Y21973D01*
G01X25599Y22009D01*
G01X25565Y22043D01*
G01X25529Y22077D01*
G01X25491Y22108D01*
G01X25452Y22138D01*
G01X25412Y22167D01*
G01X25371Y22193D01*
G01X25329Y22218D01*
G01X25285Y22241D01*
G01X25241Y22262D01*
G01X25196Y22282D01*
G01X25150Y22299D01*
G01X25103Y22314D01*
G01X25056Y22328D01*
G01X25008Y22339D01*
G01X24960Y22348D01*
G01X24911Y22356D01*
G01X24863Y22361D01*
G01X24814Y22364D01*
G37*
G36*
G01X20187Y3315D02*
G01X19801Y3315D01*
G01X19777Y3314D01*
G01X19753Y3311D01*
G01X19730Y3305D01*
G01X19708Y3298D01*
G01X19686Y3288D01*
G01X19665Y3277D01*
G01X19646Y3263D01*
G01X19628Y3248D01*
G01X19611Y3231D01*
G01X19596Y3213D01*
G01X19582Y3194D01*
G01X19571Y3173D01*
G01X19561Y3151D01*
G01X19554Y3129D01*
G01X19548Y3106D01*
G01X19545Y3082D01*
G01X19544Y3058D01*
G01X19544Y2672D01*
G01X20187Y2672D01*
G01X20187Y3315D01*
G37*
G36*
G01X21600Y3315D02*
G01X21214Y3315D01*
G01X21214Y2672D01*
G01X21857Y2672D01*
G01X21857Y3058D01*
G01X21856Y3082D01*
G01X21853Y3106D01*
G01X21847Y3129D01*
G01X21840Y3151D01*
G01X21830Y3173D01*
G01X21819Y3194D01*
G01X21805Y3213D01*
G01X21790Y3231D01*
G01X21773Y3248D01*
G01X21755Y3263D01*
G01X21736Y3277D01*
G01X21715Y3288D01*
G01X21693Y3298D01*
G01X21671Y3305D01*
G01X21648Y3311D01*
G01X21624Y3314D01*
G01X21600Y3315D01*
G37*
G36*
G01X20187Y1645D02*
G01X19544Y1645D01*
G01X19544Y1259D01*
G01X19545Y1235D01*
G01X19548Y1211D01*
G01X19554Y1188D01*
G01X19561Y1166D01*
G01X19571Y1144D01*
G01X19582Y1123D01*
G01X19596Y1104D01*
G01X19611Y1086D01*
G01X19628Y1069D01*
G01X19646Y1054D01*
G01X19665Y1040D01*
G01X19686Y1029D01*
G01X19708Y1019D01*
G01X19730Y1012D01*
G01X19753Y1006D01*
G01X19777Y1003D01*
G01X19801Y1002D01*
G01X20187Y1002D01*
G01X20187Y1645D01*
G37*
G36*
G01X21857Y1645D02*
G01X21214Y1645D01*
G01X21214Y1002D01*
G01X21600Y1002D01*
G01X21624Y1003D01*
G01X21648Y1006D01*
G01X21671Y1012D01*
G01X21693Y1019D01*
G01X21715Y1029D01*
G01X21736Y1040D01*
G01X21755Y1054D01*
G01X21773Y1069D01*
G01X21790Y1086D01*
G01X21805Y1104D01*
G01X21819Y1123D01*
G01X21830Y1144D01*
G01X21840Y1166D01*
G01X21847Y1188D01*
G01X21853Y1211D01*
G01X21856Y1235D01*
G01X21857Y1259D01*
G01X21857Y1645D01*
G37*
G36*
G01X23436Y5365D02*
G01X22943Y5365D01*
G01X22943Y4632D01*
G01X23180Y4632D01*
G01X23203Y4634D01*
G01X23227Y4637D01*
G01X23250Y4642D01*
G01X23272Y4650D01*
G01X23294Y4659D01*
G01X23315Y4671D01*
G01X23334Y4684D01*
G01X23352Y4699D01*
G01X23369Y4716D01*
G01X23384Y4734D01*
G01X23398Y4754D01*
G01X23409Y4775D01*
G01X23419Y4796D01*
G01X23426Y4819D01*
G01X23432Y4842D01*
G01X23435Y4865D01*
G01X23436Y4889D01*
G01X23436Y5365D01*
G37*
G36*
G01X22217Y5365D02*
G01X21724Y5365D01*
G01X21724Y4889D01*
G01X21725Y4865D01*
G01X21728Y4842D01*
G01X21734Y4819D01*
G01X21741Y4796D01*
G01X21751Y4775D01*
G01X21763Y4754D01*
G01X21776Y4734D01*
G01X21791Y4716D01*
G01X21808Y4699D01*
G01X21826Y4684D01*
G01X21846Y4671D01*
G01X21866Y4659D01*
G01X21888Y4650D01*
G01X21910Y4642D01*
G01X21934Y4637D01*
G01X21957Y4634D01*
G01X21981Y4632D01*
G01X22217Y4632D01*
G01X22217Y5365D01*
G37*
G36*
G01X22217Y7305D02*
G01X21981Y7305D01*
G01X21957Y7303D01*
G01X21934Y7300D01*
G01X21910Y7295D01*
G01X21888Y7287D01*
G01X21866Y7278D01*
G01X21846Y7266D01*
G01X21826Y7253D01*
G01X21808Y7238D01*
G01X21791Y7221D01*
G01X21776Y7203D01*
G01X21763Y7183D01*
G01X21751Y7162D01*
G01X21741Y7141D01*
G01X21734Y7118D01*
G01X21728Y7095D01*
G01X21725Y7072D01*
G01X21724Y7048D01*
G01X21724Y6572D01*
G01X22217Y6572D01*
G01X22217Y7305D01*
G37*
G36*
G01X18337Y6586D02*
G01X18076Y6586D01*
G01X18052Y6585D01*
G01X18028Y6582D01*
G01X18005Y6576D01*
G01X17983Y6569D01*
G01X17961Y6559D01*
G01X17940Y6548D01*
G01X17921Y6534D01*
G01X17903Y6519D01*
G01X17886Y6502D01*
G01X17871Y6484D01*
G01X17857Y6465D01*
G01X17846Y6444D01*
G01X17836Y6422D01*
G01X17829Y6400D01*
G01X17823Y6377D01*
G01X17820Y6353D01*
G01X17819Y6329D01*
G01X17819Y6243D01*
G01X18337Y6243D01*
G01X18337Y6586D01*
G37*

%LPD*%
G54D10*
G01X24765Y23749D02*
G01X22987Y21971D01*
G01X22987Y18288D01*
G01X14440Y12192D02*
G01X14224Y12192D01*
G01X12827Y13589D01*
G01X12827Y16637D01*
G01X14092Y17902D01*
G01X14092Y18776D01*
G01X22367Y17028D02*
G01X22367Y23098D01*
G01X20594Y24871D01*
G01X20594Y25925D01*
G01X19944Y25925D02*
G01X19944Y24886D01*
G01X21844Y22987D01*
G01X21844Y17155D01*
G01X21717Y17028D01*
G54D11*
G01X8792Y22170D02*
G01X8792Y21046D01*
G54D10*
G01X13441Y18778D02*
G01X13441Y19959D01*
G01X13208Y20193D01*
G01X8509Y20193D01*
G01X8143Y20558D01*
G01X8143Y22169D01*
G01X7493Y22169D02*
G01X7493Y20574D01*
G01X8382Y19685D01*
G01X12192Y19685D01*
G01X12793Y19083D01*
G01X12793Y18778D01*
G01X11186Y18288D02*
G01X12827Y16637D01*
G01X19293Y25925D02*
G01X19293Y23992D01*
G01X18796Y23495D01*
G01X14732Y23495D01*
G01X14091Y22860D01*
G01X14091Y18778D01*
G01X22153Y12954D02*
G01X23114Y12954D01*
G01X23495Y12573D01*
G01X23495Y7620D01*
G01X24765Y6350D01*
G01X24765Y5969D01*
G54D11*
G01X9398Y16891D02*
G01X9133Y16891D01*
G01X8371Y16129D01*
G54D10*
G01X18161Y12827D02*
G01X22027Y12827D01*
G01X22154Y12954D01*
G01X16139Y14224D02*
G01X16139Y16256D01*
G01X18161Y14720D02*
G01X18977Y13903D01*
G01X19755Y13903D01*
G01X16040Y12192D02*
G01X18161Y14312D01*
G01X18161Y14720D01*
G01X23114Y12954D02*
G01X23126Y15382D01*
G01X23888Y16134D01*
G01X24765Y16129D01*
G54D11*
G01X11936Y11963D02*
G01X11647Y11963D01*
G01X10021Y13589D01*
G54D10*
G01X16002Y20574D02*
G01X16042Y20533D01*
G01X16042Y18776D01*
G54D11*
G01X8371Y16129D02*
G01X8371Y14137D01*
G01X7950Y13716D01*
G54D10*
G01X22367Y17029D02*
G01X22367Y16383D01*
G01X21717Y15733D01*
G01X21717Y15229D01*
G01X21717Y17029D02*
G01X21717Y16383D01*
G01X21067Y15733D01*
G01X21067Y15229D01*
G01X18161Y14720D02*
G01X20469Y17029D01*
G01X21067Y17029D01*
G01X22367Y15229D02*
G01X22367Y15628D01*
G01X24765Y18039D01*
G01X24765Y18669D01*
G54D11*
G01X11935Y4800D02*
G01X13053Y3683D01*
G01X16637Y3683D01*
G01X18161Y2159D01*
G01X11935Y4800D02*
G01X11935Y5461D01*
G01X11936Y4800D02*
G01X11910Y4826D01*
G01X10033Y4826D01*
G01X9271Y5588D01*
G01X9271Y12838D01*
G01X10021Y13589D01*
G01X7950Y13716D02*
G01X8204Y13462D01*
G01X8724Y13462D01*
G01X9894Y13462D01*
G01X10021Y13589D01*
G54D10*
G01X24765Y23749D02*
G01X24765Y23495D01*
G54D11*
G01X12003Y8712D02*
G01X11935Y8712D01*
G54D10*
G01X1905Y13589D02*
G01X3429Y12065D01*
G01X3429Y9906D01*
G54D11*
G01X5336Y5461D02*
G01X5336Y4800D01*
G01X5336Y8051D02*
G01X5336Y7416D01*
G01X5336Y9347D02*
G01X5336Y8712D01*
G01X5336Y4800D02*
G01X5336Y2288D01*
G01X5207Y2159D01*
G01X5336Y11963D02*
G01X5336Y11303D01*
G01X5336Y11303D02*
G01X6604Y11303D01*
G01X7112Y10795D01*
G01X7112Y9144D01*
G01X8509Y7747D01*
G01X8509Y5207D01*
G01X10033Y3683D01*
G01X11303Y3683D01*
G01X12827Y2159D01*
G01X5336Y7416D02*
G01X6680Y7416D01*
G01X6985Y7112D01*
G01X6985Y4318D01*
G01X7747Y3556D01*
G01X7747Y2159D01*
G01X5336Y8712D02*
G01X6400Y8712D01*
G01X7747Y7366D01*
G01X7747Y4699D01*
G01X10287Y2159D01*
G54D10*
G01X10414Y11303D02*
G01X11935Y11303D01*
G01X10414Y10033D02*
G01X10439Y10007D01*
G01X11935Y10007D01*
G01X10414Y7493D02*
G01X10490Y7416D01*
G01X11935Y7416D01*
G01X10414Y6096D02*
G01X11935Y6096D01*
G54D11*
G01X11935Y9347D02*
G01X11935Y8712D01*
G01X12004Y8712D02*
G01X14859Y8724D01*
G54D10*
G01X11935Y6756D02*
G01X12928Y6756D01*
G01X13208Y6477D01*
G01X13208Y5461D01*
G01X13626Y5042D01*
G01X14859Y5042D01*
G01X16326Y5080D02*
G01X16288Y5042D01*
G01X14859Y5042D01*
G01X11935Y10007D02*
G01X13360Y10007D01*
G01X13843Y9525D01*
G01X19045Y9525D01*
G01X19233Y9337D01*
G01X11935Y10668D02*
G01X14515Y10668D01*
G01X14859Y10324D01*
G01X14859Y10324D02*
G01X14896Y10287D01*
G01X16834Y10287D01*
G54D11*
G01X14859Y8724D02*
G01X14859Y6642D01*
G54D10*
G01X16129Y16521D02*
G01X16129Y16266D01*
G01X16139Y16256D01*
G01X16042Y16353D01*
G01X16042Y18776D01*
G01X18643Y25927D02*
G01X18669Y25901D01*
G01X18669Y24511D01*
G01X21243Y25927D02*
G01X22225Y24945D01*
G01X22225Y24892D01*
G01X18725Y4130D02*
G01X17013Y5842D01*
G01X14097Y5842D01*
G01X13716Y6223D01*
G01X13716Y6731D01*
G01X13030Y7416D01*
G01X11936Y7416D01*
G01X21209Y8497D02*
G01X22733Y10021D01*
G01X22733Y11938D01*
G01X14859Y8724D02*
G01X15328Y8255D01*
G01X20828Y8255D01*
G01X21071Y8498D01*
G01X21209Y8498D01*
G54D13*
G01X6203Y22976D03*
G01X6853Y22976D03*
G01X7503Y22976D03*
G01X8153Y22976D03*
G01X8803Y22976D03*
G54D14*
G01X14439Y12192D03*
G01X16039Y12192D03*
G54D15*
G01X18161Y16520D03*
G01X18161Y14720D03*
G36*
G01X21517Y15679D02*
G01X21917Y15679D01*
G01X21917Y14779D01*
G01X21517Y14779D01*
G01X21517Y15679D01*
G37*
G36*
G01X22167Y15679D02*
G01X22567Y15679D01*
G01X22567Y14779D01*
G01X22167Y14779D01*
G01X22167Y15679D01*
G37*
G36*
G01X22167Y17479D02*
G01X22567Y17479D01*
G01X22567Y16579D01*
G01X22167Y16579D01*
G01X22167Y17479D01*
G37*
G36*
G01X21517Y17479D02*
G01X21917Y17479D01*
G01X21917Y16579D01*
G01X21517Y16579D01*
G01X21517Y17479D01*
G37*
G36*
G01X20867Y17479D02*
G01X21267Y17479D01*
G01X21267Y16579D01*
G01X20867Y16579D01*
G01X20867Y17479D01*
G37*
G36*
G01X20867Y15679D02*
G01X21267Y15679D01*
G01X21267Y14779D01*
G01X20867Y14779D01*
G01X20867Y15679D01*
G37*
G54D14*
G01X16139Y14224D03*
G01X14339Y14224D03*
G54D17*
G01X21243Y25927D03*
G01X20593Y25927D03*
G01X19943Y25927D03*
G01X19293Y25927D03*
G01X18643Y25927D03*
G01X17993Y25927D03*
G01X17343Y25927D03*
G01X16692Y25927D03*
G01X16042Y25927D03*
G01X15392Y25927D03*
G01X14742Y25927D03*
G01X14092Y25927D03*
G01X13442Y25927D03*
G01X12792Y25927D03*
G01X12792Y18776D03*
G01X13442Y18776D03*
G01X14092Y18776D03*
G01X14742Y18776D03*
G01X15392Y18776D03*
G01X16042Y18776D03*
G01X16692Y18776D03*
G01X17343Y18776D03*
G01X17993Y18776D03*
G01X18643Y18776D03*
G01X19293Y18776D03*
G01X19943Y18776D03*
G01X20593Y18776D03*
G01X21243Y18776D03*
G36*
G01X19105Y12303D02*
G01X20405Y12303D01*
G01X20405Y11703D01*
G01X19105Y11703D01*
G01X19105Y12303D01*
G37*
G36*
G01X21505Y13253D02*
G01X22805Y13253D01*
G01X22805Y12654D01*
G01X21505Y12654D01*
G01X21505Y13253D01*
G37*
G36*
G01X19105Y14204D02*
G01X20405Y14204D01*
G01X20405Y13604D01*
G01X19105Y13604D01*
G01X19105Y14204D01*
G37*
G54D14*
G01X16139Y16256D03*
G01X14339Y16256D03*
G01X11186Y18288D03*
G01X9386Y18288D03*
G54D18*
G01X19233Y11236D03*
G01X16834Y10287D03*
G01X19233Y9337D03*
G01X18725Y6029D03*
G01X16326Y5080D03*
G01X18725Y4130D03*
G54D19*
G01X7950Y13716D03*
G01X4749Y13716D03*
G54D15*
G01X14859Y8724D03*
G01X14859Y10324D03*
G01X14859Y6642D03*
G01X14859Y5042D03*
G36*
G01X4434Y12166D02*
G01X6237Y12166D01*
G01X6237Y11760D01*
G01X4434Y11760D01*
G01X4434Y12166D01*
G37*
G36*
G01X4434Y11506D02*
G01X6237Y11506D01*
G01X6237Y11099D01*
G01X4434Y11099D01*
G01X4434Y11506D01*
G37*
G36*
G01X4434Y10871D02*
G01X6237Y10871D01*
G01X6237Y10464D01*
G01X4434Y10464D01*
G01X4434Y10871D01*
G37*
G36*
G01X4434Y10210D02*
G01X6237Y10210D01*
G01X6237Y9804D01*
G01X4434Y9804D01*
G01X4434Y10210D01*
G37*
G36*
G01X4434Y9550D02*
G01X6237Y9550D01*
G01X6237Y9144D01*
G01X4434Y9144D01*
G01X4434Y9550D01*
G37*
G36*
G01X4434Y8915D02*
G01X6237Y8915D01*
G01X6237Y8509D01*
G01X4434Y8509D01*
G01X4434Y8915D01*
G37*
G36*
G01X4434Y8255D02*
G01X6237Y8255D01*
G01X6237Y7848D01*
G01X4434Y7848D01*
G01X4434Y8255D01*
G37*
G36*
G01X4434Y7620D02*
G01X6237Y7620D01*
G01X6237Y7213D01*
G01X4434Y7213D01*
G01X4434Y7620D01*
G37*
G36*
G01X4434Y6959D02*
G01X6237Y6959D01*
G01X6237Y6553D01*
G01X4434Y6553D01*
G01X4434Y6959D01*
G37*
G36*
G01X4434Y6299D02*
G01X6237Y6299D01*
G01X6237Y5892D01*
G01X4434Y5892D01*
G01X4434Y6299D01*
G37*
G36*
G01X4434Y5664D02*
G01X6237Y5664D01*
G01X6237Y5257D01*
G01X4434Y5257D01*
G01X4434Y5664D01*
G37*
G36*
G01X4434Y5003D02*
G01X6237Y5003D01*
G01X6237Y4597D01*
G01X4434Y4597D01*
G01X4434Y5003D01*
G37*
G36*
G01X11034Y5003D02*
G01X12837Y5003D01*
G01X12837Y4597D01*
G01X11034Y4597D01*
G01X11034Y5003D01*
G37*
G36*
G01X11034Y5664D02*
G01X12837Y5664D01*
G01X12837Y5257D01*
G01X11034Y5257D01*
G01X11034Y5664D01*
G37*
G36*
G01X11034Y6299D02*
G01X12837Y6299D01*
G01X12837Y5892D01*
G01X11034Y5892D01*
G01X11034Y6299D01*
G37*
G36*
G01X11034Y6959D02*
G01X12837Y6959D01*
G01X12837Y6553D01*
G01X11034Y6553D01*
G01X11034Y6959D01*
G37*
G36*
G01X11034Y7620D02*
G01X12837Y7620D01*
G01X12837Y7213D01*
G01X11034Y7213D01*
G01X11034Y7620D01*
G37*
G36*
G01X11034Y8255D02*
G01X12837Y8255D01*
G01X12837Y7848D01*
G01X11034Y7848D01*
G01X11034Y8255D01*
G37*
G36*
G01X11034Y8915D02*
G01X12837Y8915D01*
G01X12837Y8509D01*
G01X11034Y8509D01*
G01X11034Y8915D01*
G37*
G36*
G01X11034Y9550D02*
G01X12837Y9550D01*
G01X12837Y9144D01*
G01X11034Y9144D01*
G01X11034Y9550D01*
G37*
G36*
G01X11034Y10210D02*
G01X12837Y10210D01*
G01X12837Y9804D01*
G01X11034Y9804D01*
G01X11034Y10210D01*
G37*
G36*
G01X11034Y10871D02*
G01X12837Y10871D01*
G01X12837Y10464D01*
G01X11034Y10464D01*
G01X11034Y10871D01*
G37*
G36*
G01X11034Y11506D02*
G01X12837Y11506D01*
G01X12837Y11099D01*
G01X11034Y11099D01*
G01X11034Y11506D01*
G37*
G36*
G01X11034Y12166D02*
G01X12837Y12166D01*
G01X12837Y11760D01*
G01X11034Y11760D01*
G01X11034Y12166D01*
G37*
G01X9906Y15377D03*
G01X9906Y13577D03*
G01X21209Y10297D03*
G01X21209Y8497D03*
G54D21*
G01X9903Y22991D03*
G01X5062Y22991D03*
G54D22*
G01X22580Y5969D03*
G01X20599Y5969D03*
G54D23*
G01X15621Y2159D03*
G01X18161Y2159D03*
G54D24*
G01X20701Y2159D03*
G01X24765Y23749D03*
G54D23*
G01X24765Y21209D03*
G01X24765Y18669D03*
G01X24765Y16129D03*
G01X24765Y13589D03*
G01X24765Y11049D03*
G01X24765Y8509D03*
G01X24765Y5969D03*
G54D24*
G01X1905Y5969D03*
G54D23*
G01X1905Y8509D03*
G01X1905Y11049D03*
G01X1905Y13589D03*
G01X1905Y16129D03*
G01X1905Y18669D03*
G01X1905Y21209D03*
G01X1905Y23749D03*
G01X5207Y2159D03*
G01X7747Y2159D03*
G01X10287Y2159D03*
G54D24*
G01X12827Y2159D03*
G54D12*
G01X8792Y21046D03*
G01X18161Y12827D03*
G01X16002Y20574D03*
G01X14859Y20574D03*
G01X9398Y16891D03*
G01X10414Y8890D03*
G01X22225Y24892D03*
G01X18669Y24511D03*
G01X22733Y11938D03*
G01X3429Y9906D03*
G01X10414Y7493D03*
G01X10414Y6096D03*
G01X10414Y10033D03*
G01X10414Y11303D03*
G01X22987Y18288D03*
G54D25*
G01X3893Y25341D02*
G01X3893Y26241D01*
G01X11092Y25341D02*
G01X11092Y26241D01*
M00*
M02*
