G04 Layer: BottomLayer*
G04 EasyEDA v6.4.7, 2020-11-10T21:56:29+01:00*
G04 d56d7f5836d14aafa71abd029e92fcd7,d798ca008b2c48fc9d28453cf4f639a5,10*
G04 Gerber Generator version 0.2*
G04 Scale: 100 percent, Rotated: No, Reflected: No *
G04 Dimensions in millimeters *
G04 leading zeros omitted , absolute positions ,3 integer and 3 decimal *
%FSLAX33Y33*%
%MOMM*%
G90*
D02*

%ADD10C,0.254000*%
%ADD11C,0.508000*%
%ADD12C,0.611022*%
%ADD21C,1.250010*%
%ADD22R,1.198880X2.159000*%
%ADD23C,1.799996*%
%ADD24R,1.799996X1.799996*%
%ADD25C,1.299997*%
%ADD26C,0.203200*%

%LPD*%
G36*
G01X3584Y27302D02*
G01X358Y27302D01*
G01X343Y27301D01*
G01X329Y27298D01*
G01X315Y27293D01*
G01X303Y27286D01*
G01X291Y27277D01*
G01X281Y27267D01*
G01X272Y27255D01*
G01X265Y27243D01*
G01X260Y27229D01*
G01X257Y27215D01*
G01X256Y27200D01*
G01X256Y2677D01*
G01X257Y2663D01*
G01X260Y2649D01*
G01X265Y2635D01*
G01X272Y2623D01*
G01X281Y2611D01*
G01X291Y2601D01*
G01X303Y2592D01*
G01X315Y2585D01*
G01X329Y2580D01*
G01X343Y2577D01*
G01X358Y2576D01*
G01X372Y2577D01*
G01X386Y2580D01*
G01X400Y2585D01*
G01X413Y2592D01*
G01X424Y2601D01*
G01X435Y2611D01*
G01X443Y2623D01*
G01X450Y2636D01*
G01X455Y2649D01*
G01X473Y2707D01*
G01X492Y2764D01*
G01X514Y2820D01*
G01X537Y2875D01*
G01X563Y2930D01*
G01X590Y2984D01*
G01X619Y3037D01*
G01X649Y3088D01*
G01X682Y3139D01*
G01X716Y3189D01*
G01X752Y3237D01*
G01X789Y3284D01*
G01X828Y3330D01*
G01X869Y3374D01*
G01X911Y3417D01*
G01X954Y3459D01*
G01X999Y3499D01*
G01X1045Y3538D01*
G01X1093Y3575D01*
G01X1141Y3610D01*
G01X1191Y3644D01*
G01X1242Y3676D01*
G01X1294Y3706D01*
G01X1347Y3735D01*
G01X1401Y3761D01*
G01X1456Y3786D01*
G01X1512Y3809D01*
G01X1568Y3830D01*
G01X1625Y3849D01*
G01X1683Y3866D01*
G01X1741Y3881D01*
G01X1800Y3894D01*
G01X1859Y3906D01*
G01X1918Y3915D01*
G01X1978Y3922D01*
G01X2038Y3927D01*
G01X2098Y3930D01*
G01X2159Y3931D01*
G01X2220Y3930D01*
G01X2281Y3927D01*
G01X2342Y3922D01*
G01X2403Y3914D01*
G01X2463Y3905D01*
G01X2523Y3893D01*
G01X2583Y3880D01*
G01X2642Y3864D01*
G01X2700Y3846D01*
G01X2758Y3826D01*
G01X2816Y3805D01*
G01X2872Y3781D01*
G01X2928Y3755D01*
G01X2982Y3728D01*
G01X3036Y3699D01*
G01X3089Y3667D01*
G01X3140Y3634D01*
G01X3191Y3600D01*
G01X3240Y3563D01*
G01X3288Y3525D01*
G01X3334Y3485D01*
G01X3379Y3444D01*
G01X3423Y3401D01*
G01X3465Y3356D01*
G01X3505Y3311D01*
G01X3544Y3264D01*
G01X3582Y3215D01*
G01X3617Y3165D01*
G01X3651Y3114D01*
G01X3683Y3062D01*
G01X3714Y3009D01*
G01X3742Y2955D01*
G01X3769Y2900D01*
G01X3793Y2844D01*
G01X3816Y2787D01*
G01X3837Y2729D01*
G01X3855Y2671D01*
G01X3872Y2612D01*
G01X3887Y2553D01*
G01X3899Y2493D01*
G01X3903Y2478D01*
G01X3910Y2464D01*
G01X3918Y2450D01*
G01X3928Y2439D01*
G01X3940Y2429D01*
G01X3954Y2421D01*
G01X3968Y2415D01*
G01X3983Y2412D01*
G01X3999Y2410D01*
G01X4013Y2411D01*
G01X4028Y2414D01*
G01X4054Y2426D01*
G01X4066Y2435D01*
G01X4076Y2445D01*
G01X4085Y2457D01*
G01X4097Y2483D01*
G01X4111Y2531D01*
G01X4128Y2577D01*
G01X4147Y2623D01*
G01X4168Y2668D01*
G01X4191Y2712D01*
G01X4216Y2755D01*
G01X4242Y2797D01*
G01X4270Y2838D01*
G01X4300Y2877D01*
G01X4332Y2915D01*
G01X4365Y2952D01*
G01X4400Y2987D01*
G01X4436Y3021D01*
G01X4474Y3053D01*
G01X4513Y3084D01*
G01X4553Y3113D01*
G01X4595Y3140D01*
G01X4637Y3165D01*
G01X4681Y3189D01*
G01X4726Y3210D01*
G01X4771Y3230D01*
G01X4818Y3248D01*
G01X4865Y3263D01*
G01X4912Y3277D01*
G01X4961Y3289D01*
G01X5009Y3298D01*
G01X5058Y3305D01*
G01X5107Y3311D01*
G01X5157Y3314D01*
G01X5207Y3315D01*
G01X5256Y3314D01*
G01X5305Y3311D01*
G01X5353Y3306D01*
G01X5402Y3298D01*
G01X5450Y3289D01*
G01X5498Y3278D01*
G01X5545Y3264D01*
G01X5592Y3249D01*
G01X5638Y3232D01*
G01X5683Y3212D01*
G01X5727Y3191D01*
G01X5771Y3168D01*
G01X5813Y3143D01*
G01X5854Y3117D01*
G01X5894Y3088D01*
G01X5933Y3058D01*
G01X5971Y3027D01*
G01X6007Y2993D01*
G01X6041Y2959D01*
G01X6075Y2923D01*
G01X6106Y2885D01*
G01X6136Y2846D01*
G01X6165Y2806D01*
G01X6191Y2765D01*
G01X6216Y2723D01*
G01X6239Y2679D01*
G01X6260Y2635D01*
G01X6280Y2590D01*
G01X6297Y2544D01*
G01X6312Y2497D01*
G01X6326Y2450D01*
G01X6337Y2402D01*
G01X6346Y2354D01*
G01X6354Y2305D01*
G01X6359Y2257D01*
G01X6362Y2208D01*
G01X6363Y2159D01*
G01X6362Y2109D01*
G01X6359Y2060D01*
G01X6354Y2012D01*
G01X6346Y1963D01*
G01X6337Y1915D01*
G01X6326Y1867D01*
G01X6312Y1820D01*
G01X6297Y1773D01*
G01X6280Y1727D01*
G01X6260Y1682D01*
G01X6239Y1638D01*
G01X6216Y1594D01*
G01X6191Y1552D01*
G01X6165Y1511D01*
G01X6136Y1471D01*
G01X6106Y1432D01*
G01X6075Y1394D01*
G01X6041Y1358D01*
G01X6007Y1324D01*
G01X5971Y1290D01*
G01X5933Y1259D01*
G01X5894Y1229D01*
G01X5854Y1200D01*
G01X5813Y1174D01*
G01X5771Y1149D01*
G01X5727Y1126D01*
G01X5683Y1105D01*
G01X5638Y1085D01*
G01X5592Y1068D01*
G01X5545Y1053D01*
G01X5498Y1039D01*
G01X5450Y1028D01*
G01X5402Y1019D01*
G01X5353Y1011D01*
G01X5305Y1006D01*
G01X5256Y1003D01*
G01X5207Y1002D01*
G01X5157Y1003D01*
G01X5107Y1006D01*
G01X5058Y1012D01*
G01X5009Y1019D01*
G01X4961Y1028D01*
G01X4912Y1040D01*
G01X4865Y1054D01*
G01X4818Y1069D01*
G01X4771Y1087D01*
G01X4726Y1107D01*
G01X4681Y1128D01*
G01X4637Y1152D01*
G01X4595Y1177D01*
G01X4553Y1204D01*
G01X4513Y1233D01*
G01X4474Y1264D01*
G01X4436Y1296D01*
G01X4400Y1330D01*
G01X4365Y1365D01*
G01X4332Y1402D01*
G01X4300Y1440D01*
G01X4270Y1479D01*
G01X4242Y1520D01*
G01X4216Y1562D01*
G01X4191Y1605D01*
G01X4168Y1649D01*
G01X4147Y1694D01*
G01X4128Y1740D01*
G01X4111Y1786D01*
G01X4097Y1834D01*
G01X4085Y1860D01*
G01X4076Y1872D01*
G01X4066Y1882D01*
G01X4054Y1891D01*
G01X4028Y1903D01*
G01X4013Y1906D01*
G01X3999Y1907D01*
G01X3983Y1905D01*
G01X3968Y1902D01*
G01X3954Y1896D01*
G01X3940Y1888D01*
G01X3928Y1878D01*
G01X3918Y1867D01*
G01X3910Y1853D01*
G01X3903Y1839D01*
G01X3899Y1824D01*
G01X3887Y1765D01*
G01X3872Y1705D01*
G01X3856Y1647D01*
G01X3837Y1589D01*
G01X3816Y1531D01*
G01X3794Y1475D01*
G01X3769Y1419D01*
G01X3743Y1364D01*
G01X3715Y1310D01*
G01X3685Y1257D01*
G01X3653Y1205D01*
G01X3619Y1154D01*
G01X3584Y1105D01*
G01X3547Y1056D01*
G01X3508Y1009D01*
G01X3467Y963D01*
G01X3426Y919D01*
G01X3382Y876D01*
G01X3337Y835D01*
G01X3291Y795D01*
G01X3244Y757D01*
G01X3195Y721D01*
G01X3145Y686D01*
G01X3094Y653D01*
G01X3041Y621D01*
G01X2988Y592D01*
G01X2934Y564D01*
G01X2878Y539D01*
G01X2822Y515D01*
G01X2765Y493D01*
G01X2708Y473D01*
G01X2649Y455D01*
G01X2636Y450D01*
G01X2623Y443D01*
G01X2611Y435D01*
G01X2601Y424D01*
G01X2592Y413D01*
G01X2585Y400D01*
G01X2580Y386D01*
G01X2577Y372D01*
G01X2576Y358D01*
G01X2577Y343D01*
G01X2580Y329D01*
G01X2585Y315D01*
G01X2592Y303D01*
G01X2601Y291D01*
G01X2611Y281D01*
G01X2623Y272D01*
G01X2635Y265D01*
G01X2649Y260D01*
G01X2663Y257D01*
G01X2677Y256D01*
G01X23992Y256D01*
G01X24006Y257D01*
G01X24020Y260D01*
G01X24034Y265D01*
G01X24046Y272D01*
G01X24058Y281D01*
G01X24068Y291D01*
G01X24077Y303D01*
G01X24084Y315D01*
G01X24089Y329D01*
G01X24092Y343D01*
G01X24093Y358D01*
G01X24092Y372D01*
G01X24089Y386D01*
G01X24084Y400D01*
G01X24077Y413D01*
G01X24068Y424D01*
G01X24058Y435D01*
G01X24046Y443D01*
G01X24033Y450D01*
G01X24020Y455D01*
G01X23962Y473D01*
G01X23905Y492D01*
G01X23849Y514D01*
G01X23794Y537D01*
G01X23739Y563D01*
G01X23685Y590D01*
G01X23632Y619D01*
G01X23581Y649D01*
G01X23530Y682D01*
G01X23480Y716D01*
G01X23432Y752D01*
G01X23385Y789D01*
G01X23339Y828D01*
G01X23295Y869D01*
G01X23252Y911D01*
G01X23210Y954D01*
G01X23170Y999D01*
G01X23131Y1045D01*
G01X23094Y1093D01*
G01X23059Y1141D01*
G01X23025Y1191D01*
G01X22993Y1242D01*
G01X22963Y1294D01*
G01X22934Y1347D01*
G01X22908Y1401D01*
G01X22883Y1456D01*
G01X22860Y1512D01*
G01X22839Y1568D01*
G01X22820Y1625D01*
G01X22803Y1683D01*
G01X22788Y1741D01*
G01X22775Y1800D01*
G01X22763Y1859D01*
G01X22754Y1918D01*
G01X22747Y1978D01*
G01X22742Y2038D01*
G01X22739Y2098D01*
G01X22738Y2159D01*
G01X22739Y2219D01*
G01X22742Y2279D01*
G01X22747Y2340D01*
G01X22754Y2400D01*
G01X22764Y2460D01*
G01X22775Y2519D01*
G01X22788Y2578D01*
G01X22804Y2637D01*
G01X22821Y2695D01*
G01X22840Y2752D01*
G01X22862Y2809D01*
G01X22885Y2865D01*
G01X22910Y2920D01*
G01X22937Y2974D01*
G01X22965Y3027D01*
G01X22996Y3079D01*
G01X23028Y3131D01*
G01X23062Y3181D01*
G01X23098Y3230D01*
G01X23136Y3277D01*
G01X23175Y3323D01*
G01X23215Y3368D01*
G01X23257Y3412D01*
G01X23301Y3454D01*
G01X23346Y3494D01*
G01X23392Y3533D01*
G01X23439Y3571D01*
G01X23488Y3607D01*
G01X23538Y3641D01*
G01X23590Y3673D01*
G01X23642Y3704D01*
G01X23695Y3732D01*
G01X23749Y3759D01*
G01X23804Y3784D01*
G01X23860Y3807D01*
G01X23917Y3829D01*
G01X23974Y3848D01*
G01X24032Y3865D01*
G01X24091Y3881D01*
G01X24150Y3894D01*
G01X24209Y3905D01*
G01X24269Y3915D01*
G01X24329Y3922D01*
G01X24390Y3927D01*
G01X24450Y3930D01*
G01X24511Y3931D01*
G01X24571Y3930D01*
G01X24631Y3927D01*
G01X24691Y3922D01*
G01X24751Y3915D01*
G01X24810Y3906D01*
G01X24869Y3894D01*
G01X24928Y3881D01*
G01X24986Y3866D01*
G01X25044Y3849D01*
G01X25101Y3830D01*
G01X25157Y3809D01*
G01X25213Y3786D01*
G01X25268Y3761D01*
G01X25322Y3735D01*
G01X25375Y3706D01*
G01X25427Y3676D01*
G01X25478Y3644D01*
G01X25528Y3610D01*
G01X25576Y3575D01*
G01X25624Y3538D01*
G01X25670Y3499D01*
G01X25715Y3459D01*
G01X25758Y3417D01*
G01X25800Y3374D01*
G01X25841Y3330D01*
G01X25880Y3284D01*
G01X25917Y3237D01*
G01X25953Y3189D01*
G01X25987Y3139D01*
G01X26020Y3088D01*
G01X26050Y3037D01*
G01X26079Y2984D01*
G01X26106Y2930D01*
G01X26132Y2875D01*
G01X26155Y2820D01*
G01X26177Y2764D01*
G01X26196Y2707D01*
G01X26214Y2649D01*
G01X26219Y2636D01*
G01X26226Y2623D01*
G01X26234Y2611D01*
G01X26245Y2601D01*
G01X26256Y2592D01*
G01X26269Y2585D01*
G01X26283Y2580D01*
G01X26297Y2577D01*
G01X26311Y2576D01*
G01X26326Y2577D01*
G01X26340Y2580D01*
G01X26354Y2585D01*
G01X26366Y2592D01*
G01X26378Y2601D01*
G01X26388Y2611D01*
G01X26397Y2623D01*
G01X26404Y2635D01*
G01X26409Y2649D01*
G01X26412Y2663D01*
G01X26413Y2677D01*
G01X26413Y27200D01*
G01X26412Y27215D01*
G01X26409Y27229D01*
G01X26404Y27243D01*
G01X26397Y27255D01*
G01X26388Y27267D01*
G01X26378Y27277D01*
G01X26366Y27286D01*
G01X26354Y27293D01*
G01X26340Y27298D01*
G01X26326Y27301D01*
G01X26311Y27302D01*
G01X11401Y27302D01*
G01X11390Y27301D01*
G01X11379Y27302D01*
G01X10806Y27302D01*
G01X10795Y27301D01*
G01X10784Y27302D01*
G01X4201Y27302D01*
G01X4190Y27301D01*
G01X4179Y27302D01*
G01X3606Y27302D01*
G01X3595Y27301D01*
G01X3584Y27302D01*
G37*

%LPC*%
G36*
G01X1954Y24904D02*
G01X1905Y24905D01*
G01X1855Y24904D01*
G01X1806Y24901D01*
G01X1758Y24896D01*
G01X1709Y24888D01*
G01X1661Y24879D01*
G01X1613Y24868D01*
G01X1566Y24854D01*
G01X1519Y24839D01*
G01X1473Y24822D01*
G01X1428Y24802D01*
G01X1384Y24781D01*
G01X1340Y24758D01*
G01X1298Y24733D01*
G01X1257Y24707D01*
G01X1217Y24678D01*
G01X1178Y24648D01*
G01X1140Y24617D01*
G01X1104Y24583D01*
G01X1070Y24549D01*
G01X1036Y24513D01*
G01X1005Y24475D01*
G01X975Y24436D01*
G01X946Y24396D01*
G01X920Y24355D01*
G01X895Y24313D01*
G01X872Y24269D01*
G01X851Y24225D01*
G01X831Y24180D01*
G01X814Y24134D01*
G01X799Y24087D01*
G01X785Y24040D01*
G01X774Y23992D01*
G01X765Y23944D01*
G01X757Y23895D01*
G01X752Y23847D01*
G01X749Y23798D01*
G01X748Y23749D01*
G01X749Y23699D01*
G01X752Y23650D01*
G01X757Y23602D01*
G01X765Y23553D01*
G01X774Y23505D01*
G01X785Y23457D01*
G01X799Y23410D01*
G01X814Y23363D01*
G01X831Y23317D01*
G01X851Y23272D01*
G01X872Y23228D01*
G01X895Y23184D01*
G01X920Y23142D01*
G01X946Y23101D01*
G01X975Y23061D01*
G01X1005Y23022D01*
G01X1036Y22984D01*
G01X1070Y22948D01*
G01X1104Y22914D01*
G01X1140Y22880D01*
G01X1178Y22849D01*
G01X1217Y22819D01*
G01X1257Y22790D01*
G01X1298Y22764D01*
G01X1340Y22739D01*
G01X1384Y22716D01*
G01X1428Y22695D01*
G01X1473Y22675D01*
G01X1519Y22658D01*
G01X1566Y22643D01*
G01X1613Y22629D01*
G01X1661Y22618D01*
G01X1709Y22609D01*
G01X1758Y22601D01*
G01X1806Y22596D01*
G01X1855Y22593D01*
G01X1905Y22592D01*
G01X1965Y22594D01*
G01X2025Y22598D01*
G01X2036Y22599D01*
G01X2052Y22598D01*
G01X2067Y22594D01*
G01X2082Y22588D01*
G01X2096Y22579D01*
G01X2108Y22569D01*
G01X2151Y22526D01*
G01X2161Y22514D01*
G01X2169Y22501D01*
G01X2175Y22486D01*
G01X2179Y22470D01*
G01X2180Y22454D01*
G01X2179Y22440D01*
G01X2176Y22426D01*
G01X2171Y22412D01*
G01X2164Y22400D01*
G01X2156Y22388D01*
G01X2145Y22378D01*
G01X2134Y22369D01*
G01X2121Y22362D01*
G01X2107Y22357D01*
G01X2093Y22354D01*
G01X2079Y22353D01*
G01X2065Y22354D01*
G01X2012Y22360D01*
G01X1958Y22364D01*
G01X1905Y22365D01*
G01X1855Y22364D01*
G01X1806Y22361D01*
G01X1758Y22356D01*
G01X1709Y22348D01*
G01X1661Y22339D01*
G01X1613Y22328D01*
G01X1566Y22314D01*
G01X1519Y22299D01*
G01X1473Y22282D01*
G01X1428Y22262D01*
G01X1384Y22241D01*
G01X1340Y22218D01*
G01X1298Y22193D01*
G01X1257Y22167D01*
G01X1217Y22138D01*
G01X1178Y22108D01*
G01X1140Y22077D01*
G01X1104Y22043D01*
G01X1070Y22009D01*
G01X1036Y21973D01*
G01X1005Y21935D01*
G01X975Y21896D01*
G01X946Y21856D01*
G01X920Y21815D01*
G01X895Y21773D01*
G01X872Y21729D01*
G01X851Y21685D01*
G01X831Y21640D01*
G01X814Y21594D01*
G01X799Y21547D01*
G01X785Y21500D01*
G01X774Y21452D01*
G01X765Y21404D01*
G01X757Y21355D01*
G01X752Y21307D01*
G01X749Y21258D01*
G01X748Y21209D01*
G01X749Y21159D01*
G01X752Y21110D01*
G01X757Y21062D01*
G01X765Y21013D01*
G01X774Y20965D01*
G01X785Y20917D01*
G01X799Y20870D01*
G01X814Y20823D01*
G01X831Y20777D01*
G01X851Y20732D01*
G01X872Y20688D01*
G01X895Y20644D01*
G01X920Y20602D01*
G01X946Y20561D01*
G01X975Y20521D01*
G01X1005Y20482D01*
G01X1036Y20444D01*
G01X1070Y20408D01*
G01X1104Y20374D01*
G01X1140Y20340D01*
G01X1178Y20309D01*
G01X1217Y20279D01*
G01X1257Y20250D01*
G01X1298Y20224D01*
G01X1340Y20199D01*
G01X1384Y20176D01*
G01X1428Y20155D01*
G01X1473Y20135D01*
G01X1519Y20118D01*
G01X1566Y20103D01*
G01X1613Y20089D01*
G01X1661Y20078D01*
G01X1709Y20069D01*
G01X1758Y20061D01*
G01X1806Y20056D01*
G01X1855Y20053D01*
G01X1905Y20052D01*
G01X1955Y20053D01*
G01X2006Y20056D01*
G01X2057Y20062D01*
G01X2107Y20070D01*
G01X2157Y20080D01*
G01X2206Y20092D01*
G01X2255Y20106D01*
G01X2303Y20123D01*
G01X2351Y20142D01*
G01X2370Y20147D01*
G01X2390Y20149D01*
G01X2405Y20148D01*
G01X2420Y20145D01*
G01X2435Y20139D01*
G01X2448Y20131D01*
G01X2472Y20116D01*
G01X2498Y20102D01*
G01X2525Y20090D01*
G01X2552Y20080D01*
G01X2580Y20073D01*
G01X2609Y20067D01*
G01X2637Y20064D01*
G01X2667Y20063D01*
G01X7546Y20063D01*
G01X7561Y20062D01*
G01X7577Y20058D01*
G01X7592Y20052D01*
G01X7605Y20044D01*
G01X7617Y20033D01*
G01X7714Y19936D01*
G01X7725Y19924D01*
G01X7733Y19911D01*
G01X7739Y19896D01*
G01X7743Y19880D01*
G01X7744Y19865D01*
G01X7744Y17018D01*
G01X7745Y16989D01*
G01X7748Y16961D01*
G01X7753Y16933D01*
G01X7761Y16906D01*
G01X7770Y16879D01*
G01X7781Y16853D01*
G01X7794Y16828D01*
G01X7809Y16804D01*
G01X7825Y16781D01*
G01X7863Y16739D01*
G01X9282Y15578D01*
G01X9305Y15560D01*
G01X9330Y15544D01*
G01X9355Y15530D01*
G01X9382Y15518D01*
G01X9409Y15509D01*
G01X9438Y15501D01*
G01X9466Y15495D01*
G01X9495Y15492D01*
G01X9525Y15491D01*
G01X14912Y15491D01*
G01X14927Y15490D01*
G01X14943Y15486D01*
G01X14958Y15480D01*
G01X14971Y15472D01*
G01X14983Y15461D01*
G01X17569Y12875D01*
G01X17579Y12864D01*
G01X17587Y12851D01*
G01X17593Y12837D01*
G01X17597Y12822D01*
G01X17599Y12807D01*
G01X17601Y12773D01*
G01X17605Y12738D01*
G01X17612Y12705D01*
G01X17620Y12671D01*
G01X17631Y12638D01*
G01X17644Y12606D01*
G01X17658Y12575D01*
G01X17674Y12544D01*
G01X17693Y12515D01*
G01X17713Y12487D01*
G01X17734Y12460D01*
G01X17758Y12434D01*
G01X17783Y12410D01*
G01X17809Y12388D01*
G01X17836Y12367D01*
G01X17865Y12348D01*
G01X17895Y12331D01*
G01X17926Y12316D01*
G01X17958Y12302D01*
G01X17990Y12291D01*
G01X18024Y12281D01*
G01X18057Y12274D01*
G01X18092Y12269D01*
G01X18126Y12266D01*
G01X18161Y12264D01*
G01X18194Y12265D01*
G01X18228Y12269D01*
G01X18262Y12274D01*
G01X18295Y12281D01*
G01X18328Y12290D01*
G01X18360Y12301D01*
G01X18391Y12314D01*
G01X18422Y12329D01*
G01X18451Y12346D01*
G01X18480Y12364D01*
G01X18507Y12384D01*
G01X18533Y12406D01*
G01X18558Y12429D01*
G01X18581Y12454D01*
G01X18603Y12480D01*
G01X18623Y12507D01*
G01X18641Y12536D01*
G01X18658Y12565D01*
G01X18673Y12596D01*
G01X18686Y12627D01*
G01X18697Y12659D01*
G01X18706Y12692D01*
G01X18713Y12725D01*
G01X18718Y12759D01*
G01X18722Y12793D01*
G01X18723Y12827D01*
G01X18721Y12861D01*
G01X18718Y12895D01*
G01X18713Y12930D01*
G01X18706Y12963D01*
G01X18696Y12997D01*
G01X18685Y13029D01*
G01X18671Y13061D01*
G01X18656Y13092D01*
G01X18639Y13122D01*
G01X18620Y13151D01*
G01X18599Y13178D01*
G01X18577Y13204D01*
G01X18553Y13229D01*
G01X18527Y13253D01*
G01X18500Y13274D01*
G01X18472Y13294D01*
G01X18443Y13313D01*
G01X18412Y13329D01*
G01X18381Y13343D01*
G01X18349Y13356D01*
G01X18316Y13367D01*
G01X18282Y13375D01*
G01X18249Y13382D01*
G01X18214Y13386D01*
G01X18180Y13388D01*
G01X18165Y13390D01*
G01X18150Y13394D01*
G01X18136Y13400D01*
G01X18123Y13408D01*
G01X18112Y13418D01*
G01X15384Y16146D01*
G01X15362Y16166D01*
G01X15338Y16185D01*
G01X15313Y16202D01*
G01X15287Y16216D01*
G01X15259Y16229D01*
G01X15231Y16239D01*
G01X15202Y16247D01*
G01X15172Y16253D01*
G01X15143Y16257D01*
G01X15113Y16258D01*
G01X9796Y16258D01*
G01X9781Y16259D01*
G01X9767Y16262D01*
G01X9754Y16267D01*
G01X9741Y16274D01*
G01X9729Y16283D01*
G01X9719Y16293D01*
G01X9710Y16305D01*
G01X9703Y16317D01*
G01X9698Y16331D01*
G01X9695Y16345D01*
G01X9694Y16360D01*
G01X9695Y16375D01*
G01X9699Y16391D01*
G01X9705Y16405D01*
G01X9713Y16419D01*
G01X9723Y16431D01*
G01X9735Y16441D01*
G01X9781Y16480D01*
G01X9793Y16489D01*
G01X9806Y16497D01*
G01X9820Y16502D01*
G01X9835Y16506D01*
G01X9850Y16507D01*
G01X13970Y16507D01*
G01X14000Y16508D01*
G01X14029Y16512D01*
G01X14059Y16518D01*
G01X14088Y16526D01*
G01X14116Y16536D01*
G01X14144Y16549D01*
G01X14170Y16563D01*
G01X14195Y16580D01*
G01X14219Y16599D01*
G01X14241Y16619D01*
G01X15511Y17889D01*
G01X15531Y17911D01*
G01X15550Y17935D01*
G01X15567Y17960D01*
G01X15581Y17986D01*
G01X15594Y18014D01*
G01X15604Y18042D01*
G01X15612Y18071D01*
G01X15618Y18101D01*
G01X15622Y18130D01*
G01X15623Y18161D01*
G01X15623Y19611D01*
G01X15624Y19626D01*
G01X15628Y19642D01*
G01X15634Y19657D01*
G01X15642Y19670D01*
G01X15653Y19682D01*
G01X15953Y19982D01*
G01X15964Y19992D01*
G01X15977Y20000D01*
G01X15991Y20006D01*
G01X16006Y20010D01*
G01X16021Y20012D01*
G01X16055Y20014D01*
G01X16090Y20018D01*
G01X16123Y20025D01*
G01X16157Y20033D01*
G01X16190Y20044D01*
G01X16222Y20057D01*
G01X16253Y20071D01*
G01X16284Y20087D01*
G01X16313Y20106D01*
G01X16341Y20126D01*
G01X16368Y20147D01*
G01X16394Y20171D01*
G01X16418Y20196D01*
G01X16440Y20222D01*
G01X16461Y20249D01*
G01X16480Y20278D01*
G01X16497Y20308D01*
G01X16512Y20339D01*
G01X16526Y20371D01*
G01X16537Y20403D01*
G01X16547Y20437D01*
G01X16554Y20470D01*
G01X16559Y20505D01*
G01X16562Y20539D01*
G01X16564Y20574D01*
G01X16563Y20607D01*
G01X16559Y20641D01*
G01X16554Y20675D01*
G01X16547Y20708D01*
G01X16538Y20741D01*
G01X16527Y20773D01*
G01X16514Y20804D01*
G01X16499Y20835D01*
G01X16482Y20864D01*
G01X16464Y20893D01*
G01X16444Y20920D01*
G01X16422Y20946D01*
G01X16399Y20971D01*
G01X16374Y20994D01*
G01X16348Y21016D01*
G01X16321Y21036D01*
G01X16292Y21054D01*
G01X16263Y21071D01*
G01X16232Y21086D01*
G01X16201Y21099D01*
G01X16169Y21110D01*
G01X16136Y21119D01*
G01X16103Y21126D01*
G01X16069Y21131D01*
G01X16035Y21135D01*
G01X16002Y21136D01*
G01X15967Y21134D01*
G01X15933Y21131D01*
G01X15898Y21126D01*
G01X15865Y21119D01*
G01X15831Y21109D01*
G01X15799Y21098D01*
G01X15767Y21084D01*
G01X15736Y21069D01*
G01X15706Y21052D01*
G01X15677Y21033D01*
G01X15650Y21012D01*
G01X15624Y20990D01*
G01X15599Y20966D01*
G01X15575Y20940D01*
G01X15554Y20913D01*
G01X15534Y20885D01*
G01X15515Y20856D01*
G01X15499Y20825D01*
G01X15485Y20794D01*
G01X15472Y20762D01*
G01X15461Y20729D01*
G01X15453Y20695D01*
G01X15446Y20662D01*
G01X15442Y20627D01*
G01X15440Y20593D01*
G01X15438Y20578D01*
G01X15434Y20563D01*
G01X15428Y20549D01*
G01X15420Y20536D01*
G01X15410Y20524D01*
G01X14968Y20083D01*
G01X14948Y20061D01*
G01X14929Y20037D01*
G01X14912Y20012D01*
G01X14898Y19986D01*
G01X14885Y19958D01*
G01X14875Y19930D01*
G01X14867Y19901D01*
G01X14861Y19871D01*
G01X14857Y19842D01*
G01X14856Y19812D01*
G01X14856Y18361D01*
G01X14855Y18346D01*
G01X14851Y18330D01*
G01X14845Y18315D01*
G01X14837Y18302D01*
G01X14826Y18290D01*
G01X13840Y17304D01*
G01X13828Y17293D01*
G01X13815Y17285D01*
G01X13800Y17279D01*
G01X13784Y17275D01*
G01X13769Y17274D01*
G01X9850Y17274D01*
G01X9835Y17275D01*
G01X9820Y17279D01*
G01X9806Y17284D01*
G01X9793Y17292D01*
G01X9781Y17301D01*
G01X9756Y17324D01*
G01X9729Y17345D01*
G01X9701Y17364D01*
G01X9672Y17381D01*
G01X9642Y17397D01*
G01X9611Y17411D01*
G01X9593Y17420D01*
G01X9577Y17433D01*
G01X9333Y17677D01*
G01X9323Y17689D01*
G01X9315Y17702D01*
G01X9308Y17717D01*
G01X9305Y17733D01*
G01X9304Y17749D01*
G01X9304Y20791D01*
G01X9306Y20811D01*
G01X9311Y20830D01*
G01X9324Y20864D01*
G01X9335Y20900D01*
G01X9344Y20936D01*
G01X9350Y20972D01*
G01X9353Y21009D01*
G01X9355Y21046D01*
G01X9354Y21080D01*
G01X9350Y21114D01*
G01X9345Y21147D01*
G01X9338Y21180D01*
G01X9329Y21213D01*
G01X9318Y21245D01*
G01X9305Y21277D01*
G01X9290Y21307D01*
G01X9273Y21337D01*
G01X9255Y21365D01*
G01X9235Y21393D01*
G01X9213Y21419D01*
G01X9190Y21443D01*
G01X9165Y21467D01*
G01X9139Y21488D01*
G01X9112Y21508D01*
G01X9083Y21527D01*
G01X9054Y21544D01*
G01X9023Y21558D01*
G01X8992Y21571D01*
G01X8960Y21583D01*
G01X8927Y21592D01*
G01X8894Y21599D01*
G01X8860Y21604D01*
G01X8826Y21607D01*
G01X8792Y21608D01*
G01X8755Y21607D01*
G01X8718Y21603D01*
G01X8682Y21597D01*
G01X8646Y21588D01*
G01X8610Y21578D01*
G01X8575Y21564D01*
G01X8556Y21558D01*
G01X8536Y21556D01*
G01X4607Y21556D01*
G01X4591Y21558D01*
G01X4575Y21561D01*
G01X4561Y21568D01*
G01X4547Y21576D01*
G01X4535Y21586D01*
G01X2974Y23147D01*
G01X2964Y23159D01*
G01X2955Y23173D01*
G01X2949Y23188D01*
G01X2945Y23203D01*
G01X2944Y23219D01*
G01X2945Y23234D01*
G01X2948Y23248D01*
G01X2954Y23262D01*
G01X2974Y23308D01*
G01X2992Y23355D01*
G01X3008Y23402D01*
G01X3022Y23450D01*
G01X3034Y23499D01*
G01X3044Y23549D01*
G01X3051Y23598D01*
G01X3057Y23648D01*
G01X3060Y23698D01*
G01X3061Y23749D01*
G01X3060Y23798D01*
G01X3057Y23847D01*
G01X3052Y23895D01*
G01X3044Y23944D01*
G01X3035Y23992D01*
G01X3024Y24040D01*
G01X3010Y24087D01*
G01X2995Y24134D01*
G01X2978Y24180D01*
G01X2958Y24225D01*
G01X2937Y24269D01*
G01X2914Y24313D01*
G01X2889Y24355D01*
G01X2863Y24396D01*
G01X2834Y24436D01*
G01X2804Y24475D01*
G01X2773Y24513D01*
G01X2739Y24549D01*
G01X2705Y24583D01*
G01X2669Y24617D01*
G01X2631Y24648D01*
G01X2592Y24678D01*
G01X2552Y24707D01*
G01X2511Y24733D01*
G01X2469Y24758D01*
G01X2425Y24781D01*
G01X2381Y24802D01*
G01X2336Y24822D01*
G01X2290Y24839D01*
G01X2243Y24854D01*
G01X2196Y24868D01*
G01X2148Y24879D01*
G01X2100Y24888D01*
G01X2051Y24896D01*
G01X2003Y24901D01*
G01X1954Y24904D01*
G37*
G36*
G01X1955Y12204D02*
G01X1905Y12205D01*
G01X1855Y12204D01*
G01X1806Y12201D01*
G01X1758Y12196D01*
G01X1709Y12188D01*
G01X1661Y12179D01*
G01X1613Y12168D01*
G01X1566Y12154D01*
G01X1519Y12139D01*
G01X1473Y12122D01*
G01X1428Y12102D01*
G01X1384Y12081D01*
G01X1340Y12058D01*
G01X1298Y12033D01*
G01X1257Y12007D01*
G01X1217Y11978D01*
G01X1178Y11948D01*
G01X1140Y11917D01*
G01X1104Y11883D01*
G01X1070Y11849D01*
G01X1036Y11813D01*
G01X1005Y11775D01*
G01X975Y11736D01*
G01X946Y11696D01*
G01X920Y11655D01*
G01X895Y11613D01*
G01X872Y11569D01*
G01X851Y11525D01*
G01X831Y11480D01*
G01X814Y11434D01*
G01X799Y11387D01*
G01X785Y11340D01*
G01X774Y11292D01*
G01X765Y11244D01*
G01X757Y11195D01*
G01X752Y11147D01*
G01X749Y11098D01*
G01X748Y11049D01*
G01X749Y10999D01*
G01X752Y10950D01*
G01X757Y10901D01*
G01X765Y10853D01*
G01X774Y10804D01*
G01X785Y10757D01*
G01X799Y10709D01*
G01X814Y10663D01*
G01X832Y10617D01*
G01X851Y10571D01*
G01X872Y10527D01*
G01X895Y10484D01*
G01X920Y10441D01*
G01X947Y10400D01*
G01X975Y10360D01*
G01X1006Y10321D01*
G01X1037Y10283D01*
G01X1071Y10247D01*
G01X1105Y10212D01*
G01X1142Y10179D01*
G01X1179Y10147D01*
G01X1218Y10117D01*
G01X1259Y10089D01*
G01X1300Y10063D01*
G01X1342Y10038D01*
G01X1386Y10015D01*
G01X1430Y9994D01*
G01X1476Y9974D01*
G01X1522Y9957D01*
G01X1568Y9942D01*
G01X1616Y9929D01*
G01X1664Y9917D01*
G01X1712Y9908D01*
G01X1761Y9901D01*
G01X1775Y9898D01*
G01X1789Y9893D01*
G01X1802Y9886D01*
G01X1814Y9878D01*
G01X1824Y9867D01*
G01X1833Y9856D01*
G01X1840Y9843D01*
G01X1845Y9829D01*
G01X1849Y9815D01*
G01X1850Y9800D01*
G01X1848Y9784D01*
G01X1845Y9769D01*
G01X1839Y9754D01*
G01X1830Y9740D01*
G01X1820Y9728D01*
G01X1769Y9678D01*
G01X1757Y9667D01*
G01X1744Y9659D01*
G01X1729Y9653D01*
G01X1714Y9649D01*
G01X1666Y9640D01*
G01X1618Y9629D01*
G01X1570Y9616D01*
G01X1523Y9600D01*
G01X1477Y9583D01*
G01X1432Y9564D01*
G01X1387Y9543D01*
G01X1344Y9520D01*
G01X1301Y9495D01*
G01X1260Y9469D01*
G01X1220Y9440D01*
G01X1180Y9410D01*
G01X1143Y9379D01*
G01X1106Y9346D01*
G01X1071Y9311D01*
G01X1038Y9275D01*
G01X1006Y9237D01*
G01X976Y9198D01*
G01X948Y9158D01*
G01X921Y9117D01*
G01X896Y9074D01*
G01X873Y9031D01*
G01X851Y8986D01*
G01X832Y8941D01*
G01X814Y8895D01*
G01X799Y8848D01*
G01X786Y8801D01*
G01X774Y8753D01*
G01X765Y8705D01*
G01X757Y8656D01*
G01X752Y8607D01*
G01X749Y8558D01*
G01X748Y8509D01*
G01X749Y8459D01*
G01X752Y8410D01*
G01X757Y8362D01*
G01X765Y8313D01*
G01X774Y8265D01*
G01X785Y8217D01*
G01X799Y8170D01*
G01X814Y8123D01*
G01X831Y8077D01*
G01X851Y8032D01*
G01X872Y7988D01*
G01X895Y7944D01*
G01X920Y7902D01*
G01X946Y7861D01*
G01X975Y7821D01*
G01X1005Y7782D01*
G01X1036Y7744D01*
G01X1070Y7708D01*
G01X1104Y7674D01*
G01X1140Y7640D01*
G01X1178Y7609D01*
G01X1217Y7579D01*
G01X1257Y7550D01*
G01X1298Y7524D01*
G01X1340Y7499D01*
G01X1384Y7476D01*
G01X1428Y7455D01*
G01X1473Y7435D01*
G01X1519Y7418D01*
G01X1566Y7403D01*
G01X1613Y7389D01*
G01X1661Y7378D01*
G01X1709Y7369D01*
G01X1758Y7361D01*
G01X1806Y7356D01*
G01X1855Y7353D01*
G01X1905Y7352D01*
G01X1954Y7353D01*
G01X2003Y7356D01*
G01X2051Y7361D01*
G01X2100Y7369D01*
G01X2148Y7378D01*
G01X2196Y7389D01*
G01X2243Y7403D01*
G01X2290Y7418D01*
G01X2336Y7435D01*
G01X2381Y7455D01*
G01X2425Y7476D01*
G01X2469Y7499D01*
G01X2511Y7524D01*
G01X2552Y7550D01*
G01X2592Y7579D01*
G01X2631Y7609D01*
G01X2669Y7640D01*
G01X2705Y7674D01*
G01X2739Y7708D01*
G01X2773Y7744D01*
G01X2804Y7782D01*
G01X2834Y7821D01*
G01X2863Y7861D01*
G01X2889Y7902D01*
G01X2914Y7944D01*
G01X2937Y7988D01*
G01X2958Y8032D01*
G01X2978Y8077D01*
G01X2995Y8123D01*
G01X3010Y8170D01*
G01X3024Y8217D01*
G01X3035Y8265D01*
G01X3044Y8313D01*
G01X3052Y8362D01*
G01X3057Y8410D01*
G01X3060Y8459D01*
G01X3061Y8509D01*
G01X3060Y8559D01*
G01X3057Y8609D01*
G01X3051Y8659D01*
G01X3044Y8709D01*
G01X3034Y8759D01*
G01X3022Y8808D01*
G01X3008Y8856D01*
G01X2991Y8904D01*
G01X2973Y8951D01*
G01X2953Y8997D01*
G01X2931Y9042D01*
G01X2906Y9086D01*
G01X2880Y9129D01*
G01X2852Y9171D01*
G01X2823Y9212D01*
G01X2791Y9251D01*
G01X2758Y9289D01*
G01X2723Y9326D01*
G01X2687Y9360D01*
G01X2675Y9373D01*
G01X2666Y9387D01*
G01X2659Y9402D01*
G01X2655Y9419D01*
G01X2654Y9435D01*
G01X2655Y9451D01*
G01X2659Y9467D01*
G01X2665Y9481D01*
G01X2673Y9495D01*
G01X2684Y9507D01*
G01X2797Y9621D01*
G01X2809Y9631D01*
G01X2823Y9639D01*
G01X2837Y9645D01*
G01X2853Y9649D01*
G01X2869Y9650D01*
G01X2883Y9649D01*
G01X2898Y9646D01*
G01X2911Y9641D01*
G01X2924Y9634D01*
G01X2936Y9625D01*
G01X2946Y9615D01*
G01X2955Y9603D01*
G01X2974Y9575D01*
G01X2995Y9548D01*
G01X3017Y9523D01*
G01X3041Y9499D01*
G01X3066Y9476D01*
G01X3093Y9455D01*
G01X3121Y9435D01*
G01X3150Y9417D01*
G01X3180Y9401D01*
G01X3211Y9387D01*
G01X3243Y9375D01*
G01X3275Y9365D01*
G01X3308Y9357D01*
G01X3341Y9350D01*
G01X3375Y9346D01*
G01X3409Y9344D01*
G01X3424Y9342D01*
G01X3439Y9338D01*
G01X3453Y9332D01*
G01X3466Y9324D01*
G01X3478Y9314D01*
G01X8999Y3792D01*
G01X9021Y3772D01*
G01X9045Y3753D01*
G01X9070Y3736D01*
G01X9096Y3722D01*
G01X9124Y3709D01*
G01X9152Y3699D01*
G01X9181Y3691D01*
G01X9211Y3685D01*
G01X9240Y3681D01*
G01X9271Y3680D01*
G01X14023Y3680D01*
G01X14038Y3679D01*
G01X14054Y3675D01*
G01X14069Y3669D01*
G01X14082Y3661D01*
G01X14094Y3650D01*
G01X14718Y3026D01*
G01X14728Y3014D01*
G01X14737Y3001D01*
G01X14743Y2986D01*
G01X14747Y2971D01*
G01X14748Y2955D01*
G01X14746Y2937D01*
G01X14742Y2921D01*
G01X14735Y2905D01*
G01X14725Y2890D01*
G01X14694Y2851D01*
G01X14666Y2811D01*
G01X14639Y2770D01*
G01X14613Y2727D01*
G01X14590Y2683D01*
G01X14568Y2639D01*
G01X14549Y2593D01*
G01X14531Y2547D01*
G01X14516Y2500D01*
G01X14502Y2452D01*
G01X14490Y2404D01*
G01X14481Y2356D01*
G01X14473Y2307D01*
G01X14468Y2257D01*
G01X14465Y2208D01*
G01X14464Y2159D01*
G01X14465Y2109D01*
G01X14468Y2060D01*
G01X14473Y2012D01*
G01X14481Y1963D01*
G01X14490Y1915D01*
G01X14501Y1867D01*
G01X14515Y1820D01*
G01X14530Y1773D01*
G01X14547Y1727D01*
G01X14567Y1682D01*
G01X14588Y1638D01*
G01X14611Y1594D01*
G01X14636Y1552D01*
G01X14662Y1511D01*
G01X14691Y1471D01*
G01X14721Y1432D01*
G01X14752Y1394D01*
G01X14786Y1358D01*
G01X14820Y1324D01*
G01X14856Y1290D01*
G01X14894Y1259D01*
G01X14933Y1229D01*
G01X14973Y1200D01*
G01X15014Y1174D01*
G01X15056Y1149D01*
G01X15100Y1126D01*
G01X15144Y1105D01*
G01X15189Y1085D01*
G01X15235Y1068D01*
G01X15282Y1053D01*
G01X15329Y1039D01*
G01X15377Y1028D01*
G01X15425Y1019D01*
G01X15474Y1011D01*
G01X15522Y1006D01*
G01X15571Y1003D01*
G01X15621Y1002D01*
G01X15670Y1003D01*
G01X15719Y1006D01*
G01X15767Y1011D01*
G01X15816Y1019D01*
G01X15864Y1028D01*
G01X15912Y1039D01*
G01X15959Y1053D01*
G01X16006Y1068D01*
G01X16052Y1085D01*
G01X16097Y1105D01*
G01X16141Y1126D01*
G01X16185Y1149D01*
G01X16227Y1174D01*
G01X16268Y1200D01*
G01X16308Y1229D01*
G01X16347Y1259D01*
G01X16385Y1290D01*
G01X16421Y1324D01*
G01X16455Y1358D01*
G01X16489Y1394D01*
G01X16520Y1432D01*
G01X16550Y1471D01*
G01X16579Y1511D01*
G01X16605Y1552D01*
G01X16630Y1594D01*
G01X16653Y1638D01*
G01X16674Y1682D01*
G01X16694Y1727D01*
G01X16711Y1773D01*
G01X16726Y1820D01*
G01X16740Y1867D01*
G01X16751Y1915D01*
G01X16760Y1963D01*
G01X16768Y2012D01*
G01X16773Y2060D01*
G01X16776Y2109D01*
G01X16777Y2159D01*
G01X16776Y2208D01*
G01X16773Y2257D01*
G01X16768Y2305D01*
G01X16760Y2354D01*
G01X16751Y2402D01*
G01X16740Y2450D01*
G01X16726Y2497D01*
G01X16711Y2544D01*
G01X16694Y2590D01*
G01X16674Y2635D01*
G01X16653Y2679D01*
G01X16630Y2723D01*
G01X16605Y2765D01*
G01X16579Y2806D01*
G01X16550Y2846D01*
G01X16520Y2885D01*
G01X16489Y2923D01*
G01X16455Y2959D01*
G01X16421Y2993D01*
G01X16385Y3027D01*
G01X16347Y3058D01*
G01X16308Y3088D01*
G01X16268Y3117D01*
G01X16227Y3143D01*
G01X16185Y3168D01*
G01X16141Y3191D01*
G01X16097Y3212D01*
G01X16052Y3232D01*
G01X16006Y3249D01*
G01X15959Y3264D01*
G01X15912Y3278D01*
G01X15864Y3289D01*
G01X15816Y3298D01*
G01X15767Y3306D01*
G01X15719Y3311D01*
G01X15670Y3314D01*
G01X15621Y3315D01*
G01X15563Y3314D01*
G01X15558Y3313D01*
G01X15542Y3315D01*
G01X15527Y3318D01*
G01X15512Y3325D01*
G01X15498Y3333D01*
G01X15486Y3343D01*
G01X14495Y4335D01*
G01X14473Y4355D01*
G01X14449Y4374D01*
G01X14424Y4391D01*
G01X14398Y4405D01*
G01X14370Y4418D01*
G01X14342Y4428D01*
G01X14313Y4436D01*
G01X14283Y4442D01*
G01X14254Y4446D01*
G01X14224Y4447D01*
G01X9471Y4447D01*
G01X9456Y4448D01*
G01X9440Y4452D01*
G01X9425Y4458D01*
G01X9412Y4466D01*
G01X9400Y4477D01*
G01X4020Y9856D01*
G01X4010Y9868D01*
G01X4002Y9881D01*
G01X3996Y9895D01*
G01X3992Y9910D01*
G01X3990Y9925D01*
G01X3988Y9959D01*
G01X3984Y9993D01*
G01X3977Y10026D01*
G01X3969Y10059D01*
G01X3959Y10091D01*
G01X3947Y10123D01*
G01X3933Y10154D01*
G01X3917Y10184D01*
G01X3899Y10213D01*
G01X3879Y10241D01*
G01X3858Y10268D01*
G01X3835Y10293D01*
G01X3811Y10317D01*
G01X3786Y10339D01*
G01X3759Y10360D01*
G01X3731Y10379D01*
G01X3719Y10388D01*
G01X3709Y10398D01*
G01X3700Y10410D01*
G01X3693Y10423D01*
G01X3688Y10436D01*
G01X3685Y10451D01*
G01X3684Y10465D01*
G01X3685Y10481D01*
G01X3689Y10497D01*
G01X3695Y10511D01*
G01X3703Y10525D01*
G01X3713Y10537D01*
G01X3812Y10635D01*
G01X3824Y10646D01*
G01X3837Y10654D01*
G01X3852Y10660D01*
G01X3868Y10664D01*
G01X3883Y10665D01*
G01X6403Y10665D01*
G01X6418Y10664D01*
G01X6434Y10660D01*
G01X6449Y10654D01*
G01X6462Y10646D01*
G01X6474Y10635D01*
G01X8984Y8125D01*
G01X8995Y8113D01*
G01X9003Y8100D01*
G01X9009Y8085D01*
G01X9013Y8069D01*
G01X9014Y8054D01*
G01X9014Y6731D01*
G01X9015Y6700D01*
G01X9019Y6671D01*
G01X9025Y6641D01*
G01X9033Y6612D01*
G01X9043Y6584D01*
G01X9056Y6556D01*
G01X9070Y6530D01*
G01X9087Y6505D01*
G01X9106Y6481D01*
G01X9126Y6459D01*
G01X9761Y5824D01*
G01X9783Y5804D01*
G01X9807Y5786D01*
G01X9831Y5769D01*
G01X9857Y5754D01*
G01X9884Y5742D01*
G01X9912Y5731D01*
G01X9941Y5723D01*
G01X9970Y5717D01*
G01X9985Y5713D01*
G01X9999Y5708D01*
G01X10012Y5700D01*
G01X10024Y5690D01*
G01X10051Y5666D01*
G01X10079Y5644D01*
G01X10108Y5623D01*
G01X10139Y5605D01*
G01X10171Y5588D01*
G01X10204Y5574D01*
G01X10237Y5562D01*
G01X10272Y5552D01*
G01X10307Y5544D01*
G01X10342Y5538D01*
G01X10378Y5535D01*
G01X10414Y5533D01*
G01X10447Y5534D01*
G01X10481Y5538D01*
G01X10515Y5543D01*
G01X10548Y5550D01*
G01X10581Y5559D01*
G01X10613Y5570D01*
G01X10644Y5583D01*
G01X10675Y5598D01*
G01X10704Y5615D01*
G01X10733Y5633D01*
G01X10760Y5653D01*
G01X10786Y5675D01*
G01X10811Y5698D01*
G01X10834Y5723D01*
G01X10856Y5749D01*
G01X10876Y5776D01*
G01X10894Y5805D01*
G01X10911Y5834D01*
G01X10926Y5865D01*
G01X10939Y5896D01*
G01X10950Y5928D01*
G01X10959Y5961D01*
G01X10966Y5994D01*
G01X10971Y6028D01*
G01X10975Y6062D01*
G01X10976Y6096D01*
G01X10975Y6129D01*
G01X10971Y6163D01*
G01X10966Y6197D01*
G01X10959Y6230D01*
G01X10950Y6263D01*
G01X10939Y6295D01*
G01X10926Y6326D01*
G01X10911Y6357D01*
G01X10894Y6386D01*
G01X10876Y6415D01*
G01X10856Y6442D01*
G01X10834Y6468D01*
G01X10811Y6493D01*
G01X10786Y6516D01*
G01X10760Y6538D01*
G01X10733Y6558D01*
G01X10704Y6576D01*
G01X10675Y6593D01*
G01X10644Y6608D01*
G01X10613Y6621D01*
G01X10581Y6632D01*
G01X10548Y6641D01*
G01X10515Y6648D01*
G01X10481Y6653D01*
G01X10447Y6657D01*
G01X10414Y6658D01*
G01X10377Y6656D01*
G01X10341Y6653D01*
G01X10305Y6647D01*
G01X10269Y6639D01*
G01X10234Y6628D01*
G01X10200Y6615D01*
G01X10167Y6601D01*
G01X10153Y6595D01*
G01X10138Y6591D01*
G01X10122Y6590D01*
G01X10106Y6591D01*
G01X10091Y6595D01*
G01X10076Y6601D01*
G01X10063Y6610D01*
G01X10050Y6620D01*
G01X9811Y6860D01*
G01X9800Y6872D01*
G01X9792Y6885D01*
G01X9786Y6900D01*
G01X9782Y6916D01*
G01X9781Y6931D01*
G01X9781Y7094D01*
G01X9782Y7109D01*
G01X9785Y7123D01*
G01X9790Y7136D01*
G01X9797Y7149D01*
G01X9806Y7161D01*
G01X9816Y7171D01*
G01X9828Y7180D01*
G01X9840Y7187D01*
G01X9854Y7192D01*
G01X9868Y7195D01*
G01X9883Y7196D01*
G01X9898Y7195D01*
G01X9914Y7191D01*
G01X9928Y7185D01*
G01X9942Y7177D01*
G01X9954Y7167D01*
G01X9964Y7155D01*
G01X9986Y7128D01*
G01X10009Y7102D01*
G01X10034Y7078D01*
G01X10060Y7055D01*
G01X10088Y7034D01*
G01X10117Y7015D01*
G01X10147Y6998D01*
G01X10178Y6982D01*
G01X10210Y6969D01*
G01X10243Y6957D01*
G01X10276Y6948D01*
G01X10310Y6940D01*
G01X10344Y6935D01*
G01X10379Y6932D01*
G01X10414Y6930D01*
G01X10447Y6931D01*
G01X10481Y6935D01*
G01X10515Y6940D01*
G01X10548Y6947D01*
G01X10581Y6956D01*
G01X10613Y6967D01*
G01X10644Y6980D01*
G01X10675Y6995D01*
G01X10704Y7012D01*
G01X10733Y7030D01*
G01X10760Y7050D01*
G01X10786Y7072D01*
G01X10811Y7095D01*
G01X10834Y7120D01*
G01X10856Y7146D01*
G01X10876Y7173D01*
G01X10894Y7202D01*
G01X10911Y7231D01*
G01X10926Y7262D01*
G01X10939Y7293D01*
G01X10950Y7325D01*
G01X10959Y7358D01*
G01X10966Y7391D01*
G01X10971Y7425D01*
G01X10975Y7459D01*
G01X10976Y7493D01*
G01X10974Y7528D01*
G01X10971Y7564D01*
G01X10965Y7599D01*
G01X10957Y7634D01*
G01X10947Y7669D01*
G01X10935Y7702D01*
G01X10921Y7735D01*
G01X10904Y7767D01*
G01X10886Y7798D01*
G01X10865Y7827D01*
G01X10843Y7855D01*
G01X10819Y7882D01*
G01X10809Y7894D01*
G01X10801Y7907D01*
G01X10796Y7921D01*
G01X10792Y7936D01*
G01X10786Y7965D01*
G01X10778Y7994D01*
G01X10767Y8022D01*
G01X10755Y8049D01*
G01X10740Y8075D01*
G01X10723Y8099D01*
G01X10705Y8123D01*
G01X10685Y8145D01*
G01X7002Y11828D01*
G01X6980Y11848D01*
G01X6956Y11867D01*
G01X6931Y11884D01*
G01X6905Y11898D01*
G01X6877Y11911D01*
G01X6849Y11921D01*
G01X6820Y11929D01*
G01X6790Y11935D01*
G01X6761Y11939D01*
G01X6731Y11940D01*
G01X2677Y11940D01*
G01X2660Y11941D01*
G01X2644Y11946D01*
G01X2629Y11952D01*
G01X2615Y11961D01*
G01X2574Y11992D01*
G01X2531Y12020D01*
G01X2488Y12047D01*
G01X2443Y12072D01*
G01X2398Y12095D01*
G01X2351Y12115D01*
G01X2304Y12134D01*
G01X2256Y12150D01*
G01X2207Y12165D01*
G01X2157Y12177D01*
G01X2107Y12187D01*
G01X2057Y12195D01*
G01X2006Y12201D01*
G01X1955Y12204D01*
G37*
G36*
G01X22258Y25453D02*
G01X22225Y25454D01*
G01X22191Y25453D01*
G01X22157Y25449D01*
G01X22123Y25444D01*
G01X22090Y25437D01*
G01X22057Y25428D01*
G01X22025Y25417D01*
G01X21994Y25404D01*
G01X21963Y25389D01*
G01X21934Y25372D01*
G01X21905Y25354D01*
G01X21878Y25334D01*
G01X21852Y25312D01*
G01X21827Y25289D01*
G01X21804Y25264D01*
G01X21782Y25238D01*
G01X21762Y25211D01*
G01X21744Y25182D01*
G01X21727Y25153D01*
G01X21712Y25122D01*
G01X21699Y25091D01*
G01X21688Y25059D01*
G01X21679Y25026D01*
G01X21672Y24993D01*
G01X21667Y24959D01*
G01X21663Y24925D01*
G01X21662Y24892D01*
G01X21664Y24854D01*
G01X21667Y24817D01*
G01X21673Y24781D01*
G01X21682Y24745D01*
G01X21693Y24709D01*
G01X21706Y24674D01*
G01X21712Y24655D01*
G01X21714Y24635D01*
G01X21714Y23777D01*
G01X21713Y23762D01*
G01X21710Y23748D01*
G01X21705Y23735D01*
G01X21698Y23722D01*
G01X21689Y23710D01*
G01X21679Y23700D01*
G01X21667Y23691D01*
G01X21655Y23684D01*
G01X21641Y23679D01*
G01X21627Y23676D01*
G01X21612Y23675D01*
G01X21596Y23676D01*
G01X21581Y23680D01*
G01X21566Y23686D01*
G01X21553Y23695D01*
G01X21541Y23705D01*
G01X20464Y24782D01*
G01X20442Y24802D01*
G01X20418Y24821D01*
G01X20393Y24838D01*
G01X20367Y24852D01*
G01X20339Y24865D01*
G01X20311Y24875D01*
G01X20282Y24883D01*
G01X20252Y24889D01*
G01X20223Y24893D01*
G01X20193Y24894D01*
G01X19121Y24894D01*
G01X19106Y24895D01*
G01X19091Y24899D01*
G01X19077Y24904D01*
G01X19064Y24912D01*
G01X19052Y24921D01*
G01X19026Y24945D01*
G01X18998Y24966D01*
G01X18969Y24986D01*
G01X18938Y25004D01*
G01X18907Y25019D01*
G01X18875Y25033D01*
G01X18842Y25045D01*
G01X18808Y25055D01*
G01X18773Y25063D01*
G01X18739Y25068D01*
G01X18704Y25071D01*
G01X18669Y25073D01*
G01X18635Y25072D01*
G01X18601Y25068D01*
G01X18567Y25063D01*
G01X18534Y25056D01*
G01X18501Y25047D01*
G01X18469Y25036D01*
G01X18438Y25023D01*
G01X18407Y25008D01*
G01X18378Y24991D01*
G01X18349Y24973D01*
G01X18322Y24953D01*
G01X18296Y24931D01*
G01X18271Y24908D01*
G01X18248Y24883D01*
G01X18226Y24857D01*
G01X18206Y24830D01*
G01X18188Y24801D01*
G01X18171Y24772D01*
G01X18156Y24741D01*
G01X18143Y24710D01*
G01X18132Y24678D01*
G01X18123Y24645D01*
G01X18116Y24612D01*
G01X18111Y24578D01*
G01X18107Y24544D01*
G01X18106Y24511D01*
G01X18107Y24477D01*
G01X18111Y24443D01*
G01X18116Y24409D01*
G01X18123Y24376D01*
G01X18132Y24343D01*
G01X18143Y24311D01*
G01X18156Y24280D01*
G01X18171Y24249D01*
G01X18188Y24220D01*
G01X18206Y24191D01*
G01X18226Y24164D01*
G01X18248Y24138D01*
G01X18271Y24113D01*
G01X18296Y24090D01*
G01X18322Y24068D01*
G01X18349Y24048D01*
G01X18378Y24030D01*
G01X18407Y24013D01*
G01X18438Y23998D01*
G01X18469Y23985D01*
G01X18501Y23974D01*
G01X18534Y23965D01*
G01X18567Y23958D01*
G01X18601Y23953D01*
G01X18635Y23949D01*
G01X18669Y23948D01*
G01X18704Y23950D01*
G01X18739Y23953D01*
G01X18773Y23958D01*
G01X18808Y23966D01*
G01X18842Y23976D01*
G01X18875Y23988D01*
G01X18907Y24002D01*
G01X18938Y24017D01*
G01X18969Y24035D01*
G01X18998Y24055D01*
G01X19026Y24076D01*
G01X19052Y24100D01*
G01X19064Y24109D01*
G01X19077Y24117D01*
G01X19091Y24122D01*
G01X19106Y24126D01*
G01X19121Y24127D01*
G01X19992Y24127D01*
G01X20007Y24126D01*
G01X20023Y24122D01*
G01X20038Y24116D01*
G01X20051Y24108D01*
G01X20063Y24097D01*
G01X21176Y22984D01*
G01X21187Y22972D01*
G01X21195Y22959D01*
G01X21201Y22944D01*
G01X21205Y22928D01*
G01X21206Y22913D01*
G01X21206Y10795D01*
G01X21207Y10764D01*
G01X21211Y10735D01*
G01X21217Y10705D01*
G01X21225Y10676D01*
G01X21235Y10648D01*
G01X21248Y10620D01*
G01X21262Y10594D01*
G01X21279Y10569D01*
G01X21298Y10545D01*
G01X21318Y10523D01*
G01X23604Y8237D01*
G01X23628Y8216D01*
G01X23638Y8206D01*
G01X23647Y8194D01*
G01X23654Y8182D01*
G01X23659Y8168D01*
G01X23675Y8122D01*
G01X23692Y8076D01*
G01X23711Y8031D01*
G01X23733Y7986D01*
G01X23756Y7943D01*
G01X23780Y7901D01*
G01X23807Y7860D01*
G01X23835Y7820D01*
G01X23865Y7781D01*
G01X23897Y7743D01*
G01X23930Y7707D01*
G01X23965Y7673D01*
G01X24001Y7640D01*
G01X24039Y7608D01*
G01X24078Y7578D01*
G01X24118Y7550D01*
G01X24159Y7523D01*
G01X24201Y7498D01*
G01X24244Y7475D01*
G01X24289Y7454D01*
G01X24334Y7435D01*
G01X24380Y7418D01*
G01X24426Y7403D01*
G01X24473Y7389D01*
G01X24521Y7378D01*
G01X24569Y7369D01*
G01X24618Y7361D01*
G01X24667Y7356D01*
G01X24715Y7353D01*
G01X24765Y7352D01*
G01X24814Y7353D01*
G01X24863Y7356D01*
G01X24911Y7361D01*
G01X24960Y7369D01*
G01X25008Y7378D01*
G01X25056Y7389D01*
G01X25103Y7403D01*
G01X25150Y7418D01*
G01X25196Y7435D01*
G01X25241Y7455D01*
G01X25285Y7476D01*
G01X25329Y7499D01*
G01X25371Y7524D01*
G01X25412Y7550D01*
G01X25452Y7579D01*
G01X25491Y7609D01*
G01X25529Y7640D01*
G01X25565Y7674D01*
G01X25599Y7708D01*
G01X25633Y7744D01*
G01X25664Y7782D01*
G01X25694Y7821D01*
G01X25723Y7861D01*
G01X25749Y7902D01*
G01X25774Y7944D01*
G01X25797Y7988D01*
G01X25818Y8032D01*
G01X25838Y8077D01*
G01X25855Y8123D01*
G01X25870Y8170D01*
G01X25884Y8217D01*
G01X25895Y8265D01*
G01X25904Y8313D01*
G01X25912Y8362D01*
G01X25917Y8410D01*
G01X25920Y8459D01*
G01X25921Y8509D01*
G01X25920Y8558D01*
G01X25917Y8607D01*
G01X25912Y8655D01*
G01X25904Y8704D01*
G01X25895Y8752D01*
G01X25884Y8800D01*
G01X25870Y8847D01*
G01X25855Y8894D01*
G01X25838Y8940D01*
G01X25818Y8985D01*
G01X25797Y9029D01*
G01X25774Y9073D01*
G01X25749Y9115D01*
G01X25723Y9156D01*
G01X25694Y9196D01*
G01X25664Y9235D01*
G01X25633Y9273D01*
G01X25599Y9309D01*
G01X25565Y9343D01*
G01X25529Y9377D01*
G01X25491Y9408D01*
G01X25452Y9438D01*
G01X25412Y9467D01*
G01X25371Y9493D01*
G01X25329Y9518D01*
G01X25285Y9541D01*
G01X25241Y9562D01*
G01X25196Y9582D01*
G01X25150Y9599D01*
G01X25103Y9614D01*
G01X25056Y9628D01*
G01X25008Y9639D01*
G01X24960Y9648D01*
G01X24911Y9656D01*
G01X24863Y9661D01*
G01X24814Y9664D01*
G01X24765Y9665D01*
G01X24715Y9664D01*
G01X24666Y9661D01*
G01X24616Y9655D01*
G01X24567Y9648D01*
G01X24519Y9639D01*
G01X24470Y9627D01*
G01X24423Y9613D01*
G01X24376Y9598D01*
G01X24330Y9580D01*
G01X24284Y9561D01*
G01X24239Y9539D01*
G01X24196Y9516D01*
G01X24153Y9490D01*
G01X24112Y9463D01*
G01X24071Y9434D01*
G01X24032Y9404D01*
G01X23995Y9372D01*
G01X23958Y9338D01*
G01X23924Y9303D01*
G01X23890Y9266D01*
G01X23859Y9228D01*
G01X23848Y9217D01*
G01X23837Y9207D01*
G01X23823Y9199D01*
G01X23809Y9194D01*
G01X23794Y9190D01*
G01X23779Y9189D01*
G01X23763Y9191D01*
G01X23748Y9194D01*
G01X23733Y9200D01*
G01X23719Y9209D01*
G01X23707Y9219D01*
G01X22930Y9997D01*
G01X22919Y10009D01*
G01X22911Y10022D01*
G01X22905Y10037D01*
G01X22901Y10053D01*
G01X22900Y10068D01*
G01X22901Y10083D01*
G01X22904Y10097D01*
G01X22909Y10111D01*
G01X22916Y10123D01*
G01X22925Y10135D01*
G01X22935Y10145D01*
G01X22947Y10154D01*
G01X22959Y10161D01*
G01X22973Y10166D01*
G01X22987Y10169D01*
G01X23002Y10170D01*
G01X23025Y10167D01*
G01X23054Y10162D01*
G01X23084Y10158D01*
G01X23114Y10157D01*
G01X23992Y10157D01*
G01X24009Y10156D01*
G01X24025Y10151D01*
G01X24040Y10145D01*
G01X24054Y10136D01*
G01X24095Y10105D01*
G01X24138Y10077D01*
G01X24181Y10050D01*
G01X24226Y10025D01*
G01X24271Y10002D01*
G01X24318Y9982D01*
G01X24365Y9963D01*
G01X24413Y9947D01*
G01X24462Y9932D01*
G01X24512Y9920D01*
G01X24562Y9910D01*
G01X24612Y9902D01*
G01X24663Y9896D01*
G01X24714Y9893D01*
G01X24765Y9892D01*
G01X24814Y9893D01*
G01X24863Y9896D01*
G01X24911Y9901D01*
G01X24960Y9909D01*
G01X25008Y9918D01*
G01X25056Y9929D01*
G01X25103Y9943D01*
G01X25150Y9958D01*
G01X25196Y9975D01*
G01X25241Y9995D01*
G01X25285Y10016D01*
G01X25329Y10039D01*
G01X25371Y10064D01*
G01X25412Y10090D01*
G01X25452Y10119D01*
G01X25491Y10149D01*
G01X25529Y10180D01*
G01X25565Y10214D01*
G01X25599Y10248D01*
G01X25633Y10284D01*
G01X25664Y10322D01*
G01X25694Y10361D01*
G01X25723Y10401D01*
G01X25749Y10442D01*
G01X25774Y10484D01*
G01X25797Y10528D01*
G01X25818Y10572D01*
G01X25838Y10617D01*
G01X25855Y10663D01*
G01X25870Y10710D01*
G01X25884Y10757D01*
G01X25895Y10805D01*
G01X25904Y10853D01*
G01X25912Y10902D01*
G01X25917Y10950D01*
G01X25920Y10999D01*
G01X25921Y11049D01*
G01X25920Y11098D01*
G01X25917Y11147D01*
G01X25912Y11195D01*
G01X25904Y11244D01*
G01X25895Y11292D01*
G01X25884Y11340D01*
G01X25870Y11387D01*
G01X25855Y11434D01*
G01X25838Y11480D01*
G01X25818Y11525D01*
G01X25797Y11569D01*
G01X25774Y11613D01*
G01X25749Y11655D01*
G01X25723Y11696D01*
G01X25694Y11736D01*
G01X25664Y11775D01*
G01X25633Y11813D01*
G01X25599Y11849D01*
G01X25565Y11883D01*
G01X25529Y11917D01*
G01X25491Y11948D01*
G01X25452Y11978D01*
G01X25412Y12007D01*
G01X25371Y12033D01*
G01X25329Y12058D01*
G01X25285Y12081D01*
G01X25241Y12102D01*
G01X25196Y12122D01*
G01X25150Y12139D01*
G01X25103Y12154D01*
G01X25056Y12168D01*
G01X25008Y12179D01*
G01X24960Y12188D01*
G01X24911Y12196D01*
G01X24863Y12201D01*
G01X24814Y12204D01*
G01X24765Y12205D01*
G01X24715Y12204D01*
G01X24666Y12201D01*
G01X24618Y12196D01*
G01X24569Y12188D01*
G01X24521Y12179D01*
G01X24473Y12168D01*
G01X24426Y12154D01*
G01X24379Y12139D01*
G01X24333Y12122D01*
G01X24288Y12102D01*
G01X24244Y12081D01*
G01X24200Y12058D01*
G01X24158Y12033D01*
G01X24117Y12007D01*
G01X24077Y11978D01*
G01X24038Y11948D01*
G01X24000Y11917D01*
G01X23964Y11883D01*
G01X23930Y11849D01*
G01X23896Y11813D01*
G01X23865Y11775D01*
G01X23835Y11736D01*
G01X23806Y11696D01*
G01X23780Y11655D01*
G01X23755Y11613D01*
G01X23732Y11569D01*
G01X23711Y11525D01*
G01X23691Y11480D01*
G01X23674Y11434D01*
G01X23659Y11387D01*
G01X23645Y11340D01*
G01X23634Y11292D01*
G01X23625Y11244D01*
G01X23617Y11195D01*
G01X23612Y11147D01*
G01X23609Y11098D01*
G01X23608Y11049D01*
G01X23608Y11026D01*
G01X23607Y11011D01*
G01X23604Y10997D01*
G01X23599Y10983D01*
G01X23592Y10971D01*
G01X23583Y10959D01*
G01X23573Y10949D01*
G01X23562Y10940D01*
G01X23549Y10933D01*
G01X23535Y10928D01*
G01X23521Y10925D01*
G01X23507Y10924D01*
G01X23314Y10924D01*
G01X23299Y10925D01*
G01X23283Y10929D01*
G01X23268Y10935D01*
G01X23255Y10943D01*
G01X23243Y10954D01*
G01X22935Y11261D01*
G01X22925Y11273D01*
G01X22916Y11287D01*
G01X22910Y11302D01*
G01X22907Y11317D01*
G01X22905Y11333D01*
G01X22906Y11348D01*
G01X22909Y11362D01*
G01X22914Y11375D01*
G01X22921Y11388D01*
G01X22930Y11400D01*
G01X22940Y11410D01*
G01X22952Y11419D01*
G01X22965Y11426D01*
G01X22995Y11441D01*
G01X23025Y11457D01*
G01X23053Y11476D01*
G01X23080Y11496D01*
G01X23106Y11518D01*
G01X23131Y11541D01*
G01X23154Y11566D01*
G01X23176Y11592D01*
G01X23196Y11619D01*
G01X23214Y11647D01*
G01X23231Y11677D01*
G01X23245Y11707D01*
G01X23258Y11739D01*
G01X23269Y11771D01*
G01X23278Y11803D01*
G01X23285Y11836D01*
G01X23290Y11870D01*
G01X23294Y11904D01*
G01X23295Y11938D01*
G01X23293Y11973D01*
G01X23290Y12008D01*
G01X23285Y12042D01*
G01X23277Y12077D01*
G01X23267Y12111D01*
G01X23255Y12144D01*
G01X23241Y12176D01*
G01X23226Y12207D01*
G01X23208Y12238D01*
G01X23188Y12267D01*
G01X23167Y12295D01*
G01X23143Y12321D01*
G01X23134Y12333D01*
G01X23126Y12346D01*
G01X23121Y12360D01*
G01X23117Y12375D01*
G01X23116Y12390D01*
G01X23116Y17665D01*
G01X23117Y17681D01*
G01X23121Y17696D01*
G01X23126Y17710D01*
G01X23134Y17723D01*
G01X23144Y17735D01*
G01X23155Y17746D01*
G01X23168Y17754D01*
G01X23182Y17761D01*
G01X23214Y17773D01*
G01X23244Y17788D01*
G01X23274Y17805D01*
G01X23303Y17823D01*
G01X23330Y17843D01*
G01X23356Y17864D01*
G01X23381Y17888D01*
G01X23405Y17912D01*
G01X23427Y17938D01*
G01X23447Y17965D01*
G01X23466Y17994D01*
G01X23483Y18023D01*
G01X23498Y18054D01*
G01X23511Y18085D01*
G01X23522Y18117D01*
G01X23531Y18150D01*
G01X23536Y18164D01*
G01X23543Y18177D01*
G01X23551Y18189D01*
G01X23562Y18200D01*
G01X23574Y18209D01*
G01X23587Y18217D01*
G01X23600Y18222D01*
G01X23615Y18225D01*
G01X23630Y18226D01*
G01X23646Y18225D01*
G01X23662Y18221D01*
G01X23677Y18215D01*
G01X23691Y18206D01*
G01X23703Y18195D01*
G01X23713Y18183D01*
G01X23722Y18169D01*
G01X23744Y18124D01*
G01X23769Y18081D01*
G01X23795Y18038D01*
G01X23823Y17997D01*
G01X23853Y17957D01*
G01X23885Y17918D01*
G01X23918Y17881D01*
G01X23953Y17845D01*
G01X23989Y17810D01*
G01X24027Y17778D01*
G01X24066Y17747D01*
G01X24107Y17717D01*
G01X24148Y17690D01*
G01X24191Y17664D01*
G01X24235Y17640D01*
G01X24280Y17618D01*
G01X24326Y17598D01*
G01X24372Y17580D01*
G01X24420Y17565D01*
G01X24468Y17551D01*
G01X24516Y17539D01*
G01X24566Y17529D01*
G01X24615Y17522D01*
G01X24665Y17516D01*
G01X24715Y17513D01*
G01X24765Y17512D01*
G01X24814Y17513D01*
G01X24863Y17516D01*
G01X24911Y17521D01*
G01X24960Y17529D01*
G01X25008Y17538D01*
G01X25056Y17549D01*
G01X25103Y17563D01*
G01X25150Y17578D01*
G01X25196Y17595D01*
G01X25241Y17615D01*
G01X25285Y17636D01*
G01X25329Y17659D01*
G01X25371Y17684D01*
G01X25412Y17710D01*
G01X25452Y17739D01*
G01X25491Y17769D01*
G01X25529Y17800D01*
G01X25565Y17834D01*
G01X25599Y17868D01*
G01X25633Y17904D01*
G01X25664Y17942D01*
G01X25694Y17981D01*
G01X25723Y18021D01*
G01X25749Y18062D01*
G01X25774Y18104D01*
G01X25797Y18148D01*
G01X25818Y18192D01*
G01X25838Y18237D01*
G01X25855Y18283D01*
G01X25870Y18330D01*
G01X25884Y18377D01*
G01X25895Y18425D01*
G01X25904Y18473D01*
G01X25912Y18522D01*
G01X25917Y18570D01*
G01X25920Y18619D01*
G01X25921Y18669D01*
G01X25920Y18718D01*
G01X25917Y18767D01*
G01X25912Y18815D01*
G01X25904Y18864D01*
G01X25895Y18912D01*
G01X25884Y18960D01*
G01X25870Y19007D01*
G01X25855Y19054D01*
G01X25838Y19100D01*
G01X25818Y19145D01*
G01X25797Y19189D01*
G01X25774Y19233D01*
G01X25749Y19275D01*
G01X25723Y19316D01*
G01X25694Y19356D01*
G01X25664Y19395D01*
G01X25633Y19433D01*
G01X25599Y19469D01*
G01X25565Y19503D01*
G01X25529Y19537D01*
G01X25491Y19568D01*
G01X25452Y19598D01*
G01X25412Y19627D01*
G01X25371Y19653D01*
G01X25329Y19678D01*
G01X25285Y19701D01*
G01X25241Y19722D01*
G01X25196Y19742D01*
G01X25150Y19759D01*
G01X25103Y19774D01*
G01X25056Y19788D01*
G01X25008Y19799D01*
G01X24960Y19808D01*
G01X24911Y19816D01*
G01X24863Y19821D01*
G01X24814Y19824D01*
G01X24765Y19825D01*
G01X24715Y19824D01*
G01X24665Y19821D01*
G01X24616Y19815D01*
G01X24567Y19808D01*
G01X24518Y19798D01*
G01X24470Y19787D01*
G01X24422Y19773D01*
G01X24375Y19757D01*
G01X24329Y19740D01*
G01X24283Y19720D01*
G01X24238Y19698D01*
G01X24194Y19675D01*
G01X24152Y19649D01*
G01X24110Y19622D01*
G01X24070Y19593D01*
G01X24031Y19563D01*
G01X23993Y19530D01*
G01X23957Y19496D01*
G01X23922Y19461D01*
G01X23889Y19424D01*
G01X23857Y19386D01*
G01X23827Y19346D01*
G01X23799Y19305D01*
G01X23773Y19263D01*
G01X23748Y19220D01*
G01X23725Y19176D01*
G01X23704Y19131D01*
G01X23686Y19085D01*
G01X23669Y19038D01*
G01X23654Y18991D01*
G01X23641Y18943D01*
G01X23630Y18894D01*
G01X23622Y18845D01*
G01X23615Y18796D01*
G01X23611Y18747D01*
G01X23608Y18697D01*
G01X23607Y18681D01*
G01X23603Y18666D01*
G01X23596Y18652D01*
G01X23588Y18639D01*
G01X23578Y18627D01*
G01X23566Y18617D01*
G01X23552Y18609D01*
G01X23538Y18603D01*
G01X23522Y18599D01*
G01X23507Y18598D01*
G01X23492Y18599D01*
G01X23477Y18602D01*
G01X23463Y18608D01*
G01X23449Y18616D01*
G01X23437Y18625D01*
G01X23427Y18636D01*
G01X23404Y18664D01*
G01X23379Y18690D01*
G01X23352Y18714D01*
G01X23324Y18737D01*
G01X23294Y18758D01*
G01X23263Y18777D01*
G01X23231Y18793D01*
G01X23198Y18808D01*
G01X23164Y18821D01*
G01X23130Y18831D01*
G01X23094Y18839D01*
G01X23059Y18845D01*
G01X23023Y18848D01*
G01X22987Y18850D01*
G01X22950Y18848D01*
G01X22913Y18845D01*
G01X22877Y18839D01*
G01X22841Y18830D01*
G01X22806Y18820D01*
G01X22771Y18807D01*
G01X22738Y18792D01*
G01X22706Y18774D01*
G01X22674Y18755D01*
G01X22644Y18733D01*
G01X22631Y18725D01*
G01X22615Y18718D01*
G01X22599Y18714D01*
G01X22583Y18713D01*
G01X22568Y18714D01*
G01X22554Y18717D01*
G01X22540Y18722D01*
G01X22528Y18729D01*
G01X22516Y18737D01*
G01X22506Y18748D01*
G01X22497Y18759D01*
G01X22490Y18772D01*
G01X22485Y18785D01*
G01X22482Y18800D01*
G01X22481Y18814D01*
G01X22481Y24333D01*
G01X22482Y24347D01*
G01X22485Y24361D01*
G01X22490Y24375D01*
G01X22497Y24388D01*
G01X22506Y24399D01*
G01X22516Y24410D01*
G01X22528Y24418D01*
G01X22557Y24438D01*
G01X22584Y24460D01*
G01X22611Y24483D01*
G01X22636Y24508D01*
G01X22659Y24535D01*
G01X22680Y24562D01*
G01X22700Y24592D01*
G01X22718Y24622D01*
G01X22734Y24653D01*
G01X22747Y24685D01*
G01X22759Y24719D01*
G01X22769Y24752D01*
G01X22777Y24787D01*
G01X22782Y24821D01*
G01X22785Y24856D01*
G01X22787Y24892D01*
G01X22786Y24925D01*
G01X22782Y24959D01*
G01X22777Y24993D01*
G01X22770Y25026D01*
G01X22761Y25059D01*
G01X22750Y25091D01*
G01X22737Y25122D01*
G01X22722Y25153D01*
G01X22705Y25182D01*
G01X22687Y25211D01*
G01X22667Y25238D01*
G01X22645Y25264D01*
G01X22622Y25289D01*
G01X22597Y25312D01*
G01X22571Y25334D01*
G01X22544Y25354D01*
G01X22515Y25372D01*
G01X22486Y25389D01*
G01X22455Y25404D01*
G01X22424Y25417D01*
G01X22392Y25428D01*
G01X22359Y25437D01*
G01X22326Y25444D01*
G01X22292Y25449D01*
G01X22258Y25453D01*
G37*
G36*
G01X1953Y19824D02*
G01X1905Y19825D01*
G01X1855Y19824D01*
G01X1806Y19821D01*
G01X1758Y19816D01*
G01X1709Y19808D01*
G01X1661Y19799D01*
G01X1613Y19788D01*
G01X1566Y19774D01*
G01X1519Y19759D01*
G01X1473Y19742D01*
G01X1428Y19722D01*
G01X1384Y19701D01*
G01X1340Y19678D01*
G01X1298Y19653D01*
G01X1257Y19627D01*
G01X1217Y19598D01*
G01X1178Y19568D01*
G01X1140Y19537D01*
G01X1104Y19503D01*
G01X1070Y19469D01*
G01X1036Y19433D01*
G01X1005Y19395D01*
G01X975Y19356D01*
G01X946Y19316D01*
G01X920Y19275D01*
G01X895Y19233D01*
G01X872Y19189D01*
G01X851Y19145D01*
G01X831Y19100D01*
G01X814Y19054D01*
G01X799Y19007D01*
G01X785Y18960D01*
G01X774Y18912D01*
G01X765Y18864D01*
G01X757Y18815D01*
G01X752Y18767D01*
G01X749Y18718D01*
G01X748Y18669D01*
G01X749Y18619D01*
G01X752Y18570D01*
G01X757Y18522D01*
G01X765Y18473D01*
G01X774Y18425D01*
G01X785Y18377D01*
G01X799Y18330D01*
G01X814Y18283D01*
G01X831Y18237D01*
G01X851Y18192D01*
G01X872Y18148D01*
G01X895Y18104D01*
G01X920Y18062D01*
G01X946Y18021D01*
G01X975Y17981D01*
G01X1005Y17942D01*
G01X1036Y17904D01*
G01X1070Y17868D01*
G01X1104Y17834D01*
G01X1140Y17800D01*
G01X1178Y17769D01*
G01X1217Y17739D01*
G01X1257Y17710D01*
G01X1298Y17684D01*
G01X1340Y17659D01*
G01X1384Y17636D01*
G01X1428Y17615D01*
G01X1473Y17595D01*
G01X1519Y17578D01*
G01X1566Y17563D01*
G01X1613Y17549D01*
G01X1661Y17538D01*
G01X1709Y17529D01*
G01X1758Y17521D01*
G01X1806Y17516D01*
G01X1855Y17513D01*
G01X1905Y17512D01*
G01X1955Y17513D01*
G01X2004Y17516D01*
G01X2054Y17522D01*
G01X2104Y17529D01*
G01X2153Y17539D01*
G01X2201Y17551D01*
G01X2250Y17565D01*
G01X2297Y17581D01*
G01X2344Y17599D01*
G01X2363Y17604D01*
G01X2382Y17606D01*
G01X2398Y17605D01*
G01X2414Y17601D01*
G01X2428Y17595D01*
G01X2442Y17587D01*
G01X2454Y17576D01*
G01X3345Y16685D01*
G01X3355Y16673D01*
G01X3364Y16660D01*
G01X3370Y16645D01*
G01X3374Y16630D01*
G01X3375Y16614D01*
G01X3374Y16599D01*
G01X3371Y16585D01*
G01X3366Y16571D01*
G01X3359Y16559D01*
G01X3350Y16547D01*
G01X3340Y16537D01*
G01X3328Y16528D01*
G01X3315Y16521D01*
G01X3302Y16516D01*
G01X3288Y16513D01*
G01X3273Y16512D01*
G01X3065Y16512D01*
G01X3050Y16513D01*
G01X3036Y16516D01*
G01X3022Y16522D01*
G01X3009Y16529D01*
G01X2997Y16538D01*
G01X2987Y16549D01*
G01X2978Y16561D01*
G01X2972Y16574D01*
G01X2952Y16619D01*
G01X2930Y16662D01*
G01X2907Y16705D01*
G01X2882Y16746D01*
G01X2855Y16787D01*
G01X2827Y16826D01*
G01X2797Y16864D01*
G01X2765Y16901D01*
G01X2732Y16937D01*
G01X2697Y16971D01*
G01X2661Y17003D01*
G01X2624Y17034D01*
G01X2585Y17063D01*
G01X2546Y17091D01*
G01X2505Y17117D01*
G01X2463Y17141D01*
G01X2420Y17164D01*
G01X2376Y17185D01*
G01X2331Y17204D01*
G01X2286Y17220D01*
G01X2239Y17236D01*
G01X2193Y17249D01*
G01X2145Y17260D01*
G01X2098Y17269D01*
G01X2050Y17276D01*
G01X2001Y17281D01*
G01X1953Y17284D01*
G01X1905Y17285D01*
G01X1855Y17284D01*
G01X1806Y17281D01*
G01X1758Y17276D01*
G01X1709Y17268D01*
G01X1661Y17259D01*
G01X1613Y17248D01*
G01X1566Y17234D01*
G01X1519Y17219D01*
G01X1473Y17202D01*
G01X1428Y17182D01*
G01X1384Y17161D01*
G01X1340Y17138D01*
G01X1298Y17113D01*
G01X1257Y17087D01*
G01X1217Y17058D01*
G01X1178Y17028D01*
G01X1140Y16997D01*
G01X1104Y16963D01*
G01X1070Y16929D01*
G01X1036Y16893D01*
G01X1005Y16855D01*
G01X975Y16816D01*
G01X946Y16776D01*
G01X920Y16735D01*
G01X895Y16693D01*
G01X872Y16649D01*
G01X851Y16605D01*
G01X831Y16560D01*
G01X814Y16514D01*
G01X799Y16467D01*
G01X785Y16420D01*
G01X774Y16372D01*
G01X765Y16324D01*
G01X757Y16275D01*
G01X752Y16227D01*
G01X749Y16178D01*
G01X748Y16129D01*
G01X749Y16079D01*
G01X752Y16030D01*
G01X757Y15982D01*
G01X765Y15933D01*
G01X774Y15885D01*
G01X785Y15837D01*
G01X799Y15790D01*
G01X814Y15743D01*
G01X831Y15697D01*
G01X851Y15652D01*
G01X872Y15608D01*
G01X895Y15564D01*
G01X920Y15522D01*
G01X946Y15481D01*
G01X975Y15441D01*
G01X1005Y15402D01*
G01X1036Y15364D01*
G01X1070Y15328D01*
G01X1104Y15294D01*
G01X1140Y15260D01*
G01X1178Y15229D01*
G01X1217Y15199D01*
G01X1257Y15170D01*
G01X1298Y15144D01*
G01X1340Y15119D01*
G01X1384Y15096D01*
G01X1428Y15075D01*
G01X1473Y15055D01*
G01X1519Y15038D01*
G01X1566Y15023D01*
G01X1613Y15009D01*
G01X1661Y14998D01*
G01X1709Y14989D01*
G01X1758Y14981D01*
G01X1806Y14976D01*
G01X1855Y14973D01*
G01X1905Y14972D01*
G01X1953Y14973D01*
G01X2001Y14976D01*
G01X2050Y14981D01*
G01X2098Y14988D01*
G01X2145Y14997D01*
G01X2193Y15008D01*
G01X2239Y15021D01*
G01X2286Y15037D01*
G01X2331Y15053D01*
G01X2376Y15072D01*
G01X2420Y15093D01*
G01X2463Y15116D01*
G01X2505Y15140D01*
G01X2546Y15166D01*
G01X2585Y15194D01*
G01X2624Y15223D01*
G01X2661Y15254D01*
G01X2697Y15286D01*
G01X2732Y15320D01*
G01X2765Y15356D01*
G01X2797Y15393D01*
G01X2827Y15431D01*
G01X2855Y15470D01*
G01X2882Y15511D01*
G01X2907Y15552D01*
G01X2930Y15595D01*
G01X2952Y15638D01*
G01X2972Y15683D01*
G01X2978Y15696D01*
G01X2987Y15708D01*
G01X2997Y15719D01*
G01X3009Y15728D01*
G01X3022Y15735D01*
G01X3036Y15741D01*
G01X3050Y15744D01*
G01X3065Y15745D01*
G01X3609Y15745D01*
G01X3624Y15744D01*
G01X3640Y15740D01*
G01X3655Y15734D01*
G01X3668Y15726D01*
G01X3680Y15715D01*
G01X9634Y9761D01*
G01X9656Y9741D01*
G01X9680Y9722D01*
G01X9705Y9705D01*
G01X9731Y9691D01*
G01X9759Y9678D01*
G01X9787Y9668D01*
G01X9816Y9660D01*
G01X9846Y9654D01*
G01X9875Y9650D01*
G01X9906Y9649D01*
G01X9961Y9649D01*
G01X9976Y9648D01*
G01X9991Y9644D01*
G01X10005Y9639D01*
G01X10018Y9631D01*
G01X10030Y9622D01*
G01X10056Y9598D01*
G01X10084Y9577D01*
G01X10113Y9557D01*
G01X10144Y9539D01*
G01X10175Y9524D01*
G01X10207Y9510D01*
G01X10240Y9498D01*
G01X10274Y9488D01*
G01X10309Y9480D01*
G01X10343Y9475D01*
G01X10378Y9472D01*
G01X10414Y9470D01*
G01X10447Y9471D01*
G01X10481Y9475D01*
G01X10515Y9480D01*
G01X10548Y9487D01*
G01X10581Y9496D01*
G01X10613Y9507D01*
G01X10644Y9520D01*
G01X10675Y9535D01*
G01X10704Y9552D01*
G01X10733Y9570D01*
G01X10760Y9590D01*
G01X10786Y9612D01*
G01X10811Y9635D01*
G01X10834Y9660D01*
G01X10856Y9686D01*
G01X10876Y9713D01*
G01X10894Y9742D01*
G01X10911Y9771D01*
G01X10926Y9802D01*
G01X10939Y9833D01*
G01X10950Y9865D01*
G01X10959Y9898D01*
G01X10966Y9931D01*
G01X10971Y9965D01*
G01X10975Y9999D01*
G01X10976Y10033D01*
G01X10975Y10067D01*
G01X10971Y10101D01*
G01X10966Y10134D01*
G01X10959Y10168D01*
G01X10950Y10201D01*
G01X10939Y10233D01*
G01X10925Y10264D01*
G01X10910Y10295D01*
G01X10894Y10325D01*
G01X10875Y10353D01*
G01X10855Y10381D01*
G01X10833Y10407D01*
G01X10809Y10432D01*
G01X10784Y10455D01*
G01X10758Y10477D01*
G01X10730Y10497D01*
G01X10701Y10515D01*
G01X10672Y10532D01*
G01X10641Y10547D01*
G01X10609Y10559D01*
G01X10577Y10570D01*
G01X10563Y10575D01*
G01X10551Y10582D01*
G01X10539Y10591D01*
G01X10529Y10601D01*
G01X10521Y10613D01*
G01X10514Y10626D01*
G01X10509Y10639D01*
G01X10506Y10653D01*
G01X10505Y10668D01*
G01X10506Y10682D01*
G01X10509Y10696D01*
G01X10514Y10709D01*
G01X10521Y10722D01*
G01X10529Y10734D01*
G01X10539Y10744D01*
G01X10551Y10753D01*
G01X10563Y10760D01*
G01X10577Y10765D01*
G01X10609Y10776D01*
G01X10641Y10788D01*
G01X10672Y10803D01*
G01X10701Y10820D01*
G01X10730Y10838D01*
G01X10758Y10858D01*
G01X10784Y10880D01*
G01X10809Y10903D01*
G01X10833Y10928D01*
G01X10855Y10954D01*
G01X10875Y10982D01*
G01X10894Y11010D01*
G01X10910Y11040D01*
G01X10925Y11071D01*
G01X10939Y11102D01*
G01X10950Y11134D01*
G01X10959Y11167D01*
G01X10966Y11201D01*
G01X10971Y11234D01*
G01X10975Y11268D01*
G01X10976Y11303D01*
G01X10975Y11336D01*
G01X10971Y11370D01*
G01X10966Y11404D01*
G01X10959Y11437D01*
G01X10950Y11470D01*
G01X10939Y11502D01*
G01X10926Y11533D01*
G01X10911Y11564D01*
G01X10894Y11593D01*
G01X10876Y11622D01*
G01X10856Y11649D01*
G01X10834Y11675D01*
G01X10811Y11700D01*
G01X10786Y11723D01*
G01X10760Y11745D01*
G01X10733Y11765D01*
G01X10704Y11783D01*
G01X10675Y11800D01*
G01X10644Y11815D01*
G01X10613Y11828D01*
G01X10581Y11839D01*
G01X10548Y11848D01*
G01X10515Y11855D01*
G01X10481Y11860D01*
G01X10447Y11864D01*
G01X10414Y11865D01*
G01X10378Y11863D01*
G01X10343Y11860D01*
G01X10309Y11855D01*
G01X10274Y11847D01*
G01X10240Y11837D01*
G01X10207Y11825D01*
G01X10175Y11811D01*
G01X10144Y11796D01*
G01X10113Y11778D01*
G01X10084Y11758D01*
G01X10056Y11737D01*
G01X10030Y11713D01*
G01X10018Y11704D01*
G01X10005Y11696D01*
G01X9991Y11691D01*
G01X9976Y11687D01*
G01X9961Y11686D01*
G01X9471Y11686D01*
G01X9456Y11687D01*
G01X9440Y11691D01*
G01X9425Y11697D01*
G01X9412Y11705D01*
G01X9400Y11716D01*
G01X2997Y18119D01*
G01X2986Y18131D01*
G01X2978Y18145D01*
G01X2972Y18159D01*
G01X2968Y18175D01*
G01X2967Y18191D01*
G01X2969Y18210D01*
G01X2974Y18229D01*
G01X2993Y18279D01*
G01X3010Y18329D01*
G01X3025Y18380D01*
G01X3037Y18432D01*
G01X3046Y18484D01*
G01X3050Y18499D01*
G01X3056Y18514D01*
G01X3064Y18528D01*
G01X3075Y18540D01*
G01X3087Y18550D01*
G01X3100Y18558D01*
G01X3115Y18564D01*
G01X3131Y18568D01*
G01X3147Y18569D01*
G01X3161Y18568D01*
G01X3176Y18565D01*
G01X3190Y18560D01*
G01X3203Y18553D01*
G01X3225Y18533D01*
G01X3233Y18521D01*
G01X3240Y18508D01*
G01X3250Y18487D01*
G01X3262Y18467D01*
G01X3275Y18448D01*
G01X3290Y18431D01*
G01X3307Y18415D01*
G01X3325Y18400D01*
G01X3344Y18388D01*
G01X3365Y18377D01*
G01X3386Y18368D01*
G01X3408Y18361D01*
G01X3430Y18355D01*
G01X3453Y18352D01*
G01X3476Y18351D01*
G01X4927Y18351D01*
G01X4951Y18352D01*
G01X4974Y18356D01*
G01X4997Y18361D01*
G01X5020Y18369D01*
G01X5041Y18378D01*
G01X5062Y18390D01*
G01X5082Y18403D01*
G01X5100Y18418D01*
G01X5117Y18435D01*
G01X5132Y18453D01*
G01X5145Y18473D01*
G01X5157Y18493D01*
G01X5166Y18515D01*
G01X5174Y18538D01*
G01X5179Y18561D01*
G01X5183Y18584D01*
G01X5184Y18608D01*
G01X5184Y19527D01*
G01X5183Y19551D01*
G01X5179Y19574D01*
G01X5174Y19597D01*
G01X5166Y19620D01*
G01X5157Y19641D01*
G01X5145Y19662D01*
G01X5132Y19682D01*
G01X5117Y19700D01*
G01X5100Y19717D01*
G01X5082Y19732D01*
G01X5062Y19745D01*
G01X5041Y19757D01*
G01X5020Y19766D01*
G01X4997Y19774D01*
G01X4974Y19779D01*
G01X4951Y19782D01*
G01X4927Y19783D01*
G01X3476Y19783D01*
G01X3452Y19782D01*
G01X3429Y19779D01*
G01X3406Y19774D01*
G01X3383Y19766D01*
G01X3362Y19757D01*
G01X3341Y19745D01*
G01X3322Y19732D01*
G01X3303Y19717D01*
G01X3287Y19700D01*
G01X3271Y19682D01*
G01X3258Y19662D01*
G01X3247Y19641D01*
G01X3237Y19620D01*
G01X3229Y19597D01*
G01X3224Y19574D01*
G01X3221Y19551D01*
G01X3220Y19527D01*
G01X3220Y19001D01*
G01X3219Y18986D01*
G01X3215Y18972D01*
G01X3210Y18958D01*
G01X3203Y18946D01*
G01X3195Y18934D01*
G01X3185Y18924D01*
G01X3173Y18915D01*
G01X3160Y18908D01*
G01X3147Y18903D01*
G01X3132Y18900D01*
G01X3118Y18899D01*
G01X3103Y18900D01*
G01X3089Y18903D01*
G01X3075Y18908D01*
G01X3062Y18916D01*
G01X3051Y18925D01*
G01X3040Y18935D01*
G01X3032Y18947D01*
G01X3025Y18960D01*
G01X3020Y18974D01*
G01X3006Y19020D01*
G01X2990Y19066D01*
G01X2973Y19112D01*
G01X2953Y19156D01*
G01X2932Y19200D01*
G01X2908Y19243D01*
G01X2883Y19284D01*
G01X2857Y19325D01*
G01X2828Y19364D01*
G01X2798Y19403D01*
G01X2767Y19440D01*
G01X2733Y19475D01*
G01X2699Y19509D01*
G01X2663Y19542D01*
G01X2625Y19573D01*
G01X2587Y19602D01*
G01X2547Y19630D01*
G01X2506Y19656D01*
G01X2464Y19681D01*
G01X2421Y19703D01*
G01X2377Y19724D01*
G01X2332Y19743D01*
G01X2286Y19760D01*
G01X2240Y19775D01*
G01X2193Y19788D01*
G01X2146Y19800D01*
G01X2098Y19809D01*
G01X2050Y19816D01*
G01X2002Y19821D01*
G01X1953Y19824D01*
G37*
G36*
G01X21198Y7305D02*
G01X19999Y7305D01*
G01X19976Y7303D01*
G01X19952Y7300D01*
G01X19929Y7295D01*
G01X19907Y7287D01*
G01X19885Y7278D01*
G01X19864Y7266D01*
G01X19845Y7253D01*
G01X19827Y7238D01*
G01X19810Y7221D01*
G01X19795Y7203D01*
G01X19781Y7183D01*
G01X19770Y7162D01*
G01X19760Y7141D01*
G01X19753Y7118D01*
G01X19747Y7095D01*
G01X19744Y7072D01*
G01X19743Y7048D01*
G01X19743Y4889D01*
G01X19744Y4865D01*
G01X19747Y4842D01*
G01X19753Y4818D01*
G01X19760Y4796D01*
G01X19770Y4774D01*
G01X19782Y4753D01*
G01X19795Y4734D01*
G01X19811Y4715D01*
G01X19828Y4699D01*
G01X19839Y4686D01*
G01X19849Y4672D01*
G01X19855Y4657D01*
G01X19860Y4640D01*
G01X19861Y4623D01*
G01X19860Y4607D01*
G01X19856Y4592D01*
G01X19850Y4577D01*
G01X19842Y4563D01*
G01X19831Y4551D01*
G01X18577Y3297D01*
G01X18565Y3286D01*
G01X18551Y3278D01*
G01X18536Y3272D01*
G01X18521Y3268D01*
G01X18505Y3267D01*
G01X18477Y3271D01*
G01X18425Y3284D01*
G01X18373Y3295D01*
G01X18320Y3304D01*
G01X18267Y3310D01*
G01X18214Y3314D01*
G01X18161Y3315D01*
G01X18111Y3314D01*
G01X18062Y3311D01*
G01X18014Y3306D01*
G01X17965Y3298D01*
G01X17917Y3289D01*
G01X17869Y3278D01*
G01X17822Y3264D01*
G01X17775Y3249D01*
G01X17729Y3232D01*
G01X17684Y3212D01*
G01X17640Y3191D01*
G01X17596Y3168D01*
G01X17554Y3143D01*
G01X17513Y3117D01*
G01X17473Y3088D01*
G01X17434Y3058D01*
G01X17396Y3027D01*
G01X17360Y2993D01*
G01X17326Y2959D01*
G01X17292Y2923D01*
G01X17261Y2885D01*
G01X17231Y2846D01*
G01X17202Y2806D01*
G01X17176Y2765D01*
G01X17151Y2723D01*
G01X17128Y2679D01*
G01X17107Y2635D01*
G01X17087Y2590D01*
G01X17070Y2544D01*
G01X17055Y2497D01*
G01X17041Y2450D01*
G01X17030Y2402D01*
G01X17021Y2354D01*
G01X17013Y2305D01*
G01X17008Y2257D01*
G01X17005Y2208D01*
G01X17004Y2159D01*
G01X17005Y2109D01*
G01X17008Y2060D01*
G01X17013Y2012D01*
G01X17021Y1963D01*
G01X17030Y1915D01*
G01X17041Y1867D01*
G01X17055Y1820D01*
G01X17070Y1773D01*
G01X17087Y1727D01*
G01X17107Y1682D01*
G01X17128Y1638D01*
G01X17151Y1594D01*
G01X17176Y1552D01*
G01X17202Y1511D01*
G01X17231Y1471D01*
G01X17261Y1432D01*
G01X17292Y1394D01*
G01X17326Y1358D01*
G01X17360Y1324D01*
G01X17396Y1290D01*
G01X17434Y1259D01*
G01X17473Y1229D01*
G01X17513Y1200D01*
G01X17554Y1174D01*
G01X17596Y1149D01*
G01X17640Y1126D01*
G01X17684Y1105D01*
G01X17729Y1085D01*
G01X17775Y1068D01*
G01X17822Y1053D01*
G01X17869Y1039D01*
G01X17917Y1028D01*
G01X17965Y1019D01*
G01X18014Y1011D01*
G01X18062Y1006D01*
G01X18111Y1003D01*
G01X18161Y1002D01*
G01X18210Y1003D01*
G01X18259Y1006D01*
G01X18307Y1011D01*
G01X18356Y1019D01*
G01X18404Y1028D01*
G01X18452Y1039D01*
G01X18499Y1053D01*
G01X18546Y1068D01*
G01X18592Y1085D01*
G01X18637Y1105D01*
G01X18681Y1126D01*
G01X18725Y1149D01*
G01X18767Y1174D01*
G01X18808Y1200D01*
G01X18848Y1229D01*
G01X18887Y1259D01*
G01X18925Y1290D01*
G01X18961Y1324D01*
G01X18995Y1358D01*
G01X19029Y1394D01*
G01X19060Y1432D01*
G01X19090Y1471D01*
G01X19119Y1511D01*
G01X19145Y1552D01*
G01X19170Y1594D01*
G01X19193Y1638D01*
G01X19214Y1682D01*
G01X19234Y1727D01*
G01X19251Y1773D01*
G01X19266Y1820D01*
G01X19280Y1867D01*
G01X19291Y1915D01*
G01X19300Y1963D01*
G01X19308Y2012D01*
G01X19313Y2060D01*
G01X19316Y2109D01*
G01X19317Y2159D01*
G01X19316Y2212D01*
G01X19312Y2265D01*
G01X19306Y2318D01*
G01X19297Y2371D01*
G01X19286Y2423D01*
G01X19273Y2475D01*
G01X19269Y2503D01*
G01X19270Y2519D01*
G01X19274Y2534D01*
G01X19280Y2549D01*
G01X19288Y2563D01*
G01X19299Y2575D01*
G01X19371Y2647D01*
G01X19383Y2657D01*
G01X19396Y2665D01*
G01X19411Y2671D01*
G01X19426Y2675D01*
G01X19442Y2676D01*
G01X19457Y2675D01*
G01X19471Y2672D01*
G01X20187Y2672D01*
G01X20187Y3388D01*
G01X20184Y3402D01*
G01X20183Y3417D01*
G01X20184Y3433D01*
G01X20188Y3448D01*
G01X20194Y3463D01*
G01X20202Y3476D01*
G01X20212Y3488D01*
G01X20960Y4236D01*
G01X20984Y4261D01*
G01X21005Y4288D01*
G01X21025Y4316D01*
G01X21043Y4346D01*
G01X21059Y4376D01*
G01X21073Y4408D01*
G01X21085Y4441D01*
G01X21094Y4474D01*
G01X21102Y4508D01*
G01X21106Y4542D01*
G01X21109Y4556D01*
G01X21114Y4570D01*
G01X21120Y4583D01*
G01X21129Y4595D01*
G01X21139Y4606D01*
G01X21150Y4615D01*
G01X21163Y4622D01*
G01X21176Y4628D01*
G01X21190Y4631D01*
G01X21205Y4633D01*
G01X21228Y4634D01*
G01X21251Y4638D01*
G01X21274Y4644D01*
G01X21296Y4652D01*
G01X21317Y4661D01*
G01X21337Y4673D01*
G01X21356Y4687D01*
G01X21374Y4702D01*
G01X21390Y4718D01*
G01X21405Y4737D01*
G01X21418Y4756D01*
G01X21429Y4776D01*
G01X21438Y4798D01*
G01X21445Y4820D01*
G01X21451Y4843D01*
G01X21454Y4866D01*
G01X21455Y4889D01*
G01X21455Y7048D01*
G01X21454Y7072D01*
G01X21451Y7095D01*
G01X21445Y7118D01*
G01X21438Y7141D01*
G01X21428Y7162D01*
G01X21416Y7183D01*
G01X21403Y7203D01*
G01X21388Y7221D01*
G01X21371Y7238D01*
G01X21353Y7253D01*
G01X21333Y7266D01*
G01X21313Y7278D01*
G01X21291Y7287D01*
G01X21269Y7295D01*
G01X21245Y7300D01*
G01X21222Y7303D01*
G01X21198Y7305D01*
G37*
G36*
G01X10336Y3314D02*
G01X10287Y3315D01*
G01X10237Y3314D01*
G01X10188Y3311D01*
G01X10140Y3306D01*
G01X10091Y3298D01*
G01X10043Y3289D01*
G01X9995Y3278D01*
G01X9948Y3264D01*
G01X9901Y3249D01*
G01X9855Y3232D01*
G01X9810Y3212D01*
G01X9766Y3191D01*
G01X9722Y3168D01*
G01X9680Y3143D01*
G01X9639Y3117D01*
G01X9599Y3088D01*
G01X9560Y3058D01*
G01X9522Y3027D01*
G01X9486Y2993D01*
G01X9452Y2959D01*
G01X9418Y2923D01*
G01X9387Y2885D01*
G01X9357Y2846D01*
G01X9328Y2806D01*
G01X9302Y2765D01*
G01X9277Y2723D01*
G01X9254Y2679D01*
G01X9233Y2635D01*
G01X9213Y2590D01*
G01X9196Y2544D01*
G01X9181Y2497D01*
G01X9167Y2450D01*
G01X9156Y2402D01*
G01X9147Y2354D01*
G01X9139Y2305D01*
G01X9134Y2257D01*
G01X9131Y2208D01*
G01X9130Y2159D01*
G01X9131Y2109D01*
G01X9134Y2060D01*
G01X9139Y2012D01*
G01X9147Y1963D01*
G01X9156Y1915D01*
G01X9167Y1867D01*
G01X9181Y1820D01*
G01X9196Y1773D01*
G01X9213Y1727D01*
G01X9233Y1682D01*
G01X9254Y1638D01*
G01X9277Y1594D01*
G01X9302Y1552D01*
G01X9328Y1511D01*
G01X9357Y1471D01*
G01X9387Y1432D01*
G01X9418Y1394D01*
G01X9452Y1358D01*
G01X9486Y1324D01*
G01X9522Y1290D01*
G01X9560Y1259D01*
G01X9599Y1229D01*
G01X9639Y1200D01*
G01X9680Y1174D01*
G01X9722Y1149D01*
G01X9766Y1126D01*
G01X9810Y1105D01*
G01X9855Y1085D01*
G01X9901Y1068D01*
G01X9948Y1053D01*
G01X9995Y1039D01*
G01X10043Y1028D01*
G01X10091Y1019D01*
G01X10140Y1011D01*
G01X10188Y1006D01*
G01X10237Y1003D01*
G01X10287Y1002D01*
G01X10336Y1003D01*
G01X10385Y1006D01*
G01X10433Y1011D01*
G01X10482Y1019D01*
G01X10530Y1028D01*
G01X10578Y1039D01*
G01X10625Y1053D01*
G01X10672Y1068D01*
G01X10718Y1085D01*
G01X10763Y1105D01*
G01X10807Y1126D01*
G01X10851Y1149D01*
G01X10893Y1174D01*
G01X10934Y1200D01*
G01X10974Y1229D01*
G01X11013Y1259D01*
G01X11051Y1290D01*
G01X11087Y1324D01*
G01X11121Y1358D01*
G01X11155Y1394D01*
G01X11186Y1432D01*
G01X11216Y1471D01*
G01X11245Y1511D01*
G01X11271Y1552D01*
G01X11296Y1594D01*
G01X11319Y1638D01*
G01X11340Y1682D01*
G01X11360Y1727D01*
G01X11377Y1773D01*
G01X11392Y1820D01*
G01X11406Y1867D01*
G01X11417Y1915D01*
G01X11426Y1963D01*
G01X11434Y2012D01*
G01X11439Y2060D01*
G01X11442Y2109D01*
G01X11443Y2159D01*
G01X11442Y2208D01*
G01X11439Y2257D01*
G01X11434Y2305D01*
G01X11426Y2354D01*
G01X11417Y2402D01*
G01X11406Y2450D01*
G01X11392Y2497D01*
G01X11377Y2544D01*
G01X11360Y2590D01*
G01X11340Y2635D01*
G01X11319Y2679D01*
G01X11296Y2723D01*
G01X11271Y2765D01*
G01X11245Y2806D01*
G01X11216Y2846D01*
G01X11186Y2885D01*
G01X11155Y2923D01*
G01X11121Y2959D01*
G01X11087Y2993D01*
G01X11051Y3027D01*
G01X11013Y3058D01*
G01X10974Y3088D01*
G01X10934Y3117D01*
G01X10893Y3143D01*
G01X10851Y3168D01*
G01X10807Y3191D01*
G01X10763Y3212D01*
G01X10718Y3232D01*
G01X10672Y3249D01*
G01X10625Y3264D01*
G01X10578Y3278D01*
G01X10530Y3289D01*
G01X10482Y3298D01*
G01X10433Y3306D01*
G01X10385Y3311D01*
G01X10336Y3314D01*
G37*
G36*
G01X25664Y24905D02*
G01X23865Y24905D01*
G01X23841Y24904D01*
G01X23817Y24901D01*
G01X23794Y24895D01*
G01X23772Y24888D01*
G01X23750Y24878D01*
G01X23729Y24867D01*
G01X23710Y24853D01*
G01X23692Y24838D01*
G01X23675Y24821D01*
G01X23660Y24803D01*
G01X23646Y24784D01*
G01X23635Y24763D01*
G01X23625Y24741D01*
G01X23618Y24719D01*
G01X23612Y24696D01*
G01X23609Y24672D01*
G01X23608Y24648D01*
G01X23608Y22849D01*
G01X23609Y22825D01*
G01X23612Y22801D01*
G01X23618Y22778D01*
G01X23625Y22756D01*
G01X23635Y22734D01*
G01X23646Y22713D01*
G01X23660Y22694D01*
G01X23675Y22676D01*
G01X23692Y22659D01*
G01X23710Y22644D01*
G01X23729Y22630D01*
G01X23750Y22619D01*
G01X23772Y22609D01*
G01X23794Y22602D01*
G01X23817Y22596D01*
G01X23841Y22593D01*
G01X23865Y22592D01*
G01X25664Y22592D01*
G01X25688Y22593D01*
G01X25712Y22596D01*
G01X25735Y22602D01*
G01X25757Y22609D01*
G01X25779Y22619D01*
G01X25800Y22630D01*
G01X25819Y22644D01*
G01X25837Y22659D01*
G01X25854Y22676D01*
G01X25869Y22694D01*
G01X25883Y22713D01*
G01X25894Y22734D01*
G01X25904Y22756D01*
G01X25911Y22778D01*
G01X25917Y22801D01*
G01X25920Y22825D01*
G01X25921Y22849D01*
G01X25921Y24648D01*
G01X25920Y24672D01*
G01X25917Y24696D01*
G01X25911Y24719D01*
G01X25904Y24741D01*
G01X25894Y24763D01*
G01X25883Y24784D01*
G01X25869Y24803D01*
G01X25854Y24821D01*
G01X25837Y24838D01*
G01X25819Y24853D01*
G01X25800Y24867D01*
G01X25779Y24878D01*
G01X25757Y24888D01*
G01X25735Y24895D01*
G01X25712Y24901D01*
G01X25688Y24904D01*
G01X25664Y24905D01*
G37*
G36*
G01X24814Y7124D02*
G01X24765Y7125D01*
G01X24716Y7124D01*
G01X24667Y7121D01*
G01X24619Y7116D01*
G01X24571Y7109D01*
G01X24523Y7100D01*
G01X24475Y7088D01*
G01X24429Y7075D01*
G01X24382Y7060D01*
G01X24337Y7043D01*
G01X24292Y7024D01*
G01X24248Y7003D01*
G01X24205Y6981D01*
G01X24163Y6956D01*
G01X24122Y6930D01*
G01X24082Y6902D01*
G01X24043Y6872D01*
G01X24006Y6841D01*
G01X23970Y6809D01*
G01X23935Y6774D01*
G01X23902Y6739D01*
G01X23870Y6702D01*
G01X23840Y6663D01*
G01X23812Y6624D01*
G01X23785Y6583D01*
G01X23760Y6541D01*
G01X23737Y6499D01*
G01X23715Y6455D01*
G01X23696Y6410D01*
G01X23678Y6365D01*
G01X23662Y6319D01*
G01X23649Y6272D01*
G01X23637Y6225D01*
G01X23626Y6174D01*
G01X23618Y6123D01*
G01X23613Y6072D01*
G01X23609Y6020D01*
G01X23608Y5969D01*
G01X23609Y5917D01*
G01X23613Y5865D01*
G01X23618Y5814D01*
G01X23626Y5763D01*
G01X23637Y5712D01*
G01X23649Y5665D01*
G01X23662Y5618D01*
G01X23678Y5572D01*
G01X23696Y5527D01*
G01X23715Y5482D01*
G01X23737Y5438D01*
G01X23760Y5396D01*
G01X23785Y5354D01*
G01X23812Y5313D01*
G01X23840Y5274D01*
G01X23870Y5235D01*
G01X23902Y5198D01*
G01X23935Y5163D01*
G01X23970Y5128D01*
G01X24006Y5096D01*
G01X24043Y5065D01*
G01X24082Y5035D01*
G01X24122Y5007D01*
G01X24163Y4981D01*
G01X24205Y4956D01*
G01X24248Y4934D01*
G01X24292Y4913D01*
G01X24337Y4894D01*
G01X24382Y4877D01*
G01X24429Y4862D01*
G01X24475Y4849D01*
G01X24523Y4837D01*
G01X24571Y4828D01*
G01X24619Y4821D01*
G01X24667Y4816D01*
G01X24716Y4813D01*
G01X24765Y4812D01*
G01X24814Y4813D01*
G01X24863Y4816D01*
G01X24911Y4821D01*
G01X24960Y4829D01*
G01X25008Y4838D01*
G01X25056Y4849D01*
G01X25103Y4863D01*
G01X25150Y4878D01*
G01X25196Y4895D01*
G01X25241Y4915D01*
G01X25285Y4936D01*
G01X25329Y4959D01*
G01X25371Y4984D01*
G01X25412Y5010D01*
G01X25452Y5039D01*
G01X25491Y5069D01*
G01X25529Y5100D01*
G01X25565Y5134D01*
G01X25599Y5168D01*
G01X25633Y5204D01*
G01X25664Y5242D01*
G01X25694Y5281D01*
G01X25723Y5321D01*
G01X25749Y5362D01*
G01X25774Y5404D01*
G01X25797Y5448D01*
G01X25818Y5492D01*
G01X25838Y5537D01*
G01X25855Y5583D01*
G01X25870Y5630D01*
G01X25884Y5677D01*
G01X25895Y5725D01*
G01X25904Y5773D01*
G01X25912Y5822D01*
G01X25917Y5870D01*
G01X25920Y5919D01*
G01X25921Y5969D01*
G01X25920Y6018D01*
G01X25917Y6067D01*
G01X25912Y6115D01*
G01X25904Y6164D01*
G01X25895Y6212D01*
G01X25884Y6260D01*
G01X25870Y6307D01*
G01X25855Y6354D01*
G01X25838Y6400D01*
G01X25818Y6445D01*
G01X25797Y6489D01*
G01X25774Y6533D01*
G01X25749Y6575D01*
G01X25723Y6616D01*
G01X25694Y6656D01*
G01X25664Y6695D01*
G01X25633Y6733D01*
G01X25599Y6769D01*
G01X25565Y6803D01*
G01X25529Y6837D01*
G01X25491Y6868D01*
G01X25452Y6898D01*
G01X25412Y6927D01*
G01X25371Y6953D01*
G01X25329Y6978D01*
G01X25285Y7001D01*
G01X25241Y7022D01*
G01X25196Y7042D01*
G01X25150Y7059D01*
G01X25103Y7074D01*
G01X25056Y7088D01*
G01X25008Y7099D01*
G01X24960Y7108D01*
G01X24911Y7116D01*
G01X24863Y7121D01*
G01X24814Y7124D01*
G37*
G36*
G01X13726Y3315D02*
G01X11927Y3315D01*
G01X11903Y3314D01*
G01X11879Y3311D01*
G01X11856Y3305D01*
G01X11834Y3298D01*
G01X11812Y3288D01*
G01X11791Y3277D01*
G01X11772Y3263D01*
G01X11754Y3248D01*
G01X11737Y3231D01*
G01X11722Y3213D01*
G01X11708Y3194D01*
G01X11697Y3173D01*
G01X11687Y3151D01*
G01X11680Y3129D01*
G01X11674Y3106D01*
G01X11671Y3082D01*
G01X11670Y3058D01*
G01X11670Y1259D01*
G01X11671Y1235D01*
G01X11674Y1211D01*
G01X11680Y1188D01*
G01X11687Y1166D01*
G01X11697Y1144D01*
G01X11708Y1123D01*
G01X11722Y1104D01*
G01X11737Y1086D01*
G01X11754Y1069D01*
G01X11772Y1054D01*
G01X11791Y1040D01*
G01X11812Y1029D01*
G01X11834Y1019D01*
G01X11856Y1012D01*
G01X11879Y1006D01*
G01X11903Y1003D01*
G01X11927Y1002D01*
G01X13726Y1002D01*
G01X13750Y1003D01*
G01X13774Y1006D01*
G01X13797Y1012D01*
G01X13819Y1019D01*
G01X13841Y1029D01*
G01X13862Y1040D01*
G01X13881Y1054D01*
G01X13899Y1069D01*
G01X13916Y1086D01*
G01X13931Y1104D01*
G01X13945Y1123D01*
G01X13956Y1144D01*
G01X13966Y1166D01*
G01X13973Y1188D01*
G01X13979Y1211D01*
G01X13982Y1235D01*
G01X13983Y1259D01*
G01X13983Y3058D01*
G01X13982Y3082D01*
G01X13979Y3106D01*
G01X13973Y3129D01*
G01X13966Y3151D01*
G01X13956Y3173D01*
G01X13945Y3194D01*
G01X13931Y3213D01*
G01X13916Y3231D01*
G01X13899Y3248D01*
G01X13881Y3263D01*
G01X13862Y3277D01*
G01X13841Y3288D01*
G01X13819Y3298D01*
G01X13797Y3305D01*
G01X13774Y3311D01*
G01X13750Y3314D01*
G01X13726Y3315D01*
G37*
G36*
G01X24814Y22364D02*
G01X24765Y22365D01*
G01X24715Y22364D01*
G01X24666Y22361D01*
G01X24618Y22356D01*
G01X24569Y22348D01*
G01X24521Y22339D01*
G01X24473Y22328D01*
G01X24426Y22314D01*
G01X24379Y22299D01*
G01X24333Y22282D01*
G01X24288Y22262D01*
G01X24244Y22241D01*
G01X24200Y22218D01*
G01X24158Y22193D01*
G01X24117Y22167D01*
G01X24077Y22138D01*
G01X24038Y22108D01*
G01X24000Y22077D01*
G01X23964Y22043D01*
G01X23930Y22009D01*
G01X23896Y21973D01*
G01X23865Y21935D01*
G01X23835Y21896D01*
G01X23806Y21856D01*
G01X23780Y21815D01*
G01X23755Y21773D01*
G01X23732Y21729D01*
G01X23711Y21685D01*
G01X23691Y21640D01*
G01X23674Y21594D01*
G01X23659Y21547D01*
G01X23645Y21500D01*
G01X23634Y21452D01*
G01X23625Y21404D01*
G01X23617Y21355D01*
G01X23612Y21307D01*
G01X23609Y21258D01*
G01X23608Y21209D01*
G01X23609Y21159D01*
G01X23612Y21110D01*
G01X23617Y21062D01*
G01X23625Y21013D01*
G01X23634Y20965D01*
G01X23645Y20917D01*
G01X23659Y20870D01*
G01X23674Y20823D01*
G01X23691Y20777D01*
G01X23711Y20732D01*
G01X23732Y20688D01*
G01X23755Y20644D01*
G01X23780Y20602D01*
G01X23806Y20561D01*
G01X23835Y20521D01*
G01X23865Y20482D01*
G01X23896Y20444D01*
G01X23930Y20408D01*
G01X23964Y20374D01*
G01X24000Y20340D01*
G01X24038Y20309D01*
G01X24077Y20279D01*
G01X24117Y20250D01*
G01X24158Y20224D01*
G01X24200Y20199D01*
G01X24244Y20176D01*
G01X24288Y20155D01*
G01X24333Y20135D01*
G01X24379Y20118D01*
G01X24426Y20103D01*
G01X24473Y20089D01*
G01X24521Y20078D01*
G01X24569Y20069D01*
G01X24618Y20061D01*
G01X24666Y20056D01*
G01X24715Y20053D01*
G01X24765Y20052D01*
G01X24814Y20053D01*
G01X24863Y20056D01*
G01X24911Y20061D01*
G01X24960Y20069D01*
G01X25008Y20078D01*
G01X25056Y20089D01*
G01X25103Y20103D01*
G01X25150Y20118D01*
G01X25196Y20135D01*
G01X25241Y20155D01*
G01X25285Y20176D01*
G01X25329Y20199D01*
G01X25371Y20224D01*
G01X25412Y20250D01*
G01X25452Y20279D01*
G01X25491Y20309D01*
G01X25529Y20340D01*
G01X25565Y20374D01*
G01X25599Y20408D01*
G01X25633Y20444D01*
G01X25664Y20482D01*
G01X25694Y20521D01*
G01X25723Y20561D01*
G01X25749Y20602D01*
G01X25774Y20644D01*
G01X25797Y20688D01*
G01X25818Y20732D01*
G01X25838Y20777D01*
G01X25855Y20823D01*
G01X25870Y20870D01*
G01X25884Y20917D01*
G01X25895Y20965D01*
G01X25904Y21013D01*
G01X25912Y21062D01*
G01X25917Y21110D01*
G01X25920Y21159D01*
G01X25921Y21209D01*
G01X25920Y21258D01*
G01X25917Y21307D01*
G01X25912Y21355D01*
G01X25904Y21404D01*
G01X25895Y21452D01*
G01X25884Y21500D01*
G01X25870Y21547D01*
G01X25855Y21594D01*
G01X25838Y21640D01*
G01X25818Y21685D01*
G01X25797Y21729D01*
G01X25774Y21773D01*
G01X25749Y21815D01*
G01X25723Y21856D01*
G01X25694Y21896D01*
G01X25664Y21935D01*
G01X25633Y21973D01*
G01X25599Y22009D01*
G01X25565Y22043D01*
G01X25529Y22077D01*
G01X25491Y22108D01*
G01X25452Y22138D01*
G01X25412Y22167D01*
G01X25371Y22193D01*
G01X25329Y22218D01*
G01X25285Y22241D01*
G01X25241Y22262D01*
G01X25196Y22282D01*
G01X25150Y22299D01*
G01X25103Y22314D01*
G01X25056Y22328D01*
G01X25008Y22339D01*
G01X24960Y22348D01*
G01X24911Y22356D01*
G01X24863Y22361D01*
G01X24814Y22364D01*
G37*
G36*
G01X24814Y17284D02*
G01X24765Y17285D01*
G01X24715Y17284D01*
G01X24666Y17281D01*
G01X24618Y17276D01*
G01X24569Y17268D01*
G01X24521Y17259D01*
G01X24473Y17248D01*
G01X24426Y17234D01*
G01X24379Y17219D01*
G01X24333Y17202D01*
G01X24288Y17182D01*
G01X24244Y17161D01*
G01X24200Y17138D01*
G01X24158Y17113D01*
G01X24117Y17087D01*
G01X24077Y17058D01*
G01X24038Y17028D01*
G01X24000Y16997D01*
G01X23964Y16963D01*
G01X23930Y16929D01*
G01X23896Y16893D01*
G01X23865Y16855D01*
G01X23835Y16816D01*
G01X23806Y16776D01*
G01X23780Y16735D01*
G01X23755Y16693D01*
G01X23732Y16649D01*
G01X23711Y16605D01*
G01X23691Y16560D01*
G01X23674Y16514D01*
G01X23659Y16467D01*
G01X23645Y16420D01*
G01X23634Y16372D01*
G01X23625Y16324D01*
G01X23617Y16275D01*
G01X23612Y16227D01*
G01X23609Y16178D01*
G01X23608Y16129D01*
G01X23609Y16079D01*
G01X23612Y16030D01*
G01X23617Y15982D01*
G01X23625Y15933D01*
G01X23634Y15885D01*
G01X23645Y15837D01*
G01X23659Y15790D01*
G01X23674Y15743D01*
G01X23691Y15697D01*
G01X23711Y15652D01*
G01X23732Y15608D01*
G01X23755Y15564D01*
G01X23780Y15522D01*
G01X23806Y15481D01*
G01X23835Y15441D01*
G01X23865Y15402D01*
G01X23896Y15364D01*
G01X23930Y15328D01*
G01X23964Y15294D01*
G01X24000Y15260D01*
G01X24038Y15229D01*
G01X24077Y15199D01*
G01X24117Y15170D01*
G01X24158Y15144D01*
G01X24200Y15119D01*
G01X24244Y15096D01*
G01X24288Y15075D01*
G01X24333Y15055D01*
G01X24379Y15038D01*
G01X24426Y15023D01*
G01X24473Y15009D01*
G01X24521Y14998D01*
G01X24569Y14989D01*
G01X24618Y14981D01*
G01X24666Y14976D01*
G01X24715Y14973D01*
G01X24765Y14972D01*
G01X24814Y14973D01*
G01X24863Y14976D01*
G01X24911Y14981D01*
G01X24960Y14989D01*
G01X25008Y14998D01*
G01X25056Y15009D01*
G01X25103Y15023D01*
G01X25150Y15038D01*
G01X25196Y15055D01*
G01X25241Y15075D01*
G01X25285Y15096D01*
G01X25329Y15119D01*
G01X25371Y15144D01*
G01X25412Y15170D01*
G01X25452Y15199D01*
G01X25491Y15229D01*
G01X25529Y15260D01*
G01X25565Y15294D01*
G01X25599Y15328D01*
G01X25633Y15364D01*
G01X25664Y15402D01*
G01X25694Y15441D01*
G01X25723Y15481D01*
G01X25749Y15522D01*
G01X25774Y15564D01*
G01X25797Y15608D01*
G01X25818Y15652D01*
G01X25838Y15697D01*
G01X25855Y15743D01*
G01X25870Y15790D01*
G01X25884Y15837D01*
G01X25895Y15885D01*
G01X25904Y15933D01*
G01X25912Y15982D01*
G01X25917Y16030D01*
G01X25920Y16079D01*
G01X25921Y16129D01*
G01X25920Y16178D01*
G01X25917Y16227D01*
G01X25912Y16275D01*
G01X25904Y16324D01*
G01X25895Y16372D01*
G01X25884Y16420D01*
G01X25870Y16467D01*
G01X25855Y16514D01*
G01X25838Y16560D01*
G01X25818Y16605D01*
G01X25797Y16649D01*
G01X25774Y16693D01*
G01X25749Y16735D01*
G01X25723Y16776D01*
G01X25694Y16816D01*
G01X25664Y16855D01*
G01X25633Y16893D01*
G01X25599Y16929D01*
G01X25565Y16963D01*
G01X25529Y16997D01*
G01X25491Y17028D01*
G01X25452Y17058D01*
G01X25412Y17087D01*
G01X25371Y17113D01*
G01X25329Y17138D01*
G01X25285Y17161D01*
G01X25241Y17182D01*
G01X25196Y17202D01*
G01X25150Y17219D01*
G01X25103Y17234D01*
G01X25056Y17248D01*
G01X25008Y17259D01*
G01X24960Y17268D01*
G01X24911Y17276D01*
G01X24863Y17281D01*
G01X24814Y17284D01*
G37*
G36*
G01X7796Y3314D02*
G01X7747Y3315D01*
G01X7697Y3314D01*
G01X7648Y3311D01*
G01X7600Y3306D01*
G01X7551Y3298D01*
G01X7503Y3289D01*
G01X7455Y3278D01*
G01X7408Y3264D01*
G01X7361Y3249D01*
G01X7315Y3232D01*
G01X7270Y3212D01*
G01X7226Y3191D01*
G01X7182Y3168D01*
G01X7140Y3143D01*
G01X7099Y3117D01*
G01X7059Y3088D01*
G01X7020Y3058D01*
G01X6982Y3027D01*
G01X6946Y2993D01*
G01X6912Y2959D01*
G01X6878Y2923D01*
G01X6847Y2885D01*
G01X6817Y2846D01*
G01X6788Y2806D01*
G01X6762Y2765D01*
G01X6737Y2723D01*
G01X6714Y2679D01*
G01X6693Y2635D01*
G01X6673Y2590D01*
G01X6656Y2544D01*
G01X6641Y2497D01*
G01X6627Y2450D01*
G01X6616Y2402D01*
G01X6607Y2354D01*
G01X6599Y2305D01*
G01X6594Y2257D01*
G01X6591Y2208D01*
G01X6590Y2159D01*
G01X6591Y2109D01*
G01X6594Y2060D01*
G01X6599Y2012D01*
G01X6607Y1963D01*
G01X6616Y1915D01*
G01X6627Y1867D01*
G01X6641Y1820D01*
G01X6656Y1773D01*
G01X6673Y1727D01*
G01X6693Y1682D01*
G01X6714Y1638D01*
G01X6737Y1594D01*
G01X6762Y1552D01*
G01X6788Y1511D01*
G01X6817Y1471D01*
G01X6847Y1432D01*
G01X6878Y1394D01*
G01X6912Y1358D01*
G01X6946Y1324D01*
G01X6982Y1290D01*
G01X7020Y1259D01*
G01X7059Y1229D01*
G01X7099Y1200D01*
G01X7140Y1174D01*
G01X7182Y1149D01*
G01X7226Y1126D01*
G01X7270Y1105D01*
G01X7315Y1085D01*
G01X7361Y1068D01*
G01X7408Y1053D01*
G01X7455Y1039D01*
G01X7503Y1028D01*
G01X7551Y1019D01*
G01X7600Y1011D01*
G01X7648Y1006D01*
G01X7697Y1003D01*
G01X7747Y1002D01*
G01X7796Y1003D01*
G01X7845Y1006D01*
G01X7893Y1011D01*
G01X7942Y1019D01*
G01X7990Y1028D01*
G01X8038Y1039D01*
G01X8085Y1053D01*
G01X8132Y1068D01*
G01X8178Y1085D01*
G01X8223Y1105D01*
G01X8267Y1126D01*
G01X8311Y1149D01*
G01X8353Y1174D01*
G01X8394Y1200D01*
G01X8434Y1229D01*
G01X8473Y1259D01*
G01X8511Y1290D01*
G01X8547Y1324D01*
G01X8581Y1358D01*
G01X8615Y1394D01*
G01X8646Y1432D01*
G01X8676Y1471D01*
G01X8705Y1511D01*
G01X8731Y1552D01*
G01X8756Y1594D01*
G01X8779Y1638D01*
G01X8800Y1682D01*
G01X8820Y1727D01*
G01X8837Y1773D01*
G01X8852Y1820D01*
G01X8866Y1867D01*
G01X8877Y1915D01*
G01X8886Y1963D01*
G01X8894Y2012D01*
G01X8899Y2060D01*
G01X8902Y2109D01*
G01X8903Y2159D01*
G01X8902Y2208D01*
G01X8899Y2257D01*
G01X8894Y2305D01*
G01X8886Y2354D01*
G01X8877Y2402D01*
G01X8866Y2450D01*
G01X8852Y2497D01*
G01X8837Y2544D01*
G01X8820Y2590D01*
G01X8800Y2635D01*
G01X8779Y2679D01*
G01X8756Y2723D01*
G01X8731Y2765D01*
G01X8705Y2806D01*
G01X8676Y2846D01*
G01X8646Y2885D01*
G01X8615Y2923D01*
G01X8581Y2959D01*
G01X8547Y2993D01*
G01X8511Y3027D01*
G01X8473Y3058D01*
G01X8434Y3088D01*
G01X8394Y3117D01*
G01X8353Y3143D01*
G01X8311Y3168D01*
G01X8267Y3191D01*
G01X8223Y3212D01*
G01X8178Y3232D01*
G01X8132Y3249D01*
G01X8085Y3264D01*
G01X8038Y3278D01*
G01X7990Y3289D01*
G01X7942Y3298D01*
G01X7893Y3306D01*
G01X7845Y3311D01*
G01X7796Y3314D01*
G37*
G36*
G01X24814Y14744D02*
G01X24765Y14745D01*
G01X24715Y14744D01*
G01X24666Y14741D01*
G01X24618Y14736D01*
G01X24569Y14728D01*
G01X24521Y14719D01*
G01X24473Y14708D01*
G01X24426Y14694D01*
G01X24379Y14679D01*
G01X24333Y14662D01*
G01X24288Y14642D01*
G01X24244Y14621D01*
G01X24200Y14598D01*
G01X24158Y14573D01*
G01X24117Y14547D01*
G01X24077Y14518D01*
G01X24038Y14488D01*
G01X24000Y14457D01*
G01X23964Y14423D01*
G01X23930Y14389D01*
G01X23896Y14353D01*
G01X23865Y14315D01*
G01X23835Y14276D01*
G01X23806Y14236D01*
G01X23780Y14195D01*
G01X23755Y14153D01*
G01X23732Y14109D01*
G01X23711Y14065D01*
G01X23691Y14020D01*
G01X23674Y13974D01*
G01X23659Y13927D01*
G01X23645Y13880D01*
G01X23634Y13832D01*
G01X23625Y13784D01*
G01X23617Y13735D01*
G01X23612Y13687D01*
G01X23609Y13638D01*
G01X23608Y13589D01*
G01X23609Y13539D01*
G01X23612Y13490D01*
G01X23617Y13442D01*
G01X23625Y13393D01*
G01X23634Y13345D01*
G01X23645Y13297D01*
G01X23659Y13250D01*
G01X23674Y13203D01*
G01X23691Y13157D01*
G01X23711Y13112D01*
G01X23732Y13068D01*
G01X23755Y13024D01*
G01X23780Y12982D01*
G01X23806Y12941D01*
G01X23835Y12901D01*
G01X23865Y12862D01*
G01X23896Y12824D01*
G01X23930Y12788D01*
G01X23964Y12754D01*
G01X24000Y12720D01*
G01X24038Y12689D01*
G01X24077Y12659D01*
G01X24117Y12630D01*
G01X24158Y12604D01*
G01X24200Y12579D01*
G01X24244Y12556D01*
G01X24288Y12535D01*
G01X24333Y12515D01*
G01X24379Y12498D01*
G01X24426Y12483D01*
G01X24473Y12469D01*
G01X24521Y12458D01*
G01X24569Y12449D01*
G01X24618Y12441D01*
G01X24666Y12436D01*
G01X24715Y12433D01*
G01X24765Y12432D01*
G01X24814Y12433D01*
G01X24863Y12436D01*
G01X24911Y12441D01*
G01X24960Y12449D01*
G01X25008Y12458D01*
G01X25056Y12469D01*
G01X25103Y12483D01*
G01X25150Y12498D01*
G01X25196Y12515D01*
G01X25241Y12535D01*
G01X25285Y12556D01*
G01X25329Y12579D01*
G01X25371Y12604D01*
G01X25412Y12630D01*
G01X25452Y12659D01*
G01X25491Y12689D01*
G01X25529Y12720D01*
G01X25565Y12754D01*
G01X25599Y12788D01*
G01X25633Y12824D01*
G01X25664Y12862D01*
G01X25694Y12901D01*
G01X25723Y12941D01*
G01X25749Y12982D01*
G01X25774Y13024D01*
G01X25797Y13068D01*
G01X25818Y13112D01*
G01X25838Y13157D01*
G01X25855Y13203D01*
G01X25870Y13250D01*
G01X25884Y13297D01*
G01X25895Y13345D01*
G01X25904Y13393D01*
G01X25912Y13442D01*
G01X25917Y13490D01*
G01X25920Y13539D01*
G01X25921Y13589D01*
G01X25920Y13638D01*
G01X25917Y13687D01*
G01X25912Y13735D01*
G01X25904Y13784D01*
G01X25895Y13832D01*
G01X25884Y13880D01*
G01X25870Y13927D01*
G01X25855Y13974D01*
G01X25838Y14020D01*
G01X25818Y14065D01*
G01X25797Y14109D01*
G01X25774Y14153D01*
G01X25749Y14195D01*
G01X25723Y14236D01*
G01X25694Y14276D01*
G01X25664Y14315D01*
G01X25633Y14353D01*
G01X25599Y14389D01*
G01X25565Y14423D01*
G01X25529Y14457D01*
G01X25491Y14488D01*
G01X25452Y14518D01*
G01X25412Y14547D01*
G01X25371Y14573D01*
G01X25329Y14598D01*
G01X25285Y14621D01*
G01X25241Y14642D01*
G01X25196Y14662D01*
G01X25150Y14679D01*
G01X25103Y14694D01*
G01X25056Y14708D01*
G01X25008Y14719D01*
G01X24960Y14728D01*
G01X24911Y14736D01*
G01X24863Y14741D01*
G01X24814Y14744D01*
G37*
G36*
G01X1954Y14744D02*
G01X1905Y14745D01*
G01X1855Y14744D01*
G01X1806Y14741D01*
G01X1758Y14736D01*
G01X1709Y14728D01*
G01X1661Y14719D01*
G01X1613Y14708D01*
G01X1566Y14694D01*
G01X1519Y14679D01*
G01X1473Y14662D01*
G01X1428Y14642D01*
G01X1384Y14621D01*
G01X1340Y14598D01*
G01X1298Y14573D01*
G01X1257Y14547D01*
G01X1217Y14518D01*
G01X1178Y14488D01*
G01X1140Y14457D01*
G01X1104Y14423D01*
G01X1070Y14389D01*
G01X1036Y14353D01*
G01X1005Y14315D01*
G01X975Y14276D01*
G01X946Y14236D01*
G01X920Y14195D01*
G01X895Y14153D01*
G01X872Y14109D01*
G01X851Y14065D01*
G01X831Y14020D01*
G01X814Y13974D01*
G01X799Y13927D01*
G01X785Y13880D01*
G01X774Y13832D01*
G01X765Y13784D01*
G01X757Y13735D01*
G01X752Y13687D01*
G01X749Y13638D01*
G01X748Y13589D01*
G01X749Y13539D01*
G01X752Y13490D01*
G01X757Y13442D01*
G01X765Y13393D01*
G01X774Y13345D01*
G01X785Y13297D01*
G01X799Y13250D01*
G01X814Y13203D01*
G01X831Y13157D01*
G01X851Y13112D01*
G01X872Y13068D01*
G01X895Y13024D01*
G01X920Y12982D01*
G01X946Y12941D01*
G01X975Y12901D01*
G01X1005Y12862D01*
G01X1036Y12824D01*
G01X1070Y12788D01*
G01X1104Y12754D01*
G01X1140Y12720D01*
G01X1178Y12689D01*
G01X1217Y12659D01*
G01X1257Y12630D01*
G01X1298Y12604D01*
G01X1340Y12579D01*
G01X1384Y12556D01*
G01X1428Y12535D01*
G01X1473Y12515D01*
G01X1519Y12498D01*
G01X1566Y12483D01*
G01X1613Y12469D01*
G01X1661Y12458D01*
G01X1709Y12449D01*
G01X1758Y12441D01*
G01X1806Y12436D01*
G01X1855Y12433D01*
G01X1905Y12432D01*
G01X1954Y12433D01*
G01X2003Y12436D01*
G01X2051Y12441D01*
G01X2100Y12449D01*
G01X2148Y12458D01*
G01X2196Y12469D01*
G01X2243Y12483D01*
G01X2290Y12498D01*
G01X2336Y12515D01*
G01X2381Y12535D01*
G01X2425Y12556D01*
G01X2469Y12579D01*
G01X2511Y12604D01*
G01X2552Y12630D01*
G01X2592Y12659D01*
G01X2631Y12689D01*
G01X2669Y12720D01*
G01X2705Y12754D01*
G01X2739Y12788D01*
G01X2773Y12824D01*
G01X2804Y12862D01*
G01X2834Y12901D01*
G01X2863Y12941D01*
G01X2889Y12982D01*
G01X2914Y13024D01*
G01X2937Y13068D01*
G01X2958Y13112D01*
G01X2978Y13157D01*
G01X2995Y13203D01*
G01X3010Y13250D01*
G01X3024Y13297D01*
G01X3035Y13345D01*
G01X3044Y13393D01*
G01X3052Y13442D01*
G01X3057Y13490D01*
G01X3060Y13539D01*
G01X3061Y13589D01*
G01X3060Y13638D01*
G01X3057Y13687D01*
G01X3052Y13735D01*
G01X3044Y13784D01*
G01X3035Y13832D01*
G01X3024Y13880D01*
G01X3010Y13927D01*
G01X2995Y13974D01*
G01X2978Y14020D01*
G01X2958Y14065D01*
G01X2937Y14109D01*
G01X2914Y14153D01*
G01X2889Y14195D01*
G01X2863Y14236D01*
G01X2834Y14276D01*
G01X2804Y14315D01*
G01X2773Y14353D01*
G01X2739Y14389D01*
G01X2705Y14423D01*
G01X2669Y14457D01*
G01X2631Y14488D01*
G01X2592Y14518D01*
G01X2552Y14547D01*
G01X2511Y14573D01*
G01X2469Y14598D01*
G01X2425Y14621D01*
G01X2381Y14642D01*
G01X2336Y14662D01*
G01X2290Y14679D01*
G01X2243Y14694D01*
G01X2196Y14708D01*
G01X2148Y14719D01*
G01X2100Y14728D01*
G01X2051Y14736D01*
G01X2003Y14741D01*
G01X1954Y14744D01*
G37*
G36*
G01X2804Y7125D02*
G01X1005Y7125D01*
G01X981Y7124D01*
G01X957Y7121D01*
G01X934Y7115D01*
G01X912Y7108D01*
G01X890Y7098D01*
G01X869Y7087D01*
G01X850Y7073D01*
G01X832Y7058D01*
G01X815Y7041D01*
G01X800Y7023D01*
G01X786Y7004D01*
G01X775Y6983D01*
G01X765Y6961D01*
G01X758Y6939D01*
G01X752Y6916D01*
G01X749Y6892D01*
G01X748Y6868D01*
G01X748Y5069D01*
G01X749Y5045D01*
G01X752Y5021D01*
G01X758Y4998D01*
G01X765Y4976D01*
G01X775Y4954D01*
G01X786Y4933D01*
G01X800Y4914D01*
G01X815Y4896D01*
G01X832Y4879D01*
G01X850Y4864D01*
G01X869Y4850D01*
G01X890Y4839D01*
G01X912Y4829D01*
G01X934Y4822D01*
G01X957Y4816D01*
G01X981Y4813D01*
G01X1005Y4812D01*
G01X2804Y4812D01*
G01X2828Y4813D01*
G01X2852Y4816D01*
G01X2875Y4822D01*
G01X2897Y4829D01*
G01X2919Y4839D01*
G01X2940Y4850D01*
G01X2959Y4864D01*
G01X2977Y4879D01*
G01X2994Y4896D01*
G01X3009Y4914D01*
G01X3023Y4933D01*
G01X3034Y4954D01*
G01X3044Y4976D01*
G01X3051Y4998D01*
G01X3057Y5021D01*
G01X3060Y5045D01*
G01X3061Y5069D01*
G01X3061Y6868D01*
G01X3060Y6892D01*
G01X3057Y6916D01*
G01X3051Y6939D01*
G01X3044Y6961D01*
G01X3034Y6983D01*
G01X3023Y7004D01*
G01X3009Y7023D01*
G01X2994Y7041D01*
G01X2977Y7058D01*
G01X2959Y7073D01*
G01X2940Y7087D01*
G01X2919Y7098D01*
G01X2897Y7108D01*
G01X2875Y7115D01*
G01X2852Y7121D01*
G01X2828Y7124D01*
G01X2804Y7125D01*
G37*
G36*
G01X21600Y3315D02*
G01X21214Y3315D01*
G01X21214Y2672D01*
G01X21857Y2672D01*
G01X21857Y3058D01*
G01X21856Y3082D01*
G01X21853Y3106D01*
G01X21847Y3129D01*
G01X21840Y3151D01*
G01X21830Y3173D01*
G01X21819Y3194D01*
G01X21805Y3213D01*
G01X21790Y3231D01*
G01X21773Y3248D01*
G01X21755Y3263D01*
G01X21736Y3277D01*
G01X21715Y3288D01*
G01X21693Y3298D01*
G01X21671Y3305D01*
G01X21648Y3311D01*
G01X21624Y3314D01*
G01X21600Y3315D01*
G37*
G36*
G01X20187Y1645D02*
G01X19544Y1645D01*
G01X19544Y1259D01*
G01X19545Y1235D01*
G01X19548Y1211D01*
G01X19554Y1188D01*
G01X19561Y1166D01*
G01X19571Y1144D01*
G01X19582Y1123D01*
G01X19596Y1104D01*
G01X19611Y1086D01*
G01X19628Y1069D01*
G01X19646Y1054D01*
G01X19665Y1040D01*
G01X19686Y1029D01*
G01X19708Y1019D01*
G01X19730Y1012D01*
G01X19753Y1006D01*
G01X19777Y1003D01*
G01X19801Y1002D01*
G01X20187Y1002D01*
G01X20187Y1645D01*
G37*
G36*
G01X21857Y1645D02*
G01X21214Y1645D01*
G01X21214Y1002D01*
G01X21600Y1002D01*
G01X21624Y1003D01*
G01X21648Y1006D01*
G01X21671Y1012D01*
G01X21693Y1019D01*
G01X21715Y1029D01*
G01X21736Y1040D01*
G01X21755Y1054D01*
G01X21773Y1069D01*
G01X21790Y1086D01*
G01X21805Y1104D01*
G01X21819Y1123D01*
G01X21830Y1144D01*
G01X21840Y1166D01*
G01X21847Y1188D01*
G01X21853Y1211D01*
G01X21856Y1235D01*
G01X21857Y1259D01*
G01X21857Y1645D01*
G37*
G36*
G01X23436Y5365D02*
G01X22943Y5365D01*
G01X22943Y4632D01*
G01X23180Y4632D01*
G01X23203Y4634D01*
G01X23227Y4637D01*
G01X23250Y4642D01*
G01X23272Y4650D01*
G01X23294Y4659D01*
G01X23315Y4671D01*
G01X23334Y4684D01*
G01X23352Y4699D01*
G01X23369Y4716D01*
G01X23384Y4734D01*
G01X23398Y4754D01*
G01X23409Y4775D01*
G01X23419Y4796D01*
G01X23426Y4819D01*
G01X23432Y4842D01*
G01X23435Y4865D01*
G01X23436Y4889D01*
G01X23436Y5365D01*
G37*
G36*
G01X22217Y5365D02*
G01X21724Y5365D01*
G01X21724Y4889D01*
G01X21725Y4865D01*
G01X21728Y4842D01*
G01X21734Y4819D01*
G01X21741Y4796D01*
G01X21751Y4775D01*
G01X21763Y4754D01*
G01X21776Y4734D01*
G01X21791Y4716D01*
G01X21808Y4699D01*
G01X21826Y4684D01*
G01X21846Y4671D01*
G01X21866Y4659D01*
G01X21888Y4650D01*
G01X21910Y4642D01*
G01X21934Y4637D01*
G01X21957Y4634D01*
G01X21981Y4632D01*
G01X22217Y4632D01*
G01X22217Y5365D01*
G37*
G36*
G01X23180Y7305D02*
G01X22943Y7305D01*
G01X22943Y6572D01*
G01X23436Y6572D01*
G01X23436Y7048D01*
G01X23435Y7072D01*
G01X23432Y7095D01*
G01X23426Y7118D01*
G01X23419Y7141D01*
G01X23409Y7162D01*
G01X23398Y7183D01*
G01X23384Y7203D01*
G01X23369Y7221D01*
G01X23352Y7238D01*
G01X23334Y7253D01*
G01X23315Y7266D01*
G01X23294Y7278D01*
G01X23272Y7287D01*
G01X23250Y7295D01*
G01X23227Y7300D01*
G01X23203Y7303D01*
G01X23180Y7305D01*
G37*
G36*
G01X22217Y7305D02*
G01X21981Y7305D01*
G01X21957Y7303D01*
G01X21934Y7300D01*
G01X21910Y7295D01*
G01X21888Y7287D01*
G01X21866Y7278D01*
G01X21846Y7266D01*
G01X21826Y7253D01*
G01X21808Y7238D01*
G01X21791Y7221D01*
G01X21776Y7203D01*
G01X21763Y7183D01*
G01X21751Y7162D01*
G01X21741Y7141D01*
G01X21734Y7118D01*
G01X21728Y7095D01*
G01X21725Y7072D01*
G01X21724Y7048D01*
G01X21724Y6572D01*
G01X22217Y6572D01*
G01X22217Y7305D01*
G37*
G36*
G01X4321Y27039D02*
G01X4281Y27060D01*
G01X4281Y26404D01*
G01X4784Y26404D01*
G01X4775Y26448D01*
G01X4763Y26492D01*
G01X4750Y26535D01*
G01X4734Y26577D01*
G01X4716Y26619D01*
G01X4696Y26659D01*
G01X4675Y26699D01*
G01X4651Y26737D01*
G01X4625Y26774D01*
G01X4598Y26810D01*
G01X4568Y26845D01*
G01X4537Y26878D01*
G01X4505Y26909D01*
G01X4471Y26939D01*
G01X4399Y26993D01*
G01X4361Y27017D01*
G01X4321Y27039D01*
G37*
G36*
G01X11521Y27039D02*
G01X11481Y27060D01*
G01X11481Y26404D01*
G01X11984Y26404D01*
G01X11975Y26448D01*
G01X11963Y26492D01*
G01X11950Y26535D01*
G01X11934Y26577D01*
G01X11916Y26619D01*
G01X11896Y26659D01*
G01X11875Y26699D01*
G01X11851Y26737D01*
G01X11825Y26774D01*
G01X11798Y26810D01*
G01X11768Y26845D01*
G01X11737Y26878D01*
G01X11705Y26909D01*
G01X11671Y26939D01*
G01X11599Y26993D01*
G01X11560Y27017D01*
G01X11521Y27039D01*
G37*
G36*
G01X11984Y25178D02*
G01X11481Y25178D01*
G01X11481Y24522D01*
G01X11521Y24543D01*
G01X11560Y24565D01*
G01X11599Y24589D01*
G01X11635Y24615D01*
G01X11671Y24643D01*
G01X11705Y24673D01*
G01X11737Y24704D01*
G01X11768Y24737D01*
G01X11798Y24772D01*
G01X11825Y24807D01*
G01X11851Y24845D01*
G01X11875Y24883D01*
G01X11896Y24922D01*
G01X11916Y24963D01*
G01X11934Y25004D01*
G01X11950Y25047D01*
G01X11963Y25090D01*
G01X11975Y25133D01*
G01X11984Y25178D01*
G37*
G36*
G01X10704Y25178D02*
G01X10201Y25178D01*
G01X10210Y25133D01*
G01X10222Y25090D01*
G01X10235Y25047D01*
G01X10251Y25004D01*
G01X10269Y24963D01*
G01X10289Y24922D01*
G01X10310Y24883D01*
G01X10334Y24845D01*
G01X10360Y24807D01*
G01X10387Y24772D01*
G01X10417Y24737D01*
G01X10448Y24704D01*
G01X10480Y24673D01*
G01X10514Y24643D01*
G01X10550Y24615D01*
G01X10586Y24589D01*
G01X10624Y24565D01*
G01X10664Y24543D01*
G01X10704Y24522D01*
G01X10704Y25178D01*
G37*
G36*
G01X10704Y26404D02*
G01X10704Y27060D01*
G01X10664Y27039D01*
G01X10624Y27017D01*
G01X10586Y26993D01*
G01X10514Y26939D01*
G01X10480Y26909D01*
G01X10448Y26878D01*
G01X10417Y26845D01*
G01X10387Y26810D01*
G01X10360Y26774D01*
G01X10334Y26737D01*
G01X10310Y26699D01*
G01X10289Y26659D01*
G01X10269Y26619D01*
G01X10251Y26577D01*
G01X10235Y26535D01*
G01X10222Y26492D01*
G01X10210Y26448D01*
G01X10201Y26404D01*
G01X10704Y26404D01*
G37*
G36*
G01X3504Y25178D02*
G01X3001Y25178D01*
G01X3010Y25133D01*
G01X3022Y25090D01*
G01X3035Y25047D01*
G01X3051Y25004D01*
G01X3069Y24963D01*
G01X3089Y24922D01*
G01X3110Y24883D01*
G01X3134Y24845D01*
G01X3160Y24807D01*
G01X3187Y24772D01*
G01X3217Y24737D01*
G01X3248Y24704D01*
G01X3280Y24673D01*
G01X3314Y24643D01*
G01X3350Y24615D01*
G01X3386Y24589D01*
G01X3425Y24565D01*
G01X3464Y24543D01*
G01X3504Y24522D01*
G01X3504Y25178D01*
G37*
G36*
G01X3504Y26404D02*
G01X3504Y27060D01*
G01X3464Y27039D01*
G01X3425Y27017D01*
G01X3386Y26993D01*
G01X3314Y26939D01*
G01X3280Y26909D01*
G01X3248Y26878D01*
G01X3217Y26845D01*
G01X3187Y26810D01*
G01X3160Y26774D01*
G01X3134Y26737D01*
G01X3110Y26699D01*
G01X3089Y26659D01*
G01X3069Y26619D01*
G01X3051Y26577D01*
G01X3035Y26535D01*
G01X3022Y26492D01*
G01X3010Y26448D01*
G01X3001Y26404D01*
G01X3504Y26404D01*
G37*
G36*
G01X4784Y25178D02*
G01X4281Y25178D01*
G01X4281Y24522D01*
G01X4321Y24543D01*
G01X4361Y24565D01*
G01X4399Y24589D01*
G01X4435Y24615D01*
G01X4471Y24643D01*
G01X4505Y24673D01*
G01X4537Y24704D01*
G01X4568Y24737D01*
G01X4598Y24772D01*
G01X4625Y24807D01*
G01X4651Y24845D01*
G01X4675Y24883D01*
G01X4696Y24922D01*
G01X4716Y24963D01*
G01X4734Y25004D01*
G01X4750Y25047D01*
G01X4763Y25090D01*
G01X4775Y25133D01*
G01X4784Y25178D01*
G37*
G36*
G01X5477Y23769D02*
G01X5438Y23788D01*
G01X5438Y23367D01*
G01X5859Y23367D01*
G01X5840Y23406D01*
G01X5818Y23443D01*
G01X5795Y23480D01*
G01X5770Y23516D01*
G01X5743Y23550D01*
G01X5715Y23583D01*
G01X5685Y23614D01*
G01X5654Y23644D01*
G01X5621Y23672D01*
G01X5587Y23699D01*
G01X5551Y23724D01*
G01X5514Y23747D01*
G01X5477Y23769D01*
G37*
G36*
G01X5859Y22615D02*
G01X5438Y22615D01*
G01X5438Y22193D01*
G01X5477Y22213D01*
G01X5514Y22234D01*
G01X5551Y22258D01*
G01X5587Y22282D01*
G01X5621Y22309D01*
G01X5654Y22338D01*
G01X5685Y22367D01*
G01X5715Y22399D01*
G01X5743Y22432D01*
G01X5770Y22466D01*
G01X5795Y22502D01*
G01X5818Y22538D01*
G01X5840Y22576D01*
G01X5859Y22615D01*
G37*
G36*
G01X10318Y23769D02*
G01X10279Y23788D01*
G01X10279Y23367D01*
G01X10700Y23367D01*
G01X10681Y23406D01*
G01X10659Y23443D01*
G01X10636Y23480D01*
G01X10611Y23516D01*
G01X10585Y23550D01*
G01X10556Y23583D01*
G01X10526Y23614D01*
G01X10495Y23644D01*
G01X10462Y23672D01*
G01X10428Y23699D01*
G01X10392Y23724D01*
G01X10356Y23747D01*
G01X10318Y23769D01*
G37*
G36*
G01X9527Y22615D02*
G01X9106Y22615D01*
G01X9125Y22576D01*
G01X9146Y22538D01*
G01X9170Y22502D01*
G01X9195Y22466D01*
G01X9221Y22432D01*
G01X9250Y22399D01*
G01X9280Y22367D01*
G01X9311Y22338D01*
G01X9344Y22309D01*
G01X9378Y22282D01*
G01X9450Y22234D01*
G01X9488Y22213D01*
G01X9527Y22193D01*
G01X9527Y22615D01*
G37*
G36*
G01X9527Y23367D02*
G01X9527Y23788D01*
G01X9488Y23769D01*
G01X9450Y23747D01*
G01X9414Y23724D01*
G01X9378Y23699D01*
G01X9344Y23672D01*
G01X9311Y23644D01*
G01X9280Y23614D01*
G01X9250Y23583D01*
G01X9221Y23550D01*
G01X9195Y23516D01*
G01X9170Y23480D01*
G01X9146Y23443D01*
G01X9125Y23406D01*
G01X9106Y23367D01*
G01X9527Y23367D01*
G37*
G36*
G01X10700Y22615D02*
G01X10279Y22615D01*
G01X10279Y22193D01*
G01X10318Y22213D01*
G01X10356Y22234D01*
G01X10428Y22282D01*
G01X10462Y22309D01*
G01X10495Y22338D01*
G01X10526Y22367D01*
G01X10556Y22399D01*
G01X10585Y22432D01*
G01X10611Y22466D01*
G01X10636Y22502D01*
G01X10659Y22538D01*
G01X10681Y22576D01*
G01X10700Y22615D01*
G37*
G36*
G01X4686Y22615D02*
G01X4264Y22615D01*
G01X4284Y22576D01*
G01X4305Y22538D01*
G01X4328Y22502D01*
G01X4353Y22466D01*
G01X4380Y22432D01*
G01X4408Y22399D01*
G01X4438Y22367D01*
G01X4470Y22338D01*
G01X4503Y22309D01*
G01X4537Y22282D01*
G01X4572Y22258D01*
G01X4609Y22234D01*
G01X4647Y22213D01*
G01X4686Y22193D01*
G01X4686Y22615D01*
G37*
G36*
G01X4686Y23367D02*
G01X4686Y23788D01*
G01X4647Y23769D01*
G01X4609Y23747D01*
G01X4572Y23724D01*
G01X4537Y23699D01*
G01X4503Y23672D01*
G01X4470Y23644D01*
G01X4438Y23614D01*
G01X4408Y23583D01*
G01X4380Y23550D01*
G01X4353Y23516D01*
G01X4328Y23480D01*
G01X4305Y23443D01*
G01X4284Y23406D01*
G01X4264Y23367D01*
G01X4686Y23367D01*
G37*

%LPD*%
G54D10*
G01X1905Y8509D02*
G01X1905Y9271D01*
G01X3683Y11049D01*
G01X6604Y11049D01*
G01X9398Y8255D01*
G01X9398Y6731D01*
G01X10033Y6096D01*
G01X10414Y6096D01*
G01X18161Y12827D02*
G01X15113Y15875D01*
G01X9525Y15875D01*
G01X8128Y17018D01*
G01X8128Y20066D01*
G01X7747Y20447D01*
G01X2667Y20447D01*
G01X1905Y21209D01*
G54D11*
G01X1905Y23749D02*
G01X1905Y23495D01*
G01X4353Y21046D01*
G01X8793Y21046D01*
G01X8793Y21046D02*
G01X8793Y17495D01*
G01X9398Y16891D01*
G54D10*
G01X22225Y24892D02*
G01X22098Y24892D01*
G01X22098Y11557D01*
G01X23114Y10541D01*
G01X24765Y10541D01*
G01X24765Y11049D01*
G01X18669Y24511D02*
G01X20193Y24511D01*
G01X21590Y23114D01*
G01X21590Y10795D01*
G01X23876Y8509D01*
G01X24765Y8509D01*
G01X9398Y16891D02*
G01X13970Y16891D01*
G01X15240Y18161D01*
G01X15240Y19812D01*
G01X16002Y20574D01*
G54D11*
G01X18161Y2159D02*
G01X20599Y4597D01*
G01X20599Y5969D01*
G54D10*
G01X1905Y18161D02*
G01X1905Y18669D01*
G01X3429Y9906D02*
G01X9271Y4064D01*
G01X14224Y4064D01*
G01X15621Y2667D01*
G01X15621Y2159D01*
G01X1905Y11049D02*
G01X1905Y11557D01*
G01X6731Y11557D01*
G01X10414Y7874D01*
G01X10414Y7493D01*
G01X1905Y18669D02*
G01X9271Y11303D01*
G01X10414Y11303D01*
G01X1905Y16129D02*
G01X3810Y16129D01*
G01X9906Y10033D01*
G01X10414Y10033D01*
G54D11*
G01X14859Y20574D02*
G01X13809Y19524D01*
G01X13211Y19524D01*
G54D10*
G01X22987Y18288D02*
G01X22733Y18034D01*
G01X22733Y11938D01*
G54D26*
G01X4416Y19425D02*
G01X4757Y19425D01*
G01X4791Y19119D01*
G01X4757Y19153D01*
G01X4655Y19187D01*
G01X4553Y19187D01*
G01X4450Y19153D01*
G01X4382Y19084D01*
G01X4348Y18982D01*
G01X4348Y18914D01*
G01X4382Y18812D01*
G01X4450Y18744D01*
G01X4553Y18709D01*
G01X4655Y18709D01*
G01X4757Y18744D01*
G01X4791Y18778D01*
G01X4826Y18846D01*
G01X4123Y19425D02*
G01X3850Y18709D01*
G01X3578Y19425D02*
G01X3850Y18709D01*
G54D21*
G01X9903Y22991D03*
G01X5062Y22991D03*
G54D22*
G01X22580Y5969D03*
G01X20599Y5969D03*
G54D23*
G01X15621Y2159D03*
G01X18161Y2159D03*
G54D24*
G01X20701Y2159D03*
G01X24765Y23749D03*
G54D23*
G01X24765Y21209D03*
G01X24765Y18669D03*
G01X24765Y16129D03*
G01X24765Y13589D03*
G01X24765Y11049D03*
G01X24765Y8509D03*
G01X24765Y5969D03*
G54D24*
G01X1905Y5969D03*
G54D23*
G01X1905Y8509D03*
G01X1905Y11049D03*
G01X1905Y13589D03*
G01X1905Y16129D03*
G01X1905Y18669D03*
G01X1905Y21209D03*
G01X1905Y23749D03*
G01X5207Y2159D03*
G01X7747Y2159D03*
G01X10287Y2159D03*
G54D24*
G01X12827Y2159D03*
G54D12*
G01X8792Y21046D03*
G01X18161Y12827D03*
G01X16002Y20574D03*
G01X14859Y20574D03*
G01X9398Y16891D03*
G01X10414Y8890D03*
G01X22225Y24892D03*
G01X18669Y24511D03*
G01X22733Y11938D03*
G01X3429Y9906D03*
G01X10414Y7493D03*
G01X10414Y6096D03*
G01X10414Y10033D03*
G01X10414Y11303D03*
G01X22987Y18288D03*
G54D25*
G01X3893Y25341D02*
G01X3893Y26241D01*
G01X11092Y25341D02*
G01X11092Y26241D01*
M00*
M02*
