;Layer: Drill PTH
;EasyEDA v6.4.7, 2020-11-10T21:56:29+01:00
;d56d7f5836d14aafa71abd029e92fcd7,d798ca008b2c48fc9d28453cf4f639a5,10
;Gerber Generator version 0.2
M48
METRIC,LZ,000.000
;Holesize 1 = 0.305 METRIC
T01C0.305
;Holesize 2 = 0.306 METRIC
T02C0.306
;Holesize 3 = 0.701 METRIC
T03C0.701
;Holesize 4 = 0.798 METRIC
T04C0.798
;Holesize 5 = 1.101 METRIC
T05C1.101
;Holesize 6 = 1.200 METRIC
T06C1.200
%
G05
G90
T01
X+018161Y+012827
X+009398Y+016891
X+010414Y+008890
X+022225Y+024892
X+018669Y+024511
X+022733Y+011938
X+003429Y+009906
X+010414Y+007493
X+010414Y+006096
X+010414Y+010033
X+010414Y+011303
X+022987Y+018288
T02
X+008792Y+021046
X+016002Y+020574
X+014859Y+020574
T03
X+003893Y+026191G85X+003893Y+025391
X+011092Y+026191G85X+011092Y+025391
X+009903Y+022991
X+005062Y+022991
T04
X+022580Y+005969
X+020599Y+005969
T05
X+015621Y+002159
X+018161Y+002159
X+020701Y+002159
X+005207Y+002159
X+007747Y+002159
X+010287Y+002159
X+012827Y+002159
T06
X+024765Y+023749
X+024765Y+021209
X+024765Y+018669
X+024765Y+016129
X+024765Y+013589
X+024765Y+011049
X+024765Y+008509
X+024765Y+005969
X+001905Y+005969
X+001905Y+008509
X+001905Y+011049
X+001905Y+013589
X+001905Y+016129
X+001905Y+018669
X+001905Y+021209
X+001905Y+023749
M30
